G04*
G04 #@! TF.GenerationSoftware,Altium Limited,Altium Designer,22.10.1 (41)*
G04*
G04 Layer_Color=32768*
%FSLAX25Y25*%
%MOIN*%
G70*
G04*
G04 #@! TF.SameCoordinates,670181CE-59D6-4C69-B2BD-6FF3612FFA8D*
G04*
G04*
G04 #@! TF.FilePolarity,Positive*
G04*
G01*
G75*
%ADD31C,0.00394*%
%ADD32C,0.00197*%
G36*
X13777Y33776D02*
X23226D01*
Y43224D01*
X13777D01*
Y33776D01*
D02*
G37*
D31*
X6283Y68000D02*
X10220D01*
X8252Y66031D02*
Y69968D01*
X7500Y42032D02*
Y45969D01*
X5531Y44000D02*
X9468D01*
D32*
X26665Y13401D02*
Y23638D01*
Y13401D02*
X29028D01*
Y11039D02*
Y13401D01*
Y11039D02*
X45169D01*
Y65961D01*
X29028D02*
X45169D01*
X29028Y63598D02*
Y65961D01*
X26665Y63598D02*
X29028D01*
X26665Y53362D02*
Y63598D01*
X20366Y53362D02*
X26665D01*
X20366Y23638D02*
Y53362D01*
Y23638D02*
X26665D01*
X13567Y64654D02*
Y71346D01*
X2937Y64654D02*
Y71346D01*
Y64654D02*
X13567D01*
X2937Y71346D02*
X13567D01*
X4154Y38685D02*
X10846D01*
X4154Y49315D02*
X10846D01*
X4154Y38685D02*
Y49315D01*
X10846Y38685D02*
Y49315D01*
M02*
