G04*
G04 #@! TF.GenerationSoftware,Altium Limited,Altium Designer,22.10.1 (41)*
G04*
G04 Layer_Color=16711935*
%FSLAX25Y25*%
%MOIN*%
G70*
G04*
G04 #@! TF.SameCoordinates,23AF886C-BD8D-4168-B63B-0B8C2EF42FA2*
G04*
G04*
G04 #@! TF.FilePolarity,Positive*
G04*
G01*
G75*
%ADD10C,0.00787*%
G36*
X7884Y22545D02*
X7920Y22542D01*
X7960Y22539D01*
X8004Y22534D01*
X8053Y22528D01*
X8105Y22520D01*
X8160Y22512D01*
X8277Y22484D01*
X8335Y22465D01*
X8392Y22446D01*
X8452Y22424D01*
X8506Y22397D01*
X8509Y22394D01*
X8520Y22389D01*
X8534Y22381D01*
X8556Y22370D01*
X8580Y22353D01*
X8608Y22334D01*
X8637Y22312D01*
X8673Y22288D01*
X8706Y22258D01*
X8744Y22228D01*
X8779Y22192D01*
X8818Y22154D01*
X8853Y22113D01*
X8889Y22070D01*
X8922Y22020D01*
X8952Y21971D01*
X8954Y21969D01*
X8957Y21958D01*
X8965Y21944D01*
X8976Y21922D01*
X8987Y21897D01*
X9001Y21865D01*
X9014Y21829D01*
X9028Y21791D01*
X9042Y21747D01*
X9055Y21698D01*
X9069Y21649D01*
X9080Y21594D01*
X9099Y21483D01*
X9102Y21422D01*
X9104Y21360D01*
Y21324D01*
X9102Y21297D01*
X9099Y21264D01*
X9093Y21226D01*
X9088Y21185D01*
X9080Y21138D01*
X9069Y21089D01*
X9058Y21037D01*
X9042Y20986D01*
X9023Y20931D01*
X9001Y20876D01*
X8973Y20825D01*
X8946Y20773D01*
X8911Y20724D01*
X8908Y20721D01*
X8902Y20713D01*
X8891Y20699D01*
X8875Y20683D01*
X8856Y20661D01*
X8831Y20636D01*
X8804Y20612D01*
X8771Y20582D01*
X8736Y20552D01*
X8695Y20522D01*
X8651Y20492D01*
X8602Y20464D01*
X8550Y20434D01*
X8493Y20410D01*
X8433Y20385D01*
X8370Y20363D01*
X8294Y20691D01*
X8296D01*
X8304Y20696D01*
X8321Y20699D01*
X8340Y20707D01*
X8362Y20715D01*
X8386Y20729D01*
X8446Y20756D01*
X8512Y20792D01*
X8580Y20838D01*
X8643Y20887D01*
X8670Y20917D01*
X8695Y20947D01*
X8698Y20950D01*
X8700Y20956D01*
X8706Y20964D01*
X8714Y20978D01*
X8725Y20994D01*
X8736Y21013D01*
X8747Y21035D01*
X8758Y21062D01*
X8769Y21092D01*
X8779Y21122D01*
X8801Y21193D01*
X8815Y21275D01*
X8820Y21319D01*
Y21392D01*
X8818Y21414D01*
X8815Y21439D01*
X8812Y21469D01*
X8810Y21502D01*
X8804Y21534D01*
X8785Y21614D01*
X8760Y21695D01*
X8744Y21736D01*
X8725Y21777D01*
X8703Y21816D01*
X8679Y21854D01*
X8676Y21857D01*
X8673Y21862D01*
X8665Y21873D01*
X8654Y21887D01*
X8640Y21900D01*
X8621Y21919D01*
X8602Y21938D01*
X8580Y21960D01*
X8553Y21982D01*
X8526Y22007D01*
X8463Y22050D01*
X8389Y22091D01*
X8304Y22127D01*
X8302D01*
X8294Y22129D01*
X8280Y22135D01*
X8264Y22138D01*
X8242Y22143D01*
X8217Y22151D01*
X8187Y22157D01*
X8157Y22165D01*
X8122Y22173D01*
X8083Y22179D01*
X8001Y22192D01*
X7914Y22200D01*
X7821Y22203D01*
X7818D01*
X7808D01*
X7791D01*
X7767Y22200D01*
X7739D01*
X7707Y22198D01*
X7671Y22195D01*
X7630Y22192D01*
X7587Y22187D01*
X7543Y22181D01*
X7447Y22165D01*
X7352Y22140D01*
X7259Y22110D01*
X7256D01*
X7248Y22105D01*
X7237Y22099D01*
X7221Y22094D01*
X7199Y22083D01*
X7177Y22070D01*
X7125Y22039D01*
X7065Y21998D01*
X7008Y21949D01*
X6950Y21889D01*
X6926Y21857D01*
X6901Y21821D01*
Y21818D01*
X6896Y21813D01*
X6890Y21802D01*
X6882Y21786D01*
X6874Y21766D01*
X6863Y21745D01*
X6855Y21720D01*
X6844Y21693D01*
X6822Y21630D01*
X6803Y21556D01*
X6789Y21477D01*
X6787Y21436D01*
X6784Y21392D01*
Y21365D01*
X6787Y21346D01*
X6789Y21321D01*
X6792Y21294D01*
X6797Y21261D01*
X6803Y21229D01*
X6822Y21152D01*
X6836Y21114D01*
X6852Y21073D01*
X6871Y21032D01*
X6893Y20994D01*
X6918Y20956D01*
X6945Y20917D01*
X6948Y20915D01*
X6953Y20909D01*
X6961Y20898D01*
X6975Y20885D01*
X6991Y20871D01*
X7013Y20852D01*
X7038Y20833D01*
X7065Y20811D01*
X7098Y20789D01*
X7133Y20767D01*
X7171Y20745D01*
X7215Y20724D01*
X7262Y20705D01*
X7314Y20685D01*
X7368Y20666D01*
X7425Y20653D01*
X7341Y20320D01*
X7335D01*
X7322Y20325D01*
X7303Y20330D01*
X7272Y20341D01*
X7240Y20352D01*
X7199Y20369D01*
X7155Y20385D01*
X7109Y20407D01*
X7057Y20432D01*
X7008Y20459D01*
X6953Y20489D01*
X6901Y20524D01*
X6852Y20562D01*
X6803Y20604D01*
X6757Y20650D01*
X6713Y20699D01*
X6710Y20702D01*
X6705Y20713D01*
X6694Y20726D01*
X6680Y20748D01*
X6664Y20773D01*
X6645Y20806D01*
X6626Y20841D01*
X6606Y20885D01*
X6587Y20931D01*
X6568Y20980D01*
X6549Y21035D01*
X6533Y21095D01*
X6519Y21158D01*
X6508Y21223D01*
X6503Y21291D01*
X6500Y21365D01*
Y21403D01*
X6503Y21433D01*
X6505Y21466D01*
X6508Y21507D01*
X6514Y21551D01*
X6522Y21600D01*
X6530Y21652D01*
X6541Y21706D01*
X6555Y21761D01*
X6568Y21816D01*
X6587Y21873D01*
X6609Y21927D01*
X6634Y21979D01*
X6664Y22028D01*
X6667Y22031D01*
X6672Y22039D01*
X6680Y22053D01*
X6694Y22070D01*
X6713Y22091D01*
X6732Y22116D01*
X6757Y22143D01*
X6787Y22173D01*
X6819Y22203D01*
X6855Y22236D01*
X6893Y22266D01*
X6937Y22299D01*
X6983Y22332D01*
X7032Y22362D01*
X7087Y22389D01*
X7144Y22416D01*
X7147Y22419D01*
X7158Y22422D01*
X7177Y22427D01*
X7199Y22435D01*
X7229Y22446D01*
X7262Y22457D01*
X7303Y22468D01*
X7346Y22482D01*
X7395Y22493D01*
X7447Y22506D01*
X7502Y22517D01*
X7562Y22525D01*
X7688Y22542D01*
X7753Y22545D01*
X7818Y22547D01*
X7824D01*
X7835D01*
X7857D01*
X7884Y22545D01*
D02*
G37*
G36*
X8438Y19795D02*
X8441Y19787D01*
X8449Y19773D01*
X8457Y19754D01*
X8468Y19733D01*
X8485Y19705D01*
X8501Y19675D01*
X8517Y19645D01*
X8561Y19574D01*
X8613Y19498D01*
X8668Y19419D01*
X8730Y19345D01*
X8733Y19342D01*
X8738Y19337D01*
X8747Y19326D01*
X8760Y19312D01*
X8777Y19298D01*
X8793Y19279D01*
X8840Y19239D01*
X8889Y19192D01*
X8946Y19146D01*
X9006Y19105D01*
X9069Y19069D01*
Y18870D01*
X6541D01*
Y19178D01*
X8509D01*
X8504Y19184D01*
X8490Y19197D01*
X8471Y19222D01*
X8444Y19258D01*
X8411Y19298D01*
X8376Y19350D01*
X8337Y19408D01*
X8296Y19473D01*
Y19476D01*
X8291Y19481D01*
X8285Y19490D01*
X8280Y19503D01*
X8269Y19520D01*
X8261Y19539D01*
X8236Y19582D01*
X8212Y19632D01*
X8184Y19686D01*
X8160Y19744D01*
X8138Y19798D01*
X8435D01*
X8438Y19795D01*
D02*
G37*
D10*
X3154Y28059D02*
X9846D01*
X3154Y17035D02*
Y28059D01*
Y17035D02*
X9846D01*
Y28059D01*
M02*
