G04*
G04 #@! TF.GenerationSoftware,Altium Limited,Altium Designer,22.10.1 (41)*
G04*
G04 Layer_Color=16711935*
%FSLAX25Y25*%
%MOIN*%
G70*
G04*
G04 #@! TF.SameCoordinates,670181CE-59D6-4C69-B2BD-6FF3612FFA8D*
G04*
G04*
G04 #@! TF.FilePolarity,Positive*
G04*
G01*
G75*
%ADD33C,0.04724*%
D33*
X47862Y79500D02*
X47682Y80404D01*
X47170Y81170D01*
X46404Y81682D01*
X45500Y81862D01*
X47862Y79500D02*
X47682Y80404D01*
X47170Y81170D01*
X46404Y81682D01*
X45500Y81862D01*
Y-2362D02*
X46404Y-2183D01*
X47170Y-1670D01*
X47682Y-904D01*
X47862Y0D01*
X45500Y-2362D02*
X46404Y-2183D01*
X47170Y-1670D01*
X47682Y-904D01*
X47862Y0D01*
X0Y81862D02*
X-904Y81682D01*
X-1670Y81170D01*
X-2183Y80404D01*
X-2362Y79500D01*
X0Y81862D02*
X-904Y81682D01*
X-1670Y81170D01*
X-2183Y80404D01*
X-2362Y79500D01*
Y0D02*
X-2183Y-904D01*
X-1670Y-1670D01*
X-904Y-2183D01*
X0Y-2362D01*
X-2362Y0D02*
X-2183Y-904D01*
X-1670Y-1670D01*
X-904Y-2183D01*
X0Y-2362D01*
X47862Y0D02*
Y79500D01*
X0Y81862D02*
X45500D01*
X0Y-2362D02*
X45500D01*
X-2362Y0D02*
Y79500D01*
M02*
