G04*
G04 #@! TF.GenerationSoftware,Altium Limited,Altium Designer,23.3.1 (30)*
G04*
G04 Layer_Physical_Order=2*
G04 Layer_Color=16711680*
%FSLAX25Y25*%
%MOIN*%
G70*
G04*
G04 #@! TF.SameCoordinates,C83B7F6B-13C3-4CBD-8C34-FD451FA8F7DD*
G04*
G04*
G04 #@! TF.FilePolarity,Positive*
G04*
G01*
G75*
%ADD22C,0.01000*%
%ADD23C,0.03937*%
%ADD24R,0.00984X0.01083*%
%ADD25R,0.01083X0.00984*%
G36*
X44673Y827D02*
X827D01*
Y78673D01*
X44673D01*
Y827D01*
D02*
G37*
%LPC*%
G36*
X11864Y75868D02*
X11135D01*
X10431Y75680D01*
X9800Y75315D01*
X9285Y74800D01*
X8920Y74169D01*
X8732Y73465D01*
Y72736D01*
X8920Y72031D01*
X9285Y71400D01*
X9800Y70885D01*
X10431Y70520D01*
X11135Y70332D01*
X11864D01*
X12569Y70520D01*
X13200Y70885D01*
X13715Y71400D01*
X13931Y71775D01*
X36051D01*
X36075Y71751D01*
Y64949D01*
X32263Y61137D01*
X31975Y60707D01*
X31874Y60200D01*
Y55505D01*
X31374Y55456D01*
X31325Y55707D01*
X31037Y56137D01*
X23537Y63637D01*
X23107Y63925D01*
X22600Y64025D01*
X14507D01*
X14300Y64526D01*
X17949Y68174D01*
X34100D01*
X34607Y68275D01*
X35037Y68563D01*
X35325Y68993D01*
X35425Y69500D01*
X35325Y70007D01*
X35037Y70437D01*
X34607Y70725D01*
X34100Y70825D01*
X17400D01*
X16893Y70725D01*
X16463Y70437D01*
X9563Y63537D01*
X9275Y63107D01*
X9174Y62600D01*
Y40300D01*
X9275Y39793D01*
X9563Y39363D01*
X11363Y37563D01*
X11793Y37275D01*
X12300Y37174D01*
X13959D01*
Y35039D01*
X14500D01*
Y36531D01*
X16225D01*
Y35039D01*
X16226D01*
Y34157D01*
X18286D01*
X18549Y33763D01*
X18979Y33475D01*
X19486Y33375D01*
X21051D01*
X27443Y26982D01*
X27332Y26564D01*
Y25835D01*
X27520Y25131D01*
X27885Y24500D01*
X28400Y23985D01*
X29031Y23620D01*
X29735Y23431D01*
X30465D01*
X31169Y23620D01*
X31800Y23985D01*
X32315Y24500D01*
X32680Y25131D01*
X32868Y25835D01*
Y26564D01*
X32680Y27269D01*
X32315Y27900D01*
X32293Y27923D01*
X32307Y28027D01*
X32865Y28395D01*
X33035Y28350D01*
X33764D01*
X34469Y28538D01*
X35100Y28903D01*
X35615Y29418D01*
X35980Y30049D01*
X36169Y30753D01*
Y31482D01*
X35980Y32187D01*
X35615Y32818D01*
X35100Y33333D01*
X34469Y33698D01*
X33764Y33887D01*
X33035D01*
X32618Y33775D01*
X29292Y37101D01*
X29337Y37563D01*
X34337Y42563D01*
X34625Y42993D01*
X34725Y43500D01*
Y49800D01*
X34625Y50307D01*
X34525Y50456D01*
Y59651D01*
X38337Y63463D01*
X38625Y63893D01*
X38726Y64400D01*
Y72300D01*
X38625Y72807D01*
X38337Y73237D01*
X37537Y74037D01*
X37107Y74325D01*
X36600Y74426D01*
X13931D01*
X13715Y74800D01*
X13200Y75315D01*
X12569Y75680D01*
X11864Y75868D01*
D02*
G37*
%LPD*%
G36*
X15500Y57085D02*
X16131Y56720D01*
X16836Y56532D01*
X17564D01*
X17704Y56569D01*
X18161Y56198D01*
Y42843D01*
X16226D01*
Y42592D01*
X15996Y42439D01*
X15426Y41868D01*
X14925Y41974D01*
Y56952D01*
X15426Y57159D01*
X15500Y57085D01*
D02*
G37*
G36*
X28774Y54651D02*
Y48331D01*
X28400Y48115D01*
X27885Y47600D01*
X27520Y46969D01*
X27332Y46264D01*
Y45535D01*
X27520Y44831D01*
X27885Y44200D01*
X28400Y43685D01*
X29031Y43320D01*
X29735Y43132D01*
X30450D01*
X30483Y43097D01*
X30703Y42678D01*
X27851Y39825D01*
X25111D01*
X24912Y40144D01*
X24879Y40325D01*
X24944Y40399D01*
X24974Y40485D01*
X25025Y40561D01*
X25058Y40727D01*
X25113Y40887D01*
X25108Y40979D01*
X25126Y41068D01*
Y54700D01*
X25025Y55207D01*
X24737Y55637D01*
X24307Y55925D01*
X23800Y56025D01*
X23293Y55925D01*
X22863Y55637D01*
X22575Y55207D01*
X22475Y54700D01*
Y42092D01*
X21971Y41960D01*
X20812D01*
Y57014D01*
X20812Y57014D01*
X20711Y57521D01*
X20423Y57951D01*
X19857Y58518D01*
X19969Y58935D01*
Y59664D01*
X19780Y60369D01*
X19488Y60874D01*
X19686Y61374D01*
X22051D01*
X28774Y54651D01*
D02*
G37*
D22*
X19486Y34700D02*
X21600D01*
X23800Y41068D02*
Y54700D01*
X21504Y40468D02*
X23800Y41068D01*
X17400Y69500D02*
X34100D01*
X10500Y62600D02*
X17400Y69500D01*
X10500Y40300D02*
Y62600D01*
Y40300D02*
X12300Y38500D01*
X15500D01*
X21504Y36531D02*
X27987D01*
X33400Y31118D01*
X14400Y40468D02*
X15500D01*
X13600Y41268D02*
X14400Y40468D01*
X13600Y41268D02*
Y62100D01*
X14200Y62700D01*
X22600D01*
X30100Y55200D01*
Y45900D02*
Y55200D01*
X19486Y41502D02*
Y57014D01*
X17200Y59300D02*
X19486Y57014D01*
X21600Y34700D02*
X30100Y26200D01*
X19486Y34700D02*
Y35498D01*
X21504Y38500D02*
X28400D01*
X33400Y43500D01*
Y49800D01*
X33200Y50000D02*
X33400Y49800D01*
X33200Y50000D02*
Y60200D01*
X37400Y64400D01*
Y72300D01*
X36600Y73100D02*
X37400Y72300D01*
X11500Y73100D02*
X36600D01*
X16934Y41502D02*
X17518D01*
X15900Y40468D02*
X16934Y41502D01*
X15500Y40468D02*
X15900D01*
D23*
X23800Y54700D02*
D03*
X34100Y69500D02*
D03*
X33400Y31118D02*
D03*
X30100Y45900D02*
D03*
X17200Y59300D02*
D03*
X30100Y26200D02*
D03*
X11500Y73100D02*
D03*
D24*
X19486Y41502D02*
D03*
X17518Y35498D02*
D03*
X19486D02*
D03*
X17518Y41502D02*
D03*
D25*
X21504Y36531D02*
D03*
Y40468D02*
D03*
Y38500D02*
D03*
X15500Y36531D02*
D03*
Y40468D02*
D03*
Y38500D02*
D03*
M02*
