G04*
G04 #@! TF.GenerationSoftware,Altium Limited,Altium Designer,22.10.1 (41)*
G04*
G04 Layer_Color=32896*
%FSLAX25Y25*%
%MOIN*%
G70*
G04*
G04 #@! TF.SameCoordinates,670181CE-59D6-4C69-B2BD-6FF3612FFA8D*
G04*
G04*
G04 #@! TF.FilePolarity,Positive*
G04*
G01*
G75*
%ADD11C,0.00500*%
%ADD30C,0.00689*%
G36*
X13904Y44582D02*
X13413D01*
Y47852D01*
X12306Y44582D01*
X11849D01*
X10726Y47798D01*
Y44582D01*
X10235D01*
Y48422D01*
X10921D01*
X11845Y45751D01*
X11870Y45676D01*
X11895Y45610D01*
X11915Y45543D01*
X11936Y45485D01*
X11953Y45427D01*
X11970Y45377D01*
X11986Y45331D01*
X11999Y45289D01*
X12011Y45256D01*
X12019Y45223D01*
X12028Y45198D01*
X12036Y45173D01*
X12040Y45156D01*
X12044Y45144D01*
X12049Y45140D01*
Y45136D01*
X12061Y45173D01*
X12073Y45215D01*
X12103Y45302D01*
X12132Y45398D01*
X12161Y45489D01*
X12190Y45572D01*
X12202Y45610D01*
X12211Y45639D01*
X12219Y45664D01*
X12227Y45685D01*
X12232Y45697D01*
Y45701D01*
X13143Y48422D01*
X13904D01*
Y44582D01*
D02*
G37*
G36*
X17486D02*
X16025D01*
X15892Y44586D01*
X15772Y44590D01*
X15668Y44603D01*
X15618Y44607D01*
X15576Y44616D01*
X15539Y44620D01*
X15506Y44624D01*
X15476Y44632D01*
X15451Y44636D01*
X15431Y44640D01*
X15418D01*
X15410Y44645D01*
X15406D01*
X15314Y44669D01*
X15231Y44699D01*
X15160Y44732D01*
X15102Y44761D01*
X15052Y44790D01*
X15015Y44811D01*
X14994Y44828D01*
X14986Y44832D01*
X14923Y44886D01*
X14869Y44944D01*
X14819Y45002D01*
X14782Y45061D01*
X14748Y45110D01*
X14723Y45152D01*
X14715Y45169D01*
X14707Y45181D01*
X14703Y45185D01*
Y45190D01*
X14665Y45277D01*
X14636Y45368D01*
X14615Y45452D01*
X14599Y45531D01*
X14590Y45597D01*
Y45622D01*
X14586Y45647D01*
Y45668D01*
Y45680D01*
Y45689D01*
Y45693D01*
Y45755D01*
X14594Y45814D01*
X14615Y45926D01*
X14649Y46026D01*
X14682Y46109D01*
X14698Y46146D01*
X14715Y46180D01*
X14732Y46209D01*
X14748Y46234D01*
X14761Y46250D01*
X14769Y46263D01*
X14773Y46271D01*
X14777Y46275D01*
X14852Y46363D01*
X14940Y46433D01*
X15027Y46496D01*
X15114Y46542D01*
X15189Y46579D01*
X15223Y46591D01*
X15252Y46604D01*
X15277Y46612D01*
X15293Y46621D01*
X15306Y46625D01*
X15310D01*
X15214Y46679D01*
X15135Y46737D01*
X15065Y46795D01*
X15010Y46849D01*
X14965Y46899D01*
X14936Y46937D01*
X14923Y46953D01*
X14915Y46966D01*
X14911Y46970D01*
Y46974D01*
X14865Y47057D01*
X14831Y47136D01*
X14807Y47216D01*
X14790Y47286D01*
X14782Y47349D01*
X14773Y47394D01*
Y47411D01*
Y47423D01*
Y47432D01*
Y47436D01*
X14782Y47536D01*
X14798Y47627D01*
X14823Y47715D01*
X14848Y47790D01*
X14877Y47852D01*
X14890Y47881D01*
X14902Y47902D01*
X14915Y47918D01*
X14919Y47931D01*
X14927Y47939D01*
Y47943D01*
X14990Y48027D01*
X15056Y48101D01*
X15123Y48164D01*
X15189Y48214D01*
X15252Y48251D01*
X15297Y48280D01*
X15318Y48289D01*
X15331Y48297D01*
X15339Y48301D01*
X15343D01*
X15451Y48343D01*
X15564Y48372D01*
X15684Y48393D01*
X15792Y48405D01*
X15847Y48414D01*
X15892Y48418D01*
X15938D01*
X15976Y48422D01*
X17486D01*
Y44582D01*
D02*
G37*
G36*
X9419D02*
X8912D01*
Y46142D01*
X7930D01*
X7780Y46146D01*
X7647Y46159D01*
X7522Y46176D01*
X7406Y46196D01*
X7306Y46221D01*
X7210Y46250D01*
X7131Y46279D01*
X7057Y46313D01*
X6994Y46342D01*
X6940Y46371D01*
X6894Y46400D01*
X6861Y46425D01*
X6832Y46450D01*
X6815Y46467D01*
X6803Y46475D01*
X6799Y46479D01*
X6745Y46546D01*
X6695Y46612D01*
X6653Y46683D01*
X6620Y46754D01*
X6586Y46824D01*
X6561Y46891D01*
X6541Y46957D01*
X6524Y47020D01*
X6511Y47082D01*
X6503Y47136D01*
X6495Y47182D01*
X6491Y47224D01*
X6487Y47261D01*
Y47286D01*
Y47303D01*
Y47307D01*
X6491Y47411D01*
X6503Y47511D01*
X6524Y47598D01*
X6545Y47677D01*
X6570Y47740D01*
X6578Y47769D01*
X6586Y47790D01*
X6595Y47806D01*
X6603Y47819D01*
X6607Y47827D01*
Y47831D01*
X6653Y47918D01*
X6703Y47989D01*
X6757Y48056D01*
X6803Y48106D01*
X6848Y48147D01*
X6882Y48176D01*
X6907Y48197D01*
X6911Y48201D01*
X6915D01*
X6990Y48247D01*
X7069Y48285D01*
X7148Y48318D01*
X7223Y48343D01*
X7289Y48364D01*
X7319Y48368D01*
X7344Y48376D01*
X7360Y48380D01*
X7377D01*
X7385Y48384D01*
X7389D01*
X7427Y48393D01*
X7473Y48397D01*
X7564Y48405D01*
X7660Y48414D01*
X7755Y48418D01*
X7839Y48422D01*
X9419D01*
Y44582D01*
D02*
G37*
%LPC*%
G36*
X16978Y47968D02*
X16138D01*
X16067Y47964D01*
X16005D01*
X15946Y47960D01*
X15892Y47956D01*
X15847Y47952D01*
X15801Y47948D01*
X15763Y47943D01*
X15734Y47935D01*
X15705Y47931D01*
X15680Y47927D01*
X15664Y47923D01*
X15647Y47918D01*
X15639D01*
X15630Y47914D01*
X15568Y47889D01*
X15518Y47860D01*
X15472Y47827D01*
X15435Y47794D01*
X15406Y47765D01*
X15385Y47740D01*
X15372Y47723D01*
X15368Y47715D01*
X15335Y47661D01*
X15314Y47602D01*
X15297Y47544D01*
X15285Y47490D01*
X15277Y47444D01*
X15272Y47411D01*
Y47386D01*
Y47382D01*
Y47378D01*
X15277Y47303D01*
X15289Y47240D01*
X15306Y47182D01*
X15322Y47132D01*
X15339Y47095D01*
X15356Y47066D01*
X15368Y47049D01*
X15372Y47041D01*
X15414Y46995D01*
X15460Y46953D01*
X15510Y46920D01*
X15555Y46895D01*
X15597Y46874D01*
X15630Y46862D01*
X15655Y46854D01*
X15659Y46849D01*
X15664D01*
X15693Y46841D01*
X15726Y46837D01*
X15801Y46824D01*
X15884Y46816D01*
X15963Y46812D01*
X16034D01*
X16067Y46808D01*
X16978D01*
Y47968D01*
D02*
G37*
G36*
Y46354D02*
X16092D01*
X15963Y46350D01*
X15851Y46346D01*
X15801Y46338D01*
X15755Y46334D01*
X15713Y46329D01*
X15672Y46321D01*
X15639Y46317D01*
X15609Y46309D01*
X15589Y46304D01*
X15568Y46300D01*
X15551Y46296D01*
X15539Y46292D01*
X15535Y46288D01*
X15530D01*
X15460Y46259D01*
X15402Y46225D01*
X15347Y46192D01*
X15302Y46155D01*
X15268Y46121D01*
X15243Y46092D01*
X15227Y46076D01*
X15223Y46067D01*
X15185Y46005D01*
X15156Y45943D01*
X15139Y45880D01*
X15123Y45822D01*
X15114Y45768D01*
X15110Y45730D01*
Y45714D01*
Y45701D01*
Y45697D01*
Y45693D01*
X15114Y45626D01*
X15123Y45564D01*
X15135Y45510D01*
X15148Y45464D01*
X15164Y45423D01*
X15177Y45393D01*
X15185Y45377D01*
X15189Y45368D01*
X15218Y45318D01*
X15252Y45277D01*
X15285Y45239D01*
X15314Y45210D01*
X15343Y45185D01*
X15364Y45169D01*
X15381Y45160D01*
X15385Y45156D01*
X15431Y45131D01*
X15481Y45110D01*
X15526Y45090D01*
X15572Y45077D01*
X15614Y45065D01*
X15647Y45056D01*
X15668Y45052D01*
X15676D01*
X15718Y45048D01*
X15772Y45044D01*
X15830Y45040D01*
X15884D01*
X15938Y45036D01*
X16978D01*
Y46354D01*
D02*
G37*
G36*
X8912Y47968D02*
X7809D01*
X7760Y47964D01*
X7710D01*
X7668Y47960D01*
X7626Y47956D01*
X7593Y47952D01*
X7564D01*
X7514Y47943D01*
X7481Y47935D01*
X7460Y47931D01*
X7456D01*
X7385Y47906D01*
X7323Y47873D01*
X7269Y47835D01*
X7219Y47798D01*
X7186Y47765D01*
X7156Y47736D01*
X7140Y47715D01*
X7136Y47706D01*
X7094Y47640D01*
X7065Y47569D01*
X7040Y47502D01*
X7027Y47436D01*
X7019Y47382D01*
X7011Y47336D01*
Y47319D01*
Y47307D01*
Y47299D01*
Y47295D01*
X7015Y47232D01*
X7019Y47178D01*
X7044Y47074D01*
X7077Y46987D01*
X7115Y46912D01*
X7152Y46854D01*
X7186Y46812D01*
X7198Y46799D01*
X7210Y46787D01*
X7215Y46783D01*
X7219Y46779D01*
X7260Y46745D01*
X7310Y46720D01*
X7360Y46696D01*
X7414Y46675D01*
X7531Y46641D01*
X7647Y46621D01*
X7701Y46612D01*
X7755Y46604D01*
X7801Y46600D01*
X7843D01*
X7876Y46596D01*
X8912D01*
Y47968D01*
D02*
G37*
%LPD*%
D11*
X14171Y34169D02*
Y42831D01*
Y34169D02*
X22833D01*
Y42831D01*
X14171D02*
X22833D01*
D30*
X13633Y43453D02*
D03*
M02*
