G04*
G04 #@! TF.GenerationSoftware,Altium Limited,Altium Designer,23.3.1 (30)*
G04*
G04 Layer_Physical_Order=1*
G04 Layer_Color=255*
%FSLAX25Y25*%
%MOIN*%
G70*
G04*
G04 #@! TF.SameCoordinates,C83B7F6B-13C3-4CBD-8C34-FD451FA8F7DD*
G04*
G04*
G04 #@! TF.FilePolarity,Positive*
G04*
G01*
G75*
%ADD12R,0.11811X0.08268*%
%ADD13R,0.06299X0.03150*%
%ADD14R,0.03347X0.05315*%
%ADD15R,0.05315X0.03347*%
%ADD16R,0.05315X0.03740*%
%ADD22C,0.01000*%
%ADD23C,0.03937*%
G36*
X44673Y827D02*
X827D01*
Y78673D01*
X44673D01*
Y827D01*
D02*
G37*
%LPC*%
G36*
X11864Y75868D02*
X11135D01*
X10431Y75680D01*
X9800Y75315D01*
X9285Y74800D01*
X8920Y74169D01*
X8732Y73465D01*
Y72736D01*
X8920Y72031D01*
X9139Y71652D01*
X9027Y71457D01*
X9027D01*
Y64543D01*
X13973D01*
Y66675D01*
X14651D01*
X18966Y62359D01*
X18932Y62068D01*
X18407Y61800D01*
X18269Y61880D01*
X17564Y62068D01*
X16836D01*
X16131Y61880D01*
X15500Y61515D01*
X14985Y61000D01*
X14620Y60369D01*
X14432Y59664D01*
Y58935D01*
X14543Y58518D01*
X7563Y51537D01*
X7275Y51107D01*
X7175Y50600D01*
Y49721D01*
X4326D01*
Y59751D01*
X5941Y61367D01*
X6229Y61797D01*
X6329Y62304D01*
Y64543D01*
X7477D01*
Y71457D01*
X2531D01*
Y64543D01*
X3678D01*
Y62853D01*
X2063Y61237D01*
X1775Y60807D01*
X1674Y60300D01*
Y41752D01*
X1775Y41245D01*
X2063Y40815D01*
X3063Y39815D01*
X3493Y39527D01*
X4000Y39426D01*
X4042D01*
Y38279D01*
X6174D01*
Y28170D01*
X3042D01*
X3042Y22882D01*
X2843Y22465D01*
X2843Y22413D01*
Y20594D01*
X6500D01*
X10158D01*
Y22413D01*
X10158Y22465D01*
X9957Y22882D01*
X9957Y22964D01*
Y24174D01*
X11051D01*
X14563Y20663D01*
X14993Y20375D01*
X15500Y20275D01*
X29012D01*
Y17157D01*
X34917D01*
Y21291D01*
X33419D01*
X33228Y21753D01*
X37637Y26163D01*
X37925Y26593D01*
X38026Y27100D01*
Y40382D01*
X37925Y40889D01*
X37637Y41319D01*
X37207Y41606D01*
X36700Y41707D01*
X31425D01*
Y43468D01*
X31800Y43685D01*
X32315Y44200D01*
X32680Y44831D01*
X32868Y45535D01*
Y46264D01*
X32680Y46969D01*
X32315Y47600D01*
X31800Y48115D01*
X31169Y48480D01*
X30465Y48669D01*
X29735D01*
X29150Y48511D01*
X28650Y48769D01*
Y49803D01*
X24500D01*
Y51803D01*
X28650D01*
Y53378D01*
X25826D01*
Y54851D01*
X28550Y57576D01*
X29012Y57384D01*
Y55708D01*
X34917D01*
Y60842D01*
X35917D01*
Y61842D01*
X42823D01*
Y65976D01*
X35425D01*
Y69500D01*
X35325Y70007D01*
X35037Y70437D01*
X34607Y70725D01*
X34100Y70825D01*
X33593Y70725D01*
X33163Y70437D01*
X32875Y70007D01*
X32774Y69500D01*
Y65976D01*
X29012D01*
Y61784D01*
X29005Y61780D01*
X23563Y56337D01*
X22863Y55637D01*
X22575Y55207D01*
X22475Y54700D01*
X22575Y54193D01*
X22786Y53878D01*
X22644Y53481D01*
X22564Y53378D01*
X21559D01*
X21352Y53878D01*
X21437Y53963D01*
X21725Y54393D01*
X21825Y54900D01*
Y62700D01*
X21725Y63207D01*
X21437Y63637D01*
X16137Y68937D01*
X15707Y69225D01*
X15200Y69326D01*
X13973D01*
Y71457D01*
X13973D01*
X13861Y71652D01*
X14080Y72031D01*
X14268Y72736D01*
Y73465D01*
X14080Y74169D01*
X13715Y74800D01*
X13200Y75315D01*
X12569Y75680D01*
X11864Y75868D01*
D02*
G37*
G36*
X42823Y59842D02*
X36917D01*
Y55708D01*
X42823D01*
Y59842D01*
D02*
G37*
G36*
Y21291D02*
X36917D01*
Y17157D01*
X42823D01*
Y21291D01*
D02*
G37*
G36*
X10158Y18594D02*
X7500D01*
Y16724D01*
X10158D01*
Y18594D01*
D02*
G37*
G36*
X5500D02*
X2843D01*
Y16724D01*
X5500D01*
Y18594D01*
D02*
G37*
G36*
X42823Y15157D02*
X36917D01*
Y11023D01*
X42823D01*
Y15157D01*
D02*
G37*
G36*
X34917D02*
X29012D01*
Y11023D01*
X34917D01*
Y15157D01*
D02*
G37*
%LPD*%
G36*
X29163Y39445D02*
X29593Y39157D01*
X30100Y39056D01*
X35375D01*
Y33734D01*
X34874Y33463D01*
X34469Y33698D01*
X33764Y33887D01*
X33035D01*
X32331Y33698D01*
X31700Y33333D01*
X31185Y32818D01*
X30968Y32443D01*
X28450D01*
Y33493D01*
X28450D01*
Y33664D01*
X28450D01*
Y38414D01*
X28450D01*
Y38586D01*
X28450D01*
Y39647D01*
X28950Y39764D01*
X29163Y39445D01*
D02*
G37*
G36*
X15875Y55447D02*
Y38700D01*
X15975Y38193D01*
X16263Y37763D01*
X18924Y35102D01*
X19354Y34815D01*
X19861Y34714D01*
X20550D01*
Y33664D01*
X20550D01*
Y33493D01*
X20550D01*
Y28743D01*
X20550D01*
Y28572D01*
X20550D01*
Y23822D01*
X28450D01*
Y23822D01*
X28566Y23889D01*
X29031Y23620D01*
X29735Y23431D01*
X29904D01*
X30170Y22931D01*
X30166Y22926D01*
X16049D01*
X12537Y26437D01*
X12107Y26725D01*
X11600Y26825D01*
X9957D01*
Y28170D01*
X8826D01*
Y38279D01*
X10958D01*
Y43225D01*
X4326D01*
Y44775D01*
X10958D01*
Y49721D01*
X10203D01*
X9996Y50221D01*
X15413Y55638D01*
X15875Y55447D01*
D02*
G37*
D12*
X35917Y60842D02*
D03*
Y16157D02*
D03*
D13*
X24500Y50803D02*
D03*
Y45882D02*
D03*
Y40961D02*
D03*
Y36039D02*
D03*
Y31118D02*
D03*
Y26197D02*
D03*
D14*
X11500Y68000D02*
D03*
X5004D02*
D03*
D15*
X7500Y40752D02*
D03*
Y47248D02*
D03*
D16*
X6500Y19594D02*
D03*
Y25500D02*
D03*
D22*
X34100Y60842D02*
Y69500D01*
X29942Y60842D02*
X34100D01*
X23800Y54700D02*
X24500Y55400D01*
Y50803D02*
Y55400D01*
X8500Y47248D02*
Y50600D01*
X30091Y45891D02*
X30100Y45882D01*
X30091Y45891D02*
X30100Y45900D01*
X30082Y45882D02*
X30091Y45891D01*
X7500Y25500D02*
X11600D01*
X6500D02*
X7500D01*
Y40752D01*
X34100Y60842D02*
X35917D01*
X24500Y55400D02*
X29942Y60842D01*
X24500Y31118D02*
X33400D01*
X11600Y25500D02*
X15500Y21600D01*
X31200D01*
X36700Y27100D01*
Y40382D01*
X30100D02*
X36700D01*
X30100D02*
Y45882D01*
X24500D02*
X30091Y45891D01*
X24500Y45882D02*
X30082D01*
X11500Y68000D02*
X15200D01*
X20500Y62700D01*
Y54900D02*
Y62700D01*
X19800Y54200D02*
X20500Y54900D01*
X19800Y42161D02*
Y54200D01*
Y42161D02*
X21000Y40961D01*
X24500D01*
X17200Y38700D02*
Y59300D01*
Y38700D02*
X19861Y36039D01*
X24500D01*
Y26197D02*
X30097D01*
X30100Y26200D01*
X7500Y47248D02*
X8500D01*
Y50600D02*
X17200Y59300D01*
X11500Y68000D02*
Y73100D01*
X5004Y62304D02*
Y68000D01*
X3000Y60300D02*
X5004Y62304D01*
X3000Y41752D02*
Y60300D01*
Y41752D02*
X4000Y40752D01*
X7500D01*
D23*
X23800Y54700D02*
D03*
X34100Y69500D02*
D03*
X33400Y31118D02*
D03*
X30100Y45900D02*
D03*
X17200Y59300D02*
D03*
X30100Y26200D02*
D03*
X11500Y73100D02*
D03*
M02*
