G04*
G04 #@! TF.GenerationSoftware,Altium Limited,Altium Designer,23.3.1 (30)*
G04*
G04 Layer_Color=65535*
%FSLAX25Y25*%
%MOIN*%
G70*
G04*
G04 #@! TF.SameCoordinates,C83B7F6B-13C3-4CBD-8C34-FD451FA8F7DD*
G04*
G04*
G04 #@! TF.FilePolarity,Positive*
G04*
G01*
G75*
%ADD10C,0.00787*%
%ADD11C,0.00500*%
G36*
X26546Y8113D02*
X26389D01*
Y8293D01*
X26546D01*
Y8113D01*
D02*
G37*
G36*
X27251Y7960D02*
X27271Y7958D01*
X27295Y7954D01*
X27321Y7949D01*
X27349Y7942D01*
X27375Y7930D01*
X27378Y7929D01*
X27386Y7925D01*
X27399Y7919D01*
X27414Y7910D01*
X27432Y7899D01*
X27449Y7884D01*
X27465Y7869D01*
X27480Y7851D01*
X27482Y7849D01*
X27486Y7842D01*
X27491Y7832D01*
X27501Y7819D01*
X27508Y7801D01*
X27515Y7782D01*
X27525Y7760D01*
X27530Y7736D01*
Y7734D01*
X27532Y7727D01*
X27534Y7716D01*
X27536Y7701D01*
Y7679D01*
X27538Y7653D01*
X27539Y7621D01*
Y7583D01*
Y7013D01*
X27382D01*
Y7575D01*
Y7577D01*
Y7579D01*
Y7592D01*
Y7609D01*
X27380Y7629D01*
X27378Y7653D01*
X27375Y7677D01*
X27369Y7699D01*
X27364Y7720D01*
Y7721D01*
X27360Y7727D01*
X27354Y7736D01*
X27349Y7747D01*
X27340Y7758D01*
X27329Y7771D01*
X27314Y7784D01*
X27297Y7795D01*
X27295Y7797D01*
X27290Y7801D01*
X27279Y7805D01*
X27266Y7810D01*
X27251Y7816D01*
X27232Y7821D01*
X27210Y7823D01*
X27188Y7825D01*
X27179D01*
X27171Y7823D01*
X27153Y7821D01*
X27129Y7818D01*
X27103Y7808D01*
X27073Y7797D01*
X27044Y7782D01*
X27016Y7760D01*
X27012Y7756D01*
X27005Y7747D01*
X26999Y7740D01*
X26994Y7731D01*
X26986Y7720D01*
X26981Y7706D01*
X26973Y7692D01*
X26966Y7673D01*
X26960Y7653D01*
X26955Y7631D01*
X26951Y7607D01*
X26947Y7581D01*
X26944Y7549D01*
Y7518D01*
Y7013D01*
X26787D01*
Y7942D01*
X26927D01*
Y7808D01*
X26929Y7810D01*
X26933Y7816D01*
X26938Y7823D01*
X26945Y7832D01*
X26957Y7843D01*
X26970Y7856D01*
X26984Y7871D01*
X27003Y7886D01*
X27021Y7899D01*
X27044Y7914D01*
X27068Y7927D01*
X27093Y7938D01*
X27123Y7947D01*
X27153Y7954D01*
X27186Y7960D01*
X27221Y7962D01*
X27236D01*
X27251Y7960D01*
D02*
G37*
G36*
X19094D02*
X19115Y7958D01*
X19139Y7954D01*
X19164Y7949D01*
X19192Y7942D01*
X19218Y7930D01*
X19222Y7929D01*
X19229Y7925D01*
X19242Y7919D01*
X19257Y7910D01*
X19275Y7899D01*
X19292Y7884D01*
X19309Y7869D01*
X19324Y7851D01*
X19325Y7849D01*
X19329Y7842D01*
X19335Y7832D01*
X19344Y7819D01*
X19351Y7801D01*
X19359Y7782D01*
X19368Y7760D01*
X19374Y7736D01*
Y7734D01*
X19375Y7727D01*
X19377Y7716D01*
X19379Y7701D01*
Y7679D01*
X19381Y7653D01*
X19383Y7621D01*
Y7583D01*
Y7013D01*
X19226D01*
Y7575D01*
Y7577D01*
Y7579D01*
Y7592D01*
Y7609D01*
X19224Y7629D01*
X19222Y7653D01*
X19218Y7677D01*
X19212Y7699D01*
X19207Y7720D01*
Y7721D01*
X19203Y7727D01*
X19198Y7736D01*
X19192Y7747D01*
X19183Y7758D01*
X19172Y7771D01*
X19157Y7784D01*
X19140Y7795D01*
X19139Y7797D01*
X19133Y7801D01*
X19122Y7805D01*
X19109Y7810D01*
X19094Y7816D01*
X19076Y7821D01*
X19053Y7823D01*
X19031Y7825D01*
X19022D01*
X19015Y7823D01*
X18996Y7821D01*
X18972Y7818D01*
X18946Y7808D01*
X18917Y7797D01*
X18887Y7782D01*
X18859Y7760D01*
X18856Y7756D01*
X18848Y7747D01*
X18843Y7740D01*
X18837Y7731D01*
X18830Y7720D01*
X18824Y7706D01*
X18817Y7692D01*
X18809Y7673D01*
X18804Y7653D01*
X18798Y7631D01*
X18794Y7607D01*
X18791Y7581D01*
X18787Y7549D01*
Y7518D01*
Y7013D01*
X18630D01*
Y7942D01*
X18770D01*
Y7808D01*
X18772Y7810D01*
X18776Y7816D01*
X18781Y7823D01*
X18789Y7832D01*
X18800Y7843D01*
X18813Y7856D01*
X18828Y7871D01*
X18846Y7886D01*
X18865Y7899D01*
X18887Y7914D01*
X18911Y7927D01*
X18937Y7938D01*
X18967Y7947D01*
X18996Y7954D01*
X19029Y7960D01*
X19064Y7962D01*
X19079D01*
X19094Y7960D01*
D02*
G37*
G36*
X22483D02*
X22504Y7956D01*
X22528Y7949D01*
X22554Y7940D01*
X22583Y7927D01*
X22615Y7910D01*
X22557Y7766D01*
X22556Y7768D01*
X22548Y7771D01*
X22537Y7777D01*
X22522Y7782D01*
X22505Y7788D01*
X22485Y7794D01*
X22465Y7797D01*
X22445Y7799D01*
X22435D01*
X22426Y7797D01*
X22413Y7795D01*
X22400Y7792D01*
X22383Y7786D01*
X22367Y7779D01*
X22352Y7768D01*
X22350Y7766D01*
X22345Y7762D01*
X22339Y7755D01*
X22330Y7745D01*
X22321Y7732D01*
X22311Y7718D01*
X22302Y7701D01*
X22295Y7681D01*
X22293Y7677D01*
X22291Y7666D01*
X22287Y7649D01*
X22282Y7627D01*
X22276Y7599D01*
X22273Y7568D01*
X22271Y7535D01*
X22269Y7497D01*
Y7013D01*
X22111D01*
Y7942D01*
X22254D01*
Y7801D01*
X22256Y7803D01*
X22263Y7816D01*
X22273Y7832D01*
X22287Y7853D01*
X22302Y7873D01*
X22319Y7895D01*
X22335Y7914D01*
X22352Y7929D01*
X22354Y7930D01*
X22359Y7934D01*
X22370Y7940D01*
X22382Y7945D01*
X22396Y7951D01*
X22415Y7956D01*
X22433Y7960D01*
X22454Y7962D01*
X22467D01*
X22483Y7960D01*
D02*
G37*
G36*
X25895D02*
X25906D01*
X25921Y7958D01*
X25956Y7953D01*
X25995Y7943D01*
X26035Y7929D01*
X26076Y7910D01*
X26115Y7884D01*
X26117D01*
X26119Y7880D01*
X26130Y7869D01*
X26146Y7853D01*
X26167Y7829D01*
X26187Y7799D01*
X26207Y7762D01*
X26226Y7720D01*
X26239Y7670D01*
X26085Y7645D01*
Y7647D01*
X26083Y7649D01*
X26082Y7660D01*
X26076Y7677D01*
X26067Y7697D01*
X26057Y7720D01*
X26043Y7744D01*
X26026Y7766D01*
X26008Y7784D01*
X26006Y7786D01*
X25998Y7792D01*
X25985Y7799D01*
X25971Y7808D01*
X25950Y7818D01*
X25928Y7825D01*
X25902Y7830D01*
X25874Y7832D01*
X25863D01*
X25854Y7830D01*
X25834Y7829D01*
X25806Y7821D01*
X25776Y7812D01*
X25743Y7797D01*
X25712Y7775D01*
X25697Y7762D01*
X25682Y7747D01*
Y7745D01*
X25678Y7744D01*
X25675Y7738D01*
X25671Y7731D01*
X25665Y7721D01*
X25658Y7710D01*
X25652Y7697D01*
X25645Y7683D01*
X25638Y7664D01*
X25632Y7644D01*
X25625Y7621D01*
X25619Y7597D01*
X25615Y7571D01*
X25612Y7542D01*
X25608Y7510D01*
Y7477D01*
Y7475D01*
Y7470D01*
Y7459D01*
X25610Y7447D01*
Y7431D01*
X25612Y7414D01*
X25617Y7373D01*
X25625Y7329D01*
X25638Y7283D01*
X25654Y7242D01*
X25665Y7222D01*
X25678Y7205D01*
X25682Y7202D01*
X25691Y7192D01*
X25708Y7179D01*
X25728Y7164D01*
X25756Y7148D01*
X25787Y7135D01*
X25824Y7126D01*
X25845Y7124D01*
X25865Y7122D01*
X25869D01*
X25880Y7124D01*
X25899Y7126D01*
X25919Y7129D01*
X25943Y7135D01*
X25969Y7146D01*
X25995Y7159D01*
X26019Y7177D01*
X26022Y7179D01*
X26028Y7188D01*
X26039Y7202D01*
X26052Y7222D01*
X26065Y7246D01*
X26080Y7276D01*
X26091Y7312D01*
X26098Y7353D01*
X26254Y7333D01*
Y7331D01*
X26252Y7325D01*
X26250Y7318D01*
X26248Y7307D01*
X26244Y7292D01*
X26241Y7277D01*
X26228Y7240D01*
X26211Y7202D01*
X26187Y7159D01*
X26158Y7118D01*
X26141Y7100D01*
X26122Y7081D01*
X26120Y7079D01*
X26117Y7078D01*
X26111Y7074D01*
X26104Y7068D01*
X26094Y7061D01*
X26082Y7053D01*
X26067Y7046D01*
X26052Y7037D01*
X26015Y7020D01*
X25971Y7007D01*
X25923Y6996D01*
X25895Y6994D01*
X25867Y6992D01*
X25848D01*
X25836Y6994D01*
X25819Y6996D01*
X25800Y7000D01*
X25780Y7004D01*
X25758Y7007D01*
X25708Y7022D01*
X25684Y7033D01*
X25658Y7044D01*
X25632Y7059D01*
X25608Y7076D01*
X25584Y7094D01*
X25562Y7116D01*
X25560Y7118D01*
X25556Y7122D01*
X25551Y7129D01*
X25543Y7139D01*
X25536Y7152D01*
X25525Y7168D01*
X25515Y7187D01*
X25504Y7207D01*
X25493Y7231D01*
X25484Y7259D01*
X25473Y7287D01*
X25466Y7320D01*
X25458Y7353D01*
X25453Y7392D01*
X25449Y7431D01*
X25447Y7473D01*
Y7475D01*
Y7481D01*
Y7488D01*
Y7499D01*
X25449Y7512D01*
Y7527D01*
X25451Y7544D01*
X25453Y7562D01*
X25458Y7603D01*
X25467Y7647D01*
X25479Y7692D01*
X25495Y7736D01*
Y7738D01*
X25497Y7742D01*
X25501Y7747D01*
X25504Y7755D01*
X25515Y7775D01*
X25532Y7799D01*
X25554Y7827D01*
X25580Y7854D01*
X25612Y7882D01*
X25647Y7904D01*
X25649D01*
X25652Y7906D01*
X25658Y7910D01*
X25665Y7914D01*
X25675Y7917D01*
X25686Y7923D01*
X25714Y7934D01*
X25745Y7943D01*
X25784Y7953D01*
X25824Y7960D01*
X25869Y7962D01*
X25884D01*
X25895Y7960D01*
D02*
G37*
G36*
X26546Y7013D02*
X26389D01*
Y7942D01*
X26546D01*
Y7013D01*
D02*
G37*
G36*
X24931Y7960D02*
X24959Y7958D01*
X24990Y7954D01*
X25021Y7949D01*
X25053Y7942D01*
X25083Y7932D01*
X25086Y7930D01*
X25096Y7927D01*
X25109Y7921D01*
X25125Y7914D01*
X25144Y7903D01*
X25162Y7891D01*
X25179Y7877D01*
X25194Y7862D01*
X25195Y7860D01*
X25199Y7854D01*
X25205Y7845D01*
X25212Y7834D01*
X25221Y7818D01*
X25229Y7801D01*
X25236Y7780D01*
X25242Y7756D01*
Y7755D01*
X25243Y7749D01*
X25245Y7738D01*
X25247Y7723D01*
Y7703D01*
X25249Y7679D01*
X25251Y7647D01*
Y7612D01*
Y7401D01*
Y7399D01*
Y7392D01*
Y7381D01*
Y7366D01*
Y7350D01*
Y7329D01*
X25253Y7285D01*
Y7238D01*
X25255Y7192D01*
X25256Y7172D01*
Y7153D01*
X25258Y7137D01*
X25260Y7124D01*
Y7122D01*
X25262Y7114D01*
X25264Y7103D01*
X25269Y7089D01*
X25273Y7072D01*
X25280Y7053D01*
X25290Y7033D01*
X25299Y7013D01*
X25134D01*
X25133Y7015D01*
X25131Y7022D01*
X25127Y7031D01*
X25121Y7046D01*
X25116Y7063D01*
X25112Y7083D01*
X25109Y7105D01*
X25105Y7129D01*
X25103D01*
X25101Y7126D01*
X25090Y7116D01*
X25073Y7103D01*
X25051Y7087D01*
X25023Y7070D01*
X24996Y7052D01*
X24966Y7035D01*
X24935Y7022D01*
X24931Y7020D01*
X24920Y7018D01*
X24903Y7013D01*
X24883Y7007D01*
X24857Y7002D01*
X24827Y6998D01*
X24794Y6994D01*
X24761Y6992D01*
X24746D01*
X24735Y6994D01*
X24722D01*
X24707Y6996D01*
X24674Y7002D01*
X24637Y7011D01*
X24596Y7024D01*
X24559Y7042D01*
X24526Y7066D01*
X24522Y7070D01*
X24513Y7079D01*
X24500Y7096D01*
X24485Y7118D01*
X24470Y7146D01*
X24457Y7177D01*
X24448Y7216D01*
X24446Y7235D01*
X24444Y7257D01*
Y7261D01*
Y7268D01*
X24446Y7281D01*
X24448Y7298D01*
X24452Y7318D01*
X24457Y7338D01*
X24465Y7361D01*
X24474Y7381D01*
X24476Y7383D01*
X24479Y7390D01*
X24487Y7401D01*
X24496Y7414D01*
X24507Y7429D01*
X24522Y7444D01*
X24537Y7459D01*
X24555Y7472D01*
X24557Y7473D01*
X24565Y7477D01*
X24574Y7485D01*
X24589Y7492D01*
X24605Y7499D01*
X24626Y7509D01*
X24646Y7516D01*
X24670Y7523D01*
X24672D01*
X24679Y7525D01*
X24690Y7529D01*
X24705Y7531D01*
X24724Y7535D01*
X24748Y7538D01*
X24776Y7544D01*
X24809Y7547D01*
X24811D01*
X24818Y7549D01*
X24827D01*
X24840Y7551D01*
X24855Y7553D01*
X24874Y7557D01*
X24894Y7559D01*
X24916Y7562D01*
X24961Y7571D01*
X25009Y7581D01*
X25051Y7592D01*
X25071Y7597D01*
X25090Y7603D01*
Y7605D01*
Y7609D01*
X25092Y7620D01*
Y7632D01*
Y7640D01*
Y7644D01*
Y7645D01*
Y7647D01*
Y7658D01*
X25090Y7677D01*
X25086Y7697D01*
X25081Y7720D01*
X25071Y7742D01*
X25060Y7762D01*
X25046Y7779D01*
X25044Y7780D01*
X25034Y7788D01*
X25020Y7795D01*
X25001Y7806D01*
X24975Y7816D01*
X24946Y7825D01*
X24909Y7830D01*
X24866Y7832D01*
X24848D01*
X24829Y7830D01*
X24803Y7827D01*
X24777Y7823D01*
X24750Y7816D01*
X24724Y7806D01*
X24701Y7794D01*
X24700Y7792D01*
X24692Y7786D01*
X24683Y7777D01*
X24672Y7762D01*
X24661Y7744D01*
X24648Y7720D01*
X24637Y7690D01*
X24626Y7657D01*
X24472Y7677D01*
Y7679D01*
X24474Y7681D01*
Y7686D01*
X24476Y7694D01*
X24481Y7710D01*
X24489Y7734D01*
X24498Y7758D01*
X24509Y7784D01*
X24524Y7810D01*
X24541Y7834D01*
X24542Y7836D01*
X24550Y7843D01*
X24561Y7854D01*
X24576Y7869D01*
X24596Y7884D01*
X24620Y7899D01*
X24648Y7916D01*
X24679Y7929D01*
X24681D01*
X24683Y7930D01*
X24689Y7932D01*
X24696Y7934D01*
X24714Y7940D01*
X24740Y7945D01*
X24770Y7951D01*
X24807Y7956D01*
X24846Y7960D01*
X24890Y7962D01*
X24911D01*
X24931Y7960D01*
D02*
G37*
G36*
X23837Y8291D02*
X23854D01*
X23893Y8289D01*
X23934Y8284D01*
X23978Y8278D01*
X24019Y8269D01*
X24039Y8263D01*
X24056Y8258D01*
X24058D01*
X24059Y8256D01*
X24071Y8250D01*
X24087Y8243D01*
X24108Y8230D01*
X24130Y8213D01*
X24154Y8191D01*
X24176Y8165D01*
X24198Y8136D01*
Y8134D01*
X24200Y8132D01*
X24208Y8121D01*
X24215Y8102D01*
X24226Y8078D01*
X24235Y8051D01*
X24245Y8017D01*
X24250Y7982D01*
X24252Y7943D01*
Y7942D01*
Y7938D01*
Y7930D01*
X24250Y7921D01*
Y7908D01*
X24248Y7895D01*
X24241Y7864D01*
X24230Y7827D01*
X24215Y7788D01*
X24193Y7749D01*
X24178Y7731D01*
X24163Y7712D01*
X24161Y7710D01*
X24160Y7708D01*
X24154Y7703D01*
X24147Y7697D01*
X24137Y7690D01*
X24126Y7683D01*
X24111Y7673D01*
X24096Y7662D01*
X24078Y7653D01*
X24058Y7644D01*
X24035Y7632D01*
X24011Y7623D01*
X23984Y7616D01*
X23956Y7607D01*
X23924Y7601D01*
X23891Y7596D01*
X23895Y7594D01*
X23902Y7590D01*
X23913Y7583D01*
X23928Y7575D01*
X23961Y7555D01*
X23978Y7542D01*
X23993Y7531D01*
X23997Y7527D01*
X24006Y7518D01*
X24021Y7503D01*
X24039Y7485D01*
X24059Y7459D01*
X24084Y7431D01*
X24108Y7398D01*
X24134Y7361D01*
X24354Y7013D01*
X24143D01*
X23974Y7279D01*
Y7281D01*
X23971Y7285D01*
X23967Y7290D01*
X23961Y7298D01*
X23949Y7318D01*
X23932Y7344D01*
X23911Y7372D01*
X23891Y7401D01*
X23871Y7429D01*
X23852Y7455D01*
X23851Y7457D01*
X23845Y7464D01*
X23836Y7475D01*
X23823Y7488D01*
X23795Y7516D01*
X23780Y7529D01*
X23765Y7540D01*
X23764Y7542D01*
X23760Y7544D01*
X23752Y7547D01*
X23741Y7553D01*
X23730Y7559D01*
X23717Y7564D01*
X23688Y7573D01*
X23686D01*
X23682Y7575D01*
X23675D01*
X23665Y7577D01*
X23652Y7579D01*
X23638D01*
X23617Y7581D01*
X23399D01*
Y7013D01*
X23229D01*
Y8293D01*
X23823D01*
X23837Y8291D01*
D02*
G37*
G36*
X20280Y7834D02*
X20282Y7836D01*
X20286Y7840D01*
X20291Y7845D01*
X20300Y7854D01*
X20310Y7864D01*
X20323Y7875D01*
X20339Y7886D01*
X20356Y7899D01*
X20374Y7910D01*
X20395Y7921D01*
X20443Y7942D01*
X20469Y7951D01*
X20496Y7956D01*
X20526Y7960D01*
X20556Y7962D01*
X20572D01*
X20593Y7960D01*
X20617Y7956D01*
X20644Y7953D01*
X20674Y7945D01*
X20704Y7934D01*
X20733Y7921D01*
X20737Y7919D01*
X20746Y7914D01*
X20759Y7904D01*
X20776Y7891D01*
X20792Y7875D01*
X20811Y7856D01*
X20828Y7834D01*
X20842Y7808D01*
X20844Y7805D01*
X20848Y7795D01*
X20854Y7779D01*
X20859Y7755D01*
X20865Y7725D01*
X20870Y7690D01*
X20874Y7647D01*
X20876Y7599D01*
Y7013D01*
X20719D01*
Y7601D01*
Y7603D01*
Y7607D01*
Y7612D01*
Y7620D01*
X20717Y7640D01*
X20713Y7666D01*
X20706Y7694D01*
X20696Y7721D01*
X20683Y7749D01*
X20667Y7771D01*
X20665Y7773D01*
X20657Y7780D01*
X20646Y7790D01*
X20630Y7799D01*
X20609Y7810D01*
X20585Y7818D01*
X20556Y7825D01*
X20522Y7827D01*
X20511D01*
X20498Y7825D01*
X20480Y7823D01*
X20461Y7818D01*
X20439Y7812D01*
X20417Y7803D01*
X20393Y7790D01*
X20391Y7788D01*
X20384Y7782D01*
X20372Y7775D01*
X20359Y7764D01*
X20345Y7749D01*
X20330Y7732D01*
X20317Y7712D01*
X20306Y7690D01*
X20304Y7686D01*
X20302Y7679D01*
X20299Y7664D01*
X20293Y7645D01*
X20287Y7621D01*
X20284Y7592D01*
X20282Y7559D01*
X20280Y7520D01*
Y7013D01*
X20123D01*
Y8293D01*
X20280D01*
Y7834D01*
D02*
G37*
G36*
X18067Y7960D02*
X18095Y7958D01*
X18127Y7954D01*
X18158Y7949D01*
X18190Y7942D01*
X18219Y7932D01*
X18223Y7930D01*
X18232Y7927D01*
X18245Y7921D01*
X18262Y7914D01*
X18280Y7903D01*
X18299Y7891D01*
X18315Y7877D01*
X18330Y7862D01*
X18332Y7860D01*
X18336Y7854D01*
X18341Y7845D01*
X18349Y7834D01*
X18358Y7818D01*
X18365Y7801D01*
X18373Y7780D01*
X18378Y7756D01*
Y7755D01*
X18380Y7749D01*
X18382Y7738D01*
X18384Y7723D01*
Y7703D01*
X18386Y7679D01*
X18387Y7647D01*
Y7612D01*
Y7401D01*
Y7399D01*
Y7392D01*
Y7381D01*
Y7366D01*
Y7350D01*
Y7329D01*
X18389Y7285D01*
Y7238D01*
X18391Y7192D01*
X18393Y7172D01*
Y7153D01*
X18395Y7137D01*
X18397Y7124D01*
Y7122D01*
X18399Y7114D01*
X18400Y7103D01*
X18406Y7089D01*
X18410Y7072D01*
X18417Y7053D01*
X18426Y7033D01*
X18436Y7013D01*
X18271D01*
X18269Y7015D01*
X18267Y7022D01*
X18263Y7031D01*
X18258Y7046D01*
X18252Y7063D01*
X18249Y7083D01*
X18245Y7105D01*
X18241Y7129D01*
X18239D01*
X18238Y7126D01*
X18226Y7116D01*
X18210Y7103D01*
X18188Y7087D01*
X18160Y7070D01*
X18132Y7052D01*
X18102Y7035D01*
X18071Y7022D01*
X18067Y7020D01*
X18056Y7018D01*
X18040Y7013D01*
X18019Y7007D01*
X17993Y7002D01*
X17964Y6998D01*
X17931Y6994D01*
X17897Y6992D01*
X17882D01*
X17871Y6994D01*
X17858D01*
X17843Y6996D01*
X17810Y7002D01*
X17773Y7011D01*
X17733Y7024D01*
X17696Y7042D01*
X17662Y7066D01*
X17659Y7070D01*
X17649Y7079D01*
X17636Y7096D01*
X17621Y7118D01*
X17607Y7146D01*
X17594Y7177D01*
X17584Y7216D01*
X17583Y7235D01*
X17581Y7257D01*
Y7261D01*
Y7268D01*
X17583Y7281D01*
X17584Y7298D01*
X17588Y7318D01*
X17594Y7338D01*
X17601Y7361D01*
X17610Y7381D01*
X17612Y7383D01*
X17616Y7390D01*
X17623Y7401D01*
X17633Y7414D01*
X17644Y7429D01*
X17659Y7444D01*
X17673Y7459D01*
X17692Y7472D01*
X17694Y7473D01*
X17701Y7477D01*
X17710Y7485D01*
X17725Y7492D01*
X17742Y7499D01*
X17762Y7509D01*
X17783Y7516D01*
X17807Y7523D01*
X17808D01*
X17816Y7525D01*
X17827Y7529D01*
X17842Y7531D01*
X17860Y7535D01*
X17884Y7538D01*
X17912Y7544D01*
X17945Y7547D01*
X17947D01*
X17955Y7549D01*
X17964D01*
X17977Y7551D01*
X17992Y7553D01*
X18010Y7557D01*
X18030Y7559D01*
X18053Y7562D01*
X18097Y7571D01*
X18145Y7581D01*
X18188Y7592D01*
X18208Y7597D01*
X18226Y7603D01*
Y7605D01*
Y7609D01*
X18228Y7620D01*
Y7632D01*
Y7640D01*
Y7644D01*
Y7645D01*
Y7647D01*
Y7658D01*
X18226Y7677D01*
X18223Y7697D01*
X18217Y7720D01*
X18208Y7742D01*
X18197Y7762D01*
X18182Y7779D01*
X18180Y7780D01*
X18171Y7788D01*
X18156Y7795D01*
X18138Y7806D01*
X18112Y7816D01*
X18082Y7825D01*
X18045Y7830D01*
X18003Y7832D01*
X17984D01*
X17966Y7830D01*
X17940Y7827D01*
X17914Y7823D01*
X17886Y7816D01*
X17860Y7806D01*
X17838Y7794D01*
X17836Y7792D01*
X17829Y7786D01*
X17819Y7777D01*
X17808Y7762D01*
X17797Y7744D01*
X17784Y7720D01*
X17773Y7690D01*
X17762Y7657D01*
X17609Y7677D01*
Y7679D01*
X17610Y7681D01*
Y7686D01*
X17612Y7694D01*
X17618Y7710D01*
X17625Y7734D01*
X17635Y7758D01*
X17646Y7784D01*
X17660Y7810D01*
X17677Y7834D01*
X17679Y7836D01*
X17686Y7843D01*
X17697Y7854D01*
X17712Y7869D01*
X17733Y7884D01*
X17757Y7899D01*
X17784Y7916D01*
X17816Y7929D01*
X17818D01*
X17819Y7930D01*
X17825Y7932D01*
X17832Y7934D01*
X17851Y7940D01*
X17877Y7945D01*
X17907Y7951D01*
X17943Y7956D01*
X17982Y7960D01*
X18027Y7962D01*
X18047D01*
X18067Y7960D01*
D02*
G37*
G36*
X17015Y8291D02*
X17046Y8289D01*
X17079Y8287D01*
X17111Y8284D01*
X17139Y8280D01*
X17142D01*
X17155Y8276D01*
X17172Y8273D01*
X17194Y8267D01*
X17218Y8258D01*
X17244Y8247D01*
X17272Y8234D01*
X17296Y8219D01*
X17300Y8217D01*
X17307Y8212D01*
X17318Y8201D01*
X17333Y8187D01*
X17350Y8171D01*
X17366Y8149D01*
X17385Y8125D01*
X17400Y8097D01*
X17401Y8093D01*
X17405Y8084D01*
X17413Y8067D01*
X17420Y8045D01*
X17425Y8019D01*
X17433Y7990D01*
X17436Y7956D01*
X17438Y7921D01*
Y7919D01*
Y7914D01*
Y7906D01*
X17436Y7893D01*
X17435Y7880D01*
X17433Y7864D01*
X17429Y7845D01*
X17425Y7825D01*
X17413Y7782D01*
X17405Y7760D01*
X17394Y7736D01*
X17381Y7712D01*
X17368Y7690D01*
X17351Y7668D01*
X17333Y7645D01*
X17331Y7644D01*
X17327Y7640D01*
X17322Y7634D01*
X17313Y7629D01*
X17301Y7620D01*
X17287Y7610D01*
X17268Y7599D01*
X17248Y7590D01*
X17224Y7579D01*
X17196Y7568D01*
X17166Y7559D01*
X17131Y7551D01*
X17094Y7544D01*
X17054Y7538D01*
X17007Y7535D01*
X16959Y7533D01*
X16632D01*
Y7013D01*
X16462D01*
Y8293D01*
X16987D01*
X17015Y8291D01*
D02*
G37*
G36*
X19808Y7942D02*
X19967D01*
Y7819D01*
X19808D01*
Y7274D01*
Y7270D01*
Y7262D01*
Y7251D01*
X19810Y7238D01*
X19812Y7209D01*
X19814Y7196D01*
X19816Y7187D01*
X19817Y7183D01*
X19823Y7176D01*
X19830Y7166D01*
X19843Y7157D01*
X19847Y7155D01*
X19856Y7152D01*
X19873Y7148D01*
X19897Y7146D01*
X19916D01*
X19925Y7148D01*
X19938D01*
X19952Y7150D01*
X19967Y7152D01*
X19988Y7013D01*
X19984D01*
X19977Y7011D01*
X19964Y7009D01*
X19947Y7007D01*
X19929Y7004D01*
X19908Y7002D01*
X19867Y7000D01*
X19853D01*
X19838Y7002D01*
X19819Y7004D01*
X19797Y7005D01*
X19775Y7011D01*
X19755Y7017D01*
X19734Y7026D01*
X19732Y7028D01*
X19727Y7031D01*
X19719Y7037D01*
X19708Y7046D01*
X19699Y7055D01*
X19688Y7068D01*
X19677Y7081D01*
X19669Y7098D01*
Y7100D01*
X19666Y7107D01*
X19664Y7120D01*
X19660Y7139D01*
X19657Y7163D01*
X19655Y7177D01*
Y7194D01*
X19653Y7214D01*
X19651Y7235D01*
Y7257D01*
Y7283D01*
Y7819D01*
X19534D01*
Y7942D01*
X19651D01*
Y8171D01*
X19808Y8265D01*
Y7942D01*
D02*
G37*
G36*
X21529Y7960D02*
X21543Y7958D01*
X21562Y7954D01*
X21582Y7951D01*
X21607Y7945D01*
X21629Y7940D01*
X21655Y7930D01*
X21679Y7921D01*
X21704Y7908D01*
X21730Y7893D01*
X21756Y7877D01*
X21780Y7856D01*
X21802Y7834D01*
X21804Y7832D01*
X21808Y7829D01*
X21814Y7821D01*
X21821Y7810D01*
X21830Y7797D01*
X21839Y7782D01*
X21851Y7764D01*
X21862Y7742D01*
X21873Y7718D01*
X21884Y7692D01*
X21893Y7662D01*
X21902Y7631D01*
X21910Y7596D01*
X21915Y7559D01*
X21919Y7520D01*
X21921Y7477D01*
Y7475D01*
Y7468D01*
Y7455D01*
X21919Y7436D01*
X21225D01*
Y7435D01*
Y7429D01*
X21227Y7422D01*
Y7411D01*
X21229Y7398D01*
X21233Y7383D01*
X21238Y7350D01*
X21249Y7312D01*
X21264Y7272D01*
X21284Y7235D01*
X21310Y7202D01*
X21312D01*
X21314Y7198D01*
X21325Y7188D01*
X21342Y7176D01*
X21364Y7163D01*
X21394Y7148D01*
X21427Y7135D01*
X21464Y7126D01*
X21484Y7124D01*
X21507Y7122D01*
X21521D01*
X21538Y7124D01*
X21558Y7128D01*
X21580Y7133D01*
X21607Y7140D01*
X21631Y7152D01*
X21655Y7166D01*
X21656Y7168D01*
X21666Y7176D01*
X21677Y7187D01*
X21690Y7202D01*
X21704Y7222D01*
X21721Y7248D01*
X21738Y7277D01*
X21753Y7312D01*
X21915Y7292D01*
Y7290D01*
X21914Y7287D01*
X21912Y7279D01*
X21908Y7268D01*
X21902Y7257D01*
X21897Y7242D01*
X21882Y7211D01*
X21864Y7176D01*
X21838Y7139D01*
X21808Y7103D01*
X21771Y7070D01*
X21769D01*
X21766Y7066D01*
X21760Y7063D01*
X21753Y7057D01*
X21742Y7052D01*
X21730Y7046D01*
X21716Y7039D01*
X21699Y7031D01*
X21680Y7024D01*
X21662Y7017D01*
X21616Y7005D01*
X21564Y6996D01*
X21507Y6992D01*
X21486D01*
X21473Y6994D01*
X21457Y6996D01*
X21436Y7000D01*
X21414Y7004D01*
X21390Y7007D01*
X21338Y7022D01*
X21310Y7033D01*
X21284Y7044D01*
X21257Y7059D01*
X21231Y7076D01*
X21207Y7094D01*
X21183Y7116D01*
X21181Y7118D01*
X21177Y7122D01*
X21172Y7129D01*
X21164Y7140D01*
X21155Y7153D01*
X21146Y7168D01*
X21135Y7187D01*
X21124Y7207D01*
X21113Y7231D01*
X21101Y7257D01*
X21092Y7287D01*
X21083Y7318D01*
X21076Y7351D01*
X21070Y7388D01*
X21066Y7427D01*
X21064Y7468D01*
Y7470D01*
Y7479D01*
Y7490D01*
X21066Y7507D01*
X21068Y7527D01*
X21070Y7549D01*
X21074Y7575D01*
X21079Y7601D01*
X21094Y7660D01*
X21103Y7690D01*
X21114Y7721D01*
X21129Y7751D01*
X21146Y7779D01*
X21164Y7806D01*
X21185Y7832D01*
X21186Y7834D01*
X21190Y7838D01*
X21198Y7843D01*
X21207Y7853D01*
X21218Y7862D01*
X21233Y7873D01*
X21249Y7886D01*
X21270Y7897D01*
X21290Y7910D01*
X21314Y7921D01*
X21340Y7932D01*
X21368Y7942D01*
X21397Y7951D01*
X21429Y7956D01*
X21462Y7960D01*
X21497Y7962D01*
X21516D01*
X21529Y7960D01*
D02*
G37*
G36*
X28150D02*
X28163Y7958D01*
X28179Y7954D01*
X28198Y7951D01*
X28218Y7945D01*
X28239Y7938D01*
X28261Y7929D01*
X28283Y7917D01*
X28307Y7904D01*
X28329Y7890D01*
X28352Y7871D01*
X28374Y7851D01*
X28394Y7827D01*
Y7942D01*
X28538D01*
Y7139D01*
Y7137D01*
Y7129D01*
Y7118D01*
Y7103D01*
X28536Y7087D01*
Y7066D01*
X28535Y7044D01*
X28533Y7020D01*
X28527Y6970D01*
X28520Y6918D01*
X28514Y6894D01*
X28509Y6872D01*
X28501Y6852D01*
X28494Y6833D01*
Y6831D01*
X28492Y6830D01*
X28485Y6819D01*
X28475Y6802D01*
X28461Y6781D01*
X28440Y6759D01*
X28416Y6735D01*
X28387Y6711D01*
X28353Y6691D01*
X28352D01*
X28350Y6689D01*
X28344Y6685D01*
X28337Y6684D01*
X28328Y6678D01*
X28316Y6674D01*
X28289Y6665D01*
X28255Y6654D01*
X28215Y6646D01*
X28168Y6639D01*
X28119Y6637D01*
X28102D01*
X28091Y6639D01*
X28076D01*
X28061Y6641D01*
X28043Y6643D01*
X28022Y6646D01*
X27980Y6656D01*
X27935Y6669D01*
X27891Y6687D01*
X27850Y6713D01*
X27848Y6715D01*
X27847Y6717D01*
X27834Y6728D01*
X27819Y6745D01*
X27800Y6769D01*
X27782Y6800D01*
X27765Y6839D01*
X27760Y6861D01*
X27756Y6885D01*
X27752Y6909D01*
Y6937D01*
X27906Y6917D01*
Y6913D01*
X27907Y6905D01*
X27911Y6893D01*
X27915Y6876D01*
X27922Y6859D01*
X27932Y6843D01*
X27943Y6826D01*
X27957Y6813D01*
X27961Y6811D01*
X27969Y6806D01*
X27981Y6798D01*
X28000Y6791D01*
X28022Y6781D01*
X28050Y6774D01*
X28083Y6769D01*
X28119Y6767D01*
X28137D01*
X28155Y6769D01*
X28181Y6772D01*
X28207Y6778D01*
X28235Y6785D01*
X28263Y6796D01*
X28287Y6811D01*
X28289Y6813D01*
X28296Y6819D01*
X28307Y6830D01*
X28320Y6843D01*
X28333Y6861D01*
X28346Y6881D01*
X28359Y6905D01*
X28368Y6933D01*
Y6935D01*
X28370Y6943D01*
X28372Y6957D01*
X28374Y6976D01*
X28376Y6989D01*
Y7004D01*
X28377Y7020D01*
Y7039D01*
Y7059D01*
X28379Y7083D01*
Y7107D01*
Y7135D01*
X28377Y7133D01*
X28374Y7129D01*
X28368Y7124D01*
X28361Y7116D01*
X28352Y7107D01*
X28339Y7096D01*
X28324Y7085D01*
X28309Y7074D01*
X28270Y7052D01*
X28228Y7031D01*
X28204Y7024D01*
X28178Y7018D01*
X28150Y7015D01*
X28122Y7013D01*
X28113D01*
X28104Y7015D01*
X28091D01*
X28074Y7017D01*
X28056Y7020D01*
X28035Y7024D01*
X28013Y7029D01*
X27989Y7037D01*
X27965Y7046D01*
X27941Y7057D01*
X27915Y7070D01*
X27891Y7087D01*
X27867Y7105D01*
X27845Y7126D01*
X27824Y7150D01*
X27822Y7152D01*
X27821Y7155D01*
X27815Y7164D01*
X27808Y7174D01*
X27800Y7188D01*
X27791Y7203D01*
X27782Y7222D01*
X27773Y7244D01*
X27763Y7266D01*
X27754Y7292D01*
X27745Y7318D01*
X27737Y7348D01*
X27724Y7411D01*
X27723Y7446D01*
X27721Y7481D01*
Y7483D01*
Y7486D01*
Y7494D01*
Y7503D01*
X27723Y7516D01*
Y7529D01*
X27726Y7562D01*
X27732Y7599D01*
X27741Y7640D01*
X27752Y7683D01*
X27769Y7725D01*
Y7727D01*
X27771Y7731D01*
X27774Y7736D01*
X27778Y7744D01*
X27789Y7764D01*
X27804Y7790D01*
X27824Y7818D01*
X27848Y7845D01*
X27876Y7875D01*
X27907Y7899D01*
X27909D01*
X27911Y7901D01*
X27917Y7904D01*
X27924Y7908D01*
X27943Y7919D01*
X27969Y7930D01*
X28000Y7942D01*
X28037Y7953D01*
X28078Y7960D01*
X28122Y7962D01*
X28139D01*
X28150Y7960D01*
D02*
G37*
G36*
X14523Y6379D02*
X14545Y6378D01*
X14571Y6374D01*
X14597Y6370D01*
X14626Y6364D01*
X14602Y6228D01*
X14601D01*
X14595Y6230D01*
X14586Y6231D01*
X14573Y6233D01*
X14558D01*
X14543Y6235D01*
X14510Y6237D01*
X14499D01*
X14486Y6235D01*
X14471Y6233D01*
X14454Y6230D01*
X14438Y6224D01*
X14423Y6216D01*
X14410Y6205D01*
X14408Y6204D01*
X14406Y6200D01*
X14401Y6193D01*
X14395Y6179D01*
X14390Y6165D01*
X14386Y6146D01*
X14382Y6122D01*
X14380Y6093D01*
Y6007D01*
X14560D01*
Y5885D01*
X14380D01*
Y5079D01*
X14223D01*
Y5885D01*
X14084D01*
Y5957D01*
X14034Y5832D01*
X14033Y5834D01*
X14025Y5837D01*
X14014Y5843D01*
X13999Y5848D01*
X13983Y5854D01*
X13962Y5860D01*
X13942Y5863D01*
X13922Y5865D01*
X13912D01*
X13903Y5863D01*
X13890Y5861D01*
X13877Y5858D01*
X13860Y5852D01*
X13844Y5845D01*
X13829Y5834D01*
X13827Y5832D01*
X13822Y5828D01*
X13816Y5821D01*
X13807Y5811D01*
X13798Y5798D01*
X13788Y5784D01*
X13779Y5767D01*
X13772Y5747D01*
X13770Y5743D01*
X13768Y5732D01*
X13764Y5715D01*
X13759Y5693D01*
X13753Y5665D01*
X13749Y5634D01*
X13748Y5601D01*
X13746Y5564D01*
Y5079D01*
X13589D01*
Y6007D01*
X13731D01*
Y5867D01*
X13733Y5869D01*
X13740Y5882D01*
X13749Y5898D01*
X13764Y5919D01*
X13779Y5939D01*
X13796Y5961D01*
X13812Y5980D01*
X13829Y5994D01*
X13831Y5996D01*
X13836Y6000D01*
X13848Y6006D01*
X13859Y6011D01*
X13873Y6017D01*
X13892Y6022D01*
X13911Y6026D01*
X13931Y6028D01*
X13944D01*
X13960Y6026D01*
X13981Y6022D01*
X14005Y6015D01*
X14031Y6006D01*
X14060Y5993D01*
X14084Y5980D01*
Y6007D01*
X14223D01*
Y6106D01*
Y6107D01*
Y6109D01*
Y6120D01*
X14225Y6137D01*
Y6157D01*
X14227Y6179D01*
X14231Y6204D01*
X14234Y6226D01*
X14240Y6244D01*
X14242Y6246D01*
X14243Y6255D01*
X14249Y6267D01*
X14258Y6279D01*
X14269Y6294D01*
X14282Y6311D01*
X14299Y6328D01*
X14319Y6342D01*
X14321Y6344D01*
X14330Y6348D01*
X14343Y6355D01*
X14362Y6363D01*
X14384Y6368D01*
X14412Y6376D01*
X14443Y6379D01*
X14480Y6381D01*
X14506D01*
X14523Y6379D01*
D02*
G37*
G36*
X26224D02*
X26237D01*
X26272Y6376D01*
X26311Y6370D01*
X26352Y6361D01*
X26396Y6350D01*
X26437Y6335D01*
X26439D01*
X26442Y6333D01*
X26448Y6329D01*
X26455Y6326D01*
X26474Y6316D01*
X26498Y6300D01*
X26526Y6281D01*
X26553Y6257D01*
X26579Y6230D01*
X26603Y6198D01*
Y6196D01*
X26605Y6194D01*
X26609Y6189D01*
X26612Y6183D01*
X26622Y6165D01*
X26633Y6141D01*
X26646Y6111D01*
X26655Y6076D01*
X26664Y6039D01*
X26668Y5998D01*
X26505Y5985D01*
Y5987D01*
Y5991D01*
X26503Y5996D01*
X26502Y6006D01*
X26496Y6026D01*
X26489Y6054D01*
X26478Y6083D01*
X26461Y6113D01*
X26441Y6141D01*
X26415Y6167D01*
X26411Y6168D01*
X26402Y6176D01*
X26383Y6187D01*
X26359Y6198D01*
X26328Y6209D01*
X26291Y6220D01*
X26244Y6228D01*
X26193Y6230D01*
X26167D01*
X26156Y6228D01*
X26141Y6226D01*
X26107Y6222D01*
X26070Y6215D01*
X26033Y6205D01*
X25998Y6191D01*
X25984Y6181D01*
X25969Y6172D01*
X25965Y6170D01*
X25958Y6163D01*
X25947Y6150D01*
X25935Y6135D01*
X25923Y6115D01*
X25911Y6093D01*
X25904Y6067D01*
X25900Y6037D01*
Y6033D01*
Y6026D01*
X25902Y6013D01*
X25906Y5998D01*
X25911Y5980D01*
X25921Y5961D01*
X25932Y5943D01*
X25948Y5924D01*
X25950Y5922D01*
X25960Y5917D01*
X25967Y5911D01*
X25974Y5908D01*
X25985Y5902D01*
X25998Y5895D01*
X26015Y5889D01*
X26033Y5882D01*
X26054Y5874D01*
X26078Y5865D01*
X26104Y5858D01*
X26133Y5848D01*
X26167Y5841D01*
X26204Y5832D01*
X26206D01*
X26213Y5830D01*
X26224Y5828D01*
X26237Y5824D01*
X26254Y5821D01*
X26274Y5815D01*
X26294Y5810D01*
X26317Y5804D01*
X26365Y5791D01*
X26411Y5778D01*
X26433Y5771D01*
X26453Y5763D01*
X26472Y5758D01*
X26487Y5750D01*
X26489D01*
X26492Y5748D01*
X26498Y5745D01*
X26505Y5741D01*
X26526Y5730D01*
X26550Y5715D01*
X26577Y5695D01*
X26605Y5673D01*
X26631Y5647D01*
X26653Y5619D01*
X26655Y5615D01*
X26662Y5606D01*
X26670Y5589D01*
X26681Y5567D01*
X26690Y5541D01*
X26700Y5510D01*
X26705Y5475D01*
X26707Y5438D01*
Y5436D01*
Y5434D01*
Y5428D01*
Y5421D01*
X26703Y5401D01*
X26700Y5375D01*
X26692Y5345D01*
X26683Y5314D01*
X26668Y5280D01*
X26648Y5245D01*
Y5243D01*
X26646Y5242D01*
X26637Y5231D01*
X26624Y5214D01*
X26605Y5195D01*
X26581Y5173D01*
X26551Y5149D01*
X26518Y5127D01*
X26479Y5107D01*
X26478D01*
X26474Y5105D01*
X26468Y5103D01*
X26461Y5099D01*
X26450Y5095D01*
X26437Y5090D01*
X26407Y5082D01*
X26372Y5073D01*
X26329Y5064D01*
X26283Y5058D01*
X26233Y5057D01*
X26204D01*
X26189Y5058D01*
X26172D01*
X26154Y5060D01*
X26131Y5062D01*
X26085Y5069D01*
X26037Y5077D01*
X25989Y5090D01*
X25943Y5107D01*
X25941D01*
X25937Y5108D01*
X25932Y5112D01*
X25924Y5116D01*
X25902Y5127D01*
X25876Y5144D01*
X25847Y5166D01*
X25815Y5192D01*
X25786Y5223D01*
X25758Y5258D01*
Y5260D01*
X25754Y5264D01*
X25752Y5269D01*
X25747Y5277D01*
X25743Y5286D01*
X25738Y5297D01*
X25725Y5325D01*
X25712Y5360D01*
X25701Y5399D01*
X25693Y5443D01*
X25689Y5489D01*
X25848Y5504D01*
Y5502D01*
Y5501D01*
X25850Y5495D01*
Y5488D01*
X25854Y5471D01*
X25860Y5447D01*
X25867Y5423D01*
X25874Y5395D01*
X25887Y5369D01*
X25900Y5345D01*
X25902Y5343D01*
X25908Y5336D01*
X25917Y5323D01*
X25932Y5310D01*
X25950Y5293D01*
X25971Y5277D01*
X25998Y5260D01*
X26028Y5245D01*
X26030D01*
X26032Y5243D01*
X26037Y5242D01*
X26043Y5240D01*
X26061Y5234D01*
X26085Y5227D01*
X26115Y5219D01*
X26148Y5214D01*
X26185Y5210D01*
X26226Y5208D01*
X26243D01*
X26261Y5210D01*
X26283Y5212D01*
X26309Y5216D01*
X26339Y5219D01*
X26368Y5227D01*
X26396Y5236D01*
X26400Y5238D01*
X26409Y5242D01*
X26422Y5249D01*
X26439Y5256D01*
X26455Y5269D01*
X26474Y5282D01*
X26492Y5297D01*
X26507Y5316D01*
X26509Y5317D01*
X26513Y5325D01*
X26518Y5334D01*
X26526Y5349D01*
X26533Y5364D01*
X26539Y5382D01*
X26542Y5403D01*
X26544Y5425D01*
Y5427D01*
Y5436D01*
X26542Y5447D01*
X26540Y5462D01*
X26535Y5477D01*
X26529Y5495D01*
X26520Y5514D01*
X26507Y5530D01*
X26505Y5532D01*
X26500Y5538D01*
X26492Y5545D01*
X26479Y5556D01*
X26465Y5567D01*
X26444Y5580D01*
X26420Y5593D01*
X26392Y5604D01*
X26391Y5606D01*
X26381Y5608D01*
X26366Y5613D01*
X26357Y5615D01*
X26344Y5619D01*
X26331Y5624D01*
X26315Y5628D01*
X26296Y5634D01*
X26274Y5639D01*
X26252Y5645D01*
X26226Y5652D01*
X26196Y5660D01*
X26165Y5667D01*
X26163D01*
X26158Y5669D01*
X26148Y5671D01*
X26137Y5675D01*
X26122Y5678D01*
X26106Y5682D01*
X26069Y5693D01*
X26028Y5706D01*
X25985Y5719D01*
X25948Y5732D01*
X25932Y5739D01*
X25917Y5747D01*
X25915D01*
X25913Y5748D01*
X25902Y5756D01*
X25885Y5765D01*
X25867Y5780D01*
X25845Y5797D01*
X25823Y5817D01*
X25800Y5841D01*
X25782Y5867D01*
X25780Y5871D01*
X25774Y5880D01*
X25767Y5895D01*
X25760Y5913D01*
X25752Y5937D01*
X25745Y5965D01*
X25739Y5994D01*
X25738Y6026D01*
Y6028D01*
Y6030D01*
Y6035D01*
Y6043D01*
X25741Y6061D01*
X25745Y6085D01*
X25750Y6113D01*
X25760Y6144D01*
X25773Y6176D01*
X25791Y6207D01*
Y6209D01*
X25793Y6211D01*
X25802Y6222D01*
X25815Y6237D01*
X25832Y6255D01*
X25854Y6276D01*
X25882Y6298D01*
X25915Y6318D01*
X25952Y6337D01*
X25954D01*
X25958Y6339D01*
X25963Y6340D01*
X25971Y6344D01*
X25980Y6348D01*
X25993Y6352D01*
X26021Y6359D01*
X26056Y6366D01*
X26096Y6374D01*
X26139Y6379D01*
X26187Y6381D01*
X26211D01*
X26224Y6379D01*
D02*
G37*
G36*
X11900D02*
X11912D01*
X11948Y6376D01*
X11987Y6370D01*
X12027Y6361D01*
X12072Y6350D01*
X12112Y6335D01*
X12114D01*
X12118Y6333D01*
X12123Y6329D01*
X12131Y6326D01*
X12149Y6316D01*
X12173Y6300D01*
X12201Y6281D01*
X12229Y6257D01*
X12255Y6230D01*
X12279Y6198D01*
Y6196D01*
X12281Y6194D01*
X12284Y6189D01*
X12288Y6183D01*
X12297Y6165D01*
X12308Y6141D01*
X12321Y6111D01*
X12331Y6076D01*
X12340Y6039D01*
X12343Y5998D01*
X12181Y5985D01*
Y5987D01*
Y5991D01*
X12179Y5996D01*
X12177Y6006D01*
X12172Y6026D01*
X12164Y6054D01*
X12153Y6083D01*
X12136Y6113D01*
X12116Y6141D01*
X12090Y6167D01*
X12086Y6168D01*
X12077Y6176D01*
X12059Y6187D01*
X12035Y6198D01*
X12003Y6209D01*
X11966Y6220D01*
X11920Y6228D01*
X11868Y6230D01*
X11842D01*
X11831Y6228D01*
X11816Y6226D01*
X11783Y6222D01*
X11746Y6215D01*
X11709Y6205D01*
X11674Y6191D01*
X11659Y6181D01*
X11644Y6172D01*
X11641Y6170D01*
X11633Y6163D01*
X11622Y6150D01*
X11611Y6135D01*
X11598Y6115D01*
X11587Y6093D01*
X11579Y6067D01*
X11576Y6037D01*
Y6033D01*
Y6026D01*
X11578Y6013D01*
X11581Y5998D01*
X11587Y5980D01*
X11596Y5961D01*
X11607Y5943D01*
X11624Y5924D01*
X11626Y5922D01*
X11635Y5917D01*
X11642Y5911D01*
X11650Y5908D01*
X11661Y5902D01*
X11674Y5895D01*
X11690Y5889D01*
X11709Y5882D01*
X11729Y5874D01*
X11753Y5865D01*
X11779Y5858D01*
X11809Y5848D01*
X11842Y5841D01*
X11879Y5832D01*
X11881D01*
X11888Y5830D01*
X11900Y5828D01*
X11912Y5824D01*
X11929Y5821D01*
X11949Y5815D01*
X11970Y5810D01*
X11992Y5804D01*
X12040Y5791D01*
X12086Y5778D01*
X12109Y5771D01*
X12129Y5763D01*
X12147Y5758D01*
X12162Y5750D01*
X12164D01*
X12168Y5748D01*
X12173Y5745D01*
X12181Y5741D01*
X12201Y5730D01*
X12225Y5715D01*
X12253Y5695D01*
X12281Y5673D01*
X12307Y5647D01*
X12329Y5619D01*
X12331Y5615D01*
X12338Y5606D01*
X12345Y5589D01*
X12356Y5567D01*
X12366Y5541D01*
X12375Y5510D01*
X12381Y5475D01*
X12382Y5438D01*
Y5436D01*
Y5434D01*
Y5428D01*
Y5421D01*
X12379Y5401D01*
X12375Y5375D01*
X12368Y5345D01*
X12358Y5314D01*
X12343Y5280D01*
X12323Y5245D01*
Y5243D01*
X12321Y5242D01*
X12312Y5231D01*
X12299Y5214D01*
X12281Y5195D01*
X12257Y5173D01*
X12227Y5149D01*
X12194Y5127D01*
X12155Y5107D01*
X12153D01*
X12149Y5105D01*
X12144Y5103D01*
X12136Y5099D01*
X12125Y5095D01*
X12112Y5090D01*
X12083Y5082D01*
X12048Y5073D01*
X12005Y5064D01*
X11959Y5058D01*
X11909Y5057D01*
X11879D01*
X11864Y5058D01*
X11848D01*
X11829Y5060D01*
X11807Y5062D01*
X11761Y5069D01*
X11713Y5077D01*
X11665Y5090D01*
X11618Y5107D01*
X11616D01*
X11613Y5108D01*
X11607Y5112D01*
X11600Y5116D01*
X11578Y5127D01*
X11552Y5144D01*
X11522Y5166D01*
X11491Y5192D01*
X11461Y5223D01*
X11433Y5258D01*
Y5260D01*
X11430Y5264D01*
X11428Y5269D01*
X11422Y5277D01*
X11418Y5286D01*
X11413Y5297D01*
X11400Y5325D01*
X11387Y5360D01*
X11376Y5399D01*
X11369Y5443D01*
X11365Y5489D01*
X11524Y5504D01*
Y5502D01*
Y5501D01*
X11526Y5495D01*
Y5488D01*
X11530Y5471D01*
X11535Y5447D01*
X11542Y5423D01*
X11550Y5395D01*
X11563Y5369D01*
X11576Y5345D01*
X11578Y5343D01*
X11583Y5336D01*
X11592Y5323D01*
X11607Y5310D01*
X11626Y5293D01*
X11646Y5277D01*
X11674Y5260D01*
X11703Y5245D01*
X11705D01*
X11707Y5243D01*
X11713Y5242D01*
X11718Y5240D01*
X11737Y5234D01*
X11761Y5227D01*
X11790Y5219D01*
X11824Y5214D01*
X11861Y5210D01*
X11901Y5208D01*
X11918D01*
X11936Y5210D01*
X11959Y5212D01*
X11985Y5216D01*
X12014Y5219D01*
X12044Y5227D01*
X12072Y5236D01*
X12075Y5238D01*
X12084Y5242D01*
X12098Y5249D01*
X12114Y5256D01*
X12131Y5269D01*
X12149Y5282D01*
X12168Y5297D01*
X12183Y5316D01*
X12184Y5317D01*
X12188Y5325D01*
X12194Y5334D01*
X12201Y5349D01*
X12208Y5364D01*
X12214Y5382D01*
X12218Y5403D01*
X12219Y5425D01*
Y5427D01*
Y5436D01*
X12218Y5447D01*
X12216Y5462D01*
X12210Y5477D01*
X12205Y5495D01*
X12195Y5514D01*
X12183Y5530D01*
X12181Y5532D01*
X12175Y5538D01*
X12168Y5545D01*
X12155Y5556D01*
X12140Y5567D01*
X12120Y5580D01*
X12096Y5593D01*
X12068Y5604D01*
X12066Y5606D01*
X12057Y5608D01*
X12042Y5613D01*
X12033Y5615D01*
X12020Y5619D01*
X12007Y5624D01*
X11990Y5628D01*
X11972Y5634D01*
X11949Y5639D01*
X11927Y5645D01*
X11901Y5652D01*
X11872Y5660D01*
X11840Y5667D01*
X11839D01*
X11833Y5669D01*
X11824Y5671D01*
X11813Y5675D01*
X11798Y5678D01*
X11781Y5682D01*
X11744Y5693D01*
X11703Y5706D01*
X11661Y5719D01*
X11624Y5732D01*
X11607Y5739D01*
X11592Y5747D01*
X11591D01*
X11589Y5748D01*
X11578Y5756D01*
X11561Y5765D01*
X11542Y5780D01*
X11520Y5797D01*
X11498Y5817D01*
X11476Y5841D01*
X11457Y5867D01*
X11456Y5871D01*
X11450Y5880D01*
X11443Y5895D01*
X11435Y5913D01*
X11428Y5937D01*
X11420Y5965D01*
X11415Y5994D01*
X11413Y6026D01*
Y6028D01*
Y6030D01*
Y6035D01*
Y6043D01*
X11417Y6061D01*
X11420Y6085D01*
X11426Y6113D01*
X11435Y6144D01*
X11448Y6176D01*
X11467Y6207D01*
Y6209D01*
X11468Y6211D01*
X11478Y6222D01*
X11491Y6237D01*
X11507Y6255D01*
X11530Y6276D01*
X11557Y6298D01*
X11591Y6318D01*
X11627Y6337D01*
X11629D01*
X11633Y6339D01*
X11639Y6340D01*
X11646Y6344D01*
X11655Y6348D01*
X11668Y6352D01*
X11696Y6359D01*
X11731Y6366D01*
X11772Y6374D01*
X11814Y6379D01*
X11863Y6381D01*
X11886D01*
X11900Y6379D01*
D02*
G37*
G36*
X28379Y6026D02*
X28400Y6024D01*
X28424Y6020D01*
X28450Y6015D01*
X28477Y6007D01*
X28503Y5996D01*
X28507Y5994D01*
X28514Y5991D01*
X28527Y5985D01*
X28542Y5976D01*
X28561Y5965D01*
X28577Y5950D01*
X28594Y5935D01*
X28609Y5917D01*
X28611Y5915D01*
X28614Y5908D01*
X28620Y5898D01*
X28629Y5885D01*
X28637Y5867D01*
X28644Y5848D01*
X28653Y5826D01*
X28659Y5802D01*
Y5800D01*
X28661Y5793D01*
X28662Y5782D01*
X28664Y5767D01*
Y5745D01*
X28666Y5719D01*
X28668Y5687D01*
Y5649D01*
Y5079D01*
X28511D01*
Y5641D01*
Y5643D01*
Y5645D01*
Y5658D01*
Y5675D01*
X28509Y5695D01*
X28507Y5719D01*
X28503Y5743D01*
X28498Y5765D01*
X28492Y5785D01*
Y5787D01*
X28488Y5793D01*
X28483Y5802D01*
X28477Y5813D01*
X28468Y5824D01*
X28457Y5837D01*
X28442Y5850D01*
X28425Y5861D01*
X28424Y5863D01*
X28418Y5867D01*
X28407Y5871D01*
X28394Y5876D01*
X28379Y5882D01*
X28361Y5887D01*
X28339Y5889D01*
X28316Y5891D01*
X28307D01*
X28300Y5889D01*
X28281Y5887D01*
X28257Y5883D01*
X28231Y5874D01*
X28202Y5863D01*
X28172Y5848D01*
X28144Y5826D01*
X28141Y5822D01*
X28133Y5813D01*
X28128Y5806D01*
X28122Y5797D01*
X28115Y5785D01*
X28109Y5773D01*
X28102Y5758D01*
X28094Y5739D01*
X28089Y5719D01*
X28083Y5697D01*
X28080Y5673D01*
X28076Y5647D01*
X28072Y5615D01*
Y5584D01*
Y5079D01*
X27915D01*
Y6007D01*
X28056D01*
Y5874D01*
X28057Y5876D01*
X28061Y5882D01*
X28067Y5889D01*
X28074Y5898D01*
X28085Y5909D01*
X28098Y5922D01*
X28113Y5937D01*
X28131Y5952D01*
X28150Y5965D01*
X28172Y5980D01*
X28196Y5993D01*
X28222Y6004D01*
X28252Y6013D01*
X28281Y6020D01*
X28315Y6026D01*
X28350Y6028D01*
X28365D01*
X28379Y6026D01*
D02*
G37*
G36*
X31171D02*
X31191Y6022D01*
X31215Y6015D01*
X31241Y6006D01*
X31271Y5993D01*
X31302Y5976D01*
X31245Y5832D01*
X31243Y5834D01*
X31236Y5837D01*
X31225Y5843D01*
X31210Y5848D01*
X31193Y5854D01*
X31173Y5860D01*
X31152Y5863D01*
X31132Y5865D01*
X31123D01*
X31114Y5863D01*
X31101Y5861D01*
X31088Y5858D01*
X31071Y5852D01*
X31054Y5845D01*
X31040Y5834D01*
X31038Y5832D01*
X31032Y5828D01*
X31027Y5821D01*
X31017Y5811D01*
X31008Y5798D01*
X30999Y5784D01*
X30990Y5767D01*
X30982Y5747D01*
X30980Y5743D01*
X30979Y5732D01*
X30975Y5715D01*
X30969Y5693D01*
X30964Y5665D01*
X30960Y5634D01*
X30958Y5601D01*
X30956Y5564D01*
Y5079D01*
X30799D01*
Y6007D01*
X30942D01*
Y5867D01*
X30943Y5869D01*
X30951Y5882D01*
X30960Y5898D01*
X30975Y5919D01*
X30990Y5939D01*
X31006Y5961D01*
X31023Y5980D01*
X31040Y5994D01*
X31041Y5996D01*
X31047Y6000D01*
X31058Y6006D01*
X31069Y6011D01*
X31084Y6017D01*
X31102Y6022D01*
X31121Y6026D01*
X31141Y6028D01*
X31154D01*
X31171Y6026D01*
D02*
G37*
G36*
X24008D02*
X24028Y6022D01*
X24052Y6015D01*
X24078Y6006D01*
X24108Y5993D01*
X24139Y5976D01*
X24082Y5832D01*
X24080Y5834D01*
X24072Y5837D01*
X24061Y5843D01*
X24047Y5848D01*
X24030Y5854D01*
X24010Y5860D01*
X23989Y5863D01*
X23969Y5865D01*
X23960D01*
X23950Y5863D01*
X23937Y5861D01*
X23924Y5858D01*
X23908Y5852D01*
X23891Y5845D01*
X23876Y5834D01*
X23875Y5832D01*
X23869Y5828D01*
X23864Y5821D01*
X23854Y5811D01*
X23845Y5798D01*
X23836Y5784D01*
X23826Y5767D01*
X23819Y5747D01*
X23817Y5743D01*
X23815Y5732D01*
X23812Y5715D01*
X23806Y5693D01*
X23801Y5665D01*
X23797Y5634D01*
X23795Y5601D01*
X23793Y5564D01*
Y5079D01*
X23636D01*
Y6007D01*
X23778D01*
Y5867D01*
X23780Y5869D01*
X23788Y5882D01*
X23797Y5898D01*
X23812Y5919D01*
X23826Y5939D01*
X23843Y5961D01*
X23860Y5980D01*
X23876Y5994D01*
X23878Y5996D01*
X23884Y6000D01*
X23895Y6006D01*
X23906Y6011D01*
X23921Y6017D01*
X23939Y6022D01*
X23958Y6026D01*
X23978Y6028D01*
X23991D01*
X24008Y6026D01*
D02*
G37*
G36*
X19631D02*
X19651Y6022D01*
X19675Y6015D01*
X19701Y6006D01*
X19730Y5993D01*
X19762Y5976D01*
X19705Y5832D01*
X19703Y5834D01*
X19695Y5837D01*
X19684Y5843D01*
X19669Y5848D01*
X19653Y5854D01*
X19633Y5860D01*
X19612Y5863D01*
X19592Y5865D01*
X19583D01*
X19573Y5863D01*
X19560Y5861D01*
X19547Y5858D01*
X19531Y5852D01*
X19514Y5845D01*
X19499Y5834D01*
X19498Y5832D01*
X19492Y5828D01*
X19486Y5821D01*
X19477Y5811D01*
X19468Y5798D01*
X19459Y5784D01*
X19449Y5767D01*
X19442Y5747D01*
X19440Y5743D01*
X19438Y5732D01*
X19434Y5715D01*
X19429Y5693D01*
X19423Y5665D01*
X19420Y5634D01*
X19418Y5601D01*
X19416Y5564D01*
Y5079D01*
X19259D01*
Y6007D01*
X19401D01*
Y5867D01*
X19403Y5869D01*
X19410Y5882D01*
X19420Y5898D01*
X19434Y5919D01*
X19449Y5939D01*
X19466Y5961D01*
X19483Y5980D01*
X19499Y5994D01*
X19501Y5996D01*
X19507Y6000D01*
X19518Y6006D01*
X19529Y6011D01*
X19544Y6017D01*
X19562Y6022D01*
X19581Y6026D01*
X19601Y6028D01*
X19614D01*
X19631Y6026D01*
D02*
G37*
G36*
X29252D02*
X29280Y6024D01*
X29310Y6020D01*
X29341Y6013D01*
X29375Y6006D01*
X29406Y5994D01*
X29408D01*
X29410Y5993D01*
X29419Y5989D01*
X29434Y5982D01*
X29452Y5972D01*
X29473Y5959D01*
X29493Y5945D01*
X29511Y5928D01*
X29528Y5909D01*
X29530Y5908D01*
X29534Y5900D01*
X29541Y5887D01*
X29550Y5872D01*
X29560Y5850D01*
X29569Y5826D01*
X29576Y5798D01*
X29584Y5767D01*
X29430Y5747D01*
Y5750D01*
X29428Y5758D01*
X29425Y5771D01*
X29419Y5787D01*
X29410Y5804D01*
X29399Y5822D01*
X29386Y5841D01*
X29367Y5858D01*
X29365Y5860D01*
X29358Y5863D01*
X29347Y5871D01*
X29330Y5878D01*
X29312Y5885D01*
X29288Y5893D01*
X29258Y5897D01*
X29227Y5898D01*
X29208D01*
X29190Y5897D01*
X29166Y5895D01*
X29142Y5889D01*
X29116Y5883D01*
X29092Y5874D01*
X29071Y5861D01*
X29069Y5860D01*
X29064Y5856D01*
X29056Y5848D01*
X29049Y5837D01*
X29040Y5826D01*
X29032Y5811D01*
X29027Y5795D01*
X29025Y5778D01*
Y5776D01*
Y5773D01*
X29027Y5767D01*
Y5760D01*
X29032Y5741D01*
X29043Y5723D01*
X29045Y5721D01*
X29047Y5719D01*
X29051Y5713D01*
X29058Y5708D01*
X29066Y5702D01*
X29077Y5695D01*
X29090Y5689D01*
X29105Y5682D01*
X29106D01*
X29110Y5680D01*
X29118Y5678D01*
X29130Y5673D01*
X29149Y5667D01*
X29173Y5661D01*
X29188Y5656D01*
X29204Y5652D01*
X29223Y5647D01*
X29243Y5641D01*
X29245D01*
X29251Y5639D01*
X29260Y5638D01*
X29271Y5634D01*
X29284Y5630D01*
X29301Y5626D01*
X29336Y5615D01*
X29375Y5604D01*
X29414Y5591D01*
X29449Y5578D01*
X29463Y5573D01*
X29476Y5567D01*
X29480Y5565D01*
X29487Y5562D01*
X29499Y5556D01*
X29515Y5547D01*
X29532Y5536D01*
X29548Y5521D01*
X29565Y5504D01*
X29580Y5486D01*
X29582Y5484D01*
X29585Y5477D01*
X29593Y5465D01*
X29600Y5449D01*
X29606Y5428D01*
X29613Y5406D01*
X29617Y5380D01*
X29619Y5351D01*
Y5347D01*
Y5338D01*
X29617Y5323D01*
X29613Y5303D01*
X29608Y5280D01*
X29599Y5256D01*
X29587Y5229D01*
X29573Y5203D01*
X29571Y5199D01*
X29563Y5192D01*
X29554Y5179D01*
X29539Y5164D01*
X29519Y5147D01*
X29497Y5129D01*
X29471Y5112D01*
X29439Y5095D01*
X29438D01*
X29436Y5094D01*
X29425Y5090D01*
X29406Y5084D01*
X29382Y5077D01*
X29352Y5069D01*
X29319Y5064D01*
X29284Y5060D01*
X29243Y5058D01*
X29227D01*
X29214Y5060D01*
X29199D01*
X29180Y5062D01*
X29162Y5064D01*
X29142Y5068D01*
X29097Y5077D01*
X29051Y5090D01*
X29006Y5108D01*
X28986Y5119D01*
X28968Y5132D01*
X28966Y5134D01*
X28964Y5136D01*
X28953Y5147D01*
X28936Y5164D01*
X28918Y5190D01*
X28897Y5221D01*
X28877Y5258D01*
X28860Y5305D01*
X28847Y5356D01*
X29003Y5380D01*
Y5378D01*
Y5377D01*
X29006Y5365D01*
X29010Y5347D01*
X29017Y5327D01*
X29027Y5305D01*
X29038Y5280D01*
X29055Y5256D01*
X29075Y5236D01*
X29079Y5234D01*
X29086Y5229D01*
X29101Y5221D01*
X29119Y5212D01*
X29143Y5203D01*
X29171Y5195D01*
X29204Y5190D01*
X29243Y5188D01*
X29262D01*
X29280Y5190D01*
X29304Y5193D01*
X29330Y5199D01*
X29358Y5206D01*
X29382Y5216D01*
X29404Y5231D01*
X29406Y5232D01*
X29414Y5238D01*
X29421Y5247D01*
X29432Y5260D01*
X29441Y5275D01*
X29451Y5293D01*
X29456Y5312D01*
X29458Y5334D01*
Y5336D01*
Y5343D01*
X29456Y5353D01*
X29452Y5365D01*
X29447Y5378D01*
X29438Y5391D01*
X29426Y5406D01*
X29410Y5417D01*
X29408Y5419D01*
X29402Y5421D01*
X29393Y5427D01*
X29378Y5432D01*
X29356Y5440D01*
X29343Y5445D01*
X29328Y5449D01*
X29312Y5454D01*
X29293Y5460D01*
X29273Y5465D01*
X29249Y5471D01*
X29247D01*
X29241Y5473D01*
X29232Y5475D01*
X29221Y5478D01*
X29206Y5482D01*
X29190Y5488D01*
X29155Y5497D01*
X29114Y5510D01*
X29075Y5521D01*
X29038Y5534D01*
X29021Y5541D01*
X29008Y5547D01*
X29005Y5549D01*
X28997Y5552D01*
X28986Y5560D01*
X28971Y5569D01*
X28955Y5582D01*
X28938Y5597D01*
X28921Y5613D01*
X28907Y5634D01*
X28905Y5636D01*
X28901Y5643D01*
X28895Y5656D01*
X28890Y5671D01*
X28884Y5689D01*
X28879Y5711D01*
X28875Y5734D01*
X28873Y5760D01*
Y5763D01*
Y5771D01*
X28875Y5782D01*
X28877Y5798D01*
X28881Y5815D01*
X28884Y5835D01*
X28892Y5854D01*
X28901Y5874D01*
X28903Y5876D01*
X28907Y5883D01*
X28912Y5893D01*
X28921Y5906D01*
X28932Y5919D01*
X28945Y5935D01*
X28960Y5950D01*
X28979Y5963D01*
X28980Y5965D01*
X28986Y5967D01*
X28993Y5972D01*
X29005Y5978D01*
X29019Y5985D01*
X29036Y5993D01*
X29056Y6000D01*
X29079Y6007D01*
X29082Y6009D01*
X29090Y6011D01*
X29103Y6015D01*
X29119Y6019D01*
X29140Y6022D01*
X29162Y6024D01*
X29188Y6028D01*
X29232D01*
X29252Y6026D01*
D02*
G37*
G36*
X22089D02*
X22117Y6024D01*
X22147Y6020D01*
X22178Y6013D01*
X22211Y6006D01*
X22243Y5994D01*
X22245D01*
X22246Y5993D01*
X22256Y5989D01*
X22271Y5982D01*
X22289Y5972D01*
X22309Y5959D01*
X22330Y5945D01*
X22348Y5928D01*
X22365Y5909D01*
X22367Y5908D01*
X22370Y5900D01*
X22378Y5887D01*
X22387Y5872D01*
X22396Y5850D01*
X22406Y5826D01*
X22413Y5798D01*
X22420Y5767D01*
X22267Y5747D01*
Y5750D01*
X22265Y5758D01*
X22261Y5771D01*
X22256Y5787D01*
X22246Y5804D01*
X22235Y5822D01*
X22222Y5841D01*
X22204Y5858D01*
X22202Y5860D01*
X22195Y5863D01*
X22184Y5871D01*
X22167Y5878D01*
X22149Y5885D01*
X22124Y5893D01*
X22095Y5897D01*
X22063Y5898D01*
X22045D01*
X22026Y5897D01*
X22002Y5895D01*
X21978Y5889D01*
X21952Y5883D01*
X21928Y5874D01*
X21908Y5861D01*
X21906Y5860D01*
X21901Y5856D01*
X21893Y5848D01*
X21886Y5837D01*
X21877Y5826D01*
X21869Y5811D01*
X21864Y5795D01*
X21862Y5778D01*
Y5776D01*
Y5773D01*
X21864Y5767D01*
Y5760D01*
X21869Y5741D01*
X21880Y5723D01*
X21882Y5721D01*
X21884Y5719D01*
X21888Y5713D01*
X21895Y5708D01*
X21902Y5702D01*
X21914Y5695D01*
X21926Y5689D01*
X21941Y5682D01*
X21943D01*
X21947Y5680D01*
X21954Y5678D01*
X21967Y5673D01*
X21986Y5667D01*
X22010Y5661D01*
X22025Y5656D01*
X22041Y5652D01*
X22060Y5647D01*
X22080Y5641D01*
X22082D01*
X22087Y5639D01*
X22097Y5638D01*
X22108Y5634D01*
X22121Y5630D01*
X22137Y5626D01*
X22173Y5615D01*
X22211Y5604D01*
X22250Y5591D01*
X22285Y5578D01*
X22300Y5573D01*
X22313Y5567D01*
X22317Y5565D01*
X22324Y5562D01*
X22335Y5556D01*
X22352Y5547D01*
X22369Y5536D01*
X22385Y5521D01*
X22402Y5504D01*
X22417Y5486D01*
X22419Y5484D01*
X22422Y5477D01*
X22430Y5465D01*
X22437Y5449D01*
X22443Y5428D01*
X22450Y5406D01*
X22454Y5380D01*
X22456Y5351D01*
Y5347D01*
Y5338D01*
X22454Y5323D01*
X22450Y5303D01*
X22445Y5280D01*
X22435Y5256D01*
X22424Y5229D01*
X22409Y5203D01*
X22408Y5199D01*
X22400Y5192D01*
X22391Y5179D01*
X22376Y5164D01*
X22356Y5147D01*
X22333Y5129D01*
X22308Y5112D01*
X22276Y5095D01*
X22274D01*
X22273Y5094D01*
X22261Y5090D01*
X22243Y5084D01*
X22219Y5077D01*
X22189Y5069D01*
X22156Y5064D01*
X22121Y5060D01*
X22080Y5058D01*
X22063D01*
X22050Y5060D01*
X22036D01*
X22017Y5062D01*
X21999Y5064D01*
X21978Y5068D01*
X21934Y5077D01*
X21888Y5090D01*
X21843Y5108D01*
X21823Y5119D01*
X21804Y5132D01*
X21802Y5134D01*
X21801Y5136D01*
X21790Y5147D01*
X21773Y5164D01*
X21754Y5190D01*
X21734Y5221D01*
X21714Y5258D01*
X21697Y5305D01*
X21684Y5356D01*
X21839Y5380D01*
Y5378D01*
Y5377D01*
X21843Y5365D01*
X21847Y5347D01*
X21854Y5327D01*
X21864Y5305D01*
X21875Y5280D01*
X21891Y5256D01*
X21912Y5236D01*
X21915Y5234D01*
X21923Y5229D01*
X21938Y5221D01*
X21956Y5212D01*
X21980Y5203D01*
X22008Y5195D01*
X22041Y5190D01*
X22080Y5188D01*
X22099D01*
X22117Y5190D01*
X22141Y5193D01*
X22167Y5199D01*
X22195Y5206D01*
X22219Y5216D01*
X22241Y5231D01*
X22243Y5232D01*
X22250Y5238D01*
X22258Y5247D01*
X22269Y5260D01*
X22278Y5275D01*
X22287Y5293D01*
X22293Y5312D01*
X22295Y5334D01*
Y5336D01*
Y5343D01*
X22293Y5353D01*
X22289Y5365D01*
X22284Y5378D01*
X22274Y5391D01*
X22263Y5406D01*
X22246Y5417D01*
X22245Y5419D01*
X22239Y5421D01*
X22230Y5427D01*
X22215Y5432D01*
X22193Y5440D01*
X22180Y5445D01*
X22165Y5449D01*
X22149Y5454D01*
X22130Y5460D01*
X22110Y5465D01*
X22086Y5471D01*
X22084D01*
X22078Y5473D01*
X22069Y5475D01*
X22058Y5478D01*
X22043Y5482D01*
X22026Y5488D01*
X21991Y5497D01*
X21951Y5510D01*
X21912Y5521D01*
X21875Y5534D01*
X21858Y5541D01*
X21845Y5547D01*
X21841Y5549D01*
X21834Y5552D01*
X21823Y5560D01*
X21808Y5569D01*
X21791Y5582D01*
X21775Y5597D01*
X21758Y5613D01*
X21743Y5634D01*
X21742Y5636D01*
X21738Y5643D01*
X21732Y5656D01*
X21727Y5671D01*
X21721Y5689D01*
X21716Y5711D01*
X21712Y5734D01*
X21710Y5760D01*
Y5763D01*
Y5771D01*
X21712Y5782D01*
X21714Y5798D01*
X21717Y5815D01*
X21721Y5835D01*
X21729Y5854D01*
X21738Y5874D01*
X21740Y5876D01*
X21743Y5883D01*
X21749Y5893D01*
X21758Y5906D01*
X21769Y5919D01*
X21782Y5935D01*
X21797Y5950D01*
X21815Y5963D01*
X21817Y5965D01*
X21823Y5967D01*
X21830Y5972D01*
X21841Y5978D01*
X21856Y5985D01*
X21873Y5993D01*
X21893Y6000D01*
X21915Y6007D01*
X21919Y6009D01*
X21926Y6011D01*
X21939Y6015D01*
X21956Y6019D01*
X21976Y6022D01*
X21999Y6024D01*
X22025Y6028D01*
X22069D01*
X22089Y6026D01*
D02*
G37*
G36*
X21194D02*
X21222Y6024D01*
X21251Y6020D01*
X21283Y6013D01*
X21316Y6006D01*
X21348Y5994D01*
X21349D01*
X21351Y5993D01*
X21360Y5989D01*
X21375Y5982D01*
X21394Y5972D01*
X21414Y5959D01*
X21434Y5945D01*
X21453Y5928D01*
X21470Y5909D01*
X21471Y5908D01*
X21475Y5900D01*
X21483Y5887D01*
X21492Y5872D01*
X21501Y5850D01*
X21510Y5826D01*
X21518Y5798D01*
X21525Y5767D01*
X21372Y5747D01*
Y5750D01*
X21370Y5758D01*
X21366Y5771D01*
X21360Y5787D01*
X21351Y5804D01*
X21340Y5822D01*
X21327Y5841D01*
X21309Y5858D01*
X21307Y5860D01*
X21299Y5863D01*
X21288Y5871D01*
X21272Y5878D01*
X21253Y5885D01*
X21229Y5893D01*
X21199Y5897D01*
X21168Y5898D01*
X21149D01*
X21131Y5897D01*
X21107Y5895D01*
X21083Y5889D01*
X21057Y5883D01*
X21033Y5874D01*
X21013Y5861D01*
X21011Y5860D01*
X21005Y5856D01*
X20998Y5848D01*
X20990Y5837D01*
X20981Y5826D01*
X20974Y5811D01*
X20968Y5795D01*
X20966Y5778D01*
Y5776D01*
Y5773D01*
X20968Y5767D01*
Y5760D01*
X20974Y5741D01*
X20985Y5723D01*
X20987Y5721D01*
X20989Y5719D01*
X20992Y5713D01*
X21000Y5708D01*
X21007Y5702D01*
X21018Y5695D01*
X21031Y5689D01*
X21046Y5682D01*
X21048D01*
X21051Y5680D01*
X21059Y5678D01*
X21072Y5673D01*
X21090Y5667D01*
X21114Y5661D01*
X21129Y5656D01*
X21146Y5652D01*
X21164Y5647D01*
X21185Y5641D01*
X21186D01*
X21192Y5639D01*
X21201Y5638D01*
X21212Y5634D01*
X21225Y5630D01*
X21242Y5626D01*
X21277Y5615D01*
X21316Y5604D01*
X21355Y5591D01*
X21390Y5578D01*
X21405Y5573D01*
X21418Y5567D01*
X21421Y5565D01*
X21429Y5562D01*
X21440Y5556D01*
X21457Y5547D01*
X21473Y5536D01*
X21490Y5521D01*
X21507Y5504D01*
X21521Y5486D01*
X21523Y5484D01*
X21527Y5477D01*
X21534Y5465D01*
X21542Y5449D01*
X21547Y5428D01*
X21555Y5406D01*
X21558Y5380D01*
X21560Y5351D01*
Y5347D01*
Y5338D01*
X21558Y5323D01*
X21555Y5303D01*
X21549Y5280D01*
X21540Y5256D01*
X21529Y5229D01*
X21514Y5203D01*
X21512Y5199D01*
X21505Y5192D01*
X21495Y5179D01*
X21481Y5164D01*
X21460Y5147D01*
X21438Y5129D01*
X21412Y5112D01*
X21381Y5095D01*
X21379D01*
X21377Y5094D01*
X21366Y5090D01*
X21348Y5084D01*
X21323Y5077D01*
X21294Y5069D01*
X21260Y5064D01*
X21225Y5060D01*
X21185Y5058D01*
X21168D01*
X21155Y5060D01*
X21140D01*
X21122Y5062D01*
X21103Y5064D01*
X21083Y5068D01*
X21038Y5077D01*
X20992Y5090D01*
X20948Y5108D01*
X20928Y5119D01*
X20909Y5132D01*
X20907Y5134D01*
X20905Y5136D01*
X20894Y5147D01*
X20877Y5164D01*
X20859Y5190D01*
X20839Y5221D01*
X20818Y5258D01*
X20802Y5305D01*
X20789Y5356D01*
X20944Y5380D01*
Y5378D01*
Y5377D01*
X20948Y5365D01*
X20952Y5347D01*
X20959Y5327D01*
X20968Y5305D01*
X20979Y5280D01*
X20996Y5256D01*
X21016Y5236D01*
X21020Y5234D01*
X21027Y5229D01*
X21042Y5221D01*
X21061Y5212D01*
X21085Y5203D01*
X21113Y5195D01*
X21146Y5190D01*
X21185Y5188D01*
X21203D01*
X21222Y5190D01*
X21246Y5193D01*
X21272Y5199D01*
X21299Y5206D01*
X21323Y5216D01*
X21346Y5231D01*
X21348Y5232D01*
X21355Y5238D01*
X21362Y5247D01*
X21373Y5260D01*
X21383Y5275D01*
X21392Y5293D01*
X21397Y5312D01*
X21399Y5334D01*
Y5336D01*
Y5343D01*
X21397Y5353D01*
X21394Y5365D01*
X21388Y5378D01*
X21379Y5391D01*
X21368Y5406D01*
X21351Y5417D01*
X21349Y5419D01*
X21344Y5421D01*
X21335Y5427D01*
X21320Y5432D01*
X21297Y5440D01*
X21284Y5445D01*
X21270Y5449D01*
X21253Y5454D01*
X21235Y5460D01*
X21214Y5465D01*
X21190Y5471D01*
X21188D01*
X21183Y5473D01*
X21174Y5475D01*
X21162Y5478D01*
X21148Y5482D01*
X21131Y5488D01*
X21096Y5497D01*
X21055Y5510D01*
X21016Y5521D01*
X20979Y5534D01*
X20963Y5541D01*
X20950Y5547D01*
X20946Y5549D01*
X20939Y5552D01*
X20928Y5560D01*
X20913Y5569D01*
X20896Y5582D01*
X20879Y5597D01*
X20863Y5613D01*
X20848Y5634D01*
X20846Y5636D01*
X20842Y5643D01*
X20837Y5656D01*
X20831Y5671D01*
X20826Y5689D01*
X20820Y5711D01*
X20817Y5734D01*
X20815Y5760D01*
Y5763D01*
Y5771D01*
X20817Y5782D01*
X20818Y5798D01*
X20822Y5815D01*
X20826Y5835D01*
X20833Y5854D01*
X20842Y5874D01*
X20844Y5876D01*
X20848Y5883D01*
X20854Y5893D01*
X20863Y5906D01*
X20874Y5919D01*
X20887Y5935D01*
X20902Y5950D01*
X20920Y5963D01*
X20922Y5965D01*
X20928Y5967D01*
X20935Y5972D01*
X20946Y5978D01*
X20961Y5985D01*
X20977Y5993D01*
X20998Y6000D01*
X21020Y6007D01*
X21024Y6009D01*
X21031Y6011D01*
X21044Y6015D01*
X21061Y6019D01*
X21081Y6022D01*
X21103Y6024D01*
X21129Y6028D01*
X21174D01*
X21194Y6026D01*
D02*
G37*
G36*
X16081D02*
X16092D01*
X16106Y6024D01*
X16142Y6019D01*
X16180Y6009D01*
X16221Y5994D01*
X16262Y5976D01*
X16301Y5950D01*
X16303D01*
X16304Y5946D01*
X16316Y5935D01*
X16332Y5919D01*
X16352Y5895D01*
X16373Y5865D01*
X16393Y5828D01*
X16412Y5785D01*
X16425Y5736D01*
X16271Y5711D01*
Y5713D01*
X16269Y5715D01*
X16267Y5726D01*
X16262Y5743D01*
X16252Y5763D01*
X16243Y5785D01*
X16229Y5810D01*
X16212Y5832D01*
X16193Y5850D01*
X16192Y5852D01*
X16184Y5858D01*
X16171Y5865D01*
X16156Y5874D01*
X16136Y5883D01*
X16114Y5891D01*
X16088Y5897D01*
X16060Y5898D01*
X16049D01*
X16040Y5897D01*
X16019Y5895D01*
X15992Y5887D01*
X15962Y5878D01*
X15929Y5863D01*
X15897Y5841D01*
X15883Y5828D01*
X15868Y5813D01*
Y5811D01*
X15864Y5810D01*
X15860Y5804D01*
X15857Y5797D01*
X15851Y5787D01*
X15844Y5776D01*
X15838Y5763D01*
X15831Y5748D01*
X15823Y5730D01*
X15818Y5710D01*
X15810Y5687D01*
X15805Y5663D01*
X15801Y5638D01*
X15798Y5608D01*
X15794Y5576D01*
Y5543D01*
Y5541D01*
Y5536D01*
Y5525D01*
X15796Y5514D01*
Y5497D01*
X15798Y5480D01*
X15803Y5440D01*
X15810Y5395D01*
X15823Y5349D01*
X15840Y5308D01*
X15851Y5288D01*
X15864Y5271D01*
X15868Y5268D01*
X15877Y5258D01*
X15894Y5245D01*
X15914Y5231D01*
X15942Y5214D01*
X15973Y5201D01*
X16010Y5192D01*
X16030Y5190D01*
X16051Y5188D01*
X16055D01*
X16066Y5190D01*
X16084Y5192D01*
X16105Y5195D01*
X16129Y5201D01*
X16154Y5212D01*
X16180Y5225D01*
X16204Y5243D01*
X16208Y5245D01*
X16214Y5254D01*
X16225Y5268D01*
X16238Y5288D01*
X16251Y5312D01*
X16265Y5342D01*
X16277Y5378D01*
X16284Y5419D01*
X16439Y5399D01*
Y5397D01*
X16438Y5391D01*
X16436Y5384D01*
X16434Y5373D01*
X16430Y5358D01*
X16426Y5343D01*
X16413Y5306D01*
X16397Y5268D01*
X16373Y5225D01*
X16343Y5184D01*
X16327Y5166D01*
X16308Y5147D01*
X16306Y5145D01*
X16303Y5144D01*
X16297Y5140D01*
X16289Y5134D01*
X16280Y5127D01*
X16267Y5119D01*
X16252Y5112D01*
X16238Y5103D01*
X16201Y5086D01*
X16156Y5073D01*
X16108Y5062D01*
X16081Y5060D01*
X16053Y5058D01*
X16034D01*
X16021Y5060D01*
X16005Y5062D01*
X15986Y5066D01*
X15966Y5069D01*
X15944Y5073D01*
X15894Y5088D01*
X15870Y5099D01*
X15844Y5110D01*
X15818Y5125D01*
X15794Y5142D01*
X15770Y5160D01*
X15747Y5182D01*
X15746Y5184D01*
X15742Y5188D01*
X15736Y5195D01*
X15729Y5205D01*
X15722Y5218D01*
X15710Y5234D01*
X15701Y5253D01*
X15690Y5273D01*
X15679Y5297D01*
X15670Y5325D01*
X15659Y5353D01*
X15651Y5386D01*
X15644Y5419D01*
X15638Y5458D01*
X15635Y5497D01*
X15633Y5539D01*
Y5541D01*
Y5547D01*
Y5554D01*
Y5565D01*
X15635Y5578D01*
Y5593D01*
X15637Y5610D01*
X15638Y5628D01*
X15644Y5669D01*
X15653Y5713D01*
X15664Y5758D01*
X15681Y5802D01*
Y5804D01*
X15683Y5808D01*
X15686Y5813D01*
X15690Y5821D01*
X15701Y5841D01*
X15718Y5865D01*
X15740Y5893D01*
X15766Y5920D01*
X15798Y5948D01*
X15833Y5971D01*
X15834D01*
X15838Y5972D01*
X15844Y5976D01*
X15851Y5980D01*
X15860Y5983D01*
X15871Y5989D01*
X15899Y6000D01*
X15931Y6009D01*
X15969Y6019D01*
X16010Y6026D01*
X16055Y6028D01*
X16069D01*
X16081Y6026D01*
D02*
G37*
G36*
X32455Y5079D02*
X32277D01*
X31782Y6359D01*
X31966D01*
X32300Y5428D01*
Y5427D01*
X32301Y5423D01*
X32303Y5417D01*
X32307Y5410D01*
X32309Y5399D01*
X32312Y5388D01*
X32322Y5360D01*
X32333Y5328D01*
X32344Y5293D01*
X32366Y5219D01*
Y5221D01*
X32368Y5225D01*
X32370Y5231D01*
X32372Y5238D01*
X32377Y5258D01*
X32386Y5286D01*
X32396Y5317D01*
X32407Y5353D01*
X32420Y5390D01*
X32434Y5428D01*
X32782Y6359D01*
X32954D01*
X32455Y5079D01*
D02*
G37*
G36*
X23392D02*
X23251D01*
Y5214D01*
X23249Y5212D01*
X23246Y5206D01*
X23240Y5199D01*
X23231Y5190D01*
X23220Y5179D01*
X23207Y5164D01*
X23192Y5151D01*
X23173Y5136D01*
X23153Y5121D01*
X23131Y5108D01*
X23107Y5095D01*
X23081Y5082D01*
X23051Y5073D01*
X23022Y5066D01*
X22988Y5060D01*
X22955Y5058D01*
X22942D01*
X22926Y5060D01*
X22905Y5062D01*
X22881Y5066D01*
X22855Y5071D01*
X22829Y5079D01*
X22802Y5090D01*
X22798Y5092D01*
X22791Y5095D01*
X22777Y5103D01*
X22763Y5112D01*
X22744Y5123D01*
X22727Y5136D01*
X22711Y5151D01*
X22696Y5168D01*
X22694Y5169D01*
X22691Y5177D01*
X22685Y5186D01*
X22678Y5201D01*
X22668Y5218D01*
X22661Y5238D01*
X22654Y5260D01*
X22648Y5284D01*
Y5286D01*
X22646Y5293D01*
X22644Y5305D01*
Y5319D01*
X22642Y5342D01*
X22641Y5365D01*
X22639Y5397D01*
Y5432D01*
Y6007D01*
X22796D01*
Y5491D01*
Y5489D01*
Y5486D01*
Y5480D01*
Y5471D01*
Y5451D01*
X22798Y5425D01*
Y5397D01*
X22800Y5369D01*
X22802Y5345D01*
X22805Y5325D01*
Y5323D01*
X22809Y5316D01*
X22813Y5305D01*
X22818Y5290D01*
X22827Y5275D01*
X22839Y5258D01*
X22851Y5243D01*
X22868Y5229D01*
X22870Y5227D01*
X22877Y5223D01*
X22887Y5218D01*
X22901Y5212D01*
X22918Y5205D01*
X22939Y5199D01*
X22961Y5195D01*
X22986Y5193D01*
X22999D01*
X23012Y5195D01*
X23029Y5197D01*
X23049Y5203D01*
X23072Y5208D01*
X23096Y5218D01*
X23120Y5229D01*
X23123Y5231D01*
X23131Y5236D01*
X23142Y5243D01*
X23155Y5254D01*
X23170Y5269D01*
X23185Y5286D01*
X23198Y5305D01*
X23209Y5327D01*
X23210Y5330D01*
X23212Y5338D01*
X23216Y5353D01*
X23222Y5373D01*
X23227Y5399D01*
X23231Y5430D01*
X23233Y5467D01*
X23234Y5510D01*
Y6007D01*
X23392D01*
Y5079D01*
D02*
G37*
G36*
X13344D02*
X13204D01*
Y5214D01*
X13202Y5212D01*
X13198Y5206D01*
X13193Y5199D01*
X13183Y5190D01*
X13172Y5179D01*
X13159Y5164D01*
X13145Y5151D01*
X13126Y5136D01*
X13106Y5121D01*
X13083Y5108D01*
X13059Y5095D01*
X13034Y5082D01*
X13004Y5073D01*
X12974Y5066D01*
X12941Y5060D01*
X12908Y5058D01*
X12895D01*
X12878Y5060D01*
X12858Y5062D01*
X12834Y5066D01*
X12808Y5071D01*
X12782Y5079D01*
X12754Y5090D01*
X12751Y5092D01*
X12743Y5095D01*
X12730Y5103D01*
X12715Y5112D01*
X12697Y5123D01*
X12680Y5136D01*
X12664Y5151D01*
X12649Y5168D01*
X12647Y5169D01*
X12643Y5177D01*
X12638Y5186D01*
X12630Y5201D01*
X12621Y5218D01*
X12614Y5238D01*
X12606Y5260D01*
X12601Y5284D01*
Y5286D01*
X12599Y5293D01*
X12597Y5305D01*
Y5319D01*
X12595Y5342D01*
X12593Y5365D01*
X12591Y5397D01*
Y5432D01*
Y6007D01*
X12749D01*
Y5491D01*
Y5489D01*
Y5486D01*
Y5480D01*
Y5471D01*
Y5451D01*
X12751Y5425D01*
Y5397D01*
X12752Y5369D01*
X12754Y5345D01*
X12758Y5325D01*
Y5323D01*
X12762Y5316D01*
X12765Y5305D01*
X12771Y5290D01*
X12780Y5275D01*
X12791Y5258D01*
X12804Y5243D01*
X12821Y5229D01*
X12823Y5227D01*
X12830Y5223D01*
X12839Y5218D01*
X12854Y5212D01*
X12871Y5205D01*
X12891Y5199D01*
X12913Y5195D01*
X12939Y5193D01*
X12952D01*
X12965Y5195D01*
X12982Y5197D01*
X13002Y5203D01*
X13024Y5208D01*
X13048Y5218D01*
X13072Y5229D01*
X13076Y5231D01*
X13083Y5236D01*
X13095Y5243D01*
X13108Y5254D01*
X13122Y5269D01*
X13137Y5286D01*
X13150Y5305D01*
X13161Y5327D01*
X13163Y5330D01*
X13165Y5338D01*
X13169Y5353D01*
X13174Y5373D01*
X13180Y5399D01*
X13183Y5430D01*
X13185Y5467D01*
X13187Y5510D01*
Y6007D01*
X13344D01*
Y5079D01*
D02*
G37*
G36*
X33635D02*
X33478D01*
Y6080D01*
X33476Y6078D01*
X33467Y6070D01*
X33456Y6059D01*
X33437Y6046D01*
X33417Y6030D01*
X33391Y6011D01*
X33361Y5991D01*
X33328Y5971D01*
X33326D01*
X33324Y5969D01*
X33313Y5961D01*
X33295Y5952D01*
X33273Y5941D01*
X33247Y5928D01*
X33219Y5915D01*
X33191Y5902D01*
X33163Y5891D01*
Y6043D01*
X33165D01*
X33169Y6046D01*
X33176Y6048D01*
X33186Y6054D01*
X33197Y6059D01*
X33210Y6067D01*
X33241Y6085D01*
X33278Y6106D01*
X33315Y6131D01*
X33354Y6161D01*
X33393Y6193D01*
X33395Y6194D01*
X33397Y6196D01*
X33402Y6202D01*
X33409Y6207D01*
X33426Y6226D01*
X33448Y6248D01*
X33470Y6274D01*
X33494Y6303D01*
X33515Y6333D01*
X33533Y6364D01*
X33635D01*
Y5079D01*
D02*
G37*
G36*
X18641Y6357D02*
X18672Y6355D01*
X18706Y6353D01*
X18737Y6350D01*
X18765Y6346D01*
X18768D01*
X18781Y6342D01*
X18798Y6339D01*
X18820Y6333D01*
X18844Y6324D01*
X18870Y6313D01*
X18898Y6300D01*
X18922Y6285D01*
X18926Y6283D01*
X18933Y6278D01*
X18944Y6267D01*
X18959Y6254D01*
X18976Y6237D01*
X18992Y6215D01*
X19011Y6191D01*
X19026Y6163D01*
X19027Y6159D01*
X19031Y6150D01*
X19039Y6133D01*
X19046Y6111D01*
X19052Y6085D01*
X19059Y6056D01*
X19063Y6022D01*
X19064Y5987D01*
Y5985D01*
Y5980D01*
Y5972D01*
X19063Y5959D01*
X19061Y5946D01*
X19059Y5930D01*
X19055Y5911D01*
X19052Y5891D01*
X19039Y5848D01*
X19031Y5826D01*
X19020Y5802D01*
X19007Y5778D01*
X18994Y5756D01*
X18978Y5734D01*
X18959Y5711D01*
X18957Y5710D01*
X18954Y5706D01*
X18948Y5700D01*
X18939Y5695D01*
X18928Y5686D01*
X18913Y5676D01*
X18894Y5665D01*
X18874Y5656D01*
X18850Y5645D01*
X18822Y5634D01*
X18793Y5624D01*
X18757Y5617D01*
X18720Y5610D01*
X18680Y5604D01*
X18633Y5601D01*
X18585Y5599D01*
X18258D01*
Y5079D01*
X18088D01*
Y6359D01*
X18613D01*
X18641Y6357D01*
D02*
G37*
G36*
X15117Y6026D02*
X15144Y6024D01*
X15176Y6020D01*
X15207Y6015D01*
X15239Y6007D01*
X15268Y5998D01*
X15272Y5996D01*
X15281Y5993D01*
X15294Y5987D01*
X15311Y5980D01*
X15329Y5969D01*
X15348Y5957D01*
X15364Y5943D01*
X15379Y5928D01*
X15381Y5926D01*
X15385Y5920D01*
X15391Y5911D01*
X15398Y5900D01*
X15407Y5883D01*
X15415Y5867D01*
X15422Y5847D01*
X15427Y5822D01*
Y5821D01*
X15429Y5815D01*
X15431Y5804D01*
X15433Y5789D01*
Y5769D01*
X15435Y5745D01*
X15437Y5713D01*
Y5678D01*
Y5467D01*
Y5465D01*
Y5458D01*
Y5447D01*
Y5432D01*
Y5415D01*
Y5395D01*
X15439Y5351D01*
Y5305D01*
X15440Y5258D01*
X15442Y5238D01*
Y5219D01*
X15444Y5203D01*
X15446Y5190D01*
Y5188D01*
X15448Y5181D01*
X15450Y5169D01*
X15455Y5155D01*
X15459Y5138D01*
X15466Y5119D01*
X15476Y5099D01*
X15485Y5079D01*
X15320D01*
X15318Y5081D01*
X15316Y5088D01*
X15313Y5097D01*
X15307Y5112D01*
X15302Y5129D01*
X15298Y5149D01*
X15294Y5171D01*
X15291Y5195D01*
X15289D01*
X15287Y5192D01*
X15276Y5182D01*
X15259Y5169D01*
X15237Y5153D01*
X15209Y5136D01*
X15181Y5118D01*
X15152Y5101D01*
X15120Y5088D01*
X15117Y5086D01*
X15105Y5084D01*
X15089Y5079D01*
X15068Y5073D01*
X15043Y5068D01*
X15013Y5064D01*
X14980Y5060D01*
X14946Y5058D01*
X14932D01*
X14921Y5060D01*
X14908D01*
X14893Y5062D01*
X14860Y5068D01*
X14822Y5077D01*
X14782Y5090D01*
X14745Y5108D01*
X14712Y5132D01*
X14708Y5136D01*
X14699Y5145D01*
X14686Y5162D01*
X14671Y5184D01*
X14656Y5212D01*
X14643Y5243D01*
X14634Y5282D01*
X14632Y5301D01*
X14630Y5323D01*
Y5327D01*
Y5334D01*
X14632Y5347D01*
X14634Y5364D01*
X14638Y5384D01*
X14643Y5404D01*
X14650Y5427D01*
X14660Y5447D01*
X14661Y5449D01*
X14665Y5456D01*
X14673Y5467D01*
X14682Y5480D01*
X14693Y5495D01*
X14708Y5510D01*
X14723Y5525D01*
X14741Y5538D01*
X14743Y5539D01*
X14750Y5543D01*
X14760Y5551D01*
X14774Y5558D01*
X14791Y5565D01*
X14811Y5575D01*
X14832Y5582D01*
X14856Y5589D01*
X14858D01*
X14865Y5591D01*
X14876Y5595D01*
X14891Y5597D01*
X14909Y5601D01*
X14933Y5604D01*
X14961Y5610D01*
X14995Y5613D01*
X14996D01*
X15004Y5615D01*
X15013D01*
X15026Y5617D01*
X15041Y5619D01*
X15059Y5623D01*
X15080Y5624D01*
X15102Y5628D01*
X15146Y5638D01*
X15194Y5647D01*
X15237Y5658D01*
X15257Y5663D01*
X15276Y5669D01*
Y5671D01*
Y5675D01*
X15278Y5686D01*
Y5698D01*
Y5706D01*
Y5710D01*
Y5711D01*
Y5713D01*
Y5724D01*
X15276Y5743D01*
X15272Y5763D01*
X15267Y5785D01*
X15257Y5808D01*
X15246Y5828D01*
X15231Y5845D01*
X15229Y5847D01*
X15220Y5854D01*
X15205Y5861D01*
X15187Y5872D01*
X15161Y5882D01*
X15132Y5891D01*
X15094Y5897D01*
X15052Y5898D01*
X15033D01*
X15015Y5897D01*
X14989Y5893D01*
X14963Y5889D01*
X14935Y5882D01*
X14909Y5872D01*
X14887Y5860D01*
X14885Y5858D01*
X14878Y5852D01*
X14869Y5843D01*
X14858Y5828D01*
X14846Y5810D01*
X14834Y5785D01*
X14822Y5756D01*
X14811Y5723D01*
X14658Y5743D01*
Y5745D01*
X14660Y5747D01*
Y5752D01*
X14661Y5760D01*
X14667Y5776D01*
X14674Y5800D01*
X14684Y5824D01*
X14695Y5850D01*
X14710Y5876D01*
X14726Y5900D01*
X14728Y5902D01*
X14736Y5909D01*
X14747Y5920D01*
X14761Y5935D01*
X14782Y5950D01*
X14806Y5965D01*
X14834Y5982D01*
X14865Y5994D01*
X14867D01*
X14869Y5996D01*
X14874Y5998D01*
X14882Y6000D01*
X14900Y6006D01*
X14926Y6011D01*
X14956Y6017D01*
X14993Y6022D01*
X15032Y6026D01*
X15076Y6028D01*
X15096D01*
X15117Y6026D01*
D02*
G37*
G36*
X30213D02*
X30229Y6024D01*
X30248Y6020D01*
X30268Y6017D01*
X30292Y6013D01*
X30342Y5996D01*
X30368Y5987D01*
X30394Y5974D01*
X30420Y5961D01*
X30446Y5943D01*
X30470Y5924D01*
X30494Y5902D01*
X30496Y5900D01*
X30499Y5897D01*
X30505Y5889D01*
X30512Y5880D01*
X30522Y5867D01*
X30533Y5850D01*
X30544Y5832D01*
X30555Y5811D01*
X30566Y5789D01*
X30577Y5761D01*
X30588Y5734D01*
X30597Y5702D01*
X30605Y5669D01*
X30610Y5634D01*
X30614Y5597D01*
X30616Y5556D01*
Y5554D01*
Y5549D01*
Y5539D01*
Y5526D01*
X30614Y5512D01*
X30612Y5493D01*
Y5475D01*
X30609Y5454D01*
X30603Y5408D01*
X30592Y5362D01*
X30579Y5316D01*
X30560Y5273D01*
Y5271D01*
X30559Y5269D01*
X30555Y5264D01*
X30551Y5256D01*
X30538Y5238D01*
X30522Y5216D01*
X30499Y5190D01*
X30472Y5164D01*
X30440Y5138D01*
X30403Y5114D01*
X30401D01*
X30400Y5112D01*
X30394Y5108D01*
X30385Y5105D01*
X30375Y5101D01*
X30364Y5097D01*
X30337Y5086D01*
X30305Y5077D01*
X30266Y5068D01*
X30226Y5060D01*
X30181Y5058D01*
X30163D01*
X30148Y5060D01*
X30131Y5062D01*
X30113Y5066D01*
X30091Y5069D01*
X30068Y5073D01*
X30018Y5088D01*
X29991Y5099D01*
X29965Y5110D01*
X29939Y5125D01*
X29913Y5142D01*
X29889Y5160D01*
X29865Y5182D01*
X29863Y5184D01*
X29859Y5188D01*
X29854Y5195D01*
X29846Y5206D01*
X29837Y5219D01*
X29828Y5234D01*
X29817Y5253D01*
X29806Y5275D01*
X29794Y5299D01*
X29783Y5327D01*
X29774Y5356D01*
X29765Y5388D01*
X29757Y5423D01*
X29752Y5460D01*
X29748Y5501D01*
X29746Y5543D01*
Y5547D01*
Y5554D01*
X29748Y5567D01*
Y5586D01*
X29750Y5606D01*
X29754Y5632D01*
X29757Y5658D01*
X29765Y5687D01*
X29772Y5717D01*
X29782Y5748D01*
X29793Y5782D01*
X29807Y5813D01*
X29822Y5843D01*
X29843Y5872D01*
X29863Y5900D01*
X29889Y5924D01*
X29891Y5926D01*
X29895Y5928D01*
X29902Y5934D01*
X29911Y5941D01*
X29922Y5948D01*
X29937Y5957D01*
X29952Y5967D01*
X29970Y5976D01*
X29991Y5985D01*
X30013Y5994D01*
X30063Y6011D01*
X30120Y6024D01*
X30150Y6026D01*
X30181Y6028D01*
X30200D01*
X30213Y6026D01*
D02*
G37*
G36*
X27330D02*
X27345Y6024D01*
X27364Y6020D01*
X27384Y6017D01*
X27408Y6011D01*
X27430Y6006D01*
X27456Y5996D01*
X27480Y5987D01*
X27506Y5974D01*
X27532Y5959D01*
X27558Y5943D01*
X27582Y5922D01*
X27604Y5900D01*
X27606Y5898D01*
X27610Y5895D01*
X27615Y5887D01*
X27623Y5876D01*
X27632Y5863D01*
X27641Y5848D01*
X27652Y5830D01*
X27663Y5808D01*
X27674Y5784D01*
X27686Y5758D01*
X27695Y5728D01*
X27704Y5697D01*
X27711Y5661D01*
X27717Y5624D01*
X27721Y5586D01*
X27723Y5543D01*
Y5541D01*
Y5534D01*
Y5521D01*
X27721Y5502D01*
X27027D01*
Y5501D01*
Y5495D01*
X27029Y5488D01*
Y5477D01*
X27031Y5464D01*
X27034Y5449D01*
X27040Y5415D01*
X27051Y5378D01*
X27066Y5338D01*
X27086Y5301D01*
X27112Y5268D01*
X27114D01*
X27116Y5264D01*
X27127Y5254D01*
X27143Y5242D01*
X27166Y5229D01*
X27195Y5214D01*
X27229Y5201D01*
X27266Y5192D01*
X27286Y5190D01*
X27308Y5188D01*
X27323D01*
X27340Y5190D01*
X27360Y5193D01*
X27382Y5199D01*
X27408Y5206D01*
X27432Y5218D01*
X27456Y5232D01*
X27458Y5234D01*
X27467Y5242D01*
X27478Y5253D01*
X27491Y5268D01*
X27506Y5288D01*
X27523Y5314D01*
X27539Y5343D01*
X27554Y5378D01*
X27717Y5358D01*
Y5356D01*
X27715Y5353D01*
X27713Y5345D01*
X27710Y5334D01*
X27704Y5323D01*
X27698Y5308D01*
X27684Y5277D01*
X27665Y5242D01*
X27639Y5205D01*
X27610Y5169D01*
X27573Y5136D01*
X27571D01*
X27567Y5132D01*
X27562Y5129D01*
X27554Y5123D01*
X27543Y5118D01*
X27532Y5112D01*
X27517Y5105D01*
X27501Y5097D01*
X27482Y5090D01*
X27463Y5082D01*
X27417Y5071D01*
X27365Y5062D01*
X27308Y5058D01*
X27288D01*
X27275Y5060D01*
X27258Y5062D01*
X27238Y5066D01*
X27216Y5069D01*
X27192Y5073D01*
X27140Y5088D01*
X27112Y5099D01*
X27086Y5110D01*
X27058Y5125D01*
X27033Y5142D01*
X27008Y5160D01*
X26984Y5182D01*
X26983Y5184D01*
X26979Y5188D01*
X26973Y5195D01*
X26966Y5206D01*
X26957Y5219D01*
X26947Y5234D01*
X26936Y5253D01*
X26925Y5273D01*
X26914Y5297D01*
X26903Y5323D01*
X26894Y5353D01*
X26884Y5384D01*
X26877Y5417D01*
X26872Y5454D01*
X26868Y5493D01*
X26866Y5534D01*
Y5536D01*
Y5545D01*
Y5556D01*
X26868Y5573D01*
X26870Y5593D01*
X26872Y5615D01*
X26875Y5641D01*
X26881Y5667D01*
X26896Y5726D01*
X26905Y5756D01*
X26916Y5787D01*
X26931Y5817D01*
X26947Y5845D01*
X26966Y5872D01*
X26986Y5898D01*
X26988Y5900D01*
X26992Y5904D01*
X26999Y5909D01*
X27008Y5919D01*
X27020Y5928D01*
X27034Y5939D01*
X27051Y5952D01*
X27071Y5963D01*
X27092Y5976D01*
X27116Y5987D01*
X27142Y5998D01*
X27169Y6007D01*
X27199Y6017D01*
X27231Y6022D01*
X27264Y6026D01*
X27299Y6028D01*
X27317D01*
X27330Y6026D01*
D02*
G37*
G36*
X24644D02*
X24659Y6024D01*
X24677Y6020D01*
X24698Y6017D01*
X24722Y6011D01*
X24744Y6006D01*
X24770Y5996D01*
X24794Y5987D01*
X24820Y5974D01*
X24846Y5959D01*
X24872Y5943D01*
X24896Y5922D01*
X24918Y5900D01*
X24920Y5898D01*
X24924Y5895D01*
X24929Y5887D01*
X24936Y5876D01*
X24946Y5863D01*
X24955Y5848D01*
X24966Y5830D01*
X24977Y5808D01*
X24988Y5784D01*
X24999Y5758D01*
X25009Y5728D01*
X25018Y5697D01*
X25025Y5661D01*
X25031Y5624D01*
X25034Y5586D01*
X25036Y5543D01*
Y5541D01*
Y5534D01*
Y5521D01*
X25034Y5502D01*
X24341D01*
Y5501D01*
Y5495D01*
X24343Y5488D01*
Y5477D01*
X24344Y5464D01*
X24348Y5449D01*
X24354Y5415D01*
X24365Y5378D01*
X24380Y5338D01*
X24400Y5301D01*
X24426Y5268D01*
X24428D01*
X24430Y5264D01*
X24441Y5254D01*
X24457Y5242D01*
X24479Y5229D01*
X24509Y5214D01*
X24542Y5201D01*
X24579Y5192D01*
X24600Y5190D01*
X24622Y5188D01*
X24637D01*
X24653Y5190D01*
X24674Y5193D01*
X24696Y5199D01*
X24722Y5206D01*
X24746Y5218D01*
X24770Y5232D01*
X24772Y5234D01*
X24781Y5242D01*
X24792Y5253D01*
X24805Y5268D01*
X24820Y5288D01*
X24836Y5314D01*
X24853Y5343D01*
X24868Y5378D01*
X25031Y5358D01*
Y5356D01*
X25029Y5353D01*
X25027Y5345D01*
X25023Y5334D01*
X25018Y5323D01*
X25012Y5308D01*
X24997Y5277D01*
X24979Y5242D01*
X24953Y5205D01*
X24924Y5169D01*
X24886Y5136D01*
X24885D01*
X24881Y5132D01*
X24875Y5129D01*
X24868Y5123D01*
X24857Y5118D01*
X24846Y5112D01*
X24831Y5105D01*
X24814Y5097D01*
X24796Y5090D01*
X24777Y5082D01*
X24731Y5071D01*
X24679Y5062D01*
X24622Y5058D01*
X24602D01*
X24589Y5060D01*
X24572Y5062D01*
X24552Y5066D01*
X24529Y5069D01*
X24505Y5073D01*
X24454Y5088D01*
X24426Y5099D01*
X24400Y5110D01*
X24372Y5125D01*
X24346Y5142D01*
X24322Y5160D01*
X24298Y5182D01*
X24296Y5184D01*
X24293Y5188D01*
X24287Y5195D01*
X24280Y5206D01*
X24270Y5219D01*
X24261Y5234D01*
X24250Y5253D01*
X24239Y5273D01*
X24228Y5297D01*
X24217Y5323D01*
X24208Y5353D01*
X24198Y5384D01*
X24191Y5417D01*
X24185Y5454D01*
X24182Y5493D01*
X24180Y5534D01*
Y5536D01*
Y5545D01*
Y5556D01*
X24182Y5573D01*
X24183Y5593D01*
X24185Y5615D01*
X24189Y5641D01*
X24195Y5667D01*
X24209Y5726D01*
X24219Y5756D01*
X24230Y5787D01*
X24245Y5817D01*
X24261Y5845D01*
X24280Y5872D01*
X24300Y5898D01*
X24302Y5900D01*
X24306Y5904D01*
X24313Y5909D01*
X24322Y5919D01*
X24333Y5928D01*
X24348Y5939D01*
X24365Y5952D01*
X24385Y5963D01*
X24406Y5976D01*
X24430Y5987D01*
X24455Y5998D01*
X24483Y6007D01*
X24513Y6017D01*
X24544Y6022D01*
X24577Y6026D01*
X24613Y6028D01*
X24631D01*
X24644Y6026D01*
D02*
G37*
G36*
X20267D02*
X20282Y6024D01*
X20300Y6020D01*
X20321Y6017D01*
X20345Y6011D01*
X20367Y6006D01*
X20393Y5996D01*
X20417Y5987D01*
X20443Y5974D01*
X20469Y5959D01*
X20495Y5943D01*
X20519Y5922D01*
X20541Y5900D01*
X20543Y5898D01*
X20546Y5895D01*
X20552Y5887D01*
X20559Y5876D01*
X20569Y5863D01*
X20578Y5848D01*
X20589Y5830D01*
X20600Y5808D01*
X20611Y5784D01*
X20622Y5758D01*
X20631Y5728D01*
X20641Y5697D01*
X20648Y5661D01*
X20654Y5624D01*
X20657Y5586D01*
X20659Y5543D01*
Y5541D01*
Y5534D01*
Y5521D01*
X20657Y5502D01*
X19964D01*
Y5501D01*
Y5495D01*
X19965Y5488D01*
Y5477D01*
X19967Y5464D01*
X19971Y5449D01*
X19977Y5415D01*
X19988Y5378D01*
X20003Y5338D01*
X20023Y5301D01*
X20049Y5268D01*
X20051D01*
X20052Y5264D01*
X20064Y5254D01*
X20080Y5242D01*
X20102Y5229D01*
X20132Y5214D01*
X20165Y5201D01*
X20202Y5192D01*
X20223Y5190D01*
X20245Y5188D01*
X20260D01*
X20276Y5190D01*
X20297Y5193D01*
X20319Y5199D01*
X20345Y5206D01*
X20369Y5218D01*
X20393Y5232D01*
X20395Y5234D01*
X20404Y5242D01*
X20415Y5253D01*
X20428Y5268D01*
X20443Y5288D01*
X20459Y5314D01*
X20476Y5343D01*
X20491Y5378D01*
X20654Y5358D01*
Y5356D01*
X20652Y5353D01*
X20650Y5345D01*
X20646Y5334D01*
X20641Y5323D01*
X20635Y5308D01*
X20620Y5277D01*
X20602Y5242D01*
X20576Y5205D01*
X20546Y5169D01*
X20509Y5136D01*
X20508D01*
X20504Y5132D01*
X20498Y5129D01*
X20491Y5123D01*
X20480Y5118D01*
X20469Y5112D01*
X20454Y5105D01*
X20437Y5097D01*
X20419Y5090D01*
X20400Y5082D01*
X20354Y5071D01*
X20302Y5062D01*
X20245Y5058D01*
X20224D01*
X20211Y5060D01*
X20195Y5062D01*
X20175Y5066D01*
X20152Y5069D01*
X20128Y5073D01*
X20076Y5088D01*
X20049Y5099D01*
X20023Y5110D01*
X19995Y5125D01*
X19969Y5142D01*
X19945Y5160D01*
X19921Y5182D01*
X19919Y5184D01*
X19916Y5188D01*
X19910Y5195D01*
X19903Y5206D01*
X19893Y5219D01*
X19884Y5234D01*
X19873Y5253D01*
X19862Y5273D01*
X19851Y5297D01*
X19840Y5323D01*
X19830Y5353D01*
X19821Y5384D01*
X19814Y5417D01*
X19808Y5454D01*
X19805Y5493D01*
X19803Y5534D01*
Y5536D01*
Y5545D01*
Y5556D01*
X19805Y5573D01*
X19806Y5593D01*
X19808Y5615D01*
X19812Y5641D01*
X19817Y5667D01*
X19832Y5726D01*
X19842Y5756D01*
X19853Y5787D01*
X19867Y5817D01*
X19884Y5845D01*
X19903Y5872D01*
X19923Y5898D01*
X19925Y5900D01*
X19929Y5904D01*
X19936Y5909D01*
X19945Y5919D01*
X19956Y5928D01*
X19971Y5939D01*
X19988Y5952D01*
X20008Y5963D01*
X20028Y5976D01*
X20052Y5987D01*
X20078Y5998D01*
X20106Y6007D01*
X20136Y6017D01*
X20167Y6022D01*
X20200Y6026D01*
X20236Y6028D01*
X20254D01*
X20267Y6026D01*
D02*
G37*
G36*
X16985D02*
X17000Y6024D01*
X17018Y6020D01*
X17039Y6017D01*
X17063Y6011D01*
X17085Y6006D01*
X17111Y5996D01*
X17135Y5987D01*
X17161Y5974D01*
X17187Y5959D01*
X17213Y5943D01*
X17237Y5922D01*
X17259Y5900D01*
X17261Y5898D01*
X17265Y5895D01*
X17270Y5887D01*
X17277Y5876D01*
X17287Y5863D01*
X17296Y5848D01*
X17307Y5830D01*
X17318Y5808D01*
X17329Y5784D01*
X17340Y5758D01*
X17350Y5728D01*
X17359Y5697D01*
X17366Y5661D01*
X17372Y5624D01*
X17376Y5586D01*
X17377Y5543D01*
Y5541D01*
Y5534D01*
Y5521D01*
X17376Y5502D01*
X16682D01*
Y5501D01*
Y5495D01*
X16684Y5488D01*
Y5477D01*
X16686Y5464D01*
X16689Y5449D01*
X16695Y5415D01*
X16706Y5378D01*
X16721Y5338D01*
X16741Y5301D01*
X16767Y5268D01*
X16769D01*
X16771Y5264D01*
X16782Y5254D01*
X16798Y5242D01*
X16820Y5229D01*
X16850Y5214D01*
X16883Y5201D01*
X16920Y5192D01*
X16941Y5190D01*
X16963Y5188D01*
X16978D01*
X16994Y5190D01*
X17015Y5193D01*
X17037Y5199D01*
X17063Y5206D01*
X17087Y5218D01*
X17111Y5232D01*
X17113Y5234D01*
X17122Y5242D01*
X17133Y5253D01*
X17146Y5268D01*
X17161Y5288D01*
X17177Y5314D01*
X17194Y5343D01*
X17209Y5378D01*
X17372Y5358D01*
Y5356D01*
X17370Y5353D01*
X17368Y5345D01*
X17364Y5334D01*
X17359Y5323D01*
X17353Y5308D01*
X17338Y5277D01*
X17320Y5242D01*
X17294Y5205D01*
X17265Y5169D01*
X17228Y5136D01*
X17226D01*
X17222Y5132D01*
X17216Y5129D01*
X17209Y5123D01*
X17198Y5118D01*
X17187Y5112D01*
X17172Y5105D01*
X17155Y5097D01*
X17137Y5090D01*
X17118Y5082D01*
X17072Y5071D01*
X17020Y5062D01*
X16963Y5058D01*
X16943D01*
X16930Y5060D01*
X16913Y5062D01*
X16893Y5066D01*
X16870Y5069D01*
X16846Y5073D01*
X16795Y5088D01*
X16767Y5099D01*
X16741Y5110D01*
X16713Y5125D01*
X16687Y5142D01*
X16663Y5160D01*
X16639Y5182D01*
X16637Y5184D01*
X16634Y5188D01*
X16628Y5195D01*
X16621Y5206D01*
X16611Y5219D01*
X16602Y5234D01*
X16591Y5253D01*
X16580Y5273D01*
X16569Y5297D01*
X16558Y5323D01*
X16549Y5353D01*
X16539Y5384D01*
X16532Y5417D01*
X16526Y5454D01*
X16523Y5493D01*
X16521Y5534D01*
Y5536D01*
Y5545D01*
Y5556D01*
X16523Y5573D01*
X16524Y5593D01*
X16526Y5615D01*
X16530Y5641D01*
X16536Y5667D01*
X16550Y5726D01*
X16560Y5756D01*
X16571Y5787D01*
X16586Y5817D01*
X16602Y5845D01*
X16621Y5872D01*
X16641Y5898D01*
X16643Y5900D01*
X16647Y5904D01*
X16654Y5909D01*
X16663Y5919D01*
X16674Y5928D01*
X16689Y5939D01*
X16706Y5952D01*
X16726Y5963D01*
X16747Y5976D01*
X16771Y5987D01*
X16796Y5998D01*
X16824Y6007D01*
X16854Y6017D01*
X16885Y6022D01*
X16918Y6026D01*
X16954Y6028D01*
X16972D01*
X16985Y6026D01*
D02*
G37*
G36*
X18240Y4621D02*
X18083D01*
Y4800D01*
X18240D01*
Y4621D01*
D02*
G37*
G36*
X27683Y3520D02*
X27537D01*
Y3637D01*
X27535Y3635D01*
X27533Y3631D01*
X27527Y3624D01*
X27520Y3615D01*
X27511Y3605D01*
X27500Y3594D01*
X27487Y3581D01*
X27470Y3568D01*
X27453Y3556D01*
X27435Y3542D01*
X27413Y3531D01*
X27389Y3522D01*
X27365Y3513D01*
X27337Y3506D01*
X27307Y3502D01*
X27276Y3500D01*
X27265D01*
X27257Y3502D01*
X27235Y3504D01*
X27209Y3507D01*
X27178Y3515D01*
X27143Y3526D01*
X27107Y3541D01*
X27072Y3561D01*
X27070D01*
X27069Y3565D01*
X27057Y3572D01*
X27041Y3587D01*
X27020Y3605D01*
X26996Y3630D01*
X26972Y3659D01*
X26948Y3692D01*
X26928Y3731D01*
Y3733D01*
X26926Y3737D01*
X26924Y3742D01*
X26921Y3750D01*
X26917Y3761D01*
X26911Y3774D01*
X26908Y3787D01*
X26904Y3803D01*
X26895Y3840D01*
X26885Y3883D01*
X26880Y3931D01*
X26878Y3983D01*
Y3985D01*
Y3988D01*
Y3996D01*
Y4007D01*
X26880Y4018D01*
Y4033D01*
X26884Y4066D01*
X26889Y4105D01*
X26898Y4148D01*
X26910Y4192D01*
X26924Y4234D01*
Y4236D01*
X26926Y4240D01*
X26930Y4246D01*
X26934Y4253D01*
X26945Y4273D01*
X26959Y4299D01*
X26978Y4327D01*
X27002Y4355D01*
X27030Y4384D01*
X27063Y4408D01*
X27065D01*
X27067Y4410D01*
X27072Y4414D01*
X27080Y4418D01*
X27098Y4427D01*
X27124Y4440D01*
X27154Y4451D01*
X27189Y4460D01*
X27228Y4468D01*
X27268Y4469D01*
X27283D01*
X27298Y4468D01*
X27318Y4466D01*
X27342Y4460D01*
X27368Y4455D01*
X27394Y4445D01*
X27418Y4432D01*
X27422Y4431D01*
X27429Y4427D01*
X27440Y4418D01*
X27455Y4408D01*
X27474Y4395D01*
X27490Y4379D01*
X27509Y4362D01*
X27525Y4342D01*
Y4800D01*
X27683D01*
Y3520D01*
D02*
G37*
G36*
X24516Y4468D02*
X24536Y4466D01*
X24560Y4462D01*
X24586Y4456D01*
X24614Y4449D01*
X24640Y4438D01*
X24643Y4436D01*
X24651Y4432D01*
X24664Y4427D01*
X24678Y4418D01*
X24697Y4406D01*
X24713Y4392D01*
X24730Y4377D01*
X24745Y4358D01*
X24747Y4357D01*
X24750Y4349D01*
X24756Y4340D01*
X24765Y4327D01*
X24773Y4308D01*
X24780Y4290D01*
X24789Y4268D01*
X24795Y4244D01*
Y4242D01*
X24797Y4234D01*
X24799Y4223D01*
X24801Y4209D01*
Y4186D01*
X24802Y4160D01*
X24804Y4129D01*
Y4090D01*
Y3520D01*
X24647D01*
Y4083D01*
Y4085D01*
Y4086D01*
Y4099D01*
Y4116D01*
X24645Y4136D01*
X24643Y4160D01*
X24640Y4185D01*
X24634Y4207D01*
X24628Y4227D01*
Y4229D01*
X24625Y4234D01*
X24619Y4244D01*
X24614Y4255D01*
X24604Y4266D01*
X24593Y4279D01*
X24578Y4292D01*
X24562Y4303D01*
X24560Y4305D01*
X24554Y4308D01*
X24543Y4312D01*
X24530Y4318D01*
X24516Y4323D01*
X24497Y4329D01*
X24475Y4331D01*
X24453Y4332D01*
X24443D01*
X24436Y4331D01*
X24418Y4329D01*
X24394Y4325D01*
X24368Y4316D01*
X24338Y4305D01*
X24308Y4290D01*
X24281Y4268D01*
X24277Y4264D01*
X24270Y4255D01*
X24264Y4247D01*
X24258Y4238D01*
X24251Y4227D01*
X24246Y4214D01*
X24238Y4199D01*
X24231Y4181D01*
X24225Y4160D01*
X24220Y4138D01*
X24216Y4114D01*
X24212Y4088D01*
X24208Y4057D01*
Y4025D01*
Y3520D01*
X24051D01*
Y4449D01*
X24192D01*
Y4316D01*
X24194Y4318D01*
X24197Y4323D01*
X24203Y4331D01*
X24210Y4340D01*
X24221Y4351D01*
X24234Y4364D01*
X24249Y4379D01*
X24268Y4394D01*
X24286Y4406D01*
X24308Y4421D01*
X24332Y4434D01*
X24358Y4445D01*
X24388Y4455D01*
X24418Y4462D01*
X24451Y4468D01*
X24486Y4469D01*
X24501D01*
X24516Y4468D01*
D02*
G37*
G36*
X17857D02*
X17878Y4464D01*
X17902Y4456D01*
X17928Y4447D01*
X17957Y4434D01*
X17989Y4418D01*
X17931Y4273D01*
X17930Y4275D01*
X17922Y4279D01*
X17911Y4284D01*
X17896Y4290D01*
X17880Y4295D01*
X17859Y4301D01*
X17839Y4305D01*
X17819Y4307D01*
X17809D01*
X17800Y4305D01*
X17787Y4303D01*
X17774Y4299D01*
X17758Y4294D01*
X17741Y4286D01*
X17726Y4275D01*
X17724Y4273D01*
X17719Y4270D01*
X17713Y4262D01*
X17704Y4253D01*
X17695Y4240D01*
X17685Y4225D01*
X17676Y4209D01*
X17669Y4188D01*
X17667Y4185D01*
X17665Y4173D01*
X17661Y4157D01*
X17656Y4135D01*
X17650Y4107D01*
X17647Y4075D01*
X17645Y4042D01*
X17643Y4005D01*
Y3520D01*
X17486D01*
Y4449D01*
X17628D01*
Y4308D01*
X17630Y4310D01*
X17637Y4323D01*
X17647Y4340D01*
X17661Y4360D01*
X17676Y4381D01*
X17693Y4403D01*
X17709Y4421D01*
X17726Y4436D01*
X17728Y4438D01*
X17733Y4442D01*
X17745Y4447D01*
X17756Y4453D01*
X17771Y4458D01*
X17789Y4464D01*
X17808Y4468D01*
X17828Y4469D01*
X17841D01*
X17857Y4468D01*
D02*
G37*
G36*
X20007Y3520D02*
X19837D01*
Y4123D01*
X19175D01*
Y3520D01*
X19004D01*
Y4800D01*
X19175D01*
Y4275D01*
X19837D01*
Y4800D01*
X20007D01*
Y3520D01*
D02*
G37*
G36*
X22503Y4468D02*
X22531Y4466D01*
X22560Y4462D01*
X22592Y4455D01*
X22625Y4447D01*
X22656Y4436D01*
X22658D01*
X22660Y4434D01*
X22669Y4431D01*
X22684Y4423D01*
X22703Y4414D01*
X22723Y4401D01*
X22743Y4386D01*
X22762Y4369D01*
X22778Y4351D01*
X22780Y4349D01*
X22784Y4342D01*
X22791Y4329D01*
X22801Y4314D01*
X22810Y4292D01*
X22819Y4268D01*
X22827Y4240D01*
X22834Y4209D01*
X22680Y4188D01*
Y4192D01*
X22679Y4199D01*
X22675Y4212D01*
X22669Y4229D01*
X22660Y4246D01*
X22649Y4264D01*
X22636Y4282D01*
X22617Y4299D01*
X22616Y4301D01*
X22608Y4305D01*
X22597Y4312D01*
X22580Y4320D01*
X22562Y4327D01*
X22538Y4334D01*
X22508Y4338D01*
X22477Y4340D01*
X22458D01*
X22440Y4338D01*
X22416Y4336D01*
X22392Y4331D01*
X22366Y4325D01*
X22342Y4316D01*
X22321Y4303D01*
X22320Y4301D01*
X22314Y4297D01*
X22307Y4290D01*
X22299Y4279D01*
X22290Y4268D01*
X22283Y4253D01*
X22277Y4236D01*
X22275Y4220D01*
Y4218D01*
Y4214D01*
X22277Y4209D01*
Y4201D01*
X22283Y4183D01*
X22294Y4164D01*
X22296Y4162D01*
X22297Y4160D01*
X22301Y4155D01*
X22309Y4149D01*
X22316Y4144D01*
X22327Y4136D01*
X22340Y4131D01*
X22355Y4123D01*
X22357D01*
X22360Y4122D01*
X22368Y4120D01*
X22381Y4114D01*
X22399Y4109D01*
X22423Y4103D01*
X22438Y4098D01*
X22455Y4094D01*
X22473Y4088D01*
X22493Y4083D01*
X22495D01*
X22501Y4081D01*
X22510Y4079D01*
X22521Y4075D01*
X22534Y4072D01*
X22551Y4068D01*
X22586Y4057D01*
X22625Y4046D01*
X22664Y4033D01*
X22699Y4020D01*
X22714Y4014D01*
X22727Y4009D01*
X22730Y4007D01*
X22738Y4003D01*
X22749Y3998D01*
X22765Y3988D01*
X22782Y3977D01*
X22799Y3963D01*
X22815Y3946D01*
X22830Y3927D01*
X22832Y3926D01*
X22836Y3918D01*
X22843Y3907D01*
X22851Y3890D01*
X22856Y3870D01*
X22863Y3848D01*
X22867Y3822D01*
X22869Y3792D01*
Y3789D01*
Y3779D01*
X22867Y3765D01*
X22863Y3744D01*
X22858Y3722D01*
X22849Y3698D01*
X22838Y3670D01*
X22823Y3644D01*
X22821Y3641D01*
X22814Y3633D01*
X22804Y3620D01*
X22790Y3605D01*
X22769Y3589D01*
X22747Y3570D01*
X22721Y3554D01*
X22690Y3537D01*
X22688D01*
X22686Y3535D01*
X22675Y3531D01*
X22656Y3526D01*
X22632Y3519D01*
X22603Y3511D01*
X22569Y3506D01*
X22534Y3502D01*
X22493Y3500D01*
X22477D01*
X22464Y3502D01*
X22449D01*
X22431Y3504D01*
X22412Y3506D01*
X22392Y3509D01*
X22347Y3519D01*
X22301Y3531D01*
X22257Y3550D01*
X22236Y3561D01*
X22218Y3574D01*
X22216Y3576D01*
X22214Y3578D01*
X22203Y3589D01*
X22186Y3605D01*
X22168Y3631D01*
X22148Y3663D01*
X22127Y3700D01*
X22111Y3746D01*
X22098Y3798D01*
X22253Y3822D01*
Y3820D01*
Y3818D01*
X22257Y3807D01*
X22260Y3789D01*
X22268Y3768D01*
X22277Y3746D01*
X22288Y3722D01*
X22305Y3698D01*
X22325Y3678D01*
X22329Y3676D01*
X22336Y3670D01*
X22351Y3663D01*
X22370Y3653D01*
X22394Y3644D01*
X22421Y3637D01*
X22455Y3631D01*
X22493Y3630D01*
X22512D01*
X22531Y3631D01*
X22555Y3635D01*
X22580Y3641D01*
X22608Y3648D01*
X22632Y3657D01*
X22655Y3672D01*
X22656Y3674D01*
X22664Y3679D01*
X22671Y3689D01*
X22682Y3702D01*
X22692Y3716D01*
X22701Y3735D01*
X22706Y3754D01*
X22708Y3776D01*
Y3777D01*
Y3785D01*
X22706Y3794D01*
X22703Y3807D01*
X22697Y3820D01*
X22688Y3833D01*
X22677Y3848D01*
X22660Y3859D01*
X22658Y3861D01*
X22653Y3863D01*
X22643Y3868D01*
X22629Y3874D01*
X22606Y3881D01*
X22593Y3887D01*
X22579Y3890D01*
X22562Y3896D01*
X22544Y3901D01*
X22523Y3907D01*
X22499Y3913D01*
X22497D01*
X22492Y3914D01*
X22482Y3916D01*
X22471Y3920D01*
X22456Y3924D01*
X22440Y3929D01*
X22405Y3938D01*
X22364Y3951D01*
X22325Y3963D01*
X22288Y3976D01*
X22272Y3983D01*
X22259Y3988D01*
X22255Y3990D01*
X22248Y3994D01*
X22236Y4001D01*
X22222Y4011D01*
X22205Y4024D01*
X22188Y4038D01*
X22172Y4055D01*
X22157Y4075D01*
X22155Y4077D01*
X22151Y4085D01*
X22146Y4098D01*
X22140Y4112D01*
X22135Y4131D01*
X22129Y4153D01*
X22125Y4175D01*
X22124Y4201D01*
Y4205D01*
Y4212D01*
X22125Y4223D01*
X22127Y4240D01*
X22131Y4257D01*
X22135Y4277D01*
X22142Y4295D01*
X22151Y4316D01*
X22153Y4318D01*
X22157Y4325D01*
X22162Y4334D01*
X22172Y4347D01*
X22183Y4360D01*
X22196Y4377D01*
X22210Y4392D01*
X22229Y4405D01*
X22231Y4406D01*
X22236Y4408D01*
X22244Y4414D01*
X22255Y4419D01*
X22270Y4427D01*
X22286Y4434D01*
X22307Y4442D01*
X22329Y4449D01*
X22333Y4451D01*
X22340Y4453D01*
X22353Y4456D01*
X22370Y4460D01*
X22390Y4464D01*
X22412Y4466D01*
X22438Y4469D01*
X22482D01*
X22503Y4468D01*
D02*
G37*
G36*
X21607D02*
X21635Y4466D01*
X21665Y4462D01*
X21696Y4455D01*
X21730Y4447D01*
X21761Y4436D01*
X21763D01*
X21765Y4434D01*
X21774Y4431D01*
X21789Y4423D01*
X21807Y4414D01*
X21827Y4401D01*
X21848Y4386D01*
X21866Y4369D01*
X21883Y4351D01*
X21885Y4349D01*
X21889Y4342D01*
X21896Y4329D01*
X21905Y4314D01*
X21914Y4292D01*
X21924Y4268D01*
X21931Y4240D01*
X21938Y4209D01*
X21785Y4188D01*
Y4192D01*
X21783Y4199D01*
X21779Y4212D01*
X21774Y4229D01*
X21765Y4246D01*
X21754Y4264D01*
X21741Y4282D01*
X21722Y4299D01*
X21720Y4301D01*
X21713Y4305D01*
X21702Y4312D01*
X21685Y4320D01*
X21667Y4327D01*
X21643Y4334D01*
X21613Y4338D01*
X21581Y4340D01*
X21563D01*
X21544Y4338D01*
X21520Y4336D01*
X21496Y4331D01*
X21471Y4325D01*
X21446Y4316D01*
X21426Y4303D01*
X21424Y4301D01*
X21419Y4297D01*
X21411Y4290D01*
X21404Y4279D01*
X21395Y4268D01*
X21387Y4253D01*
X21382Y4236D01*
X21380Y4220D01*
Y4218D01*
Y4214D01*
X21382Y4209D01*
Y4201D01*
X21387Y4183D01*
X21398Y4164D01*
X21400Y4162D01*
X21402Y4160D01*
X21406Y4155D01*
X21413Y4149D01*
X21420Y4144D01*
X21432Y4136D01*
X21445Y4131D01*
X21459Y4123D01*
X21461D01*
X21465Y4122D01*
X21472Y4120D01*
X21485Y4114D01*
X21504Y4109D01*
X21528Y4103D01*
X21543Y4098D01*
X21559Y4094D01*
X21578Y4088D01*
X21598Y4083D01*
X21600D01*
X21606Y4081D01*
X21615Y4079D01*
X21626Y4075D01*
X21639Y4072D01*
X21655Y4068D01*
X21691Y4057D01*
X21730Y4046D01*
X21768Y4033D01*
X21803Y4020D01*
X21818Y4014D01*
X21831Y4009D01*
X21835Y4007D01*
X21842Y4003D01*
X21853Y3998D01*
X21870Y3988D01*
X21887Y3977D01*
X21903Y3963D01*
X21920Y3946D01*
X21935Y3927D01*
X21937Y3926D01*
X21940Y3918D01*
X21948Y3907D01*
X21955Y3890D01*
X21961Y3870D01*
X21968Y3848D01*
X21972Y3822D01*
X21974Y3792D01*
Y3789D01*
Y3779D01*
X21972Y3765D01*
X21968Y3744D01*
X21963Y3722D01*
X21953Y3698D01*
X21942Y3670D01*
X21927Y3644D01*
X21926Y3641D01*
X21918Y3633D01*
X21909Y3620D01*
X21894Y3605D01*
X21874Y3589D01*
X21852Y3570D01*
X21826Y3554D01*
X21794Y3537D01*
X21792D01*
X21790Y3535D01*
X21779Y3531D01*
X21761Y3526D01*
X21737Y3519D01*
X21707Y3511D01*
X21674Y3506D01*
X21639Y3502D01*
X21598Y3500D01*
X21581D01*
X21568Y3502D01*
X21554D01*
X21535Y3504D01*
X21517Y3506D01*
X21496Y3509D01*
X21452Y3519D01*
X21406Y3531D01*
X21361Y3550D01*
X21341Y3561D01*
X21323Y3574D01*
X21321Y3576D01*
X21319Y3578D01*
X21308Y3589D01*
X21291Y3605D01*
X21272Y3631D01*
X21252Y3663D01*
X21232Y3700D01*
X21215Y3746D01*
X21202Y3798D01*
X21358Y3822D01*
Y3820D01*
Y3818D01*
X21361Y3807D01*
X21365Y3789D01*
X21372Y3768D01*
X21382Y3746D01*
X21393Y3722D01*
X21409Y3698D01*
X21430Y3678D01*
X21433Y3676D01*
X21441Y3670D01*
X21456Y3663D01*
X21474Y3653D01*
X21498Y3644D01*
X21526Y3637D01*
X21559Y3631D01*
X21598Y3630D01*
X21617D01*
X21635Y3631D01*
X21659Y3635D01*
X21685Y3641D01*
X21713Y3648D01*
X21737Y3657D01*
X21759Y3672D01*
X21761Y3674D01*
X21768Y3679D01*
X21776Y3689D01*
X21787Y3702D01*
X21796Y3716D01*
X21805Y3735D01*
X21811Y3754D01*
X21813Y3776D01*
Y3777D01*
Y3785D01*
X21811Y3794D01*
X21807Y3807D01*
X21802Y3820D01*
X21792Y3833D01*
X21781Y3848D01*
X21765Y3859D01*
X21763Y3861D01*
X21757Y3863D01*
X21748Y3868D01*
X21733Y3874D01*
X21711Y3881D01*
X21698Y3887D01*
X21683Y3890D01*
X21667Y3896D01*
X21648Y3901D01*
X21628Y3907D01*
X21604Y3913D01*
X21602D01*
X21596Y3914D01*
X21587Y3916D01*
X21576Y3920D01*
X21561Y3924D01*
X21544Y3929D01*
X21509Y3938D01*
X21469Y3951D01*
X21430Y3963D01*
X21393Y3976D01*
X21376Y3983D01*
X21363Y3988D01*
X21360Y3990D01*
X21352Y3994D01*
X21341Y4001D01*
X21326Y4011D01*
X21309Y4024D01*
X21293Y4038D01*
X21276Y4055D01*
X21261Y4075D01*
X21260Y4077D01*
X21256Y4085D01*
X21250Y4098D01*
X21245Y4112D01*
X21239Y4131D01*
X21234Y4153D01*
X21230Y4175D01*
X21228Y4201D01*
Y4205D01*
Y4212D01*
X21230Y4223D01*
X21232Y4240D01*
X21236Y4257D01*
X21239Y4277D01*
X21247Y4295D01*
X21256Y4316D01*
X21258Y4318D01*
X21261Y4325D01*
X21267Y4334D01*
X21276Y4347D01*
X21287Y4360D01*
X21300Y4377D01*
X21315Y4392D01*
X21334Y4405D01*
X21335Y4406D01*
X21341Y4408D01*
X21348Y4414D01*
X21360Y4419D01*
X21374Y4427D01*
X21391Y4434D01*
X21411Y4442D01*
X21433Y4449D01*
X21437Y4451D01*
X21445Y4453D01*
X21457Y4456D01*
X21474Y4460D01*
X21495Y4464D01*
X21517Y4466D01*
X21543Y4469D01*
X21587D01*
X21607Y4468D01*
D02*
G37*
G36*
X29085Y4342D02*
X29087Y4344D01*
X29091Y4347D01*
X29096Y4353D01*
X29105Y4362D01*
X29115Y4371D01*
X29128Y4383D01*
X29144Y4394D01*
X29161Y4406D01*
X29179Y4418D01*
X29200Y4429D01*
X29248Y4449D01*
X29274Y4458D01*
X29302Y4464D01*
X29331Y4468D01*
X29361Y4469D01*
X29377D01*
X29398Y4468D01*
X29422Y4464D01*
X29449Y4460D01*
X29479Y4453D01*
X29509Y4442D01*
X29538Y4429D01*
X29542Y4427D01*
X29551Y4421D01*
X29564Y4412D01*
X29581Y4399D01*
X29597Y4383D01*
X29616Y4364D01*
X29633Y4342D01*
X29647Y4316D01*
X29649Y4312D01*
X29653Y4303D01*
X29659Y4286D01*
X29664Y4262D01*
X29670Y4233D01*
X29675Y4197D01*
X29679Y4155D01*
X29681Y4107D01*
Y3520D01*
X29524D01*
Y4109D01*
Y4110D01*
Y4114D01*
Y4120D01*
Y4127D01*
X29522Y4148D01*
X29518Y4173D01*
X29511Y4201D01*
X29501Y4229D01*
X29488Y4257D01*
X29472Y4279D01*
X29470Y4281D01*
X29463Y4288D01*
X29451Y4297D01*
X29435Y4307D01*
X29414Y4318D01*
X29390Y4325D01*
X29361Y4332D01*
X29327Y4334D01*
X29316D01*
X29303Y4332D01*
X29285Y4331D01*
X29266Y4325D01*
X29244Y4320D01*
X29222Y4310D01*
X29198Y4297D01*
X29196Y4295D01*
X29189Y4290D01*
X29178Y4282D01*
X29165Y4272D01*
X29150Y4257D01*
X29135Y4240D01*
X29122Y4220D01*
X29111Y4197D01*
X29109Y4194D01*
X29107Y4186D01*
X29104Y4171D01*
X29098Y4153D01*
X29092Y4129D01*
X29089Y4099D01*
X29087Y4066D01*
X29085Y4027D01*
Y3520D01*
X28928D01*
Y4800D01*
X29085D01*
Y4342D01*
D02*
G37*
G36*
X26375Y4468D02*
X26403Y4466D01*
X26434Y4462D01*
X26465Y4456D01*
X26497Y4449D01*
X26526Y4440D01*
X26530Y4438D01*
X26539Y4434D01*
X26552Y4429D01*
X26569Y4421D01*
X26588Y4410D01*
X26606Y4399D01*
X26623Y4384D01*
X26638Y4369D01*
X26639Y4368D01*
X26643Y4362D01*
X26649Y4353D01*
X26656Y4342D01*
X26665Y4325D01*
X26673Y4308D01*
X26680Y4288D01*
X26686Y4264D01*
Y4262D01*
X26687Y4257D01*
X26689Y4246D01*
X26691Y4231D01*
Y4210D01*
X26693Y4186D01*
X26695Y4155D01*
Y4120D01*
Y3909D01*
Y3907D01*
Y3900D01*
Y3889D01*
Y3874D01*
Y3857D01*
Y3837D01*
X26697Y3792D01*
Y3746D01*
X26699Y3700D01*
X26700Y3679D01*
Y3661D01*
X26702Y3644D01*
X26704Y3631D01*
Y3630D01*
X26706Y3622D01*
X26708Y3611D01*
X26713Y3596D01*
X26717Y3579D01*
X26724Y3561D01*
X26734Y3541D01*
X26743Y3520D01*
X26578D01*
X26577Y3522D01*
X26575Y3530D01*
X26571Y3539D01*
X26565Y3554D01*
X26560Y3570D01*
X26556Y3591D01*
X26552Y3613D01*
X26549Y3637D01*
X26547D01*
X26545Y3633D01*
X26534Y3624D01*
X26517Y3611D01*
X26495Y3594D01*
X26467Y3578D01*
X26440Y3559D01*
X26410Y3542D01*
X26379Y3530D01*
X26375Y3528D01*
X26364Y3526D01*
X26347Y3520D01*
X26327Y3515D01*
X26301Y3509D01*
X26271Y3506D01*
X26238Y3502D01*
X26205Y3500D01*
X26190D01*
X26179Y3502D01*
X26166D01*
X26151Y3504D01*
X26118Y3509D01*
X26081Y3519D01*
X26040Y3531D01*
X26003Y3550D01*
X25970Y3574D01*
X25966Y3578D01*
X25957Y3587D01*
X25944Y3604D01*
X25929Y3626D01*
X25914Y3653D01*
X25901Y3685D01*
X25892Y3724D01*
X25890Y3742D01*
X25888Y3765D01*
Y3768D01*
Y3776D01*
X25890Y3789D01*
X25892Y3805D01*
X25896Y3826D01*
X25901Y3846D01*
X25909Y3868D01*
X25918Y3889D01*
X25920Y3890D01*
X25923Y3898D01*
X25931Y3909D01*
X25940Y3922D01*
X25951Y3937D01*
X25966Y3951D01*
X25981Y3966D01*
X25999Y3979D01*
X26001Y3981D01*
X26008Y3985D01*
X26018Y3992D01*
X26033Y3999D01*
X26049Y4007D01*
X26070Y4016D01*
X26090Y4024D01*
X26114Y4031D01*
X26116D01*
X26123Y4033D01*
X26134Y4036D01*
X26149Y4038D01*
X26168Y4042D01*
X26192Y4046D01*
X26219Y4051D01*
X26253Y4055D01*
X26255D01*
X26262Y4057D01*
X26271D01*
X26284Y4059D01*
X26299Y4061D01*
X26318Y4064D01*
X26338Y4066D01*
X26360Y4070D01*
X26404Y4079D01*
X26452Y4088D01*
X26495Y4099D01*
X26515Y4105D01*
X26534Y4110D01*
Y4112D01*
Y4116D01*
X26536Y4127D01*
Y4140D01*
Y4148D01*
Y4151D01*
Y4153D01*
Y4155D01*
Y4166D01*
X26534Y4185D01*
X26530Y4205D01*
X26525Y4227D01*
X26515Y4249D01*
X26504Y4270D01*
X26489Y4286D01*
X26488Y4288D01*
X26478Y4295D01*
X26464Y4303D01*
X26445Y4314D01*
X26419Y4323D01*
X26390Y4332D01*
X26353Y4338D01*
X26310Y4340D01*
X26292D01*
X26273Y4338D01*
X26247Y4334D01*
X26221Y4331D01*
X26193Y4323D01*
X26168Y4314D01*
X26145Y4301D01*
X26144Y4299D01*
X26136Y4294D01*
X26127Y4284D01*
X26116Y4270D01*
X26105Y4251D01*
X26092Y4227D01*
X26081Y4197D01*
X26070Y4164D01*
X25916Y4185D01*
Y4186D01*
X25918Y4188D01*
Y4194D01*
X25920Y4201D01*
X25925Y4218D01*
X25933Y4242D01*
X25942Y4266D01*
X25953Y4292D01*
X25968Y4318D01*
X25984Y4342D01*
X25986Y4344D01*
X25994Y4351D01*
X26005Y4362D01*
X26020Y4377D01*
X26040Y4392D01*
X26064Y4406D01*
X26092Y4423D01*
X26123Y4436D01*
X26125D01*
X26127Y4438D01*
X26133Y4440D01*
X26140Y4442D01*
X26158Y4447D01*
X26184Y4453D01*
X26214Y4458D01*
X26251Y4464D01*
X26290Y4468D01*
X26334Y4469D01*
X26355D01*
X26375Y4468D01*
D02*
G37*
G36*
X25755Y4344D02*
X25252Y3755D01*
X25154Y3646D01*
X25165D01*
X25172Y3648D01*
X25193Y3650D01*
X25219Y3652D01*
X25250D01*
X25283Y3653D01*
X25354Y3655D01*
X25783D01*
Y3520D01*
X24961D01*
Y3646D01*
X25552Y4327D01*
X25535D01*
X25516Y4325D01*
X25492D01*
X25465Y4323D01*
X25435D01*
X25404Y4321D01*
X24997D01*
Y4449D01*
X25755D01*
Y4344D01*
D02*
G37*
G36*
X23489Y4468D02*
X23517Y4466D01*
X23548Y4462D01*
X23580Y4456D01*
X23611Y4449D01*
X23641Y4440D01*
X23644Y4438D01*
X23653Y4434D01*
X23666Y4429D01*
X23683Y4421D01*
X23702Y4410D01*
X23720Y4399D01*
X23737Y4384D01*
X23752Y4369D01*
X23753Y4368D01*
X23757Y4362D01*
X23763Y4353D01*
X23770Y4342D01*
X23779Y4325D01*
X23787Y4308D01*
X23794Y4288D01*
X23800Y4264D01*
Y4262D01*
X23801Y4257D01*
X23803Y4246D01*
X23805Y4231D01*
Y4210D01*
X23807Y4186D01*
X23809Y4155D01*
Y4120D01*
Y3909D01*
Y3907D01*
Y3900D01*
Y3889D01*
Y3874D01*
Y3857D01*
Y3837D01*
X23811Y3792D01*
Y3746D01*
X23813Y3700D01*
X23814Y3679D01*
Y3661D01*
X23816Y3644D01*
X23818Y3631D01*
Y3630D01*
X23820Y3622D01*
X23822Y3611D01*
X23827Y3596D01*
X23831Y3579D01*
X23839Y3561D01*
X23848Y3541D01*
X23857Y3520D01*
X23692D01*
X23690Y3522D01*
X23689Y3530D01*
X23685Y3539D01*
X23679Y3554D01*
X23674Y3570D01*
X23670Y3591D01*
X23666Y3613D01*
X23663Y3637D01*
X23661D01*
X23659Y3633D01*
X23648Y3624D01*
X23631Y3611D01*
X23609Y3594D01*
X23581Y3578D01*
X23554Y3559D01*
X23524Y3542D01*
X23493Y3530D01*
X23489Y3528D01*
X23478Y3526D01*
X23461Y3520D01*
X23441Y3515D01*
X23415Y3509D01*
X23385Y3506D01*
X23352Y3502D01*
X23319Y3500D01*
X23304D01*
X23293Y3502D01*
X23280D01*
X23265Y3504D01*
X23232Y3509D01*
X23195Y3519D01*
X23154Y3531D01*
X23117Y3550D01*
X23084Y3574D01*
X23080Y3578D01*
X23071Y3587D01*
X23058Y3604D01*
X23043Y3626D01*
X23028Y3653D01*
X23015Y3685D01*
X23006Y3724D01*
X23004Y3742D01*
X23002Y3765D01*
Y3768D01*
Y3776D01*
X23004Y3789D01*
X23006Y3805D01*
X23010Y3826D01*
X23015Y3846D01*
X23023Y3868D01*
X23032Y3889D01*
X23034Y3890D01*
X23037Y3898D01*
X23045Y3909D01*
X23054Y3922D01*
X23065Y3937D01*
X23080Y3951D01*
X23095Y3966D01*
X23113Y3979D01*
X23115Y3981D01*
X23122Y3985D01*
X23132Y3992D01*
X23147Y3999D01*
X23163Y4007D01*
X23184Y4016D01*
X23204Y4024D01*
X23228Y4031D01*
X23230D01*
X23237Y4033D01*
X23248Y4036D01*
X23263Y4038D01*
X23282Y4042D01*
X23306Y4046D01*
X23333Y4051D01*
X23367Y4055D01*
X23369D01*
X23376Y4057D01*
X23385D01*
X23398Y4059D01*
X23413Y4061D01*
X23431Y4064D01*
X23452Y4066D01*
X23474Y4070D01*
X23518Y4079D01*
X23566Y4088D01*
X23609Y4099D01*
X23629Y4105D01*
X23648Y4110D01*
Y4112D01*
Y4116D01*
X23650Y4127D01*
Y4140D01*
Y4148D01*
Y4151D01*
Y4153D01*
Y4155D01*
Y4166D01*
X23648Y4185D01*
X23644Y4205D01*
X23639Y4227D01*
X23629Y4249D01*
X23618Y4270D01*
X23604Y4286D01*
X23602Y4288D01*
X23592Y4295D01*
X23578Y4303D01*
X23559Y4314D01*
X23533Y4323D01*
X23504Y4332D01*
X23467Y4338D01*
X23424Y4340D01*
X23406D01*
X23387Y4338D01*
X23361Y4334D01*
X23335Y4331D01*
X23307Y4323D01*
X23282Y4314D01*
X23259Y4301D01*
X23258Y4299D01*
X23250Y4294D01*
X23241Y4284D01*
X23230Y4270D01*
X23219Y4251D01*
X23206Y4227D01*
X23195Y4197D01*
X23184Y4164D01*
X23030Y4185D01*
Y4186D01*
X23032Y4188D01*
Y4194D01*
X23034Y4201D01*
X23039Y4218D01*
X23047Y4242D01*
X23056Y4266D01*
X23067Y4292D01*
X23082Y4318D01*
X23099Y4342D01*
X23100Y4344D01*
X23108Y4351D01*
X23119Y4362D01*
X23134Y4377D01*
X23154Y4392D01*
X23178Y4406D01*
X23206Y4423D01*
X23237Y4436D01*
X23239D01*
X23241Y4438D01*
X23246Y4440D01*
X23254Y4442D01*
X23272Y4447D01*
X23298Y4453D01*
X23328Y4458D01*
X23365Y4464D01*
X23404Y4468D01*
X23448Y4469D01*
X23469D01*
X23489Y4468D01*
D02*
G37*
G36*
X20703D02*
X20730Y4466D01*
X20762Y4462D01*
X20793Y4456D01*
X20825Y4449D01*
X20854Y4440D01*
X20858Y4438D01*
X20867Y4434D01*
X20880Y4429D01*
X20897Y4421D01*
X20915Y4410D01*
X20934Y4399D01*
X20951Y4384D01*
X20965Y4369D01*
X20967Y4368D01*
X20971Y4362D01*
X20977Y4353D01*
X20984Y4342D01*
X20993Y4325D01*
X21001Y4308D01*
X21008Y4288D01*
X21013Y4264D01*
Y4262D01*
X21015Y4257D01*
X21017Y4246D01*
X21019Y4231D01*
Y4210D01*
X21021Y4186D01*
X21023Y4155D01*
Y4120D01*
Y3909D01*
Y3907D01*
Y3900D01*
Y3889D01*
Y3874D01*
Y3857D01*
Y3837D01*
X21025Y3792D01*
Y3746D01*
X21026Y3700D01*
X21028Y3679D01*
Y3661D01*
X21030Y3644D01*
X21032Y3631D01*
Y3630D01*
X21034Y3622D01*
X21036Y3611D01*
X21041Y3596D01*
X21045Y3579D01*
X21052Y3561D01*
X21062Y3541D01*
X21071Y3520D01*
X20906D01*
X20904Y3522D01*
X20902Y3530D01*
X20899Y3539D01*
X20893Y3554D01*
X20888Y3570D01*
X20884Y3591D01*
X20880Y3613D01*
X20877Y3637D01*
X20875D01*
X20873Y3633D01*
X20862Y3624D01*
X20845Y3611D01*
X20823Y3594D01*
X20795Y3578D01*
X20767Y3559D01*
X20738Y3542D01*
X20706Y3530D01*
X20703Y3528D01*
X20692Y3526D01*
X20675Y3520D01*
X20655Y3515D01*
X20629Y3509D01*
X20599Y3506D01*
X20566Y3502D01*
X20533Y3500D01*
X20518D01*
X20507Y3502D01*
X20494D01*
X20479Y3504D01*
X20446Y3509D01*
X20409Y3519D01*
X20368Y3531D01*
X20331Y3550D01*
X20298Y3574D01*
X20294Y3578D01*
X20285Y3587D01*
X20272Y3604D01*
X20257Y3626D01*
X20242Y3653D01*
X20229Y3685D01*
X20220Y3724D01*
X20218Y3742D01*
X20216Y3765D01*
Y3768D01*
Y3776D01*
X20218Y3789D01*
X20220Y3805D01*
X20224Y3826D01*
X20229Y3846D01*
X20236Y3868D01*
X20246Y3889D01*
X20248Y3890D01*
X20251Y3898D01*
X20259Y3909D01*
X20268Y3922D01*
X20279Y3937D01*
X20294Y3951D01*
X20309Y3966D01*
X20327Y3979D01*
X20329Y3981D01*
X20336Y3985D01*
X20346Y3992D01*
X20360Y3999D01*
X20377Y4007D01*
X20398Y4016D01*
X20418Y4024D01*
X20442Y4031D01*
X20444D01*
X20451Y4033D01*
X20462Y4036D01*
X20477Y4038D01*
X20495Y4042D01*
X20520Y4046D01*
X20547Y4051D01*
X20581Y4055D01*
X20583D01*
X20590Y4057D01*
X20599D01*
X20612Y4059D01*
X20627Y4061D01*
X20645Y4064D01*
X20666Y4066D01*
X20688Y4070D01*
X20732Y4079D01*
X20780Y4088D01*
X20823Y4099D01*
X20843Y4105D01*
X20862Y4110D01*
Y4112D01*
Y4116D01*
X20864Y4127D01*
Y4140D01*
Y4148D01*
Y4151D01*
Y4153D01*
Y4155D01*
Y4166D01*
X20862Y4185D01*
X20858Y4205D01*
X20853Y4227D01*
X20843Y4249D01*
X20832Y4270D01*
X20817Y4286D01*
X20816Y4288D01*
X20806Y4295D01*
X20791Y4303D01*
X20773Y4314D01*
X20747Y4323D01*
X20718Y4332D01*
X20681Y4338D01*
X20638Y4340D01*
X20619D01*
X20601Y4338D01*
X20575Y4334D01*
X20549Y4331D01*
X20521Y4323D01*
X20495Y4314D01*
X20473Y4301D01*
X20471Y4299D01*
X20464Y4294D01*
X20455Y4284D01*
X20444Y4270D01*
X20433Y4251D01*
X20420Y4227D01*
X20409Y4197D01*
X20398Y4164D01*
X20244Y4185D01*
Y4186D01*
X20246Y4188D01*
Y4194D01*
X20248Y4201D01*
X20253Y4218D01*
X20261Y4242D01*
X20270Y4266D01*
X20281Y4292D01*
X20296Y4318D01*
X20312Y4342D01*
X20314Y4344D01*
X20322Y4351D01*
X20333Y4362D01*
X20347Y4377D01*
X20368Y4392D01*
X20392Y4406D01*
X20420Y4423D01*
X20451Y4436D01*
X20453D01*
X20455Y4438D01*
X20460Y4440D01*
X20468Y4442D01*
X20486Y4447D01*
X20512Y4453D01*
X20542Y4458D01*
X20579Y4464D01*
X20618Y4468D01*
X20662Y4469D01*
X20682D01*
X20703Y4468D01*
D02*
G37*
G36*
X18240Y3520D02*
X18083D01*
Y4449D01*
X18240D01*
Y3520D01*
D02*
G37*
G36*
X15872Y4799D02*
X15904Y4797D01*
X15937Y4795D01*
X15969Y4791D01*
X15996Y4788D01*
X16000D01*
X16013Y4784D01*
X16030Y4780D01*
X16052Y4775D01*
X16076Y4765D01*
X16102Y4754D01*
X16129Y4741D01*
X16154Y4727D01*
X16157Y4725D01*
X16165Y4719D01*
X16176Y4708D01*
X16191Y4695D01*
X16207Y4679D01*
X16224Y4656D01*
X16242Y4632D01*
X16257Y4604D01*
X16259Y4601D01*
X16263Y4592D01*
X16270Y4575D01*
X16277Y4553D01*
X16283Y4527D01*
X16290Y4497D01*
X16294Y4464D01*
X16296Y4429D01*
Y4427D01*
Y4421D01*
Y4414D01*
X16294Y4401D01*
X16292Y4388D01*
X16290Y4371D01*
X16287Y4353D01*
X16283Y4332D01*
X16270Y4290D01*
X16263Y4268D01*
X16252Y4244D01*
X16239Y4220D01*
X16226Y4197D01*
X16209Y4175D01*
X16191Y4153D01*
X16189Y4151D01*
X16185Y4148D01*
X16180Y4142D01*
X16170Y4136D01*
X16159Y4127D01*
X16144Y4118D01*
X16126Y4107D01*
X16105Y4098D01*
X16081Y4086D01*
X16054Y4075D01*
X16024Y4066D01*
X15989Y4059D01*
X15952Y4051D01*
X15911Y4046D01*
X15865Y4042D01*
X15817Y4040D01*
X15489D01*
Y3520D01*
X15319D01*
Y4800D01*
X15845D01*
X15872Y4799D01*
D02*
G37*
G36*
X28343Y4468D02*
X28358Y4466D01*
X28376Y4462D01*
X28397Y4458D01*
X28421Y4453D01*
X28443Y4447D01*
X28469Y4438D01*
X28493Y4429D01*
X28519Y4416D01*
X28545Y4401D01*
X28571Y4384D01*
X28595Y4364D01*
X28617Y4342D01*
X28619Y4340D01*
X28623Y4336D01*
X28628Y4329D01*
X28635Y4318D01*
X28645Y4305D01*
X28654Y4290D01*
X28665Y4272D01*
X28676Y4249D01*
X28687Y4225D01*
X28698Y4199D01*
X28708Y4170D01*
X28717Y4138D01*
X28724Y4103D01*
X28730Y4066D01*
X28734Y4027D01*
X28735Y3985D01*
Y3983D01*
Y3976D01*
Y3963D01*
X28734Y3944D01*
X28040D01*
Y3942D01*
Y3937D01*
X28042Y3929D01*
Y3918D01*
X28043Y3905D01*
X28047Y3890D01*
X28053Y3857D01*
X28064Y3820D01*
X28079Y3779D01*
X28099Y3742D01*
X28125Y3709D01*
X28127D01*
X28129Y3705D01*
X28140Y3696D01*
X28156Y3683D01*
X28179Y3670D01*
X28208Y3655D01*
X28242Y3642D01*
X28278Y3633D01*
X28299Y3631D01*
X28321Y3630D01*
X28336D01*
X28352Y3631D01*
X28373Y3635D01*
X28395Y3641D01*
X28421Y3648D01*
X28445Y3659D01*
X28469Y3674D01*
X28471Y3676D01*
X28480Y3683D01*
X28491Y3694D01*
X28504Y3709D01*
X28519Y3729D01*
X28536Y3755D01*
X28552Y3785D01*
X28567Y3820D01*
X28730Y3800D01*
Y3798D01*
X28728Y3794D01*
X28726Y3787D01*
X28723Y3776D01*
X28717Y3765D01*
X28711Y3750D01*
X28697Y3718D01*
X28678Y3683D01*
X28652Y3646D01*
X28623Y3611D01*
X28586Y3578D01*
X28584D01*
X28580Y3574D01*
X28574Y3570D01*
X28567Y3565D01*
X28556Y3559D01*
X28545Y3554D01*
X28530Y3546D01*
X28513Y3539D01*
X28495Y3531D01*
X28476Y3524D01*
X28430Y3513D01*
X28378Y3504D01*
X28321Y3500D01*
X28301D01*
X28288Y3502D01*
X28271Y3504D01*
X28251Y3507D01*
X28229Y3511D01*
X28205Y3515D01*
X28153Y3530D01*
X28125Y3541D01*
X28099Y3552D01*
X28071Y3567D01*
X28045Y3583D01*
X28021Y3602D01*
X27997Y3624D01*
X27995Y3626D01*
X27992Y3630D01*
X27986Y3637D01*
X27979Y3648D01*
X27970Y3661D01*
X27960Y3676D01*
X27949Y3694D01*
X27938Y3715D01*
X27927Y3739D01*
X27916Y3765D01*
X27907Y3794D01*
X27897Y3826D01*
X27890Y3859D01*
X27884Y3896D01*
X27881Y3935D01*
X27879Y3976D01*
Y3977D01*
Y3986D01*
Y3998D01*
X27881Y4014D01*
X27883Y4035D01*
X27884Y4057D01*
X27888Y4083D01*
X27894Y4109D01*
X27909Y4168D01*
X27918Y4197D01*
X27929Y4229D01*
X27944Y4259D01*
X27960Y4286D01*
X27979Y4314D01*
X27999Y4340D01*
X28001Y4342D01*
X28005Y4346D01*
X28012Y4351D01*
X28021Y4360D01*
X28032Y4369D01*
X28047Y4381D01*
X28064Y4394D01*
X28084Y4405D01*
X28105Y4418D01*
X28129Y4429D01*
X28155Y4440D01*
X28182Y4449D01*
X28212Y4458D01*
X28243Y4464D01*
X28277Y4468D01*
X28312Y4469D01*
X28330D01*
X28343Y4468D01*
D02*
G37*
G36*
X16903D02*
X16918Y4466D01*
X16936Y4462D01*
X16957Y4458D01*
X16981Y4453D01*
X17003Y4447D01*
X17029Y4438D01*
X17053Y4429D01*
X17079Y4416D01*
X17105Y4401D01*
X17130Y4384D01*
X17154Y4364D01*
X17177Y4342D01*
X17178Y4340D01*
X17182Y4336D01*
X17188Y4329D01*
X17195Y4318D01*
X17204Y4305D01*
X17214Y4290D01*
X17225Y4272D01*
X17236Y4249D01*
X17247Y4225D01*
X17258Y4199D01*
X17267Y4170D01*
X17277Y4138D01*
X17284Y4103D01*
X17289Y4066D01*
X17293Y4027D01*
X17295Y3985D01*
Y3983D01*
Y3976D01*
Y3963D01*
X17293Y3944D01*
X16599D01*
Y3942D01*
Y3937D01*
X16601Y3929D01*
Y3918D01*
X16603Y3905D01*
X16607Y3890D01*
X16612Y3857D01*
X16623Y3820D01*
X16638Y3779D01*
X16659Y3742D01*
X16684Y3709D01*
X16686D01*
X16688Y3705D01*
X16699Y3696D01*
X16716Y3683D01*
X16738Y3670D01*
X16768Y3655D01*
X16801Y3642D01*
X16838Y3633D01*
X16858Y3631D01*
X16881Y3630D01*
X16895D01*
X16912Y3631D01*
X16932Y3635D01*
X16955Y3641D01*
X16981Y3648D01*
X17005Y3659D01*
X17029Y3674D01*
X17030Y3676D01*
X17040Y3683D01*
X17051Y3694D01*
X17064Y3709D01*
X17079Y3729D01*
X17095Y3755D01*
X17112Y3785D01*
X17127Y3820D01*
X17289Y3800D01*
Y3798D01*
X17288Y3794D01*
X17286Y3787D01*
X17282Y3776D01*
X17277Y3765D01*
X17271Y3750D01*
X17256Y3718D01*
X17238Y3683D01*
X17212Y3646D01*
X17182Y3611D01*
X17145Y3578D01*
X17143D01*
X17140Y3574D01*
X17134Y3570D01*
X17127Y3565D01*
X17116Y3559D01*
X17105Y3554D01*
X17090Y3546D01*
X17073Y3539D01*
X17054Y3531D01*
X17036Y3524D01*
X16990Y3513D01*
X16938Y3504D01*
X16881Y3500D01*
X16860D01*
X16847Y3502D01*
X16831Y3504D01*
X16810Y3507D01*
X16788Y3511D01*
X16764Y3515D01*
X16712Y3530D01*
X16684Y3541D01*
X16659Y3552D01*
X16631Y3567D01*
X16605Y3583D01*
X16581Y3602D01*
X16557Y3624D01*
X16555Y3626D01*
X16551Y3630D01*
X16546Y3637D01*
X16538Y3648D01*
X16529Y3661D01*
X16520Y3676D01*
X16509Y3694D01*
X16498Y3715D01*
X16487Y3739D01*
X16476Y3765D01*
X16466Y3794D01*
X16457Y3826D01*
X16450Y3859D01*
X16444Y3896D01*
X16440Y3935D01*
X16439Y3976D01*
Y3977D01*
Y3986D01*
Y3998D01*
X16440Y4014D01*
X16442Y4035D01*
X16444Y4057D01*
X16448Y4083D01*
X16453Y4109D01*
X16468Y4168D01*
X16477Y4197D01*
X16488Y4229D01*
X16503Y4259D01*
X16520Y4286D01*
X16538Y4314D01*
X16559Y4340D01*
X16561Y4342D01*
X16564Y4346D01*
X16572Y4351D01*
X16581Y4360D01*
X16592Y4369D01*
X16607Y4381D01*
X16623Y4394D01*
X16644Y4405D01*
X16664Y4418D01*
X16688Y4429D01*
X16714Y4440D01*
X16742Y4449D01*
X16771Y4458D01*
X16803Y4464D01*
X16836Y4468D01*
X16871Y4469D01*
X16890D01*
X16903Y4468D01*
D02*
G37*
G36*
X24425Y57164D02*
Y57161D01*
Y57152D01*
Y57141D01*
Y57125D01*
X24422Y57103D01*
Y57080D01*
X24417Y57028D01*
X24411Y56967D01*
X24400Y56903D01*
X24384Y56845D01*
X24364Y56789D01*
Y56787D01*
X24362Y56784D01*
X24353Y56767D01*
X24339Y56745D01*
X24320Y56715D01*
X24292Y56684D01*
X24262Y56651D01*
X24223Y56618D01*
X24179Y56590D01*
X24173Y56587D01*
X24157Y56579D01*
X24132Y56568D01*
X24096Y56557D01*
X24051Y56543D01*
X24001Y56532D01*
X23946Y56524D01*
X23885Y56521D01*
X23860D01*
X23844Y56524D01*
X23821Y56526D01*
X23799Y56529D01*
X23741Y56540D01*
X23680Y56557D01*
X23616Y56582D01*
X23583Y56598D01*
X23553Y56618D01*
X23525Y56640D01*
X23497Y56665D01*
X23494Y56668D01*
X23492Y56670D01*
X23486Y56682D01*
X23478Y56693D01*
X23467Y56706D01*
X23456Y56726D01*
X23445Y56748D01*
X23431Y56773D01*
X23420Y56801D01*
X23409Y56834D01*
X23397Y56867D01*
X23386Y56906D01*
X23381Y56947D01*
X23373Y56994D01*
X23370Y57042D01*
Y57094D01*
X23600Y57127D01*
Y57125D01*
Y57119D01*
Y57108D01*
X23603Y57091D01*
X23605Y57075D01*
Y57055D01*
X23614Y57008D01*
X23622Y56959D01*
X23639Y56909D01*
X23655Y56864D01*
X23666Y56845D01*
X23680Y56828D01*
X23683Y56826D01*
X23694Y56817D01*
X23711Y56803D01*
X23733Y56789D01*
X23763Y56773D01*
X23796Y56762D01*
X23838Y56751D01*
X23882Y56748D01*
X23899D01*
X23915Y56751D01*
X23941Y56753D01*
X23965Y56759D01*
X23993Y56765D01*
X24021Y56776D01*
X24048Y56789D01*
X24051Y56792D01*
X24060Y56798D01*
X24071Y56809D01*
X24087Y56820D01*
X24101Y56839D01*
X24118Y56859D01*
X24132Y56881D01*
X24143Y56909D01*
Y56911D01*
X24148Y56923D01*
X24151Y56942D01*
X24157Y56967D01*
X24162Y57000D01*
X24165Y57042D01*
X24170Y57091D01*
Y57150D01*
Y58471D01*
X24425D01*
Y57164D01*
D02*
G37*
G36*
X25630Y56554D02*
X25395D01*
Y58053D01*
X25392Y58050D01*
X25378Y58039D01*
X25361Y58022D01*
X25334Y58003D01*
X25303Y57978D01*
X25264Y57950D01*
X25220Y57920D01*
X25170Y57889D01*
X25168D01*
X25165Y57886D01*
X25148Y57875D01*
X25120Y57862D01*
X25087Y57845D01*
X25049Y57825D01*
X25007Y57806D01*
X24965Y57787D01*
X24924Y57770D01*
Y57997D01*
X24927D01*
X24932Y58003D01*
X24943Y58005D01*
X24957Y58014D01*
X24974Y58022D01*
X24993Y58033D01*
X25040Y58061D01*
X25096Y58091D01*
X25151Y58130D01*
X25209Y58175D01*
X25267Y58222D01*
X25270Y58224D01*
X25273Y58227D01*
X25281Y58235D01*
X25292Y58244D01*
X25317Y58271D01*
X25350Y58305D01*
X25384Y58343D01*
X25420Y58388D01*
X25450Y58432D01*
X25478Y58479D01*
X25630D01*
Y56554D01*
D02*
G37*
G36*
X2963Y38265D02*
X2960D01*
X2949D01*
X2932D01*
X2910Y38267D01*
X2885Y38270D01*
X2857Y38276D01*
X2830Y38281D01*
X2799Y38292D01*
X2796D01*
X2794Y38295D01*
X2777Y38300D01*
X2752Y38312D01*
X2719Y38328D01*
X2680Y38350D01*
X2636Y38378D01*
X2591Y38409D01*
X2544Y38447D01*
X2541D01*
X2539Y38453D01*
X2522Y38467D01*
X2497Y38492D01*
X2461Y38528D01*
X2420Y38569D01*
X2370Y38622D01*
X2314Y38686D01*
X2256Y38755D01*
X2253Y38758D01*
X2245Y38769D01*
X2231Y38785D01*
X2215Y38805D01*
X2193Y38830D01*
X2168Y38860D01*
X2140Y38891D01*
X2109Y38927D01*
X2043Y38996D01*
X1977Y39065D01*
X1943Y39098D01*
X1910Y39129D01*
X1880Y39156D01*
X1849Y39179D01*
X1846D01*
X1843Y39184D01*
X1835Y39190D01*
X1824Y39195D01*
X1794Y39215D01*
X1758Y39237D01*
X1713Y39256D01*
X1666Y39276D01*
X1614Y39287D01*
X1564Y39292D01*
X1561D01*
X1558D01*
X1542Y39289D01*
X1514Y39287D01*
X1483Y39278D01*
X1445Y39267D01*
X1406Y39248D01*
X1367Y39223D01*
X1328Y39190D01*
X1323Y39184D01*
X1312Y39170D01*
X1298Y39151D01*
X1278Y39121D01*
X1262Y39082D01*
X1245Y39037D01*
X1234Y38985D01*
X1231Y38927D01*
Y38910D01*
X1234Y38899D01*
X1237Y38866D01*
X1245Y38827D01*
X1256Y38785D01*
X1276Y38738D01*
X1301Y38694D01*
X1334Y38652D01*
X1339Y38647D01*
X1353Y38636D01*
X1375Y38619D01*
X1409Y38603D01*
X1447Y38583D01*
X1497Y38566D01*
X1553Y38555D01*
X1616Y38550D01*
X1591Y38309D01*
X1589D01*
X1580Y38312D01*
X1567D01*
X1547Y38314D01*
X1525Y38320D01*
X1500Y38326D01*
X1469Y38334D01*
X1439Y38342D01*
X1373Y38364D01*
X1306Y38397D01*
X1273Y38417D01*
X1240Y38442D01*
X1209Y38467D01*
X1182Y38495D01*
X1179Y38497D01*
X1176Y38503D01*
X1168Y38511D01*
X1159Y38525D01*
X1148Y38541D01*
X1137Y38561D01*
X1123Y38583D01*
X1109Y38611D01*
X1096Y38641D01*
X1082Y38675D01*
X1071Y38710D01*
X1060Y38749D01*
X1051Y38791D01*
X1043Y38835D01*
X1040Y38882D01*
X1037Y38932D01*
Y38960D01*
X1040Y38979D01*
X1043Y39001D01*
X1046Y39029D01*
X1051Y39059D01*
X1057Y39090D01*
X1076Y39162D01*
X1104Y39234D01*
X1120Y39270D01*
X1140Y39306D01*
X1165Y39339D01*
X1192Y39370D01*
X1195Y39373D01*
X1198Y39378D01*
X1209Y39384D01*
X1220Y39395D01*
X1234Y39409D01*
X1254Y39422D01*
X1273Y39436D01*
X1298Y39453D01*
X1350Y39481D01*
X1417Y39508D01*
X1450Y39519D01*
X1489Y39525D01*
X1528Y39530D01*
X1569Y39533D01*
X1575D01*
X1589D01*
X1611Y39530D01*
X1641Y39528D01*
X1674Y39522D01*
X1713Y39511D01*
X1755Y39500D01*
X1796Y39483D01*
X1802Y39481D01*
X1816Y39475D01*
X1838Y39464D01*
X1868Y39447D01*
X1902Y39425D01*
X1943Y39397D01*
X1985Y39364D01*
X2032Y39325D01*
X2037Y39320D01*
X2054Y39306D01*
X2068Y39292D01*
X2082Y39278D01*
X2098Y39262D01*
X2121Y39240D01*
X2143Y39217D01*
X2168Y39190D01*
X2195Y39162D01*
X2226Y39129D01*
X2256Y39093D01*
X2292Y39054D01*
X2328Y39010D01*
X2367Y38965D01*
X2370Y38963D01*
X2375Y38957D01*
X2384Y38946D01*
X2395Y38932D01*
X2411Y38916D01*
X2428Y38896D01*
X2464Y38852D01*
X2506Y38805D01*
X2547Y38760D01*
X2583Y38722D01*
X2597Y38705D01*
X2611Y38691D01*
X2614Y38688D01*
X2622Y38680D01*
X2633Y38669D01*
X2650Y38655D01*
X2669Y38641D01*
X2688Y38625D01*
X2735Y38591D01*
Y39536D01*
X2963D01*
Y38265D01*
D02*
G37*
G36*
Y37832D02*
X2564Y37580D01*
X2561D01*
X2555Y37575D01*
X2547Y37569D01*
X2536Y37561D01*
X2506Y37542D01*
X2467Y37517D01*
X2425Y37486D01*
X2381Y37456D01*
X2339Y37425D01*
X2300Y37398D01*
X2298Y37395D01*
X2287Y37387D01*
X2270Y37373D01*
X2251Y37353D01*
X2209Y37312D01*
X2190Y37290D01*
X2173Y37267D01*
X2170Y37265D01*
X2168Y37259D01*
X2162Y37248D01*
X2154Y37231D01*
X2145Y37215D01*
X2137Y37195D01*
X2123Y37151D01*
Y37148D01*
X2121Y37143D01*
Y37132D01*
X2118Y37118D01*
X2115Y37098D01*
Y37076D01*
X2112Y37046D01*
Y36719D01*
X2963D01*
Y36464D01*
X1046D01*
Y37353D01*
X1048Y37375D01*
Y37400D01*
X1051Y37459D01*
X1060Y37519D01*
X1068Y37586D01*
X1082Y37647D01*
X1090Y37677D01*
X1098Y37702D01*
Y37705D01*
X1101Y37708D01*
X1109Y37724D01*
X1120Y37749D01*
X1140Y37780D01*
X1165Y37813D01*
X1198Y37849D01*
X1237Y37882D01*
X1281Y37916D01*
X1284D01*
X1287Y37918D01*
X1303Y37929D01*
X1331Y37940D01*
X1367Y37957D01*
X1409Y37971D01*
X1459Y37985D01*
X1511Y37993D01*
X1569Y37996D01*
X1572D01*
X1578D01*
X1589D01*
X1602Y37993D01*
X1622D01*
X1641Y37990D01*
X1688Y37979D01*
X1744Y37963D01*
X1802Y37940D01*
X1860Y37907D01*
X1888Y37885D01*
X1915Y37863D01*
X1918Y37860D01*
X1921Y37857D01*
X1929Y37849D01*
X1938Y37838D01*
X1949Y37824D01*
X1960Y37808D01*
X1974Y37785D01*
X1990Y37763D01*
X2004Y37736D01*
X2018Y37705D01*
X2035Y37672D01*
X2049Y37636D01*
X2060Y37594D01*
X2073Y37553D01*
X2082Y37506D01*
X2090Y37456D01*
X2093Y37461D01*
X2098Y37472D01*
X2109Y37489D01*
X2121Y37511D01*
X2151Y37561D01*
X2170Y37586D01*
X2187Y37608D01*
X2193Y37614D01*
X2206Y37627D01*
X2228Y37650D01*
X2256Y37677D01*
X2295Y37708D01*
X2337Y37744D01*
X2386Y37780D01*
X2442Y37819D01*
X2963Y38148D01*
Y37832D01*
D02*
G37*
G36*
X17360Y68537D02*
X17125D01*
Y70036D01*
X17122Y70033D01*
X17108Y70022D01*
X17091Y70006D01*
X17064Y69986D01*
X17033Y69961D01*
X16994Y69933D01*
X16950Y69903D01*
X16900Y69873D01*
X16897D01*
X16895Y69870D01*
X16878Y69859D01*
X16850Y69845D01*
X16817Y69828D01*
X16778Y69809D01*
X16737Y69789D01*
X16695Y69770D01*
X16654Y69753D01*
Y69981D01*
X16657D01*
X16662Y69986D01*
X16673Y69989D01*
X16687Y69997D01*
X16704Y70006D01*
X16723Y70017D01*
X16770Y70044D01*
X16826Y70075D01*
X16881Y70114D01*
X16939Y70158D01*
X16997Y70205D01*
X17000Y70208D01*
X17003Y70210D01*
X17011Y70219D01*
X17022Y70227D01*
X17047Y70255D01*
X17080Y70288D01*
X17113Y70327D01*
X17150Y70371D01*
X17180Y70416D01*
X17208Y70463D01*
X17360D01*
Y68537D01*
D02*
G37*
G36*
X15551Y70451D02*
X15576D01*
X15634Y70449D01*
X15695Y70440D01*
X15762Y70432D01*
X15823Y70418D01*
X15853Y70410D01*
X15878Y70402D01*
X15881D01*
X15884Y70399D01*
X15900Y70391D01*
X15925Y70380D01*
X15956Y70360D01*
X15989Y70335D01*
X16025Y70302D01*
X16058Y70263D01*
X16091Y70219D01*
Y70216D01*
X16094Y70213D01*
X16105Y70197D01*
X16116Y70169D01*
X16133Y70133D01*
X16147Y70091D01*
X16161Y70042D01*
X16169Y69989D01*
X16172Y69931D01*
Y69928D01*
Y69922D01*
Y69911D01*
X16169Y69898D01*
Y69878D01*
X16166Y69859D01*
X16155Y69812D01*
X16138Y69756D01*
X16116Y69698D01*
X16083Y69640D01*
X16061Y69612D01*
X16039Y69585D01*
X16036Y69582D01*
X16033Y69579D01*
X16025Y69571D01*
X16014Y69562D01*
X16000Y69551D01*
X15983Y69540D01*
X15961Y69526D01*
X15939Y69510D01*
X15911Y69496D01*
X15881Y69482D01*
X15848Y69465D01*
X15812Y69451D01*
X15770Y69440D01*
X15729Y69427D01*
X15682Y69418D01*
X15632Y69410D01*
X15637Y69407D01*
X15648Y69402D01*
X15665Y69391D01*
X15687Y69380D01*
X15737Y69349D01*
X15762Y69330D01*
X15784Y69313D01*
X15789Y69308D01*
X15803Y69294D01*
X15825Y69271D01*
X15853Y69244D01*
X15884Y69205D01*
X15920Y69164D01*
X15956Y69114D01*
X15994Y69058D01*
X16324Y68537D01*
X16008D01*
X15756Y68936D01*
Y68939D01*
X15751Y68945D01*
X15745Y68953D01*
X15737Y68964D01*
X15718Y68994D01*
X15692Y69033D01*
X15662Y69075D01*
X15632Y69119D01*
X15601Y69161D01*
X15573Y69200D01*
X15571Y69202D01*
X15562Y69213D01*
X15549Y69230D01*
X15529Y69249D01*
X15487Y69291D01*
X15465Y69310D01*
X15443Y69327D01*
X15440Y69330D01*
X15435Y69332D01*
X15424Y69338D01*
X15407Y69346D01*
X15391Y69355D01*
X15371Y69363D01*
X15327Y69377D01*
X15324D01*
X15319Y69380D01*
X15307D01*
X15294Y69382D01*
X15274Y69385D01*
X15252D01*
X15222Y69388D01*
X14895D01*
Y68537D01*
X14640D01*
Y70454D01*
X15529D01*
X15551Y70451D01*
D02*
G37*
G36*
X10564Y31896D02*
X10591D01*
X10619Y31893D01*
X10655Y31890D01*
X10691Y31885D01*
X10772Y31871D01*
X10860Y31852D01*
X10949Y31824D01*
X11035Y31785D01*
X11037Y31782D01*
X11046Y31780D01*
X11057Y31774D01*
X11071Y31763D01*
X11090Y31752D01*
X11112Y31738D01*
X11162Y31702D01*
X11217Y31655D01*
X11273Y31600D01*
X11328Y31536D01*
X11375Y31461D01*
X11378Y31458D01*
X11381Y31450D01*
X11386Y31439D01*
X11395Y31425D01*
X11403Y31403D01*
X11411Y31381D01*
X11422Y31353D01*
X11434Y31323D01*
X11445Y31289D01*
X11456Y31253D01*
X11472Y31176D01*
X11486Y31087D01*
X11492Y30996D01*
Y30968D01*
X11489Y30949D01*
X11486Y30924D01*
X11483Y30893D01*
X11481Y30863D01*
X11472Y30827D01*
X11456Y30752D01*
X11431Y30669D01*
X11414Y30627D01*
X11395Y30589D01*
X11370Y30550D01*
X11345Y30511D01*
X11342Y30508D01*
X11339Y30503D01*
X11331Y30492D01*
X11317Y30478D01*
X11303Y30464D01*
X11284Y30445D01*
X11262Y30425D01*
X11240Y30403D01*
X11212Y30381D01*
X11179Y30359D01*
X11145Y30334D01*
X11109Y30312D01*
X11068Y30292D01*
X11026Y30270D01*
X10982Y30253D01*
X10932Y30237D01*
X10874Y30486D01*
X10877D01*
X10882Y30489D01*
X10893Y30494D01*
X10907Y30500D01*
X10924Y30505D01*
X10946Y30514D01*
X10990Y30536D01*
X11040Y30564D01*
X11090Y30597D01*
X11137Y30639D01*
X11179Y30683D01*
X11184Y30688D01*
X11195Y30705D01*
X11209Y30733D01*
X11229Y30769D01*
X11245Y30816D01*
X11262Y30868D01*
X11273Y30932D01*
X11276Y31001D01*
Y31023D01*
X11273Y31037D01*
Y31057D01*
X11270Y31079D01*
X11262Y31132D01*
X11251Y31190D01*
X11231Y31251D01*
X11204Y31314D01*
X11168Y31372D01*
Y31375D01*
X11162Y31378D01*
X11148Y31398D01*
X11126Y31422D01*
X11093Y31453D01*
X11051Y31489D01*
X11004Y31522D01*
X10946Y31553D01*
X10882Y31580D01*
X10880D01*
X10874Y31583D01*
X10866Y31586D01*
X10852Y31589D01*
X10835Y31594D01*
X10816Y31600D01*
X10769Y31608D01*
X10713Y31619D01*
X10652Y31630D01*
X10586Y31636D01*
X10514Y31639D01*
X10511D01*
X10503D01*
X10489D01*
X10472D01*
X10453Y31636D01*
X10428D01*
X10400Y31633D01*
X10370Y31630D01*
X10303Y31622D01*
X10231Y31608D01*
X10159Y31591D01*
X10087Y31569D01*
X10085D01*
X10079Y31566D01*
X10071Y31561D01*
X10057Y31555D01*
X10024Y31539D01*
X9985Y31514D01*
X9940Y31483D01*
X9893Y31445D01*
X9852Y31400D01*
X9813Y31348D01*
Y31345D01*
X9810Y31339D01*
X9805Y31331D01*
X9799Y31320D01*
X9794Y31306D01*
X9785Y31289D01*
X9769Y31251D01*
X9752Y31201D01*
X9738Y31145D01*
X9727Y31084D01*
X9724Y31021D01*
Y31001D01*
X9727Y30985D01*
Y30965D01*
X9730Y30946D01*
X9741Y30896D01*
X9755Y30838D01*
X9777Y30780D01*
X9808Y30719D01*
X9824Y30688D01*
X9846Y30661D01*
X9849Y30658D01*
X9852Y30655D01*
X9860Y30647D01*
X9868Y30636D01*
X9882Y30625D01*
X9899Y30611D01*
X9916Y30594D01*
X9938Y30580D01*
X9963Y30564D01*
X9990Y30544D01*
X10018Y30528D01*
X10051Y30511D01*
X10087Y30497D01*
X10126Y30483D01*
X10168Y30470D01*
X10212Y30458D01*
X10148Y30204D01*
X10145D01*
X10134Y30206D01*
X10118Y30212D01*
X10096Y30220D01*
X10071Y30228D01*
X10040Y30240D01*
X10007Y30253D01*
X9971Y30270D01*
X9893Y30309D01*
X9816Y30359D01*
X9777Y30389D01*
X9738Y30420D01*
X9705Y30453D01*
X9672Y30492D01*
X9669Y30494D01*
X9663Y30500D01*
X9658Y30514D01*
X9647Y30528D01*
X9633Y30550D01*
X9619Y30572D01*
X9605Y30602D01*
X9591Y30633D01*
X9575Y30669D01*
X9561Y30708D01*
X9547Y30749D01*
X9533Y30794D01*
X9522Y30841D01*
X9517Y30891D01*
X9511Y30943D01*
X9508Y30999D01*
Y31029D01*
X9511Y31051D01*
Y31076D01*
X9514Y31107D01*
X9519Y31140D01*
X9525Y31179D01*
X9539Y31259D01*
X9561Y31342D01*
X9591Y31425D01*
X9611Y31464D01*
X9633Y31503D01*
X9636Y31506D01*
X9639Y31511D01*
X9647Y31522D01*
X9658Y31533D01*
X9669Y31550D01*
X9686Y31569D01*
X9705Y31591D01*
X9727Y31613D01*
X9752Y31636D01*
X9777Y31661D01*
X9841Y31710D01*
X9916Y31758D01*
X9999Y31799D01*
X10001D01*
X10010Y31805D01*
X10024Y31807D01*
X10040Y31816D01*
X10062Y31821D01*
X10090Y31830D01*
X10120Y31841D01*
X10154Y31849D01*
X10190Y31857D01*
X10231Y31868D01*
X10317Y31882D01*
X10414Y31893D01*
X10514Y31899D01*
X10517D01*
X10528D01*
X10544D01*
X10564Y31896D01*
D02*
G37*
G36*
X10985Y29805D02*
X10990Y29799D01*
X10993Y29788D01*
X11001Y29774D01*
X11010Y29758D01*
X11021Y29738D01*
X11048Y29691D01*
X11079Y29636D01*
X11118Y29580D01*
X11162Y29522D01*
X11209Y29464D01*
X11212Y29461D01*
X11215Y29458D01*
X11223Y29450D01*
X11231Y29439D01*
X11259Y29414D01*
X11292Y29381D01*
X11331Y29348D01*
X11375Y29312D01*
X11420Y29281D01*
X11467Y29254D01*
Y29101D01*
X9542D01*
Y29337D01*
X11040D01*
X11037Y29339D01*
X11026Y29353D01*
X11010Y29370D01*
X10990Y29397D01*
X10965Y29428D01*
X10938Y29467D01*
X10907Y29511D01*
X10877Y29561D01*
Y29564D01*
X10874Y29566D01*
X10863Y29583D01*
X10849Y29611D01*
X10832Y29644D01*
X10813Y29683D01*
X10794Y29724D01*
X10774Y29766D01*
X10758Y29807D01*
X10985D01*
Y29805D01*
D02*
G37*
%LPC*%
G36*
X25092Y7479D02*
X25090D01*
X25088Y7477D01*
X25083Y7475D01*
X25075Y7473D01*
X25066Y7470D01*
X25055Y7466D01*
X25042Y7462D01*
X25027Y7459D01*
X25010Y7453D01*
X24990Y7449D01*
X24970Y7444D01*
X24946Y7438D01*
X24920Y7433D01*
X24894Y7427D01*
X24864Y7423D01*
X24833Y7418D01*
X24829D01*
X24818Y7416D01*
X24800Y7412D01*
X24779Y7409D01*
X24757Y7405D01*
X24735Y7399D01*
X24714Y7394D01*
X24696Y7386D01*
X24694D01*
X24689Y7383D01*
X24681Y7379D01*
X24674Y7373D01*
X24652Y7359D01*
X24633Y7337D01*
Y7335D01*
X24629Y7331D01*
X24627Y7324D01*
X24624Y7314D01*
X24620Y7303D01*
X24616Y7292D01*
X24614Y7277D01*
X24613Y7262D01*
Y7261D01*
Y7251D01*
X24614Y7240D01*
X24618Y7226D01*
X24624Y7209D01*
X24633Y7192D01*
X24644Y7174D01*
X24659Y7157D01*
X24661Y7155D01*
X24668Y7152D01*
X24679Y7144D01*
X24694Y7137D01*
X24714Y7129D01*
X24738Y7122D01*
X24766Y7118D01*
X24800Y7116D01*
X24814D01*
X24833Y7118D01*
X24853Y7122D01*
X24879Y7126D01*
X24905Y7133D01*
X24933Y7142D01*
X24961Y7155D01*
X24964Y7157D01*
X24972Y7163D01*
X24984Y7172D01*
X24999Y7185D01*
X25016Y7200D01*
X25034Y7218D01*
X25049Y7240D01*
X25064Y7264D01*
X25066Y7266D01*
X25068Y7274D01*
X25071Y7287D01*
X25077Y7303D01*
X25083Y7325D01*
X25086Y7351D01*
X25088Y7383D01*
X25090Y7420D01*
X25092Y7479D01*
D02*
G37*
G36*
X23802Y8151D02*
X23399D01*
Y7727D01*
X23780D01*
X23802Y7729D01*
X23828Y7731D01*
X23858Y7732D01*
X23888Y7736D01*
X23917Y7742D01*
X23943Y7749D01*
X23947Y7751D01*
X23954Y7755D01*
X23965Y7760D01*
X23980Y7768D01*
X23997Y7779D01*
X24013Y7792D01*
X24030Y7808D01*
X24043Y7827D01*
X24045Y7829D01*
X24048Y7836D01*
X24054Y7847D01*
X24061Y7862D01*
X24067Y7879D01*
X24072Y7897D01*
X24076Y7919D01*
X24078Y7942D01*
Y7943D01*
Y7945D01*
X24076Y7956D01*
X24074Y7973D01*
X24071Y7995D01*
X24061Y8017D01*
X24050Y8043D01*
X24034Y8067D01*
X24011Y8091D01*
X24008Y8093D01*
X23999Y8101D01*
X23984Y8110D01*
X23960Y8121D01*
X23932Y8132D01*
X23895Y8141D01*
X23852Y8149D01*
X23802Y8151D01*
D02*
G37*
G36*
X18228Y7479D02*
X18226D01*
X18225Y7477D01*
X18219Y7475D01*
X18212Y7473D01*
X18202Y7470D01*
X18191Y7466D01*
X18178Y7462D01*
X18164Y7459D01*
X18147Y7453D01*
X18127Y7449D01*
X18106Y7444D01*
X18082Y7438D01*
X18056Y7433D01*
X18030Y7427D01*
X18001Y7423D01*
X17969Y7418D01*
X17966D01*
X17955Y7416D01*
X17936Y7412D01*
X17916Y7409D01*
X17894Y7405D01*
X17871Y7399D01*
X17851Y7394D01*
X17832Y7386D01*
X17831D01*
X17825Y7383D01*
X17818Y7379D01*
X17810Y7373D01*
X17788Y7359D01*
X17770Y7337D01*
Y7335D01*
X17766Y7331D01*
X17764Y7324D01*
X17760Y7314D01*
X17757Y7303D01*
X17753Y7292D01*
X17751Y7277D01*
X17749Y7262D01*
Y7261D01*
Y7251D01*
X17751Y7240D01*
X17755Y7226D01*
X17760Y7209D01*
X17770Y7192D01*
X17781Y7174D01*
X17795Y7157D01*
X17797Y7155D01*
X17805Y7152D01*
X17816Y7144D01*
X17831Y7137D01*
X17851Y7129D01*
X17875Y7122D01*
X17903Y7118D01*
X17936Y7116D01*
X17951D01*
X17969Y7118D01*
X17990Y7122D01*
X18016Y7126D01*
X18042Y7133D01*
X18069Y7142D01*
X18097Y7155D01*
X18101Y7157D01*
X18108Y7163D01*
X18121Y7172D01*
X18136Y7185D01*
X18153Y7200D01*
X18171Y7218D01*
X18186Y7240D01*
X18201Y7264D01*
X18202Y7266D01*
X18204Y7274D01*
X18208Y7287D01*
X18214Y7303D01*
X18219Y7325D01*
X18223Y7351D01*
X18225Y7383D01*
X18226Y7420D01*
X18228Y7479D01*
D02*
G37*
G36*
X16998Y8141D02*
X16632D01*
Y7684D01*
X16976D01*
X16989Y7686D01*
X17002D01*
X17017Y7688D01*
X17052Y7692D01*
X17091Y7699D01*
X17129Y7710D01*
X17165Y7725D01*
X17181Y7734D01*
X17194Y7745D01*
X17198Y7749D01*
X17205Y7756D01*
X17216Y7771D01*
X17229Y7790D01*
X17242Y7814D01*
X17253Y7843D01*
X17261Y7877D01*
X17265Y7916D01*
Y7917D01*
Y7919D01*
Y7929D01*
X17263Y7945D01*
X17259Y7964D01*
X17255Y7984D01*
X17248Y8008D01*
X17237Y8030D01*
X17224Y8053D01*
X17222Y8054D01*
X17216Y8062D01*
X17207Y8071D01*
X17196Y8084D01*
X17179Y8097D01*
X17161Y8108D01*
X17141Y8119D01*
X17117Y8128D01*
X17115D01*
X17107Y8130D01*
X17096Y8132D01*
X17081Y8136D01*
X17059Y8138D01*
X17031Y8139D01*
X16998Y8141D01*
D02*
G37*
G36*
X21499Y7832D02*
X21488D01*
X21481Y7830D01*
X21460Y7829D01*
X21436Y7823D01*
X21407Y7814D01*
X21375Y7801D01*
X21346Y7782D01*
X21316Y7758D01*
X21312Y7755D01*
X21305Y7745D01*
X21292Y7729D01*
X21279Y7706D01*
X21264Y7681D01*
X21251Y7647D01*
X21240Y7609D01*
X21235Y7566D01*
X21754D01*
Y7568D01*
Y7571D01*
X21753Y7577D01*
Y7584D01*
X21749Y7607D01*
X21743Y7631D01*
X21734Y7660D01*
X21725Y7688D01*
X21710Y7716D01*
X21693Y7740D01*
Y7742D01*
X21690Y7744D01*
X21680Y7755D01*
X21664Y7769D01*
X21642Y7786D01*
X21614Y7803D01*
X21580Y7818D01*
X21542Y7829D01*
X21521Y7830D01*
X21499Y7832D01*
D02*
G37*
G36*
X28154D02*
X28124D01*
X28117Y7830D01*
X28096Y7829D01*
X28072Y7821D01*
X28043Y7812D01*
X28013Y7795D01*
X27983Y7775D01*
X27969Y7760D01*
X27954Y7745D01*
Y7744D01*
X27950Y7742D01*
X27946Y7736D01*
X27943Y7729D01*
X27937Y7721D01*
X27932Y7710D01*
X27924Y7697D01*
X27919Y7683D01*
X27911Y7666D01*
X27904Y7645D01*
X27898Y7625D01*
X27893Y7603D01*
X27889Y7577D01*
X27885Y7551D01*
X27882Y7523D01*
Y7492D01*
Y7490D01*
Y7485D01*
Y7475D01*
X27883Y7462D01*
Y7447D01*
X27885Y7429D01*
X27891Y7390D01*
X27900Y7346D01*
X27911Y7303D01*
X27930Y7261D01*
X27941Y7242D01*
X27954Y7226D01*
X27957Y7222D01*
X27967Y7213D01*
X27981Y7200D01*
X28004Y7185D01*
X28030Y7168D01*
X28061Y7155D01*
X28096Y7146D01*
X28115Y7144D01*
X28135Y7142D01*
X28146D01*
X28154Y7144D01*
X28174Y7146D01*
X28200Y7153D01*
X28228Y7163D01*
X28259Y7177D01*
X28289Y7198D01*
X28303Y7211D01*
X28318Y7226D01*
Y7227D01*
X28322Y7229D01*
X28326Y7235D01*
X28329Y7242D01*
X28335Y7250D01*
X28342Y7261D01*
X28348Y7274D01*
X28355Y7290D01*
X28363Y7307D01*
X28368Y7325D01*
X28376Y7348D01*
X28381Y7372D01*
X28385Y7396D01*
X28389Y7423D01*
X28392Y7455D01*
Y7486D01*
Y7488D01*
Y7494D01*
Y7503D01*
X28390Y7514D01*
Y7529D01*
X28389Y7546D01*
X28383Y7583D01*
X28374Y7625D01*
X28361Y7668D01*
X28342Y7710D01*
X28329Y7729D01*
X28316Y7745D01*
Y7747D01*
X28313Y7749D01*
X28303Y7758D01*
X28287Y7773D01*
X28265Y7790D01*
X28239Y7805D01*
X28207Y7819D01*
X28172Y7829D01*
X28154Y7832D01*
D02*
G37*
G36*
X18624Y6207D02*
X18258D01*
Y5750D01*
X18602D01*
X18615Y5752D01*
X18628D01*
X18643Y5754D01*
X18678Y5758D01*
X18717Y5765D01*
X18756Y5776D01*
X18791Y5791D01*
X18807Y5800D01*
X18820Y5811D01*
X18824Y5815D01*
X18832Y5822D01*
X18843Y5837D01*
X18856Y5856D01*
X18868Y5880D01*
X18880Y5909D01*
X18887Y5943D01*
X18891Y5982D01*
Y5983D01*
Y5985D01*
Y5994D01*
X18889Y6011D01*
X18885Y6030D01*
X18881Y6050D01*
X18874Y6074D01*
X18863Y6096D01*
X18850Y6118D01*
X18848Y6120D01*
X18843Y6128D01*
X18833Y6137D01*
X18822Y6150D01*
X18805Y6163D01*
X18787Y6174D01*
X18767Y6185D01*
X18743Y6194D01*
X18741D01*
X18733Y6196D01*
X18722Y6198D01*
X18708Y6202D01*
X18685Y6204D01*
X18658Y6205D01*
X18624Y6207D01*
D02*
G37*
G36*
X15278Y5545D02*
X15276D01*
X15274Y5543D01*
X15268Y5541D01*
X15261Y5539D01*
X15252Y5536D01*
X15241Y5532D01*
X15228Y5528D01*
X15213Y5525D01*
X15196Y5519D01*
X15176Y5515D01*
X15156Y5510D01*
X15132Y5504D01*
X15105Y5499D01*
X15080Y5493D01*
X15050Y5489D01*
X15019Y5484D01*
X15015D01*
X15004Y5482D01*
X14985Y5478D01*
X14965Y5475D01*
X14943Y5471D01*
X14921Y5465D01*
X14900Y5460D01*
X14882Y5452D01*
X14880D01*
X14874Y5449D01*
X14867Y5445D01*
X14860Y5440D01*
X14837Y5425D01*
X14819Y5403D01*
Y5401D01*
X14815Y5397D01*
X14813Y5390D01*
X14809Y5380D01*
X14806Y5369D01*
X14802Y5358D01*
X14800Y5343D01*
X14798Y5328D01*
Y5327D01*
Y5317D01*
X14800Y5306D01*
X14804Y5291D01*
X14809Y5275D01*
X14819Y5258D01*
X14830Y5240D01*
X14845Y5223D01*
X14846Y5221D01*
X14854Y5218D01*
X14865Y5210D01*
X14880Y5203D01*
X14900Y5195D01*
X14924Y5188D01*
X14952Y5184D01*
X14985Y5182D01*
X15000D01*
X15019Y5184D01*
X15039Y5188D01*
X15065Y5192D01*
X15091Y5199D01*
X15119Y5208D01*
X15146Y5221D01*
X15150Y5223D01*
X15157Y5229D01*
X15170Y5238D01*
X15185Y5251D01*
X15202Y5266D01*
X15220Y5284D01*
X15235Y5306D01*
X15250Y5330D01*
X15252Y5332D01*
X15254Y5340D01*
X15257Y5353D01*
X15263Y5369D01*
X15268Y5391D01*
X15272Y5417D01*
X15274Y5449D01*
X15276Y5486D01*
X15278Y5545D01*
D02*
G37*
G36*
X30181Y5898D02*
X30170D01*
X30161Y5897D01*
X30141Y5895D01*
X30113Y5887D01*
X30081Y5876D01*
X30048Y5861D01*
X30017Y5839D01*
X30000Y5824D01*
X29985Y5810D01*
Y5808D01*
X29981Y5806D01*
X29978Y5800D01*
X29972Y5793D01*
X29967Y5784D01*
X29961Y5773D01*
X29954Y5758D01*
X29946Y5743D01*
X29939Y5724D01*
X29932Y5706D01*
X29926Y5684D01*
X29920Y5660D01*
X29915Y5634D01*
X29911Y5606D01*
X29909Y5575D01*
X29907Y5543D01*
Y5541D01*
Y5536D01*
Y5526D01*
X29909Y5514D01*
Y5499D01*
X29911Y5482D01*
X29917Y5443D01*
X29926Y5399D01*
X29941Y5354D01*
X29959Y5312D01*
X29972Y5293D01*
X29985Y5275D01*
X29987D01*
X29989Y5271D01*
X30000Y5262D01*
X30017Y5247D01*
X30039Y5232D01*
X30066Y5216D01*
X30100Y5201D01*
X30139Y5192D01*
X30159Y5190D01*
X30181Y5188D01*
X30192D01*
X30202Y5190D01*
X30222Y5193D01*
X30250Y5199D01*
X30279Y5210D01*
X30312Y5225D01*
X30344Y5247D01*
X30361Y5262D01*
X30375Y5277D01*
X30377Y5279D01*
X30379Y5280D01*
X30383Y5286D01*
X30388Y5293D01*
X30394Y5303D01*
X30401Y5314D01*
X30409Y5328D01*
X30416Y5343D01*
X30424Y5362D01*
X30429Y5382D01*
X30437Y5404D01*
X30442Y5428D01*
X30448Y5456D01*
X30451Y5484D01*
X30455Y5515D01*
Y5549D01*
Y5551D01*
Y5556D01*
Y5565D01*
X30453Y5576D01*
Y5591D01*
X30451Y5608D01*
X30446Y5647D01*
X30437Y5687D01*
X30422Y5732D01*
X30401Y5773D01*
X30390Y5793D01*
X30375Y5810D01*
Y5811D01*
X30372Y5813D01*
X30361Y5824D01*
X30344Y5837D01*
X30322Y5854D01*
X30294Y5871D01*
X30261Y5885D01*
X30224Y5895D01*
X30203Y5897D01*
X30181Y5898D01*
D02*
G37*
G36*
X27301D02*
X27290D01*
X27282Y5897D01*
X27262Y5895D01*
X27238Y5889D01*
X27208Y5880D01*
X27177Y5867D01*
X27147Y5848D01*
X27118Y5824D01*
X27114Y5821D01*
X27106Y5811D01*
X27093Y5795D01*
X27081Y5773D01*
X27066Y5747D01*
X27053Y5713D01*
X27042Y5675D01*
X27036Y5632D01*
X27556D01*
Y5634D01*
Y5638D01*
X27554Y5643D01*
Y5650D01*
X27551Y5673D01*
X27545Y5697D01*
X27536Y5726D01*
X27526Y5754D01*
X27512Y5782D01*
X27495Y5806D01*
Y5808D01*
X27491Y5810D01*
X27482Y5821D01*
X27465Y5835D01*
X27443Y5852D01*
X27415Y5869D01*
X27382Y5883D01*
X27343Y5895D01*
X27323Y5897D01*
X27301Y5898D01*
D02*
G37*
G36*
X24614D02*
X24603D01*
X24596Y5897D01*
X24576Y5895D01*
X24552Y5889D01*
X24522Y5880D01*
X24491Y5867D01*
X24461Y5848D01*
X24431Y5824D01*
X24428Y5821D01*
X24420Y5811D01*
X24407Y5795D01*
X24394Y5773D01*
X24380Y5747D01*
X24367Y5713D01*
X24355Y5675D01*
X24350Y5632D01*
X24870D01*
Y5634D01*
Y5638D01*
X24868Y5643D01*
Y5650D01*
X24864Y5673D01*
X24859Y5697D01*
X24849Y5726D01*
X24840Y5754D01*
X24825Y5782D01*
X24809Y5806D01*
Y5808D01*
X24805Y5810D01*
X24796Y5821D01*
X24779Y5835D01*
X24757Y5852D01*
X24729Y5869D01*
X24696Y5883D01*
X24657Y5895D01*
X24637Y5897D01*
X24614Y5898D01*
D02*
G37*
G36*
X20237D02*
X20226D01*
X20219Y5897D01*
X20199Y5895D01*
X20175Y5889D01*
X20145Y5880D01*
X20113Y5867D01*
X20084Y5848D01*
X20054Y5824D01*
X20051Y5821D01*
X20043Y5811D01*
X20030Y5795D01*
X20017Y5773D01*
X20003Y5747D01*
X19989Y5713D01*
X19978Y5675D01*
X19973Y5632D01*
X20493D01*
Y5634D01*
Y5638D01*
X20491Y5643D01*
Y5650D01*
X20487Y5673D01*
X20482Y5697D01*
X20472Y5726D01*
X20463Y5754D01*
X20448Y5782D01*
X20432Y5806D01*
Y5808D01*
X20428Y5810D01*
X20419Y5821D01*
X20402Y5835D01*
X20380Y5852D01*
X20352Y5869D01*
X20319Y5883D01*
X20280Y5895D01*
X20260Y5897D01*
X20237Y5898D01*
D02*
G37*
G36*
X16955D02*
X16944D01*
X16937Y5897D01*
X16917Y5895D01*
X16893Y5889D01*
X16863Y5880D01*
X16832Y5867D01*
X16802Y5848D01*
X16772Y5824D01*
X16769Y5821D01*
X16761Y5811D01*
X16748Y5795D01*
X16735Y5773D01*
X16721Y5747D01*
X16708Y5713D01*
X16696Y5675D01*
X16691Y5632D01*
X17211D01*
Y5634D01*
Y5638D01*
X17209Y5643D01*
Y5650D01*
X17205Y5673D01*
X17200Y5697D01*
X17190Y5726D01*
X17181Y5754D01*
X17166Y5782D01*
X17150Y5806D01*
Y5808D01*
X17146Y5810D01*
X17137Y5821D01*
X17120Y5835D01*
X17098Y5852D01*
X17070Y5869D01*
X17037Y5883D01*
X16998Y5895D01*
X16978Y5897D01*
X16955Y5898D01*
D02*
G37*
G36*
X27285Y4340D02*
X27276D01*
X27268Y4338D01*
X27248Y4336D01*
X27224Y4329D01*
X27196Y4320D01*
X27167Y4303D01*
X27137Y4282D01*
X27122Y4268D01*
X27109Y4253D01*
Y4251D01*
X27106Y4249D01*
X27104Y4244D01*
X27098Y4236D01*
X27093Y4227D01*
X27087Y4216D01*
X27082Y4203D01*
X27074Y4188D01*
X27067Y4170D01*
X27061Y4149D01*
X27056Y4127D01*
X27050Y4103D01*
X27046Y4077D01*
X27043Y4048D01*
X27039Y4016D01*
Y3983D01*
Y3981D01*
Y3976D01*
Y3966D01*
X27041Y3953D01*
Y3938D01*
X27043Y3922D01*
X27048Y3883D01*
X27057Y3840D01*
X27070Y3796D01*
X27089Y3754D01*
X27100Y3735D01*
X27113Y3716D01*
X27115D01*
X27117Y3713D01*
X27126Y3703D01*
X27143Y3689D01*
X27163Y3674D01*
X27189Y3657D01*
X27220Y3642D01*
X27254Y3633D01*
X27272Y3631D01*
X27291Y3630D01*
X27300D01*
X27307Y3631D01*
X27328Y3633D01*
X27352Y3641D01*
X27379Y3650D01*
X27409Y3665D01*
X27439Y3685D01*
X27453Y3698D01*
X27466Y3713D01*
Y3715D01*
X27470Y3716D01*
X27474Y3722D01*
X27477Y3729D01*
X27483Y3739D01*
X27490Y3748D01*
X27496Y3763D01*
X27503Y3777D01*
X27511Y3794D01*
X27516Y3813D01*
X27524Y3835D01*
X27529Y3857D01*
X27533Y3883D01*
X27537Y3909D01*
X27540Y3938D01*
Y3970D01*
Y3972D01*
Y3979D01*
Y3988D01*
X27538Y4001D01*
Y4016D01*
X27537Y4035D01*
X27535Y4055D01*
X27531Y4077D01*
X27522Y4122D01*
X27509Y4168D01*
X27490Y4212D01*
X27479Y4231D01*
X27466Y4249D01*
Y4251D01*
X27463Y4253D01*
X27453Y4264D01*
X27437Y4279D01*
X27416Y4295D01*
X27391Y4312D01*
X27359Y4325D01*
X27324Y4336D01*
X27305Y4338D01*
X27285Y4340D01*
D02*
G37*
G36*
X26536Y3986D02*
X26534D01*
X26532Y3985D01*
X26526Y3983D01*
X26519Y3981D01*
X26510Y3977D01*
X26499Y3974D01*
X26486Y3970D01*
X26471Y3966D01*
X26454Y3961D01*
X26434Y3957D01*
X26414Y3951D01*
X26390Y3946D01*
X26364Y3940D01*
X26338Y3935D01*
X26308Y3931D01*
X26277Y3926D01*
X26273D01*
X26262Y3924D01*
X26243Y3920D01*
X26223Y3916D01*
X26201Y3913D01*
X26179Y3907D01*
X26158Y3901D01*
X26140Y3894D01*
X26138D01*
X26133Y3890D01*
X26125Y3887D01*
X26118Y3881D01*
X26096Y3866D01*
X26077Y3844D01*
Y3842D01*
X26073Y3839D01*
X26071Y3831D01*
X26068Y3822D01*
X26064Y3811D01*
X26060Y3800D01*
X26059Y3785D01*
X26057Y3770D01*
Y3768D01*
Y3759D01*
X26059Y3748D01*
X26062Y3733D01*
X26068Y3716D01*
X26077Y3700D01*
X26088Y3681D01*
X26103Y3665D01*
X26105Y3663D01*
X26112Y3659D01*
X26123Y3652D01*
X26138Y3644D01*
X26158Y3637D01*
X26182Y3630D01*
X26210Y3626D01*
X26243Y3624D01*
X26258D01*
X26277Y3626D01*
X26297Y3630D01*
X26323Y3633D01*
X26349Y3641D01*
X26377Y3650D01*
X26404Y3663D01*
X26408Y3665D01*
X26416Y3670D01*
X26428Y3679D01*
X26443Y3692D01*
X26460Y3707D01*
X26478Y3726D01*
X26493Y3748D01*
X26508Y3772D01*
X26510Y3774D01*
X26512Y3781D01*
X26515Y3794D01*
X26521Y3811D01*
X26526Y3833D01*
X26530Y3859D01*
X26532Y3890D01*
X26534Y3927D01*
X26536Y3986D01*
D02*
G37*
G36*
X23650D02*
X23648D01*
X23646Y3985D01*
X23641Y3983D01*
X23633Y3981D01*
X23624Y3977D01*
X23613Y3974D01*
X23600Y3970D01*
X23585Y3966D01*
X23568Y3961D01*
X23548Y3957D01*
X23528Y3951D01*
X23504Y3946D01*
X23478Y3940D01*
X23452Y3935D01*
X23422Y3931D01*
X23391Y3926D01*
X23387D01*
X23376Y3924D01*
X23358Y3920D01*
X23337Y3916D01*
X23315Y3913D01*
X23293Y3907D01*
X23272Y3901D01*
X23254Y3894D01*
X23252D01*
X23246Y3890D01*
X23239Y3887D01*
X23232Y3881D01*
X23210Y3866D01*
X23191Y3844D01*
Y3842D01*
X23187Y3839D01*
X23185Y3831D01*
X23182Y3822D01*
X23178Y3811D01*
X23174Y3800D01*
X23173Y3785D01*
X23171Y3770D01*
Y3768D01*
Y3759D01*
X23173Y3748D01*
X23176Y3733D01*
X23182Y3716D01*
X23191Y3700D01*
X23202Y3681D01*
X23217Y3665D01*
X23219Y3663D01*
X23226Y3659D01*
X23237Y3652D01*
X23252Y3644D01*
X23272Y3637D01*
X23296Y3630D01*
X23324Y3626D01*
X23358Y3624D01*
X23372D01*
X23391Y3626D01*
X23411Y3630D01*
X23437Y3633D01*
X23463Y3641D01*
X23491Y3650D01*
X23518Y3663D01*
X23522Y3665D01*
X23529Y3670D01*
X23542Y3679D01*
X23557Y3692D01*
X23574Y3707D01*
X23592Y3726D01*
X23607Y3748D01*
X23622Y3772D01*
X23624Y3774D01*
X23626Y3781D01*
X23629Y3794D01*
X23635Y3811D01*
X23641Y3833D01*
X23644Y3859D01*
X23646Y3890D01*
X23648Y3927D01*
X23650Y3986D01*
D02*
G37*
G36*
X20864D02*
X20862D01*
X20860Y3985D01*
X20854Y3983D01*
X20847Y3981D01*
X20838Y3977D01*
X20827Y3974D01*
X20814Y3970D01*
X20799Y3966D01*
X20782Y3961D01*
X20762Y3957D01*
X20742Y3951D01*
X20718Y3946D01*
X20692Y3940D01*
X20666Y3935D01*
X20636Y3931D01*
X20605Y3926D01*
X20601D01*
X20590Y3924D01*
X20571Y3920D01*
X20551Y3916D01*
X20529Y3913D01*
X20507Y3907D01*
X20486Y3901D01*
X20468Y3894D01*
X20466D01*
X20460Y3890D01*
X20453Y3887D01*
X20446Y3881D01*
X20423Y3866D01*
X20405Y3844D01*
Y3842D01*
X20401Y3839D01*
X20399Y3831D01*
X20396Y3822D01*
X20392Y3811D01*
X20388Y3800D01*
X20386Y3785D01*
X20384Y3770D01*
Y3768D01*
Y3759D01*
X20386Y3748D01*
X20390Y3733D01*
X20396Y3716D01*
X20405Y3700D01*
X20416Y3681D01*
X20431Y3665D01*
X20433Y3663D01*
X20440Y3659D01*
X20451Y3652D01*
X20466Y3644D01*
X20486Y3637D01*
X20510Y3630D01*
X20538Y3626D01*
X20571Y3624D01*
X20586D01*
X20605Y3626D01*
X20625Y3630D01*
X20651Y3633D01*
X20677Y3641D01*
X20705Y3650D01*
X20732Y3663D01*
X20736Y3665D01*
X20743Y3670D01*
X20756Y3679D01*
X20771Y3692D01*
X20788Y3707D01*
X20806Y3726D01*
X20821Y3748D01*
X20836Y3772D01*
X20838Y3774D01*
X20840Y3781D01*
X20843Y3794D01*
X20849Y3811D01*
X20854Y3833D01*
X20858Y3859D01*
X20860Y3890D01*
X20862Y3927D01*
X20864Y3986D01*
D02*
G37*
G36*
X15856Y4649D02*
X15489D01*
Y4192D01*
X15834D01*
X15846Y4194D01*
X15859D01*
X15874Y4196D01*
X15909Y4199D01*
X15948Y4207D01*
X15987Y4218D01*
X16022Y4233D01*
X16039Y4242D01*
X16052Y4253D01*
X16056Y4257D01*
X16063Y4264D01*
X16074Y4279D01*
X16087Y4297D01*
X16100Y4321D01*
X16111Y4351D01*
X16118Y4384D01*
X16122Y4423D01*
Y4425D01*
Y4427D01*
Y4436D01*
X16120Y4453D01*
X16117Y4471D01*
X16113Y4492D01*
X16105Y4516D01*
X16094Y4538D01*
X16081Y4560D01*
X16080Y4562D01*
X16074Y4569D01*
X16065Y4578D01*
X16054Y4592D01*
X16037Y4604D01*
X16018Y4616D01*
X15998Y4627D01*
X15974Y4636D01*
X15972D01*
X15965Y4638D01*
X15954Y4640D01*
X15939Y4643D01*
X15917Y4645D01*
X15889Y4647D01*
X15856Y4649D01*
D02*
G37*
G36*
X28314Y4340D02*
X28302D01*
X28295Y4338D01*
X28275Y4336D01*
X28251Y4331D01*
X28221Y4321D01*
X28190Y4308D01*
X28160Y4290D01*
X28130Y4266D01*
X28127Y4262D01*
X28119Y4253D01*
X28106Y4236D01*
X28093Y4214D01*
X28079Y4188D01*
X28066Y4155D01*
X28055Y4116D01*
X28049Y4073D01*
X28569D01*
Y4075D01*
Y4079D01*
X28567Y4085D01*
Y4092D01*
X28563Y4114D01*
X28558Y4138D01*
X28549Y4168D01*
X28539Y4196D01*
X28525Y4223D01*
X28508Y4247D01*
Y4249D01*
X28504Y4251D01*
X28495Y4262D01*
X28478Y4277D01*
X28456Y4294D01*
X28428Y4310D01*
X28395Y4325D01*
X28356Y4336D01*
X28336Y4338D01*
X28314Y4340D01*
D02*
G37*
G36*
X16873D02*
X16862D01*
X16855Y4338D01*
X16834Y4336D01*
X16810Y4331D01*
X16781Y4321D01*
X16749Y4308D01*
X16720Y4290D01*
X16690Y4266D01*
X16686Y4262D01*
X16679Y4253D01*
X16666Y4236D01*
X16653Y4214D01*
X16638Y4188D01*
X16625Y4155D01*
X16614Y4116D01*
X16609Y4073D01*
X17129D01*
Y4075D01*
Y4079D01*
X17127Y4085D01*
Y4092D01*
X17123Y4114D01*
X17117Y4138D01*
X17108Y4168D01*
X17099Y4196D01*
X17084Y4223D01*
X17067Y4247D01*
Y4249D01*
X17064Y4251D01*
X17054Y4262D01*
X17038Y4277D01*
X17016Y4294D01*
X16988Y4310D01*
X16955Y4325D01*
X16916Y4336D01*
X16895Y4338D01*
X16873Y4340D01*
D02*
G37*
G36*
X1572Y37736D02*
X1569D01*
X1567D01*
X1550Y37733D01*
X1525Y37730D01*
X1492Y37724D01*
X1459Y37710D01*
X1420Y37694D01*
X1384Y37669D01*
X1348Y37636D01*
X1345Y37630D01*
X1334Y37616D01*
X1320Y37594D01*
X1303Y37558D01*
X1287Y37517D01*
X1273Y37461D01*
X1262Y37398D01*
X1259Y37323D01*
Y36719D01*
X1893D01*
Y37290D01*
X1891Y37323D01*
X1888Y37361D01*
X1885Y37406D01*
X1880Y37450D01*
X1871Y37495D01*
X1860Y37533D01*
X1857Y37539D01*
X1852Y37550D01*
X1843Y37567D01*
X1832Y37589D01*
X1816Y37614D01*
X1796Y37639D01*
X1771Y37663D01*
X1744Y37683D01*
X1741Y37686D01*
X1730Y37691D01*
X1713Y37699D01*
X1691Y37710D01*
X1666Y37719D01*
X1639Y37727D01*
X1605Y37733D01*
X1572Y37736D01*
D02*
G37*
G36*
X15499Y70241D02*
X14895D01*
Y69607D01*
X15465D01*
X15499Y69609D01*
X15537Y69612D01*
X15582Y69615D01*
X15626Y69621D01*
X15670Y69629D01*
X15709Y69640D01*
X15715Y69643D01*
X15726Y69648D01*
X15742Y69656D01*
X15765Y69668D01*
X15789Y69684D01*
X15814Y69704D01*
X15839Y69728D01*
X15859Y69756D01*
X15861Y69759D01*
X15867Y69770D01*
X15875Y69787D01*
X15886Y69809D01*
X15895Y69834D01*
X15903Y69862D01*
X15909Y69895D01*
X15911Y69928D01*
Y69931D01*
Y69933D01*
X15909Y69950D01*
X15906Y69975D01*
X15900Y70008D01*
X15886Y70042D01*
X15870Y70080D01*
X15845Y70116D01*
X15812Y70152D01*
X15806Y70155D01*
X15792Y70166D01*
X15770Y70180D01*
X15734Y70197D01*
X15692Y70213D01*
X15637Y70227D01*
X15573Y70238D01*
X15499Y70241D01*
D02*
G37*
%LPD*%
D10*
X19776Y26197D02*
X18988D01*
X19776D01*
X7858Y65736D02*
X8646D01*
X7858Y70264D02*
X8646D01*
X5236Y43606D02*
Y44394D01*
X9764Y43606D02*
Y44394D01*
X2238Y18237D02*
Y26899D01*
X10732Y18216D02*
Y26878D01*
D11*
X27650Y62614D02*
X29000D01*
X27650Y53264D02*
Y62614D01*
X44185Y14386D02*
Y62614D01*
X27650Y14386D02*
X29000D01*
X27650D02*
Y23736D01*
M02*
