G04*
G04 #@! TF.GenerationSoftware,Altium Limited,Altium Designer,23.2.1 (34)*
G04*
G04 Layer_Color=8388736*
%FSLAX25Y25*%
%MOIN*%
G70*
G04*
G04 #@! TF.SameCoordinates,E1977E32-75BF-4710-9DAA-36D8A4D6ACA6*
G04*
G04*
G04 #@! TF.FilePolarity,Negative*
G04*
G01*
G75*
%ADD30C,0.00000*%
%ADD31R,0.04760X0.05951*%
%ADD32R,0.04737X0.05721*%
%ADD33R,0.04343X0.07887*%
%ADD34R,0.22257X0.25210*%
G04:AMPARAMS|DCode=35|XSize=20.47mil|YSize=51.97mil|CornerRadius=4.33mil|HoleSize=0mil|Usage=FLASHONLY|Rotation=270.000|XOffset=0mil|YOffset=0mil|HoleType=Round|Shape=RoundedRectangle|*
%AMROUNDEDRECTD35*
21,1,0.02047,0.04331,0,0,270.0*
21,1,0.01181,0.05197,0,0,270.0*
1,1,0.00866,-0.02165,-0.00591*
1,1,0.00866,-0.02165,0.00591*
1,1,0.00866,0.02165,0.00591*
1,1,0.00866,0.02165,-0.00591*
%
%ADD35ROUNDEDRECTD35*%
%ADD36R,0.05951X0.04760*%
%ADD37R,0.03300X0.05800*%
%ADD38R,0.08280X0.10249*%
%ADD39R,0.26391X0.22453*%
%ADD40R,0.09068X0.04540*%
%ADD41R,0.06902X0.06312*%
%ADD42R,0.05800X0.03300*%
%ADD43R,0.08381X0.02090*%
G04:AMPARAMS|DCode=44|XSize=83.81mil|YSize=20.9mil|CornerRadius=10.45mil|HoleSize=0mil|Usage=FLASHONLY|Rotation=0.000|XOffset=0mil|YOffset=0mil|HoleType=Round|Shape=RoundedRectangle|*
%AMROUNDEDRECTD44*
21,1,0.08381,0.00000,0,0,0.0*
21,1,0.06291,0.02090,0,0,0.0*
1,1,0.02090,0.03146,0.00000*
1,1,0.02090,-0.03146,0.00000*
1,1,0.02090,-0.03146,0.00000*
1,1,0.02090,0.03146,0.00000*
%
%ADD44ROUNDEDRECTD44*%
%ADD45R,0.05721X0.04737*%
%ADD46C,0.07178*%
%ADD47C,0.06194*%
%ADD48R,0.06194X0.06194*%
%ADD49R,0.06194X0.06194*%
%ADD50C,0.10642*%
%ADD51C,0.05800*%
D30*
X11789Y18905D02*
X11639Y19904D01*
X11200Y20814D01*
X10513Y21555D01*
X9638Y22060D01*
X8653Y22285D01*
X7645Y22210D01*
X6704Y21840D01*
X5914Y21211D01*
X5345Y20376D01*
X5047Y19410D01*
Y18399D01*
X5345Y17434D01*
X5914Y16599D01*
X6704Y15969D01*
X7645Y15600D01*
X8653Y15524D01*
X9638Y15749D01*
X10513Y16254D01*
X11200Y16995D01*
X11639Y17906D01*
X11789Y18905D01*
Y28905D02*
X11639Y29904D01*
X11200Y30814D01*
X10513Y31555D01*
X9638Y32060D01*
X8653Y32285D01*
X7645Y32210D01*
X6704Y31841D01*
X5914Y31211D01*
X5345Y30376D01*
X5047Y29410D01*
Y28399D01*
X5345Y27434D01*
X5914Y26599D01*
X6704Y25969D01*
X7645Y25600D01*
X8653Y25524D01*
X9638Y25749D01*
X10513Y26254D01*
X11200Y26995D01*
X11639Y27905D01*
X11789Y28905D01*
Y38905D02*
X11639Y39904D01*
X11200Y40814D01*
X10513Y41555D01*
X9638Y42060D01*
X8653Y42285D01*
X7645Y42210D01*
X6704Y41840D01*
X5914Y41210D01*
X5345Y40376D01*
X5047Y39410D01*
Y38399D01*
X5345Y37434D01*
X5914Y36599D01*
X6704Y35969D01*
X7645Y35600D01*
X8653Y35524D01*
X9638Y35749D01*
X10513Y36254D01*
X11200Y36995D01*
X11639Y37905D01*
X11789Y38905D01*
Y48905D02*
X11639Y49904D01*
X11200Y50814D01*
X10513Y51555D01*
X9638Y52060D01*
X8653Y52285D01*
X7645Y52210D01*
X6704Y51841D01*
X5914Y51210D01*
X5345Y50376D01*
X5047Y49410D01*
Y48399D01*
X5345Y47434D01*
X5914Y46599D01*
X6704Y45969D01*
X7645Y45600D01*
X8653Y45524D01*
X9638Y45749D01*
X10513Y46254D01*
X11200Y46995D01*
X11639Y47905D01*
X11789Y48905D01*
Y58905D02*
X11639Y59904D01*
X11200Y60814D01*
X10513Y61555D01*
X9638Y62060D01*
X8653Y62285D01*
X7645Y62210D01*
X6704Y61840D01*
X5914Y61211D01*
X5345Y60376D01*
X5047Y59410D01*
Y58399D01*
X5345Y57434D01*
X5914Y56599D01*
X6704Y55969D01*
X7645Y55600D01*
X8653Y55524D01*
X9638Y55749D01*
X10513Y56254D01*
X11200Y56995D01*
X11639Y57906D01*
X11789Y58905D01*
Y68905D02*
X11639Y69904D01*
X11200Y70814D01*
X10513Y71555D01*
X9638Y72060D01*
X8653Y72285D01*
X7645Y72210D01*
X6704Y71841D01*
X5914Y71210D01*
X5345Y70376D01*
X5047Y69410D01*
Y68400D01*
X5345Y67434D01*
X5914Y66599D01*
X6704Y65969D01*
X7645Y65600D01*
X8653Y65524D01*
X9638Y65749D01*
X10513Y66254D01*
X11200Y66995D01*
X11639Y67905D01*
X11789Y68905D01*
X145122Y17913D02*
X144972Y18913D01*
X144533Y19823D01*
X143846Y20564D01*
X142971Y21069D01*
X141986Y21294D01*
X140978Y21218D01*
X140037Y20849D01*
X139247Y20219D01*
X138678Y19384D01*
X138380Y18419D01*
Y17408D01*
X138678Y16443D01*
X139247Y15608D01*
X140037Y14978D01*
X140978Y14608D01*
X141986Y14533D01*
X142971Y14758D01*
X143846Y15263D01*
X144533Y16004D01*
X144972Y16914D01*
X145122Y17913D01*
Y27913D02*
X144972Y28913D01*
X144533Y29823D01*
X143846Y30564D01*
X142971Y31069D01*
X141986Y31294D01*
X140978Y31218D01*
X140037Y30849D01*
X139247Y30219D01*
X138678Y29384D01*
X138380Y28419D01*
Y27408D01*
X138678Y26443D01*
X139247Y25608D01*
X140037Y24978D01*
X140978Y24608D01*
X141986Y24533D01*
X142971Y24758D01*
X143846Y25263D01*
X144533Y26004D01*
X144972Y26914D01*
X145122Y27913D01*
Y37913D02*
X144972Y38913D01*
X144533Y39823D01*
X143846Y40564D01*
X142971Y41069D01*
X141986Y41294D01*
X140978Y41218D01*
X140037Y40849D01*
X139247Y40219D01*
X138678Y39384D01*
X138380Y38419D01*
Y37408D01*
X138678Y36443D01*
X139247Y35608D01*
X140037Y34978D01*
X140978Y34608D01*
X141986Y34533D01*
X142971Y34758D01*
X143846Y35263D01*
X144533Y36004D01*
X144972Y36914D01*
X145122Y37913D01*
Y47913D02*
X144972Y48913D01*
X144533Y49823D01*
X143846Y50564D01*
X142971Y51069D01*
X141986Y51294D01*
X140978Y51218D01*
X140037Y50849D01*
X139247Y50219D01*
X138678Y49384D01*
X138380Y48419D01*
Y47408D01*
X138678Y46442D01*
X139247Y45608D01*
X140037Y44978D01*
X140978Y44608D01*
X141986Y44533D01*
X142971Y44758D01*
X143846Y45263D01*
X144533Y46004D01*
X144972Y46914D01*
X145122Y47913D01*
Y57913D02*
X144972Y58913D01*
X144533Y59823D01*
X143846Y60564D01*
X142971Y61069D01*
X141986Y61294D01*
X140978Y61218D01*
X140037Y60849D01*
X139247Y60219D01*
X138678Y59384D01*
X138380Y58419D01*
Y57408D01*
X138678Y56443D01*
X139247Y55608D01*
X140037Y54978D01*
X140978Y54608D01*
X141986Y54533D01*
X142971Y54758D01*
X143846Y55263D01*
X144533Y56004D01*
X144972Y56914D01*
X145122Y57913D01*
Y67913D02*
X144972Y68913D01*
X144533Y69823D01*
X143846Y70564D01*
X142971Y71069D01*
X141986Y71294D01*
X140978Y71218D01*
X140037Y70849D01*
X139247Y70219D01*
X138678Y69384D01*
X138380Y68419D01*
Y67408D01*
X138678Y66443D01*
X139247Y65608D01*
X140037Y64978D01*
X140978Y64608D01*
X141986Y64533D01*
X142971Y64758D01*
X143846Y65263D01*
X144533Y66004D01*
X144972Y66914D01*
X145122Y67913D01*
Y77913D02*
X144972Y78913D01*
X144533Y79823D01*
X143846Y80564D01*
X142971Y81069D01*
X141986Y81294D01*
X140978Y81218D01*
X140037Y80849D01*
X139247Y80219D01*
X138678Y79384D01*
X138380Y78419D01*
Y77408D01*
X138678Y76442D01*
X139247Y75608D01*
X140037Y74977D01*
X140978Y74608D01*
X141986Y74533D01*
X142971Y74758D01*
X143846Y75263D01*
X144533Y76004D01*
X144972Y76914D01*
X145122Y77913D01*
Y87913D02*
X144972Y88913D01*
X144533Y89823D01*
X143846Y90564D01*
X142971Y91069D01*
X141986Y91294D01*
X140978Y91218D01*
X140037Y90849D01*
X139247Y90219D01*
X138678Y89384D01*
X138380Y88419D01*
Y87408D01*
X138678Y86443D01*
X139247Y85608D01*
X140037Y84978D01*
X140978Y84608D01*
X141986Y84533D01*
X142971Y84758D01*
X143846Y85263D01*
X144533Y86004D01*
X144972Y86914D01*
X145122Y87913D01*
Y97913D02*
X144972Y98913D01*
X144533Y99823D01*
X143846Y100564D01*
X142971Y101069D01*
X141986Y101294D01*
X140978Y101218D01*
X140037Y100849D01*
X139247Y100219D01*
X138678Y99384D01*
X138380Y98419D01*
Y97408D01*
X138678Y96443D01*
X139247Y95608D01*
X140037Y94978D01*
X140978Y94608D01*
X141986Y94533D01*
X142971Y94758D01*
X143846Y95263D01*
X144533Y96004D01*
X144972Y96914D01*
X145122Y97913D01*
Y107913D02*
X144972Y108913D01*
X144533Y109823D01*
X143846Y110564D01*
X142971Y111069D01*
X141986Y111294D01*
X140978Y111218D01*
X140037Y110849D01*
X139247Y110219D01*
X138678Y109384D01*
X138380Y108419D01*
Y107408D01*
X138678Y106443D01*
X139247Y105608D01*
X140037Y104978D01*
X140978Y104608D01*
X141986Y104533D01*
X142971Y104758D01*
X143846Y105263D01*
X144533Y106004D01*
X144972Y106914D01*
X145122Y107913D01*
Y117913D02*
X144972Y118913D01*
X144533Y119823D01*
X143846Y120564D01*
X142971Y121069D01*
X141986Y121294D01*
X140978Y121218D01*
X140037Y120849D01*
X139247Y120219D01*
X138678Y119384D01*
X138380Y118419D01*
Y117408D01*
X138678Y116443D01*
X139247Y115608D01*
X140037Y114978D01*
X140978Y114608D01*
X141986Y114533D01*
X142971Y114758D01*
X143846Y115263D01*
X144533Y116004D01*
X144972Y116914D01*
X145122Y117913D01*
Y127913D02*
X144972Y128913D01*
X144533Y129823D01*
X143846Y130564D01*
X142971Y131069D01*
X141986Y131294D01*
X140978Y131218D01*
X140037Y130849D01*
X139247Y130219D01*
X138678Y129384D01*
X138380Y128419D01*
Y127408D01*
X138678Y126443D01*
X139247Y125608D01*
X140037Y124978D01*
X140978Y124608D01*
X141986Y124533D01*
X142971Y124758D01*
X143846Y125263D01*
X144533Y126004D01*
X144972Y126914D01*
X145122Y127913D01*
Y137913D02*
X144972Y138913D01*
X144533Y139823D01*
X143846Y140564D01*
X142971Y141069D01*
X141986Y141294D01*
X140978Y141218D01*
X140037Y140849D01*
X139247Y140219D01*
X138678Y139384D01*
X138380Y138419D01*
Y137408D01*
X138678Y136443D01*
X139247Y135608D01*
X140037Y134978D01*
X140978Y134608D01*
X141986Y134533D01*
X142971Y134758D01*
X143846Y135263D01*
X144533Y136004D01*
X144972Y136914D01*
X145122Y137913D01*
X124847Y140748D02*
X124696Y141747D01*
X124258Y142658D01*
X123570Y143398D01*
X122695Y143904D01*
X121710Y144129D01*
X120702Y144053D01*
X119762Y143684D01*
X118972Y143054D01*
X118402Y142219D01*
X118105Y141253D01*
Y140243D01*
X118402Y139277D01*
X118972Y138442D01*
X119762Y137812D01*
X120702Y137443D01*
X121710Y137367D01*
X122695Y137592D01*
X123570Y138098D01*
X124258Y138838D01*
X124696Y139749D01*
X124847Y140748D01*
X114847Y140748D02*
X114696Y141747D01*
X114258Y142658D01*
X113570Y143398D01*
X112695Y143904D01*
X111710Y144129D01*
X110702Y144053D01*
X109762Y143684D01*
X108972Y143054D01*
X108402Y142219D01*
X108105Y141253D01*
Y140243D01*
X108402Y139277D01*
X108972Y138442D01*
X109762Y137812D01*
X110702Y137443D01*
X111710Y137367D01*
X112695Y137592D01*
X113570Y138098D01*
X114258Y138838D01*
X114696Y139749D01*
X114847Y140748D01*
X104847Y140748D02*
X104696Y141747D01*
X104258Y142658D01*
X103570Y143398D01*
X102695Y143904D01*
X101710Y144129D01*
X100702Y144053D01*
X99762Y143684D01*
X98972Y143054D01*
X98402Y142219D01*
X98105Y141253D01*
Y140243D01*
X98402Y139277D01*
X98972Y138442D01*
X99762Y137812D01*
X100702Y137443D01*
X101710Y137367D01*
X102695Y137592D01*
X103570Y138098D01*
X104258Y138838D01*
X104696Y139749D01*
X104847Y140748D01*
X94847D02*
X94696Y141747D01*
X94258Y142658D01*
X93570Y143398D01*
X92695Y143904D01*
X91710Y144129D01*
X90702Y144053D01*
X89762Y143684D01*
X88972Y143054D01*
X88402Y142219D01*
X88105Y141253D01*
Y140243D01*
X88402Y139277D01*
X88972Y138442D01*
X89762Y137812D01*
X90702Y137443D01*
X91710Y137367D01*
X92695Y137592D01*
X93570Y138098D01*
X94258Y138838D01*
X94696Y139749D01*
X94847Y140748D01*
X84847Y140748D02*
X84696Y141747D01*
X84258Y142658D01*
X83570Y143398D01*
X82695Y143904D01*
X81710Y144129D01*
X80702Y144053D01*
X79762Y143684D01*
X78972Y143054D01*
X78402Y142219D01*
X78105Y141253D01*
Y140243D01*
X78402Y139277D01*
X78972Y138442D01*
X79762Y137812D01*
X80702Y137443D01*
X81710Y137367D01*
X82695Y137592D01*
X83570Y138098D01*
X84258Y138838D01*
X84696Y139749D01*
X84847Y140748D01*
X74847Y140748D02*
X74696Y141747D01*
X74258Y142658D01*
X73570Y143398D01*
X72695Y143904D01*
X71710Y144129D01*
X70702Y144053D01*
X69762Y143684D01*
X68972Y143054D01*
X68402Y142219D01*
X68105Y141253D01*
Y140243D01*
X68402Y139277D01*
X68972Y138442D01*
X69762Y137812D01*
X70702Y137443D01*
X71710Y137367D01*
X72695Y137592D01*
X73570Y138098D01*
X74258Y138838D01*
X74696Y139749D01*
X74847Y140748D01*
D31*
X118204Y83661D02*
D03*
X123922D02*
D03*
X111314Y13780D02*
D03*
X117032D02*
D03*
X69976Y122047D02*
D03*
X75694D02*
D03*
D32*
X125000Y45276D02*
D03*
X119095D02*
D03*
D33*
X117244Y129724D02*
D03*
X99291D02*
D03*
D34*
X108268Y105315D02*
D03*
D35*
X80315Y44980D02*
D03*
X80315Y42421D02*
D03*
X80315Y39862D02*
D03*
X80315Y37303D02*
D03*
X80315Y34744D02*
D03*
X80315Y32185D02*
D03*
X80315Y29626D02*
D03*
Y27067D02*
D03*
X80315Y24508D02*
D03*
X80315Y21949D02*
D03*
X102756Y44980D02*
D03*
X102756Y42421D02*
D03*
X102756Y39862D02*
D03*
X102756Y37303D02*
D03*
Y34744D02*
D03*
Y32185D02*
D03*
Y29626D02*
D03*
Y27067D02*
D03*
Y24508D02*
D03*
X102756Y21949D02*
D03*
D36*
X64961Y16826D02*
D03*
Y22544D02*
D03*
X28543Y42056D02*
D03*
Y36338D02*
D03*
X44291Y42056D02*
D03*
Y36338D02*
D03*
D37*
X93135Y12795D02*
D03*
X89935D02*
D03*
X58439Y48228D02*
D03*
X61639D02*
D03*
D38*
X44488Y57898D02*
D03*
X28346D02*
D03*
D39*
X30315Y132874D02*
D03*
D40*
X55118Y141851D02*
D03*
X55118Y123898D02*
D03*
D41*
X37402Y96260D02*
D03*
Y88779D02*
D03*
D42*
X37402Y74999D02*
D03*
Y78199D02*
D03*
D43*
X60334Y94217D02*
D03*
D44*
Y91658D02*
D03*
Y89099D02*
D03*
Y86540D02*
D03*
Y83980D02*
D03*
Y81421D02*
D03*
Y78862D02*
D03*
Y76303D02*
D03*
Y73744D02*
D03*
Y71185D02*
D03*
Y68626D02*
D03*
Y66067D02*
D03*
Y63508D02*
D03*
Y60949D02*
D03*
X87304D02*
D03*
Y63508D02*
D03*
Y66067D02*
D03*
Y68626D02*
D03*
Y71185D02*
D03*
Y73744D02*
D03*
Y76303D02*
D03*
Y78862D02*
D03*
Y81421D02*
D03*
Y83980D02*
D03*
Y86540D02*
D03*
Y89099D02*
D03*
Y91658D02*
D03*
Y94217D02*
D03*
D45*
X105315Y74803D02*
D03*
Y68898D02*
D03*
D46*
X8399Y18905D02*
D03*
Y28905D02*
D03*
Y38905D02*
D03*
Y48905D02*
D03*
Y58905D02*
D03*
Y68905D02*
D03*
X141732Y17913D02*
D03*
Y27913D02*
D03*
Y37913D02*
D03*
Y47913D02*
D03*
Y57913D02*
D03*
Y67913D02*
D03*
Y77913D02*
D03*
Y87913D02*
D03*
Y97913D02*
D03*
Y107913D02*
D03*
Y117913D02*
D03*
Y127913D02*
D03*
Y137913D02*
D03*
X121457Y140748D02*
D03*
X111457D02*
D03*
X101457Y140748D02*
D03*
X91457Y140748D02*
D03*
X81457D02*
D03*
X71457D02*
D03*
D47*
X46260Y19685D02*
D03*
Y9685D02*
D03*
X36260Y19685D02*
D03*
Y9685D02*
D03*
X26260Y19685D02*
D03*
X22638Y79236D02*
D03*
Y89236D02*
D03*
Y99236D02*
D03*
D48*
X26260Y9685D02*
D03*
D49*
X22638Y109236D02*
D03*
D50*
X13780Y9843D02*
D03*
X8858Y118110D02*
D03*
X132874Y8858D02*
D03*
D51*
X50509Y49155D02*
D03*
X18701Y68405D02*
D03*
X89567Y43307D02*
D03*
X84646Y50197D02*
D03*
X88033Y20322D02*
D03*
X120079Y4921D02*
D03*
X72835Y35433D02*
D03*
X82677Y14764D02*
D03*
X74803Y77756D02*
D03*
X27559Y28543D02*
D03*
X74803Y16732D02*
D03*
X56102Y8858D02*
D03*
X105413Y126870D02*
D03*
X48228Y27559D02*
D03*
X55118Y21654D02*
D03*
X66929Y30867D02*
D03*
X119095Y36417D02*
D03*
X106052Y13780D02*
D03*
X124016Y61024D02*
D03*
M02*
