G04*
G04 #@! TF.GenerationSoftware,Altium Limited,Altium Designer,23.2.1 (34)*
G04*
G04 Layer_Color=65535*
%FSLAX25Y25*%
%MOIN*%
G70*
G04*
G04 #@! TF.SameCoordinates,E1977E32-75BF-4710-9DAA-36D8A4D6ACA6*
G04*
G04*
G04 #@! TF.FilePolarity,Positive*
G04*
G01*
G75*
%ADD12C,0.00787*%
D12*
X115830Y86811D02*
X126296D01*
Y80512D02*
Y86811D01*
X115830Y80512D02*
X126296D01*
X115830D02*
Y86811D01*
X108940Y16929D02*
X119406Y16929D01*
X119406Y10630D01*
X108940Y10630D02*
X119406Y10630D01*
X108940Y10630D02*
Y16929D01*
X61811Y24918D02*
X68110D01*
X61811Y14452D02*
X61811Y24918D01*
X61811Y14452D02*
X68110Y14452D01*
X68110Y24918D01*
X24213Y50811D02*
Y64985D01*
Y50811D02*
X48622D01*
Y64985D01*
X24213D02*
X48622D01*
X31693Y33964D02*
Y44430D01*
X25394Y33964D02*
X31693D01*
X25394D02*
Y44430D01*
X31693D01*
X47441Y33964D02*
Y44430D01*
X41142Y33964D02*
X47441D01*
X41142D02*
Y44430D01*
X47441D01*
X55309Y98646D02*
X92329D01*
Y56520D02*
Y98646D01*
X55309Y56520D02*
X92329D01*
X55309D02*
Y98646D01*
X67602Y125197D02*
X78067D01*
Y118898D02*
Y125197D01*
X67602Y118898D02*
X78067Y118898D01*
X67602Y118898D02*
Y125197D01*
M02*
