M48
;Layer_Color=9474304
;FILE_FORMAT=2:4
INCH,TZ
;TYPE=PLATED
T1F00S00C0.0280
T2F00S00C0.0402
T3F00S00C0.0827
%
T01
X2756Y2854
X4823Y2756
X5512Y2165
X5610Y886
X7480Y1673
X8268Y1476
X8803Y2032
X8957Y4331
X8465Y5020
X7283Y3543
X6693Y3087
X5051Y4915
X10605Y1378
X12008Y492
X11909Y3642
X12402Y6102
X7480Y7776
X1870Y6841
X10541Y12687
T02
X840Y1890
Y2890
Y3890
Y4890
X2626Y1969
Y969
X3626
X4626
Y1969
X3626
X14173Y1791
Y2791
Y3791
Y4791
Y5791
Y6791
Y7791
Y8791
Y9791
Y10791
Y11791
Y12791
Y13791
X12146Y14075
X11146
X10146Y14075
X9146Y14075
X8146
X7146
X2264Y10924
Y9924
Y8924
Y7924
X840Y6890
Y5890
T03
X1378Y984
X13287Y886
X886Y11811
M30
