G04*
G04 #@! TF.GenerationSoftware,Altium Limited,Altium Designer,23.2.1 (34)*
G04*
G04 Layer_Color=32896*
%FSLAX25Y25*%
%MOIN*%
G70*
G04*
G04 #@! TF.SameCoordinates,7C5D3EEA-5F35-4E34-AFA4-0489F6894B71*
G04*
G04*
G04 #@! TF.FilePolarity,Positive*
G04*
G01*
G75*
%ADD68C,0.00394*%
%ADD70C,0.00394*%
G36*
X141501Y147532D02*
X141450Y147422D01*
X141399Y147316D01*
X141348Y147214D01*
X141323Y147171D01*
X141302Y147129D01*
X141280Y147091D01*
X141263Y147061D01*
X141251Y147036D01*
X141238Y147019D01*
X141234Y147006D01*
X141229Y147002D01*
X141149Y146875D01*
X141073Y146760D01*
X141005Y146663D01*
X140941Y146578D01*
X140911Y146544D01*
X140886Y146514D01*
X140865Y146489D01*
X140844Y146463D01*
X140831Y146446D01*
X140818Y146434D01*
X140814Y146429D01*
X140810Y146425D01*
X144685D01*
Y145815D01*
X139707D01*
Y146209D01*
X139767Y146243D01*
X139830Y146277D01*
X139949Y146362D01*
X140059Y146451D01*
X140161Y146540D01*
X140208Y146582D01*
X140246Y146620D01*
X140284Y146658D01*
X140314Y146688D01*
X140339Y146713D01*
X140356Y146735D01*
X140369Y146747D01*
X140373Y146752D01*
X140496Y146900D01*
X140606Y147048D01*
X140704Y147197D01*
X140750Y147269D01*
X140788Y147337D01*
X140827Y147400D01*
X140861Y147456D01*
X140886Y147506D01*
X140911Y147553D01*
X140928Y147587D01*
X140941Y147617D01*
X140950Y147634D01*
X140954Y147638D01*
X141543D01*
X141501Y147532D01*
D02*
G37*
G36*
X130674Y20563D02*
X130623Y20453D01*
X130572Y20347D01*
X130521Y20245D01*
X130496Y20203D01*
X130475Y20161D01*
X130454Y20122D01*
X130437Y20093D01*
X130424Y20067D01*
X130411Y20050D01*
X130407Y20038D01*
X130403Y20033D01*
X130322Y19906D01*
X130246Y19792D01*
X130178Y19694D01*
X130114Y19609D01*
X130085Y19575D01*
X130059Y19546D01*
X130038Y19520D01*
X130017Y19495D01*
X130004Y19478D01*
X129991Y19465D01*
X129987Y19461D01*
X129983Y19457D01*
X133858D01*
Y18846D01*
X128881D01*
Y19240D01*
X128940Y19274D01*
X129004Y19308D01*
X129122Y19393D01*
X129232Y19482D01*
X129334Y19571D01*
X129381Y19613D01*
X129419Y19652D01*
X129457Y19690D01*
X129487Y19719D01*
X129512Y19745D01*
X129529Y19766D01*
X129542Y19779D01*
X129546Y19783D01*
X129669Y19931D01*
X129779Y20080D01*
X129877Y20228D01*
X129924Y20300D01*
X129962Y20368D01*
X130000Y20432D01*
X130034Y20487D01*
X130059Y20538D01*
X130085Y20584D01*
X130102Y20618D01*
X130114Y20648D01*
X130123Y20665D01*
X130127Y20669D01*
X130716D01*
X130674Y20563D01*
D02*
G37*
G36*
X132663Y17265D02*
X132769Y17243D01*
X132870Y17214D01*
X132968Y17180D01*
X133057Y17142D01*
X133138Y17099D01*
X133214Y17057D01*
X133286Y17014D01*
X133345Y16972D01*
X133400Y16934D01*
X133447Y16896D01*
X133485Y16862D01*
X133519Y16832D01*
X133540Y16811D01*
X133553Y16798D01*
X133557Y16794D01*
X133625Y16709D01*
X133684Y16624D01*
X133735Y16531D01*
X133782Y16442D01*
X133816Y16349D01*
X133850Y16260D01*
X133875Y16171D01*
X133896Y16090D01*
X133909Y16010D01*
X133922Y15937D01*
X133930Y15874D01*
X133939Y15819D01*
Y15772D01*
X133943Y15738D01*
Y15709D01*
X133939Y15577D01*
X133922Y15450D01*
X133901Y15331D01*
X133871Y15217D01*
X133837Y15111D01*
X133799Y15013D01*
X133761Y14924D01*
X133718Y14839D01*
X133676Y14767D01*
X133638Y14699D01*
X133600Y14644D01*
X133566Y14598D01*
X133536Y14559D01*
X133515Y14534D01*
X133498Y14517D01*
X133494Y14513D01*
X133409Y14428D01*
X133316Y14356D01*
X133227Y14292D01*
X133133Y14237D01*
X133040Y14191D01*
X132947Y14152D01*
X132862Y14123D01*
X132777Y14097D01*
X132696Y14076D01*
X132624Y14063D01*
X132561Y14051D01*
X132506Y14046D01*
X132459Y14042D01*
X132425Y14038D01*
X132404D01*
X132396D01*
X132306Y14042D01*
X132222Y14046D01*
X132141Y14059D01*
X132065Y14076D01*
X131997Y14093D01*
X131929Y14114D01*
X131870Y14140D01*
X131815Y14161D01*
X131764Y14182D01*
X131721Y14208D01*
X131683Y14229D01*
X131649Y14246D01*
X131628Y14263D01*
X131607Y14271D01*
X131598Y14280D01*
X131594Y14284D01*
X131535Y14331D01*
X131484Y14381D01*
X131437Y14436D01*
X131395Y14492D01*
X131357Y14551D01*
X131323Y14606D01*
X131263Y14716D01*
X131242Y14767D01*
X131225Y14814D01*
X131208Y14856D01*
X131196Y14894D01*
X131187Y14924D01*
X131179Y14945D01*
X131174Y14962D01*
Y14966D01*
X131111Y14848D01*
X131043Y14742D01*
X130971Y14657D01*
X130907Y14581D01*
X130848Y14525D01*
X130797Y14487D01*
X130780Y14470D01*
X130767Y14462D01*
X130759Y14454D01*
X130755D01*
X130653Y14394D01*
X130551Y14352D01*
X130454Y14322D01*
X130365Y14301D01*
X130284Y14288D01*
X130250Y14284D01*
X130225D01*
X130199Y14280D01*
X130182D01*
X130174D01*
X130169D01*
X130106D01*
X130046Y14288D01*
X129928Y14309D01*
X129818Y14339D01*
X129724Y14369D01*
X129682Y14386D01*
X129644Y14403D01*
X129614Y14420D01*
X129584Y14432D01*
X129563Y14445D01*
X129546Y14454D01*
X129538Y14458D01*
X129534Y14462D01*
X129428Y14538D01*
X129334Y14619D01*
X129249Y14708D01*
X129182Y14793D01*
X129131Y14869D01*
X129110Y14903D01*
X129088Y14933D01*
X129076Y14954D01*
X129067Y14971D01*
X129059Y14983D01*
Y14988D01*
X128999Y15115D01*
X128957Y15246D01*
X128923Y15373D01*
X128902Y15488D01*
X128893Y15539D01*
X128889Y15586D01*
X128885Y15628D01*
Y15666D01*
X128881Y15696D01*
Y15734D01*
X128885Y15840D01*
X128893Y15946D01*
X128910Y16044D01*
X128931Y16137D01*
X128961Y16221D01*
X128987Y16302D01*
X129020Y16378D01*
X129050Y16446D01*
X129080Y16510D01*
X129114Y16561D01*
X129139Y16607D01*
X129165Y16646D01*
X129190Y16675D01*
X129207Y16701D01*
X129216Y16713D01*
X129220Y16718D01*
X129283Y16790D01*
X129355Y16853D01*
X129432Y16908D01*
X129508Y16963D01*
X129589Y17010D01*
X129665Y17048D01*
X129741Y17086D01*
X129818Y17116D01*
X129890Y17146D01*
X129953Y17167D01*
X130013Y17184D01*
X130063Y17197D01*
X130106Y17210D01*
X130140Y17218D01*
X130157Y17222D01*
X130165D01*
X130275Y16612D01*
X130195Y16599D01*
X130119Y16582D01*
X130046Y16561D01*
X129983Y16540D01*
X129924Y16514D01*
X129868Y16489D01*
X129818Y16463D01*
X129775Y16438D01*
X129733Y16412D01*
X129699Y16387D01*
X129669Y16366D01*
X129648Y16349D01*
X129631Y16332D01*
X129614Y16319D01*
X129610Y16315D01*
X129605Y16311D01*
X129567Y16264D01*
X129529Y16217D01*
X129499Y16166D01*
X129474Y16120D01*
X129436Y16018D01*
X129411Y15925D01*
X129394Y15844D01*
X129389Y15810D01*
X129385Y15781D01*
X129381Y15755D01*
Y15721D01*
X129385Y15653D01*
X129389Y15594D01*
X129415Y15480D01*
X129449Y15378D01*
X129491Y15293D01*
X129512Y15259D01*
X129534Y15225D01*
X129550Y15200D01*
X129567Y15179D01*
X129580Y15157D01*
X129593Y15145D01*
X129597Y15140D01*
X129601Y15136D01*
X129644Y15094D01*
X129690Y15060D01*
X129733Y15030D01*
X129779Y15005D01*
X129873Y14962D01*
X129962Y14937D01*
X130038Y14920D01*
X130072Y14916D01*
X130102Y14911D01*
X130123Y14907D01*
X130140D01*
X130152D01*
X130157D01*
X130233Y14911D01*
X130305Y14920D01*
X130369Y14937D01*
X130432Y14958D01*
X130488Y14979D01*
X130538Y15005D01*
X130585Y15034D01*
X130627Y15064D01*
X130661Y15094D01*
X130695Y15123D01*
X130721Y15149D01*
X130742Y15170D01*
X130759Y15191D01*
X130772Y15208D01*
X130776Y15217D01*
X130780Y15221D01*
X130814Y15280D01*
X130848Y15340D01*
X130899Y15458D01*
X130933Y15577D01*
X130958Y15683D01*
X130967Y15734D01*
X130971Y15776D01*
X130979Y15819D01*
Y15853D01*
X130983Y15878D01*
Y15946D01*
X130979Y15980D01*
X130975Y16005D01*
Y16014D01*
X131509Y16082D01*
X131488Y15988D01*
X131471Y15908D01*
X131463Y15836D01*
X131454Y15772D01*
X131450Y15721D01*
X131446Y15683D01*
Y15653D01*
X131450Y15577D01*
X131458Y15501D01*
X131471Y15433D01*
X131488Y15365D01*
X131509Y15306D01*
X131530Y15246D01*
X131556Y15195D01*
X131581Y15145D01*
X131607Y15102D01*
X131632Y15064D01*
X131653Y15034D01*
X131675Y15009D01*
X131692Y14988D01*
X131704Y14971D01*
X131713Y14962D01*
X131717Y14958D01*
X131768Y14911D01*
X131823Y14869D01*
X131882Y14831D01*
X131938Y14797D01*
X131997Y14771D01*
X132056Y14750D01*
X132162Y14716D01*
X132213Y14704D01*
X132260Y14695D01*
X132302Y14691D01*
X132336Y14687D01*
X132366Y14682D01*
X132391D01*
X132404D01*
X132408D01*
X132489Y14687D01*
X132565Y14695D01*
X132637Y14708D01*
X132705Y14729D01*
X132773Y14750D01*
X132832Y14776D01*
X132887Y14801D01*
X132938Y14831D01*
X132985Y14856D01*
X133023Y14886D01*
X133061Y14911D01*
X133087Y14933D01*
X133112Y14954D01*
X133129Y14966D01*
X133138Y14975D01*
X133142Y14979D01*
X133193Y15034D01*
X133239Y15094D01*
X133277Y15153D01*
X133311Y15217D01*
X133341Y15276D01*
X133366Y15335D01*
X133388Y15395D01*
X133400Y15450D01*
X133413Y15505D01*
X133422Y15552D01*
X133430Y15594D01*
X133434Y15632D01*
X133439Y15662D01*
Y15704D01*
X133434Y15772D01*
X133430Y15836D01*
X133405Y15954D01*
X133366Y16060D01*
X133345Y16107D01*
X133324Y16149D01*
X133307Y16188D01*
X133286Y16221D01*
X133265Y16251D01*
X133248Y16272D01*
X133235Y16294D01*
X133222Y16306D01*
X133218Y16315D01*
X133214Y16319D01*
X133167Y16366D01*
X133116Y16404D01*
X133061Y16446D01*
X133002Y16480D01*
X132879Y16540D01*
X132756Y16590D01*
X132696Y16607D01*
X132641Y16624D01*
X132595Y16641D01*
X132552Y16650D01*
X132518Y16658D01*
X132489Y16667D01*
X132472Y16671D01*
X132468D01*
X132548Y17281D01*
X132663Y17265D01*
D02*
G37*
G36*
X132227Y143166D02*
X132261Y143103D01*
X132345Y142984D01*
X132434Y142874D01*
X132524Y142772D01*
X132566Y142726D01*
X132604Y142687D01*
X132642Y142649D01*
X132672Y142620D01*
X132697Y142594D01*
X132719Y142577D01*
X132731Y142564D01*
X132736Y142560D01*
X132884Y142437D01*
X133032Y142327D01*
X133181Y142229D01*
X133253Y142183D01*
X133321Y142145D01*
X133384Y142106D01*
X133439Y142072D01*
X133490Y142047D01*
X133537Y142022D01*
X133571Y142005D01*
X133600Y141992D01*
X133617Y141983D01*
X133622Y141979D01*
Y141390D01*
X133516Y141432D01*
X133405Y141483D01*
X133300Y141534D01*
X133198Y141585D01*
X133155Y141610D01*
X133113Y141631D01*
X133075Y141653D01*
X133045Y141670D01*
X133020Y141682D01*
X133003Y141695D01*
X132990Y141699D01*
X132986Y141704D01*
X132859Y141784D01*
X132744Y141860D01*
X132647Y141928D01*
X132562Y141992D01*
X132528Y142022D01*
X132498Y142047D01*
X132473Y142068D01*
X132447Y142089D01*
X132430Y142102D01*
X132418Y142115D01*
X132413Y142119D01*
X132409Y142123D01*
Y138248D01*
X131799D01*
Y143226D01*
X132193D01*
X132227Y143166D01*
D02*
G37*
G36*
X61710Y143222D02*
X61846Y143200D01*
X61973Y143175D01*
X62092Y143137D01*
X62202Y143094D01*
X62304Y143048D01*
X62397Y142997D01*
X62482Y142942D01*
X62558Y142891D01*
X62626Y142836D01*
X62681Y142789D01*
X62728Y142747D01*
X62766Y142709D01*
X62792Y142683D01*
X62809Y142666D01*
X62813Y142658D01*
X62859Y142594D01*
X62906Y142526D01*
X62986Y142382D01*
X63059Y142221D01*
X63118Y142055D01*
X63169Y141882D01*
X63211Y141708D01*
X63249Y141538D01*
X63275Y141369D01*
X63300Y141208D01*
X63313Y141055D01*
X63322Y140987D01*
X63326Y140919D01*
X63330Y140860D01*
X63334Y140800D01*
X63339Y140750D01*
Y140703D01*
Y140665D01*
X63343Y140631D01*
Y140605D01*
Y140584D01*
Y140572D01*
Y140567D01*
Y140449D01*
X63339Y140334D01*
X63322Y140118D01*
X63300Y139919D01*
X63266Y139736D01*
X63232Y139571D01*
X63190Y139418D01*
X63148Y139283D01*
X63101Y139164D01*
X63059Y139058D01*
X63016Y138969D01*
X62974Y138892D01*
X62940Y138829D01*
X62906Y138782D01*
X62885Y138748D01*
X62868Y138731D01*
X62864Y138723D01*
X62770Y138625D01*
X62673Y138536D01*
X62571Y138464D01*
X62469Y138401D01*
X62363Y138346D01*
X62261Y138299D01*
X62160Y138265D01*
X62062Y138235D01*
X61973Y138210D01*
X61888Y138193D01*
X61812Y138180D01*
X61748Y138172D01*
X61693Y138168D01*
X61655Y138163D01*
X61621D01*
X61541Y138168D01*
X61460Y138172D01*
X61308Y138197D01*
X61240Y138214D01*
X61172Y138231D01*
X61112Y138248D01*
X61057Y138269D01*
X61006Y138290D01*
X60960Y138307D01*
X60917Y138324D01*
X60888Y138341D01*
X60858Y138354D01*
X60841Y138367D01*
X60828Y138371D01*
X60824Y138375D01*
X60760Y138418D01*
X60701Y138464D01*
X60587Y138562D01*
X60493Y138664D01*
X60413Y138761D01*
X60379Y138808D01*
X60353Y138850D01*
X60328Y138888D01*
X60307Y138922D01*
X60290Y138948D01*
X60277Y138969D01*
X60273Y138981D01*
X60269Y138986D01*
X60235Y139062D01*
X60201Y139138D01*
X60150Y139291D01*
X60116Y139439D01*
X60103Y139507D01*
X60091Y139571D01*
X60082Y139630D01*
X60074Y139685D01*
X60069Y139736D01*
Y139774D01*
X60065Y139808D01*
Y139834D01*
Y139851D01*
Y139855D01*
X60069Y139986D01*
X60082Y140109D01*
X60103Y140224D01*
X60133Y140334D01*
X60167Y140436D01*
X60201Y140533D01*
X60239Y140618D01*
X60281Y140699D01*
X60320Y140771D01*
X60362Y140834D01*
X60396Y140885D01*
X60430Y140932D01*
X60460Y140966D01*
X60481Y140991D01*
X60493Y141008D01*
X60498Y141013D01*
X60578Y141093D01*
X60663Y141161D01*
X60752Y141220D01*
X60841Y141271D01*
X60926Y141318D01*
X61015Y141352D01*
X61095Y141381D01*
X61176Y141407D01*
X61248Y141424D01*
X61316Y141437D01*
X61380Y141449D01*
X61431Y141454D01*
X61473Y141458D01*
X61507Y141462D01*
X61532D01*
X61659Y141454D01*
X61782Y141437D01*
X61897Y141411D01*
X61999Y141381D01*
X62041Y141364D01*
X62083Y141348D01*
X62117Y141335D01*
X62147Y141322D01*
X62168Y141314D01*
X62189Y141305D01*
X62198Y141297D01*
X62202D01*
X62317Y141229D01*
X62418Y141152D01*
X62512Y141068D01*
X62588Y140987D01*
X62652Y140915D01*
X62677Y140885D01*
X62698Y140856D01*
X62715Y140834D01*
X62728Y140817D01*
X62732Y140805D01*
X62736Y140800D01*
X62732Y140936D01*
X62728Y141063D01*
X62719Y141182D01*
X62707Y141292D01*
X62694Y141394D01*
X62681Y141487D01*
X62664Y141576D01*
X62652Y141653D01*
X62635Y141721D01*
X62618Y141780D01*
X62605Y141831D01*
X62592Y141869D01*
X62584Y141903D01*
X62575Y141928D01*
X62567Y141941D01*
Y141945D01*
X62533Y142017D01*
X62499Y142089D01*
X62465Y142153D01*
X62427Y142212D01*
X62389Y142268D01*
X62350Y142318D01*
X62312Y142365D01*
X62278Y142408D01*
X62244Y142441D01*
X62215Y142471D01*
X62185Y142501D01*
X62160Y142522D01*
X62143Y142539D01*
X62126Y142552D01*
X62117Y142556D01*
X62113Y142560D01*
X62028Y142615D01*
X61939Y142658D01*
X61854Y142687D01*
X61774Y142704D01*
X61706Y142717D01*
X61676Y142721D01*
X61651D01*
X61630Y142726D01*
X61600D01*
X61532Y142721D01*
X61469Y142713D01*
X61409Y142700D01*
X61354Y142683D01*
X61248Y142641D01*
X61163Y142594D01*
X61125Y142569D01*
X61091Y142547D01*
X61062Y142522D01*
X61036Y142505D01*
X61019Y142488D01*
X61006Y142475D01*
X60998Y142467D01*
X60994Y142463D01*
X60968Y142429D01*
X60943Y142395D01*
X60896Y142314D01*
X60854Y142229D01*
X60820Y142145D01*
X60795Y142068D01*
X60786Y142034D01*
X60777Y142005D01*
X60769Y141979D01*
X60765Y141962D01*
X60760Y141949D01*
Y141945D01*
X60154Y141992D01*
X60171Y142098D01*
X60197Y142195D01*
X60222Y142289D01*
X60256Y142378D01*
X60294Y142458D01*
X60328Y142530D01*
X60370Y142598D01*
X60409Y142662D01*
X60447Y142713D01*
X60481Y142759D01*
X60515Y142802D01*
X60544Y142836D01*
X60570Y142861D01*
X60587Y142878D01*
X60599Y142891D01*
X60604Y142895D01*
X60676Y142954D01*
X60752Y143005D01*
X60833Y143048D01*
X60913Y143086D01*
X60994Y143120D01*
X61070Y143145D01*
X61151Y143166D01*
X61223Y143183D01*
X61295Y143196D01*
X61358Y143209D01*
X61418Y143217D01*
X61469Y143222D01*
X61511Y143226D01*
X61566D01*
X61710Y143222D01*
D02*
G37*
%LPC*%
G36*
X61698Y140924D02*
X61659D01*
X61583Y140919D01*
X61511Y140911D01*
X61439Y140898D01*
X61375Y140877D01*
X61312Y140856D01*
X61257Y140830D01*
X61206Y140805D01*
X61155Y140775D01*
X61112Y140750D01*
X61074Y140720D01*
X61045Y140694D01*
X61019Y140673D01*
X60998Y140652D01*
X60981Y140639D01*
X60972Y140631D01*
X60968Y140627D01*
X60922Y140567D01*
X60879Y140508D01*
X60841Y140440D01*
X60807Y140376D01*
X60782Y140309D01*
X60760Y140241D01*
X60727Y140109D01*
X60714Y140050D01*
X60705Y139995D01*
X60701Y139944D01*
X60697Y139902D01*
X60693Y139868D01*
Y139838D01*
Y139821D01*
Y139817D01*
X60697Y139719D01*
X60705Y139626D01*
X60718Y139541D01*
X60735Y139461D01*
X60756Y139384D01*
X60782Y139316D01*
X60807Y139253D01*
X60833Y139194D01*
X60858Y139143D01*
X60883Y139100D01*
X60909Y139062D01*
X60930Y139028D01*
X60947Y139007D01*
X60960Y138986D01*
X60968Y138977D01*
X60972Y138973D01*
X61023Y138918D01*
X61079Y138871D01*
X61138Y138829D01*
X61193Y138795D01*
X61248Y138765D01*
X61303Y138740D01*
X61354Y138719D01*
X61405Y138702D01*
X61456Y138689D01*
X61498Y138681D01*
X61537Y138672D01*
X61570Y138668D01*
X61596D01*
X61617Y138664D01*
X61634D01*
X61731Y138672D01*
X61825Y138689D01*
X61914Y138710D01*
X61990Y138740D01*
X62054Y138765D01*
X62079Y138778D01*
X62100Y138791D01*
X62117Y138799D01*
X62130Y138808D01*
X62138Y138812D01*
X62143D01*
X62228Y138875D01*
X62300Y138943D01*
X62363Y139015D01*
X62414Y139088D01*
X62457Y139151D01*
X62473Y139177D01*
X62486Y139202D01*
X62499Y139223D01*
X62507Y139236D01*
X62512Y139244D01*
Y139249D01*
X62554Y139359D01*
X62588Y139465D01*
X62609Y139567D01*
X62626Y139660D01*
X62630Y139698D01*
X62635Y139736D01*
X62639Y139770D01*
Y139796D01*
X62643Y139821D01*
Y139838D01*
Y139847D01*
Y139851D01*
X62639Y139940D01*
X62630Y140020D01*
X62618Y140101D01*
X62596Y140173D01*
X62575Y140245D01*
X62554Y140309D01*
X62529Y140364D01*
X62499Y140419D01*
X62473Y140466D01*
X62448Y140508D01*
X62427Y140542D01*
X62401Y140572D01*
X62384Y140597D01*
X62372Y140614D01*
X62363Y140622D01*
X62359Y140627D01*
X62304Y140677D01*
X62244Y140724D01*
X62185Y140762D01*
X62126Y140800D01*
X62071Y140826D01*
X62011Y140851D01*
X61956Y140873D01*
X61901Y140885D01*
X61850Y140898D01*
X61804Y140907D01*
X61765Y140915D01*
X61727Y140919D01*
X61698Y140924D01*
D02*
G37*
%LPD*%
D68*
X111221Y53150D02*
Y57087D01*
X109252Y55118D02*
X113189D01*
X93504Y53150D02*
Y57087D01*
X91535Y55118D02*
X95473D01*
X49385Y107283D02*
X53322Y107283D01*
X51354Y105315D02*
Y109252D01*
X65134Y107283D02*
X69071D01*
X67102Y105315D02*
Y109252D01*
X31496Y132874D02*
X35433D01*
X33465Y130906D02*
Y134843D01*
X59228Y85630D02*
Y89567D01*
X57259Y87599D02*
X61196D01*
D70*
X140480Y16661D02*
Y19165D01*
Y16661D02*
X142984D01*
Y19165D01*
X140480D02*
X142984D01*
X137732Y22401D02*
Y22913D01*
X136732Y21913D02*
X137732Y22401D01*
X136732Y12913D02*
Y21913D01*
Y12913D02*
X146732D01*
Y21913D01*
X145732Y22401D02*
X146732Y21913D01*
X145732Y22401D02*
Y22913D01*
X140480Y26661D02*
Y29165D01*
Y26661D02*
X142984D01*
Y29165D01*
X140480D02*
X142984D01*
X145732Y22913D02*
Y23425D01*
X146732Y23913D01*
X146732Y31913D02*
X146732Y23913D01*
X145732Y32401D02*
X146732Y31913D01*
X137732Y22913D02*
Y23425D01*
X136732Y23913D02*
X137732Y23425D01*
X136732Y23913D02*
X136732Y31913D01*
X137732Y32401D01*
X145732D02*
Y32913D01*
X137732Y32401D02*
Y32913D01*
X145732Y42401D02*
Y42913D01*
X137732Y42401D02*
Y42913D01*
X140480Y36661D02*
Y39165D01*
Y36661D02*
X142984D01*
Y39165D01*
X140480D02*
X142984D01*
X145732Y32913D02*
Y33425D01*
X146732Y33913D01*
Y41913D01*
X145732Y42401D02*
X146732Y41913D01*
X137732Y32913D02*
Y33425D01*
X136732Y33913D02*
X137732Y33425D01*
X136732Y33913D02*
Y41913D01*
X137732Y42401D01*
X145732Y52401D02*
Y52913D01*
X137732Y52401D02*
Y52913D01*
X140480Y46661D02*
Y49165D01*
Y46661D02*
X142984D01*
Y49165D01*
X140480D02*
X142984D01*
X145732Y42913D02*
Y43425D01*
X146732Y43913D01*
X146732Y51913D02*
X146732Y43913D01*
X145732Y52401D02*
X146732Y51913D01*
X137732Y42913D02*
Y43425D01*
X136732Y43913D02*
X137732Y43425D01*
X136732Y43913D02*
X136732Y51913D01*
X137732Y52401D01*
X145732Y62401D02*
Y62913D01*
X137732Y62401D02*
Y62913D01*
X140480Y56661D02*
Y59165D01*
Y56661D02*
X142984D01*
Y59165D01*
X140480D02*
X142984D01*
X145732Y52913D02*
Y53425D01*
X146732Y53913D01*
Y61913D01*
X145732Y62401D02*
X146732Y61913D01*
X137732Y52913D02*
Y53425D01*
X136732Y53913D02*
X137732Y53425D01*
X136732Y53913D02*
Y61913D01*
X137732Y62401D01*
X140480Y66661D02*
Y69165D01*
Y66661D02*
X142984D01*
Y69165D01*
X140480D02*
X142984D01*
X145732Y72401D02*
Y72913D01*
X137732Y72401D02*
Y72913D01*
X145732Y62913D02*
Y63425D01*
X146732Y63913D01*
X146732Y71913D01*
X145732Y72401D02*
X146732Y71913D01*
X137732Y62913D02*
Y63425D01*
X136732Y63913D02*
X137732Y63425D01*
X136732Y71913D02*
X136732Y63913D01*
X136732Y71913D02*
X137732Y72401D01*
X140480Y76661D02*
Y79165D01*
Y76661D02*
X142984D01*
Y79165D01*
X140480D02*
X142984D01*
X145732Y72913D02*
Y73425D01*
X146732Y73913D01*
X146732Y81913D02*
X146732Y73913D01*
X145732Y82401D02*
X146732Y81913D01*
X137732Y72913D02*
Y73425D01*
X136732Y73913D02*
X137732Y73425D01*
X136732Y73913D02*
X136732Y81913D01*
X137732Y82401D01*
X145732D02*
Y82913D01*
X137732Y82401D02*
Y82913D01*
X145732Y92401D02*
Y92913D01*
X137732Y92401D02*
Y92913D01*
X140480Y86661D02*
Y89165D01*
Y86661D02*
X142984D01*
Y89165D01*
X140480D02*
X142984D01*
X145732Y82913D02*
Y83425D01*
X146732Y83913D01*
Y91913D01*
X145732Y92401D02*
X146732Y91913D01*
X137732Y82913D02*
Y83425D01*
X136732Y83913D02*
X137732Y83425D01*
X136732Y83913D02*
Y91913D01*
X137732Y92401D01*
X145732Y102401D02*
Y102913D01*
X137732Y102401D02*
Y102913D01*
X140480Y96661D02*
Y99165D01*
Y96661D02*
X142984D01*
Y99165D01*
X140480D02*
X142984D01*
X145732Y92913D02*
Y93425D01*
X146732Y93913D01*
X146732Y101913D01*
X145732Y102401D02*
X146732Y101913D01*
X137732Y92913D02*
Y93425D01*
X136732Y93913D02*
X137732Y93425D01*
X136732Y101913D02*
X136732Y93913D01*
X136732Y101913D02*
X137732Y102401D01*
X145732Y112401D02*
Y112913D01*
X137732Y112401D02*
Y112913D01*
X140480Y106661D02*
Y109165D01*
Y106661D02*
X142984D01*
Y109165D01*
X140480D02*
X142984D01*
X145732Y102913D02*
Y103425D01*
X146732Y103913D01*
X146732Y111913D02*
X146732Y103913D01*
X145732Y112401D02*
X146732Y111913D01*
X137732Y102913D02*
Y103425D01*
X136732Y103913D02*
X137732Y103425D01*
X136732Y103913D02*
X136732Y111913D01*
X137732Y112401D01*
X140480Y116661D02*
Y119165D01*
Y116661D02*
X142984D01*
Y119165D01*
X140480D02*
X142984D01*
X145732Y122401D02*
Y122913D01*
X137732Y122401D02*
Y122913D01*
X145732Y112913D02*
Y113425D01*
X146732Y113913D01*
Y121913D01*
X145732Y122401D02*
X146732Y121913D01*
X137732Y112913D02*
Y113425D01*
X136732Y113913D02*
X137732Y113425D01*
X136732Y113913D02*
Y121913D01*
X137732Y122401D01*
X140480Y126661D02*
Y129165D01*
Y126661D02*
X142984D01*
Y129165D01*
X140480D02*
X142984D01*
X145732Y122913D02*
Y123425D01*
X146732Y123913D01*
Y131913D01*
X145732Y132401D02*
X146732Y131913D01*
X137732Y122913D02*
Y123425D01*
X136732Y123913D02*
X137732Y123425D01*
X136732Y123913D02*
Y131913D01*
X137732Y132401D01*
X145732D02*
Y132913D01*
X137732Y132401D02*
Y132913D01*
X140480Y136661D02*
Y139165D01*
Y136661D02*
X142984D01*
Y139165D01*
X140480D02*
X142984D01*
X145732Y132913D02*
Y133425D01*
X146732Y133913D01*
X146732Y142913D02*
X146732Y133913D01*
X145433Y142913D02*
X146732Y142913D01*
X145433Y142114D02*
Y142913D01*
X138031Y142114D02*
X145433D01*
X138031D02*
Y142913D01*
X136732Y142913D02*
X138031Y142913D01*
X136732Y133913D02*
X136732Y142913D01*
X136732Y133913D02*
X137732Y133425D01*
Y132913D02*
Y133425D01*
X116457Y144748D02*
X116969D01*
X117457Y145748D01*
X126457Y145748D01*
Y144449D02*
Y145748D01*
X125658Y144449D02*
X126457D01*
X125658Y137047D02*
Y144449D01*
Y137047D02*
X126457Y137047D01*
Y135748D02*
Y137047D01*
X117457Y135748D02*
X126457Y135748D01*
X116969Y136748D02*
X117457Y135748D01*
X116457Y136748D02*
X116969D01*
X122709Y139496D02*
Y142000D01*
X120205Y139496D02*
X122709Y139496D01*
X120205Y142000D02*
X120205Y139496D01*
X120205Y142000D02*
X122709Y142000D01*
X115945Y144748D02*
X116457D01*
X115945Y136748D02*
X116457D01*
X115457Y145748D02*
X115945Y144748D01*
X107457Y145748D02*
X115457Y145748D01*
X106969Y144748D02*
X107457Y145748D01*
X106457Y144748D02*
X106969D01*
X115457Y135748D02*
X115945Y136748D01*
X107457Y135748D02*
X115457Y135748D01*
X106969Y136748D02*
X107457Y135748D01*
X106457Y136748D02*
X106969D01*
X112709Y139496D02*
Y142000D01*
X110205Y139496D02*
X112709D01*
X110205D02*
Y142000D01*
X112709Y142000D01*
X105457Y145748D02*
X105945Y144748D01*
X97457Y145748D02*
X105457Y145748D01*
X96969Y144748D02*
X97457Y145748D01*
X96457Y144748D02*
X96969D01*
X105457Y135748D02*
X105945Y136748D01*
X97457Y135748D02*
X105457Y135748D01*
X96969Y136748D02*
X97457Y135748D01*
X96457Y136748D02*
X96969Y136748D01*
X105945Y144748D02*
X106457D01*
X105945Y136748D02*
X106457Y136748D01*
X102709Y139496D02*
Y142000D01*
X100205Y139496D02*
X102709D01*
X100205D02*
Y142000D01*
X102709D01*
X95457Y145748D02*
X95945Y144748D01*
X87457Y145748D02*
X95457Y145748D01*
X86969Y144748D02*
X87457Y145748D01*
X86457Y144748D02*
X86969D01*
X95457Y135748D02*
X95945Y136748D01*
X87457Y135748D02*
X95457Y135748D01*
X86969Y136748D02*
X87457Y135748D01*
X86457Y136748D02*
X86969Y136748D01*
X92709Y139496D02*
Y142000D01*
X90205Y139496D02*
X92709D01*
X90205D02*
Y142000D01*
X92709Y142000D01*
X95945Y144748D02*
X96457D01*
X95945Y136748D02*
X96457Y136748D01*
X85457Y145748D02*
X85945Y144748D01*
X77457Y145748D02*
X85457Y145748D01*
X76969Y144748D02*
X77457Y145748D01*
X76457Y144748D02*
X76969D01*
X85457Y135748D02*
X85945Y136748D01*
X77457Y135748D02*
X85457Y135748D01*
X76969Y136748D02*
X77457Y135748D01*
X76457Y136748D02*
X76969D01*
X82709Y139496D02*
Y142000D01*
X80205Y139496D02*
X82709D01*
X80205D02*
Y142000D01*
X82709D01*
X85945Y144748D02*
X86457D01*
X85945Y136748D02*
X86457Y136748D01*
X72709Y139496D02*
Y142000D01*
X70205Y139496D02*
X72709D01*
X70205D02*
Y142000D01*
X72709D01*
X75945Y136748D02*
X76457D01*
X75457Y135748D02*
X75945Y136748D01*
X66457Y135748D02*
X75457D01*
X66457D02*
Y145748D01*
X75457Y145748D01*
X75945Y144748D01*
X76457D01*
M02*
