G04*
G04 #@! TF.GenerationSoftware,Altium Limited,Altium Designer,23.2.1 (34)*
G04*
G04 Layer_Color=32768*
%FSLAX25Y25*%
%MOIN*%
G70*
G04*
G04 #@! TF.SameCoordinates,7C5D3EEA-5F35-4E34-AFA4-0489F6894B71*
G04*
G04*
G04 #@! TF.FilePolarity,Positive*
G04*
G01*
G75*
%ADD67C,0.00600*%
D67*
X94935Y8795D02*
X95643Y9088D01*
X95935Y9795D01*
X87135D02*
X87428Y9088D01*
X88135Y8795D01*
Y16795D02*
X87428Y16502D01*
X87135Y15795D01*
X95935D02*
X95643Y16502D01*
X94935Y16795D01*
X64439Y51228D02*
X64147Y51935D01*
X63439Y52228D01*
X56639D02*
X55932Y51935D01*
X55639Y51228D01*
Y45228D02*
X55932Y44521D01*
X56639Y44228D01*
X63439D02*
X64147Y44521D01*
X64439Y45228D01*
X34402Y80998D02*
X33694Y80705D01*
X33402Y79998D01*
Y73198D02*
X33694Y72491D01*
X34402Y72198D01*
X40402D02*
X41109Y72491D01*
X41402Y73198D01*
Y79998D02*
X41109Y80705D01*
X40402Y80998D01*
X88135Y16795D02*
X94935D01*
X87135Y15795D02*
X87135Y9795D01*
X95935D02*
X95935Y15795D01*
X88135Y8795D02*
X94935D01*
X56639Y44228D02*
X63439D01*
X64439Y45228D02*
Y51228D01*
X55639Y45228D02*
Y51228D01*
X56639Y52228D02*
X63439D01*
X41402Y73199D02*
Y79999D01*
X34402Y80999D02*
X40402D01*
X34402Y72199D02*
X40402D01*
X33402Y73199D02*
Y79999D01*
M02*
