G04*
G04 #@! TF.GenerationSoftware,Altium Limited,Altium Designer,23.2.1 (34)*
G04*
G04 Layer_Color=16711935*
%FSLAX25Y25*%
%MOIN*%
G70*
G04*
G04 #@! TF.SameCoordinates,7C5D3EEA-5F35-4E34-AFA4-0489F6894B71*
G04*
G04*
G04 #@! TF.FilePolarity,Positive*
G04*
G01*
G75*
%ADD12C,0.00787*%
G36*
X122284Y86259D02*
X122310D01*
X122342Y86254D01*
X122381Y86250D01*
X122422Y86243D01*
X122467Y86237D01*
X122516Y86226D01*
X122568Y86213D01*
X122620Y86198D01*
X122673Y86179D01*
X122727Y86158D01*
X122779Y86132D01*
X122830Y86102D01*
X122880Y86067D01*
X122882Y86065D01*
X122890Y86059D01*
X122903Y86048D01*
X122923Y86033D01*
X122942Y86011D01*
X122968Y85988D01*
X122994Y85960D01*
X123022Y85927D01*
X123052Y85891D01*
X123082Y85852D01*
X123112Y85807D01*
X123142Y85760D01*
X123170Y85706D01*
X123196Y85650D01*
X123219Y85592D01*
X123241Y85528D01*
X122914Y85450D01*
Y85452D01*
X122910Y85463D01*
X122906Y85476D01*
X122897Y85495D01*
X122888Y85517D01*
X122878Y85545D01*
X122865Y85573D01*
X122850Y85603D01*
X122813Y85669D01*
X122770Y85736D01*
X122744Y85766D01*
X122719Y85796D01*
X122688Y85824D01*
X122658Y85850D01*
X122656Y85852D01*
X122650Y85856D01*
X122641Y85861D01*
X122628Y85869D01*
X122613Y85880D01*
X122592Y85891D01*
X122570Y85902D01*
X122544Y85915D01*
X122516Y85925D01*
X122484Y85936D01*
X122450Y85947D01*
X122413Y85958D01*
X122372Y85966D01*
X122331Y85970D01*
X122286Y85975D01*
X122241Y85977D01*
X122213D01*
X122194Y85975D01*
X122168Y85973D01*
X122140Y85970D01*
X122108Y85966D01*
X122071Y85960D01*
X122035Y85951D01*
X121996Y85943D01*
X121955Y85932D01*
X121914Y85919D01*
X121873Y85902D01*
X121833Y85882D01*
X121794Y85861D01*
X121755Y85837D01*
X121753Y85835D01*
X121747Y85831D01*
X121736Y85822D01*
X121723Y85811D01*
X121708Y85799D01*
X121691Y85781D01*
X121669Y85760D01*
X121648Y85738D01*
X121626Y85712D01*
X121603Y85685D01*
X121581Y85654D01*
X121557Y85620D01*
X121536Y85586D01*
X121517Y85547D01*
X121499Y85506D01*
X121482Y85463D01*
Y85461D01*
X121478Y85452D01*
X121476Y85439D01*
X121469Y85422D01*
X121465Y85401D01*
X121458Y85375D01*
X121450Y85347D01*
X121443Y85315D01*
X121437Y85280D01*
X121428Y85242D01*
X121422Y85203D01*
X121418Y85162D01*
X121409Y85074D01*
X121405Y84982D01*
Y84977D01*
Y84966D01*
Y84949D01*
X121407Y84928D01*
Y84900D01*
X121409Y84868D01*
X121413Y84831D01*
X121416Y84790D01*
X121422Y84747D01*
X121428Y84702D01*
X121443Y84610D01*
X121467Y84513D01*
X121480Y84465D01*
X121497Y84420D01*
X121499Y84418D01*
X121502Y84410D01*
X121508Y84397D01*
X121514Y84382D01*
X121525Y84362D01*
X121536Y84339D01*
X121551Y84313D01*
X121568Y84287D01*
X121588Y84257D01*
X121609Y84229D01*
X121633Y84199D01*
X121659Y84169D01*
X121686Y84141D01*
X121719Y84113D01*
X121751Y84087D01*
X121788Y84063D01*
X121790Y84061D01*
X121796Y84059D01*
X121807Y84053D01*
X121822Y84044D01*
X121841Y84035D01*
X121863Y84027D01*
X121886Y84016D01*
X121914Y84005D01*
X121947Y83992D01*
X121979Y83982D01*
X122013Y83973D01*
X122052Y83965D01*
X122132Y83950D01*
X122172Y83947D01*
X122215Y83945D01*
X122228D01*
X122243Y83947D01*
X122263D01*
X122286Y83950D01*
X122314Y83954D01*
X122344Y83958D01*
X122379Y83965D01*
X122415Y83973D01*
X122452Y83984D01*
X122491Y83997D01*
X122531Y84014D01*
X122570Y84031D01*
X122611Y84053D01*
X122650Y84079D01*
X122686Y84106D01*
X122688Y84109D01*
X122695Y84115D01*
X122705Y84124D01*
X122719Y84136D01*
X122733Y84154D01*
X122753Y84175D01*
X122772Y84199D01*
X122794Y84227D01*
X122815Y84259D01*
X122837Y84294D01*
X122858Y84332D01*
X122880Y84375D01*
X122901Y84422D01*
X122921Y84472D01*
X122936Y84526D01*
X122951Y84584D01*
X123284Y84500D01*
Y84498D01*
X123282Y84496D01*
Y84489D01*
X123280Y84483D01*
X123273Y84461D01*
X123262Y84433D01*
X123252Y84399D01*
X123237Y84360D01*
X123217Y84315D01*
X123198Y84270D01*
X123172Y84220D01*
X123146Y84169D01*
X123114Y84117D01*
X123080Y84066D01*
X123041Y84014D01*
X123000Y83965D01*
X122955Y83919D01*
X122906Y83876D01*
X122903Y83874D01*
X122893Y83868D01*
X122878Y83857D01*
X122858Y83842D01*
X122830Y83827D01*
X122800Y83808D01*
X122764Y83788D01*
X122721Y83769D01*
X122676Y83750D01*
X122624Y83730D01*
X122570Y83711D01*
X122512Y83696D01*
X122450Y83681D01*
X122385Y83670D01*
X122314Y83663D01*
X122243Y83661D01*
X122226D01*
X122205Y83663D01*
X122177D01*
X122142Y83666D01*
X122101Y83670D01*
X122056Y83674D01*
X122009Y83683D01*
X121957Y83692D01*
X121904Y83702D01*
X121848Y83715D01*
X121792Y83730D01*
X121738Y83750D01*
X121682Y83771D01*
X121631Y83797D01*
X121581Y83825D01*
X121579Y83827D01*
X121570Y83833D01*
X121557Y83842D01*
X121540Y83855D01*
X121519Y83872D01*
X121493Y83894D01*
X121467Y83919D01*
X121437Y83947D01*
X121407Y83980D01*
X121375Y84014D01*
X121343Y84055D01*
X121310Y84098D01*
X121280Y84143D01*
X121250Y84195D01*
X121220Y84246D01*
X121194Y84304D01*
X121192Y84308D01*
X121188Y84319D01*
X121181Y84337D01*
X121175Y84358D01*
X121164Y84388D01*
X121153Y84422D01*
X121140Y84461D01*
X121130Y84506D01*
X121117Y84556D01*
X121104Y84607D01*
X121093Y84663D01*
X121084Y84721D01*
X121076Y84784D01*
X121069Y84846D01*
X121065Y84913D01*
X121063Y84979D01*
Y84982D01*
Y84984D01*
Y84996D01*
Y85018D01*
X121065Y85046D01*
X121067Y85078D01*
X121072Y85119D01*
X121076Y85162D01*
X121082Y85211D01*
X121089Y85263D01*
X121099Y85319D01*
X121110Y85375D01*
X121125Y85433D01*
X121142Y85491D01*
X121162Y85549D01*
X121186Y85607D01*
X121211Y85663D01*
X121213Y85667D01*
X121218Y85676D01*
X121226Y85691D01*
X121239Y85710D01*
X121254Y85736D01*
X121274Y85764D01*
X121295Y85794D01*
X121321Y85829D01*
X121349Y85863D01*
X121381Y85900D01*
X121416Y85938D01*
X121454Y85975D01*
X121495Y86011D01*
X121540Y86046D01*
X121588Y86078D01*
X121637Y86108D01*
X121641Y86110D01*
X121650Y86115D01*
X121665Y86123D01*
X121686Y86132D01*
X121712Y86142D01*
X121742Y86155D01*
X121777Y86170D01*
X121818Y86185D01*
X121861Y86198D01*
X121908Y86213D01*
X121957Y86226D01*
X122011Y86237D01*
X122067Y86246D01*
X122125Y86254D01*
X122185Y86259D01*
X122248Y86261D01*
X122265D01*
X122284Y86259D01*
D02*
G37*
G36*
X124419Y86226D02*
X124441D01*
X124469Y86222D01*
X124501Y86218D01*
X124537Y86213D01*
X124576Y86205D01*
X124617Y86194D01*
X124660Y86181D01*
X124705Y86166D01*
X124748Y86147D01*
X124793Y86125D01*
X124836Y86099D01*
X124877Y86071D01*
X124916Y86037D01*
X124918Y86035D01*
X124924Y86028D01*
X124935Y86018D01*
X124948Y86003D01*
X124963Y85983D01*
X124980Y85962D01*
X124997Y85936D01*
X125017Y85908D01*
X125036Y85874D01*
X125053Y85839D01*
X125071Y85801D01*
X125086Y85760D01*
X125099Y85717D01*
X125109Y85669D01*
X125116Y85622D01*
X125118Y85571D01*
Y85568D01*
Y85562D01*
Y85553D01*
X125116Y85540D01*
Y85525D01*
X125114Y85508D01*
X125109Y85489D01*
X125107Y85467D01*
X125096Y85420D01*
X125079Y85369D01*
X125056Y85317D01*
X125043Y85291D01*
X125025Y85265D01*
Y85263D01*
X125021Y85259D01*
X125015Y85252D01*
X125008Y85244D01*
X124997Y85233D01*
X124987Y85220D01*
X124972Y85207D01*
X124957Y85192D01*
X124937Y85177D01*
X124916Y85160D01*
X124894Y85145D01*
X124869Y85128D01*
X124840Y85110D01*
X124813Y85095D01*
X124780Y85080D01*
X124746Y85067D01*
X124748D01*
X124757Y85063D01*
X124767Y85059D01*
X124785Y85052D01*
X124804Y85044D01*
X124826Y85035D01*
X124851Y85022D01*
X124877Y85007D01*
X124935Y84973D01*
X124993Y84932D01*
X125049Y84880D01*
X125075Y84852D01*
X125099Y84822D01*
X125101Y84820D01*
X125103Y84814D01*
X125109Y84805D01*
X125118Y84792D01*
X125126Y84777D01*
X125137Y84758D01*
X125148Y84734D01*
X125161Y84711D01*
X125172Y84683D01*
X125182Y84650D01*
X125193Y84618D01*
X125202Y84584D01*
X125210Y84545D01*
X125217Y84506D01*
X125219Y84465D01*
X125221Y84422D01*
Y84418D01*
Y84407D01*
X125219Y84392D01*
X125217Y84369D01*
X125215Y84341D01*
X125208Y84308D01*
X125202Y84272D01*
X125193Y84233D01*
X125180Y84192D01*
X125165Y84149D01*
X125146Y84104D01*
X125124Y84057D01*
X125099Y84012D01*
X125066Y83967D01*
X125032Y83924D01*
X124991Y83881D01*
X124989Y83878D01*
X124980Y83872D01*
X124967Y83861D01*
X124950Y83846D01*
X124926Y83829D01*
X124899Y83812D01*
X124869Y83793D01*
X124832Y83771D01*
X124791Y83752D01*
X124746Y83730D01*
X124697Y83713D01*
X124643Y83696D01*
X124587Y83681D01*
X124524Y83670D01*
X124460Y83663D01*
X124393Y83661D01*
X124376D01*
X124357Y83663D01*
X124331Y83666D01*
X124301Y83668D01*
X124264Y83672D01*
X124223Y83681D01*
X124178Y83689D01*
X124133Y83700D01*
X124084Y83715D01*
X124034Y83732D01*
X123983Y83754D01*
X123933Y83780D01*
X123884Y83808D01*
X123839Y83842D01*
X123793Y83881D01*
X123791Y83883D01*
X123783Y83891D01*
X123772Y83904D01*
X123757Y83921D01*
X123740Y83943D01*
X123720Y83969D01*
X123701Y83999D01*
X123679Y84033D01*
X123658Y84070D01*
X123639Y84113D01*
X123619Y84158D01*
X123602Y84205D01*
X123587Y84259D01*
X123576Y84313D01*
X123568Y84371D01*
X123566Y84431D01*
Y84433D01*
Y84442D01*
Y84455D01*
X123568Y84472D01*
X123570Y84493D01*
X123572Y84517D01*
X123576Y84545D01*
X123581Y84575D01*
X123596Y84640D01*
X123606Y84674D01*
X123619Y84708D01*
X123632Y84743D01*
X123649Y84777D01*
X123669Y84809D01*
X123690Y84842D01*
X123692Y84844D01*
X123697Y84848D01*
X123703Y84857D01*
X123714Y84870D01*
X123727Y84883D01*
X123742Y84898D01*
X123761Y84915D01*
X123781Y84932D01*
X123804Y84951D01*
X123832Y84971D01*
X123860Y84988D01*
X123892Y85007D01*
X123927Y85024D01*
X123963Y85040D01*
X124004Y85055D01*
X124045Y85067D01*
X124043D01*
X124036Y85072D01*
X124026Y85074D01*
X124013Y85080D01*
X123998Y85087D01*
X123978Y85095D01*
X123937Y85119D01*
X123890Y85147D01*
X123843Y85181D01*
X123798Y85222D01*
X123778Y85244D01*
X123759Y85267D01*
Y85270D01*
X123755Y85274D01*
X123750Y85280D01*
X123744Y85291D01*
X123738Y85304D01*
X123729Y85319D01*
X123723Y85336D01*
X123714Y85356D01*
X123697Y85401D01*
X123682Y85454D01*
X123671Y85515D01*
X123669Y85547D01*
X123667Y85579D01*
Y85581D01*
Y85592D01*
X123669Y85605D01*
Y85624D01*
X123673Y85648D01*
X123677Y85676D01*
X123684Y85706D01*
X123690Y85740D01*
X123701Y85775D01*
X123714Y85813D01*
X123731Y85852D01*
X123748Y85891D01*
X123772Y85930D01*
X123798Y85968D01*
X123828Y86005D01*
X123862Y86041D01*
X123864Y86044D01*
X123871Y86050D01*
X123884Y86059D01*
X123899Y86071D01*
X123918Y86084D01*
X123942Y86102D01*
X123970Y86117D01*
X124002Y86136D01*
X124039Y86153D01*
X124077Y86170D01*
X124120Y86185D01*
X124168Y86198D01*
X124217Y86211D01*
X124271Y86220D01*
X124327Y86226D01*
X124387Y86229D01*
X124402D01*
X124419Y86226D01*
D02*
G37*
G36*
X115394Y16377D02*
X115420D01*
X115452Y16372D01*
X115491Y16368D01*
X115532Y16362D01*
X115577Y16355D01*
X115627Y16344D01*
X115678Y16331D01*
X115730Y16317D01*
X115784Y16297D01*
X115837Y16276D01*
X115889Y16250D01*
X115940Y16220D01*
X115990Y16185D01*
X115992Y16183D01*
X116001Y16177D01*
X116014Y16166D01*
X116033Y16151D01*
X116052Y16129D01*
X116078Y16106D01*
X116104Y16078D01*
X116132Y16046D01*
X116162Y16009D01*
X116192Y15970D01*
X116222Y15925D01*
X116252Y15878D01*
X116280Y15824D01*
X116306Y15768D01*
X116330Y15710D01*
X116351Y15646D01*
X116024Y15568D01*
Y15570D01*
X116020Y15581D01*
X116016Y15594D01*
X116007Y15613D01*
X115998Y15635D01*
X115988Y15663D01*
X115975Y15691D01*
X115960Y15721D01*
X115923Y15788D01*
X115880Y15854D01*
X115855Y15884D01*
X115829Y15914D01*
X115799Y15942D01*
X115769Y15968D01*
X115766Y15970D01*
X115760Y15975D01*
X115751Y15979D01*
X115738Y15988D01*
X115723Y15998D01*
X115702Y16009D01*
X115680Y16020D01*
X115655Y16033D01*
X115627Y16043D01*
X115594Y16054D01*
X115560Y16065D01*
X115523Y16076D01*
X115482Y16084D01*
X115442Y16089D01*
X115396Y16093D01*
X115351Y16095D01*
X115323D01*
X115304Y16093D01*
X115278Y16091D01*
X115250Y16089D01*
X115218Y16084D01*
X115182Y16078D01*
X115145Y16069D01*
X115106Y16061D01*
X115065Y16050D01*
X115025Y16037D01*
X114984Y16020D01*
X114943Y16000D01*
X114904Y15979D01*
X114866Y15955D01*
X114863Y15953D01*
X114857Y15949D01*
X114846Y15940D01*
X114833Y15929D01*
X114818Y15917D01*
X114801Y15899D01*
X114779Y15878D01*
X114758Y15856D01*
X114736Y15831D01*
X114713Y15803D01*
X114691Y15773D01*
X114668Y15738D01*
X114646Y15704D01*
X114627Y15665D01*
X114610Y15624D01*
X114592Y15581D01*
Y15579D01*
X114588Y15570D01*
X114586Y15558D01*
X114579Y15540D01*
X114575Y15519D01*
X114569Y15493D01*
X114560Y15465D01*
X114554Y15433D01*
X114547Y15398D01*
X114539Y15360D01*
X114532Y15321D01*
X114528Y15280D01*
X114519Y15192D01*
X114515Y15100D01*
Y15095D01*
Y15085D01*
Y15067D01*
X114517Y15046D01*
Y15018D01*
X114519Y14986D01*
X114524Y14949D01*
X114526Y14908D01*
X114532Y14865D01*
X114539Y14820D01*
X114554Y14728D01*
X114577Y14631D01*
X114590Y14584D01*
X114608Y14538D01*
X114610Y14536D01*
X114612Y14528D01*
X114618Y14515D01*
X114625Y14500D01*
X114635Y14480D01*
X114646Y14457D01*
X114661Y14431D01*
X114678Y14405D01*
X114698Y14375D01*
X114719Y14347D01*
X114743Y14317D01*
X114769Y14287D01*
X114797Y14259D01*
X114829Y14231D01*
X114861Y14205D01*
X114898Y14182D01*
X114900Y14179D01*
X114906Y14177D01*
X114917Y14171D01*
X114932Y14162D01*
X114952Y14154D01*
X114973Y14145D01*
X114997Y14134D01*
X115025Y14123D01*
X115057Y14111D01*
X115089Y14100D01*
X115123Y14091D01*
X115162Y14083D01*
X115242Y14068D01*
X115283Y14065D01*
X115326Y14063D01*
X115339D01*
X115354Y14065D01*
X115373D01*
X115396Y14068D01*
X115425Y14072D01*
X115455Y14076D01*
X115489Y14083D01*
X115525Y14091D01*
X115562Y14102D01*
X115601Y14115D01*
X115642Y14132D01*
X115680Y14149D01*
X115721Y14171D01*
X115760Y14197D01*
X115796Y14224D01*
X115799Y14227D01*
X115805Y14233D01*
X115816Y14242D01*
X115829Y14255D01*
X115844Y14272D01*
X115863Y14293D01*
X115882Y14317D01*
X115904Y14345D01*
X115925Y14377D01*
X115947Y14412D01*
X115968Y14450D01*
X115990Y14493D01*
X116011Y14541D01*
X116031Y14590D01*
X116046Y14644D01*
X116061Y14702D01*
X116394Y14618D01*
Y14616D01*
X116392Y14614D01*
Y14607D01*
X116390Y14601D01*
X116383Y14579D01*
X116373Y14551D01*
X116362Y14517D01*
X116347Y14478D01*
X116328Y14433D01*
X116308Y14388D01*
X116282Y14338D01*
X116256Y14287D01*
X116224Y14235D01*
X116190Y14184D01*
X116151Y14132D01*
X116110Y14083D01*
X116065Y14038D01*
X116016Y13995D01*
X116014Y13992D01*
X116003Y13986D01*
X115988Y13975D01*
X115968Y13960D01*
X115940Y13945D01*
X115910Y13926D01*
X115874Y13906D01*
X115831Y13887D01*
X115786Y13868D01*
X115734Y13848D01*
X115680Y13829D01*
X115622Y13814D01*
X115560Y13799D01*
X115495Y13788D01*
X115425Y13782D01*
X115354Y13780D01*
X115336D01*
X115315Y13782D01*
X115287D01*
X115252Y13784D01*
X115212Y13788D01*
X115166Y13792D01*
X115119Y13801D01*
X115068Y13810D01*
X115014Y13820D01*
X114958Y13833D01*
X114902Y13848D01*
X114848Y13868D01*
X114792Y13889D01*
X114741Y13915D01*
X114691Y13943D01*
X114689Y13945D01*
X114681Y13951D01*
X114668Y13960D01*
X114650Y13973D01*
X114629Y13990D01*
X114603Y14012D01*
X114577Y14038D01*
X114547Y14065D01*
X114517Y14098D01*
X114485Y14132D01*
X114453Y14173D01*
X114420Y14216D01*
X114390Y14261D01*
X114360Y14313D01*
X114330Y14364D01*
X114304Y14422D01*
X114302Y14427D01*
X114298Y14437D01*
X114291Y14455D01*
X114285Y14476D01*
X114274Y14506D01*
X114263Y14541D01*
X114251Y14579D01*
X114240Y14624D01*
X114227Y14674D01*
X114214Y14726D01*
X114203Y14781D01*
X114195Y14839D01*
X114186Y14902D01*
X114180Y14964D01*
X114175Y15031D01*
X114173Y15097D01*
Y15100D01*
Y15102D01*
Y15115D01*
Y15136D01*
X114175Y15164D01*
X114178Y15196D01*
X114182Y15237D01*
X114186Y15280D01*
X114192Y15330D01*
X114199Y15381D01*
X114210Y15437D01*
X114220Y15493D01*
X114235Y15551D01*
X114253Y15609D01*
X114272Y15667D01*
X114296Y15725D01*
X114321Y15781D01*
X114324Y15785D01*
X114328Y15794D01*
X114337Y15809D01*
X114349Y15828D01*
X114365Y15854D01*
X114384Y15882D01*
X114405Y15912D01*
X114431Y15947D01*
X114459Y15981D01*
X114491Y16018D01*
X114526Y16056D01*
X114565Y16093D01*
X114605Y16129D01*
X114650Y16164D01*
X114698Y16196D01*
X114747Y16226D01*
X114752Y16228D01*
X114760Y16233D01*
X114775Y16241D01*
X114797Y16250D01*
X114822Y16261D01*
X114853Y16274D01*
X114887Y16288D01*
X114928Y16304D01*
X114971Y16317D01*
X115018Y16331D01*
X115068Y16344D01*
X115121Y16355D01*
X115177Y16364D01*
X115235Y16372D01*
X115296Y16377D01*
X115358Y16379D01*
X115375D01*
X115394Y16377D01*
D02*
G37*
G36*
X117841Y13823D02*
X117532D01*
Y15788D01*
X117529Y15785D01*
X117527Y15783D01*
X117521Y15777D01*
X117512Y15770D01*
X117499Y15760D01*
X117486Y15749D01*
X117471Y15736D01*
X117454Y15721D01*
X117411Y15689D01*
X117362Y15654D01*
X117304Y15616D01*
X117239Y15575D01*
X117237Y15573D01*
X117230Y15570D01*
X117222Y15564D01*
X117209Y15558D01*
X117194Y15549D01*
X117175Y15538D01*
X117153Y15527D01*
X117132Y15515D01*
X117080Y15489D01*
X117026Y15463D01*
X116970Y15437D01*
X116917Y15416D01*
Y15714D01*
X116919Y15717D01*
X116927Y15721D01*
X116942Y15727D01*
X116960Y15736D01*
X116983Y15749D01*
X117009Y15762D01*
X117037Y15779D01*
X117069Y15798D01*
X117104Y15818D01*
X117140Y15841D01*
X117215Y15891D01*
X117291Y15947D01*
X117366Y16009D01*
X117368Y16011D01*
X117375Y16018D01*
X117385Y16026D01*
X117398Y16039D01*
X117413Y16054D01*
X117433Y16073D01*
X117452Y16093D01*
X117473Y16116D01*
X117519Y16168D01*
X117564Y16224D01*
X117607Y16284D01*
X117624Y16317D01*
X117641Y16347D01*
X117841D01*
Y13823D01*
D02*
G37*
G36*
X119486Y16344D02*
X119503D01*
X119525Y16342D01*
X119546Y16340D01*
X119572Y16336D01*
X119628Y16327D01*
X119686Y16312D01*
X119748Y16293D01*
X119806Y16265D01*
X119808D01*
X119813Y16261D01*
X119821Y16256D01*
X119832Y16250D01*
X119845Y16241D01*
X119860Y16230D01*
X119894Y16205D01*
X119935Y16170D01*
X119976Y16132D01*
X120019Y16082D01*
X120058Y16028D01*
X120060Y16026D01*
X120062Y16022D01*
X120066Y16013D01*
X120075Y16000D01*
X120081Y15985D01*
X120092Y15968D01*
X120103Y15949D01*
X120114Y15925D01*
X120126Y15899D01*
X120139Y15869D01*
X120152Y15839D01*
X120165Y15807D01*
X120189Y15734D01*
X120212Y15654D01*
Y15652D01*
X120215Y15643D01*
X120219Y15631D01*
X120221Y15613D01*
X120225Y15592D01*
X120232Y15566D01*
X120236Y15534D01*
X120243Y15497D01*
X120247Y15459D01*
X120251Y15414D01*
X120258Y15364D01*
X120262Y15312D01*
X120266Y15254D01*
X120268Y15194D01*
X120271Y15130D01*
Y15061D01*
Y15059D01*
Y15057D01*
Y15050D01*
Y15042D01*
Y15018D01*
X120268Y14988D01*
Y14949D01*
X120266Y14906D01*
X120262Y14859D01*
X120260Y14805D01*
X120253Y14749D01*
X120249Y14691D01*
X120232Y14573D01*
X120221Y14513D01*
X120208Y14455D01*
X120195Y14399D01*
X120178Y14345D01*
Y14343D01*
X120174Y14332D01*
X120169Y14319D01*
X120161Y14300D01*
X120152Y14278D01*
X120139Y14253D01*
X120126Y14222D01*
X120112Y14190D01*
X120073Y14123D01*
X120026Y14055D01*
X119972Y13986D01*
X119939Y13956D01*
X119907Y13926D01*
X119905Y13924D01*
X119899Y13919D01*
X119888Y13913D01*
X119875Y13902D01*
X119858Y13891D01*
X119836Y13881D01*
X119810Y13866D01*
X119782Y13853D01*
X119750Y13840D01*
X119716Y13827D01*
X119679Y13814D01*
X119639Y13803D01*
X119596Y13792D01*
X119550Y13786D01*
X119503Y13782D01*
X119451Y13780D01*
X119436D01*
X119417Y13782D01*
X119391Y13784D01*
X119361Y13788D01*
X119325Y13792D01*
X119286Y13801D01*
X119243Y13812D01*
X119200Y13825D01*
X119153Y13842D01*
X119105Y13863D01*
X119058Y13889D01*
X119011Y13917D01*
X118963Y13951D01*
X118920Y13992D01*
X118879Y14038D01*
X118877Y14042D01*
X118869Y14052D01*
X118856Y14072D01*
X118841Y14098D01*
X118822Y14132D01*
X118802Y14175D01*
X118779Y14224D01*
X118757Y14285D01*
X118733Y14351D01*
X118710Y14427D01*
X118699Y14468D01*
X118690Y14511D01*
X118680Y14556D01*
X118671Y14603D01*
X118662Y14652D01*
X118656Y14704D01*
X118649Y14758D01*
X118643Y14814D01*
X118639Y14872D01*
X118634Y14932D01*
X118632Y14996D01*
Y15061D01*
Y15063D01*
Y15065D01*
Y15072D01*
Y15080D01*
Y15091D01*
Y15104D01*
X118634Y15134D01*
Y15173D01*
X118637Y15216D01*
X118641Y15265D01*
X118643Y15317D01*
X118649Y15373D01*
X118654Y15433D01*
X118671Y15551D01*
X118682Y15611D01*
X118693Y15669D01*
X118708Y15725D01*
X118723Y15779D01*
X118725Y15781D01*
X118727Y15792D01*
X118733Y15805D01*
X118740Y15824D01*
X118751Y15848D01*
X118761Y15874D01*
X118776Y15901D01*
X118791Y15934D01*
X118830Y16000D01*
X118877Y16071D01*
X118931Y16138D01*
X118963Y16170D01*
X118996Y16198D01*
X118998Y16200D01*
X119004Y16205D01*
X119015Y16211D01*
X119028Y16222D01*
X119045Y16233D01*
X119067Y16246D01*
X119092Y16258D01*
X119120Y16274D01*
X119153Y16286D01*
X119187Y16299D01*
X119223Y16312D01*
X119264Y16323D01*
X119307Y16334D01*
X119352Y16340D01*
X119402Y16344D01*
X119451Y16347D01*
X119471D01*
X119486Y16344D01*
D02*
G37*
G36*
X66345Y19683D02*
X66377Y19681D01*
X66418Y19677D01*
X66461Y19672D01*
X66511Y19666D01*
X66562Y19659D01*
X66618Y19648D01*
X66674Y19638D01*
X66732Y19623D01*
X66790Y19605D01*
X66848Y19586D01*
X66906Y19563D01*
X66962Y19537D01*
X66966Y19535D01*
X66975Y19530D01*
X66990Y19522D01*
X67010Y19509D01*
X67035Y19494D01*
X67063Y19474D01*
X67093Y19453D01*
X67128Y19427D01*
X67162Y19399D01*
X67199Y19367D01*
X67237Y19332D01*
X67274Y19294D01*
X67311Y19253D01*
X67345Y19208D01*
X67377Y19161D01*
X67407Y19111D01*
X67409Y19107D01*
X67414Y19098D01*
X67422Y19083D01*
X67431Y19062D01*
X67442Y19036D01*
X67455Y19006D01*
X67470Y18971D01*
X67485Y18930D01*
X67498Y18887D01*
X67513Y18840D01*
X67526Y18791D01*
X67536Y18737D01*
X67545Y18681D01*
X67554Y18623D01*
X67558Y18563D01*
X67560Y18500D01*
Y18483D01*
X67558Y18464D01*
Y18438D01*
X67554Y18406D01*
X67549Y18367D01*
X67543Y18326D01*
X67536Y18281D01*
X67526Y18232D01*
X67513Y18180D01*
X67498Y18128D01*
X67478Y18075D01*
X67457Y18021D01*
X67431Y17969D01*
X67401Y17918D01*
X67366Y17868D01*
X67364Y17866D01*
X67358Y17858D01*
X67347Y17845D01*
X67332Y17825D01*
X67311Y17806D01*
X67287Y17780D01*
X67259Y17754D01*
X67227Y17726D01*
X67190Y17696D01*
X67151Y17666D01*
X67106Y17636D01*
X67059Y17606D01*
X67005Y17578D01*
X66949Y17552D01*
X66891Y17529D01*
X66827Y17507D01*
X66749Y17834D01*
X66751D01*
X66762Y17838D01*
X66775Y17842D01*
X66795Y17851D01*
X66816Y17860D01*
X66844Y17871D01*
X66872Y17883D01*
X66902Y17898D01*
X66969Y17935D01*
X67035Y17978D01*
X67065Y18004D01*
X67096Y18030D01*
X67124Y18060D01*
X67149Y18090D01*
X67151Y18092D01*
X67156Y18098D01*
X67160Y18107D01*
X67169Y18120D01*
X67179Y18135D01*
X67190Y18156D01*
X67201Y18178D01*
X67214Y18204D01*
X67225Y18232D01*
X67235Y18264D01*
X67246Y18298D01*
X67257Y18335D01*
X67265Y18376D01*
X67270Y18417D01*
X67274Y18462D01*
X67276Y18507D01*
Y18535D01*
X67274Y18554D01*
X67272Y18580D01*
X67270Y18608D01*
X67265Y18640D01*
X67259Y18677D01*
X67250Y18713D01*
X67242Y18752D01*
X67231Y18793D01*
X67218Y18834D01*
X67201Y18875D01*
X67181Y18915D01*
X67160Y18954D01*
X67136Y18993D01*
X67134Y18995D01*
X67130Y19001D01*
X67121Y19012D01*
X67111Y19025D01*
X67098Y19040D01*
X67080Y19057D01*
X67059Y19079D01*
X67037Y19100D01*
X67012Y19122D01*
X66984Y19145D01*
X66954Y19167D01*
X66919Y19191D01*
X66885Y19212D01*
X66846Y19231D01*
X66805Y19249D01*
X66762Y19266D01*
X66760D01*
X66751Y19270D01*
X66739Y19272D01*
X66721Y19279D01*
X66700Y19283D01*
X66674Y19289D01*
X66646Y19298D01*
X66614Y19305D01*
X66580Y19311D01*
X66541Y19320D01*
X66502Y19326D01*
X66461Y19330D01*
X66373Y19339D01*
X66281Y19343D01*
X66276D01*
X66266D01*
X66248D01*
X66227Y19341D01*
X66199D01*
X66167Y19339D01*
X66130Y19335D01*
X66089Y19332D01*
X66046Y19326D01*
X66001Y19320D01*
X65909Y19305D01*
X65812Y19281D01*
X65765Y19268D01*
X65719Y19251D01*
X65717Y19249D01*
X65709Y19247D01*
X65696Y19240D01*
X65681Y19234D01*
X65662Y19223D01*
X65638Y19212D01*
X65612Y19197D01*
X65586Y19180D01*
X65556Y19161D01*
X65528Y19139D01*
X65498Y19115D01*
X65468Y19090D01*
X65440Y19062D01*
X65412Y19029D01*
X65386Y18997D01*
X65363Y18960D01*
X65360Y18958D01*
X65358Y18952D01*
X65352Y18941D01*
X65343Y18926D01*
X65335Y18907D01*
X65326Y18885D01*
X65315Y18862D01*
X65305Y18834D01*
X65292Y18801D01*
X65281Y18769D01*
X65272Y18735D01*
X65264Y18696D01*
X65249Y18617D01*
X65246Y18576D01*
X65244Y18533D01*
Y18520D01*
X65246Y18505D01*
Y18485D01*
X65249Y18462D01*
X65253Y18434D01*
X65257Y18404D01*
X65264Y18369D01*
X65272Y18333D01*
X65283Y18296D01*
X65296Y18258D01*
X65313Y18217D01*
X65330Y18178D01*
X65352Y18137D01*
X65378Y18098D01*
X65406Y18062D01*
X65408Y18060D01*
X65414Y18053D01*
X65423Y18043D01*
X65436Y18030D01*
X65453Y18014D01*
X65474Y17995D01*
X65498Y17976D01*
X65526Y17954D01*
X65558Y17933D01*
X65593Y17911D01*
X65631Y17890D01*
X65674Y17868D01*
X65722Y17847D01*
X65771Y17828D01*
X65825Y17812D01*
X65883Y17797D01*
X65799Y17464D01*
X65797D01*
X65795Y17466D01*
X65788D01*
X65782Y17468D01*
X65760Y17475D01*
X65732Y17486D01*
X65698Y17496D01*
X65659Y17511D01*
X65614Y17531D01*
X65569Y17550D01*
X65520Y17576D01*
X65468Y17602D01*
X65416Y17634D01*
X65365Y17668D01*
X65313Y17707D01*
X65264Y17748D01*
X65219Y17793D01*
X65176Y17842D01*
X65173Y17845D01*
X65167Y17855D01*
X65156Y17871D01*
X65141Y17890D01*
X65126Y17918D01*
X65107Y17948D01*
X65087Y17984D01*
X65068Y18027D01*
X65049Y18073D01*
X65029Y18124D01*
X65010Y18178D01*
X64995Y18236D01*
X64980Y18298D01*
X64969Y18363D01*
X64963Y18434D01*
X64961Y18505D01*
Y18522D01*
X64963Y18543D01*
Y18571D01*
X64965Y18606D01*
X64969Y18647D01*
X64973Y18692D01*
X64982Y18739D01*
X64991Y18791D01*
X65001Y18844D01*
X65014Y18900D01*
X65029Y18956D01*
X65049Y19010D01*
X65070Y19066D01*
X65096Y19117D01*
X65124Y19167D01*
X65126Y19169D01*
X65133Y19178D01*
X65141Y19191D01*
X65154Y19208D01*
X65171Y19229D01*
X65193Y19255D01*
X65219Y19281D01*
X65246Y19311D01*
X65279Y19341D01*
X65313Y19373D01*
X65354Y19406D01*
X65397Y19438D01*
X65442Y19468D01*
X65494Y19498D01*
X65545Y19528D01*
X65603Y19554D01*
X65608Y19556D01*
X65618Y19560D01*
X65636Y19567D01*
X65657Y19573D01*
X65687Y19584D01*
X65722Y19595D01*
X65760Y19608D01*
X65806Y19618D01*
X65855Y19631D01*
X65907Y19644D01*
X65962Y19655D01*
X66021Y19664D01*
X66083Y19672D01*
X66145Y19679D01*
X66212Y19683D01*
X66278Y19685D01*
X66281D01*
X66283D01*
X66296D01*
X66317D01*
X66345Y19683D01*
D02*
G37*
G36*
X66715Y17176D02*
X66741Y17174D01*
X66773Y17172D01*
X66812Y17165D01*
X66853Y17159D01*
X66898Y17150D01*
X66945Y17137D01*
X66997Y17124D01*
X67046Y17105D01*
X67098Y17084D01*
X67149Y17058D01*
X67199Y17028D01*
X67248Y16993D01*
X67293Y16955D01*
X67295Y16952D01*
X67304Y16944D01*
X67315Y16931D01*
X67330Y16914D01*
X67347Y16892D01*
X67369Y16864D01*
X67388Y16834D01*
X67412Y16800D01*
X67433Y16761D01*
X67455Y16718D01*
X67474Y16671D01*
X67491Y16621D01*
X67506Y16568D01*
X67517Y16512D01*
X67526Y16452D01*
X67528Y16389D01*
Y16365D01*
X67526Y16348D01*
X67523Y16327D01*
X67521Y16301D01*
X67517Y16273D01*
X67510Y16241D01*
X67504Y16208D01*
X67495Y16172D01*
X67485Y16135D01*
X67472Y16097D01*
X67457Y16058D01*
X67437Y16019D01*
X67418Y15981D01*
X67394Y15942D01*
X67392Y15940D01*
X67388Y15933D01*
X67382Y15923D01*
X67371Y15908D01*
X67356Y15890D01*
X67341Y15871D01*
X67321Y15849D01*
X67298Y15826D01*
X67274Y15802D01*
X67246Y15776D01*
X67214Y15751D01*
X67179Y15725D01*
X67145Y15699D01*
X67104Y15675D01*
X67063Y15654D01*
X67018Y15632D01*
X67016Y15630D01*
X67007Y15628D01*
X66992Y15622D01*
X66973Y15615D01*
X66947Y15609D01*
X66917Y15598D01*
X66881Y15589D01*
X66838Y15579D01*
X66790Y15570D01*
X66739Y15559D01*
X66681Y15551D01*
X66616Y15544D01*
X66547Y15536D01*
X66474Y15531D01*
X66395Y15529D01*
X66311Y15527D01*
X66309D01*
X66304D01*
X66298D01*
X66289D01*
X66278D01*
X66264D01*
X66231Y15529D01*
X66190D01*
X66143Y15533D01*
X66092Y15536D01*
X66033Y15540D01*
X65973Y15546D01*
X65911Y15553D01*
X65784Y15572D01*
X65719Y15583D01*
X65659Y15598D01*
X65599Y15613D01*
X65543Y15632D01*
X65541Y15634D01*
X65530Y15637D01*
X65515Y15643D01*
X65496Y15652D01*
X65472Y15662D01*
X65444Y15677D01*
X65414Y15692D01*
X65382Y15710D01*
X65348Y15731D01*
X65311Y15755D01*
X65275Y15781D01*
X65240Y15809D01*
X65203Y15839D01*
X65171Y15871D01*
X65139Y15908D01*
X65109Y15944D01*
X65107Y15946D01*
X65102Y15953D01*
X65096Y15966D01*
X65085Y15981D01*
X65074Y16000D01*
X65062Y16024D01*
X65049Y16049D01*
X65036Y16082D01*
X65021Y16114D01*
X65008Y16150D01*
X64995Y16191D01*
X64984Y16234D01*
X64973Y16277D01*
X64967Y16325D01*
X64963Y16374D01*
X64961Y16426D01*
Y16439D01*
X64963Y16454D01*
Y16475D01*
X64965Y16499D01*
X64969Y16529D01*
X64973Y16561D01*
X64982Y16596D01*
X64991Y16634D01*
X65001Y16673D01*
X65014Y16712D01*
X65029Y16752D01*
X65049Y16793D01*
X65070Y16832D01*
X65096Y16871D01*
X65124Y16907D01*
X65126Y16909D01*
X65133Y16916D01*
X65141Y16925D01*
X65154Y16937D01*
X65171Y16952D01*
X65191Y16967D01*
X65214Y16987D01*
X65242Y17006D01*
X65275Y17026D01*
X65309Y17045D01*
X65345Y17062D01*
X65386Y17081D01*
X65431Y17097D01*
X65479Y17111D01*
X65530Y17122D01*
X65584Y17131D01*
X65612Y16834D01*
X65610D01*
X65603Y16832D01*
X65593Y16830D01*
X65578Y16828D01*
X65560Y16823D01*
X65541Y16817D01*
X65496Y16802D01*
X65444Y16783D01*
X65395Y16759D01*
X65348Y16729D01*
X65326Y16712D01*
X65307Y16692D01*
Y16690D01*
X65302Y16688D01*
X65298Y16681D01*
X65292Y16673D01*
X65285Y16662D01*
X65277Y16649D01*
X65262Y16617D01*
X65244Y16578D01*
X65229Y16531D01*
X65219Y16479D01*
X65216Y16449D01*
X65214Y16419D01*
Y16406D01*
X65216Y16396D01*
Y16383D01*
X65219Y16370D01*
X65223Y16335D01*
X65229Y16297D01*
X65242Y16256D01*
X65257Y16213D01*
X65279Y16172D01*
Y16170D01*
X65281Y16168D01*
X65292Y16155D01*
X65305Y16135D01*
X65324Y16110D01*
X65350Y16082D01*
X65378Y16054D01*
X65412Y16024D01*
X65451Y15998D01*
X65453D01*
X65455Y15996D01*
X65461Y15991D01*
X65470Y15987D01*
X65481Y15981D01*
X65496Y15974D01*
X65511Y15966D01*
X65528Y15957D01*
X65550Y15948D01*
X65571Y15940D01*
X65621Y15920D01*
X65679Y15901D01*
X65745Y15884D01*
X65747D01*
X65754Y15882D01*
X65765Y15880D01*
X65778Y15877D01*
X65795Y15873D01*
X65814Y15869D01*
X65838Y15865D01*
X65861Y15860D01*
X65889Y15856D01*
X65920Y15852D01*
X65984Y15843D01*
X66053Y15839D01*
X66124Y15837D01*
X66128D01*
X66139D01*
X66158D01*
X66182D01*
X66177Y15841D01*
X66169Y15845D01*
X66160Y15854D01*
X66147Y15862D01*
X66132Y15875D01*
X66100Y15903D01*
X66061Y15940D01*
X66023Y15983D01*
X65982Y16032D01*
X65945Y16090D01*
Y16092D01*
X65941Y16097D01*
X65937Y16105D01*
X65930Y16118D01*
X65924Y16133D01*
X65917Y16150D01*
X65909Y16170D01*
X65900Y16194D01*
X65891Y16217D01*
X65883Y16245D01*
X65870Y16303D01*
X65859Y16368D01*
X65855Y16436D01*
Y16449D01*
X65857Y16466D01*
X65859Y16488D01*
X65861Y16516D01*
X65868Y16546D01*
X65874Y16580D01*
X65883Y16619D01*
X65896Y16660D01*
X65911Y16703D01*
X65928Y16746D01*
X65950Y16789D01*
X65975Y16834D01*
X66005Y16879D01*
X66042Y16922D01*
X66081Y16963D01*
X66083Y16965D01*
X66092Y16972D01*
X66104Y16983D01*
X66122Y16998D01*
X66145Y17013D01*
X66171Y17032D01*
X66203Y17051D01*
X66240Y17071D01*
X66281Y17090D01*
X66326Y17109D01*
X66375Y17129D01*
X66429Y17144D01*
X66485Y17159D01*
X66545Y17170D01*
X66610Y17176D01*
X66678Y17178D01*
X66681D01*
X66683D01*
X66696D01*
X66715Y17176D01*
D02*
G37*
G36*
X37720Y58222D02*
Y57158D01*
X37387D01*
Y58222D01*
X36417Y59671D01*
X36821D01*
X37316Y58912D01*
X37318Y58910D01*
X37322Y58904D01*
X37329Y58891D01*
X37340Y58876D01*
X37352Y58857D01*
X37365Y58835D01*
X37383Y58809D01*
X37400Y58781D01*
X37419Y58749D01*
X37441Y58717D01*
X37484Y58646D01*
X37529Y58569D01*
X37574Y58489D01*
X37576Y58491D01*
X37578Y58498D01*
X37585Y58508D01*
X37593Y58523D01*
X37606Y58543D01*
X37619Y58564D01*
X37634Y58590D01*
X37651Y58618D01*
X37671Y58648D01*
X37692Y58683D01*
X37714Y58719D01*
X37737Y58758D01*
X37791Y58842D01*
X37849Y58932D01*
X38335Y59671D01*
X38722D01*
X37720Y58222D01*
D02*
G37*
G36*
X39763Y59680D02*
X39788D01*
X39819Y59676D01*
X39853Y59671D01*
X39894Y59665D01*
X39935Y59656D01*
X39980Y59646D01*
X40027Y59633D01*
X40074Y59616D01*
X40122Y59596D01*
X40169Y59575D01*
X40214Y59547D01*
X40259Y59517D01*
X40300Y59480D01*
X40302Y59478D01*
X40309Y59472D01*
X40319Y59461D01*
X40335Y59444D01*
X40350Y59424D01*
X40367Y59401D01*
X40386Y59375D01*
X40408Y59343D01*
X40427Y59308D01*
X40446Y59272D01*
X40464Y59231D01*
X40481Y59186D01*
X40494Y59140D01*
X40504Y59091D01*
X40511Y59037D01*
X40513Y58983D01*
Y58981D01*
Y58977D01*
Y58968D01*
Y58958D01*
X40511Y58945D01*
Y58928D01*
X40509Y58910D01*
X40504Y58891D01*
X40498Y58846D01*
X40487Y58794D01*
X40472Y58741D01*
X40451Y58687D01*
Y58685D01*
X40448Y58680D01*
X40444Y58672D01*
X40438Y58661D01*
X40431Y58648D01*
X40423Y58633D01*
X40414Y58614D01*
X40401Y58594D01*
X40373Y58547D01*
X40337Y58495D01*
X40294Y58439D01*
X40244Y58379D01*
X40242Y58377D01*
X40238Y58373D01*
X40229Y58362D01*
X40216Y58349D01*
X40201Y58334D01*
X40182Y58313D01*
X40158Y58291D01*
X40132Y58263D01*
X40100Y58233D01*
X40066Y58201D01*
X40027Y58164D01*
X39984Y58123D01*
X39939Y58083D01*
X39887Y58035D01*
X39832Y57988D01*
X39771Y57937D01*
X39769Y57934D01*
X39758Y57926D01*
X39746Y57915D01*
X39726Y57900D01*
X39705Y57881D01*
X39679Y57859D01*
X39651Y57835D01*
X39623Y57810D01*
X39563Y57758D01*
X39505Y57704D01*
X39477Y57681D01*
X39453Y57659D01*
X39432Y57638D01*
X39414Y57620D01*
X39410Y57616D01*
X39402Y57605D01*
X39386Y57590D01*
X39369Y57569D01*
X39348Y57545D01*
X39326Y57517D01*
X39305Y57487D01*
X39283Y57455D01*
X40517D01*
Y57158D01*
X38855D01*
Y57160D01*
Y57162D01*
Y57169D01*
Y57178D01*
Y57199D01*
X38857Y57227D01*
X38862Y57259D01*
X38868Y57294D01*
X38877Y57332D01*
X38890Y57371D01*
Y57373D01*
X38892Y57380D01*
X38896Y57388D01*
X38903Y57401D01*
X38909Y57416D01*
X38918Y57433D01*
X38928Y57455D01*
X38939Y57476D01*
X38967Y57528D01*
X39004Y57584D01*
X39045Y57644D01*
X39094Y57704D01*
X39096Y57706D01*
X39101Y57713D01*
X39109Y57722D01*
X39120Y57734D01*
X39135Y57749D01*
X39152Y57769D01*
X39174Y57790D01*
X39197Y57814D01*
X39223Y57842D01*
X39253Y57870D01*
X39287Y57902D01*
X39324Y57934D01*
X39363Y57971D01*
X39406Y58007D01*
X39451Y58046D01*
X39498Y58085D01*
X39500D01*
X39503Y58089D01*
X39515Y58100D01*
X39537Y58117D01*
X39565Y58141D01*
X39597Y58169D01*
X39636Y58203D01*
X39677Y58240D01*
X39720Y58278D01*
X39767Y58319D01*
X39812Y58364D01*
X39859Y58407D01*
X39905Y58452D01*
X39945Y58495D01*
X39986Y58539D01*
X40021Y58579D01*
X40051Y58618D01*
X40053Y58620D01*
X40057Y58627D01*
X40064Y58637D01*
X40074Y58652D01*
X40085Y58670D01*
X40096Y58689D01*
X40109Y58713D01*
X40124Y58738D01*
X40150Y58797D01*
X40173Y58859D01*
X40182Y58891D01*
X40188Y58923D01*
X40193Y58958D01*
X40195Y58990D01*
Y58992D01*
Y58999D01*
Y59007D01*
X40193Y59020D01*
X40191Y59037D01*
X40188Y59054D01*
X40184Y59076D01*
X40178Y59097D01*
X40163Y59147D01*
X40152Y59171D01*
X40139Y59198D01*
X40124Y59224D01*
X40107Y59250D01*
X40087Y59276D01*
X40064Y59299D01*
X40062Y59302D01*
X40057Y59306D01*
X40051Y59310D01*
X40040Y59319D01*
X40027Y59330D01*
X40012Y59340D01*
X39993Y59351D01*
X39971Y59364D01*
X39948Y59375D01*
X39922Y59386D01*
X39894Y59396D01*
X39864Y59407D01*
X39832Y59416D01*
X39797Y59420D01*
X39761Y59424D01*
X39722Y59426D01*
X39700D01*
X39685Y59424D01*
X39666Y59422D01*
X39644Y59420D01*
X39621Y59416D01*
X39593Y59409D01*
X39537Y59394D01*
X39507Y59383D01*
X39477Y59368D01*
X39447Y59353D01*
X39419Y59336D01*
X39391Y59315D01*
X39365Y59291D01*
X39363Y59289D01*
X39358Y59285D01*
X39352Y59278D01*
X39343Y59267D01*
X39335Y59252D01*
X39322Y59237D01*
X39311Y59218D01*
X39298Y59194D01*
X39285Y59171D01*
X39275Y59143D01*
X39262Y59113D01*
X39253Y59080D01*
X39244Y59044D01*
X39238Y59007D01*
X39234Y58966D01*
X39232Y58923D01*
X38913Y58956D01*
Y58960D01*
X38916Y58971D01*
X38918Y58990D01*
X38922Y59014D01*
X38928Y59044D01*
X38935Y59078D01*
X38943Y59115D01*
X38956Y59155D01*
X38969Y59198D01*
X38987Y59244D01*
X39006Y59289D01*
X39029Y59334D01*
X39055Y59377D01*
X39085Y59420D01*
X39120Y59459D01*
X39156Y59495D01*
X39158Y59497D01*
X39167Y59504D01*
X39178Y59512D01*
X39195Y59525D01*
X39217Y59538D01*
X39242Y59555D01*
X39272Y59570D01*
X39307Y59590D01*
X39346Y59607D01*
X39389Y59624D01*
X39436Y59639D01*
X39487Y59652D01*
X39541Y59665D01*
X39601Y59674D01*
X39664Y59680D01*
X39728Y59682D01*
X39743D01*
X39763Y59680D01*
D02*
G37*
G36*
X29231Y39195D02*
X29263Y39193D01*
X29304Y39189D01*
X29347Y39184D01*
X29397Y39178D01*
X29448Y39171D01*
X29504Y39160D01*
X29560Y39150D01*
X29618Y39135D01*
X29676Y39118D01*
X29734Y39098D01*
X29792Y39075D01*
X29848Y39049D01*
X29853Y39047D01*
X29861Y39042D01*
X29876Y39034D01*
X29896Y39021D01*
X29921Y39006D01*
X29949Y38986D01*
X29980Y38965D01*
X30014Y38939D01*
X30048Y38911D01*
X30085Y38879D01*
X30123Y38844D01*
X30160Y38806D01*
X30197Y38765D01*
X30231Y38720D01*
X30263Y38673D01*
X30293Y38623D01*
X30296Y38619D01*
X30300Y38610D01*
X30308Y38595D01*
X30317Y38574D01*
X30328Y38548D01*
X30341Y38518D01*
X30356Y38483D01*
X30371Y38442D01*
X30384Y38399D01*
X30399Y38352D01*
X30412Y38303D01*
X30422Y38249D01*
X30431Y38193D01*
X30440Y38135D01*
X30444Y38075D01*
X30446Y38012D01*
Y37995D01*
X30444Y37976D01*
Y37950D01*
X30440Y37918D01*
X30435Y37879D01*
X30429Y37838D01*
X30422Y37793D01*
X30412Y37744D01*
X30399Y37692D01*
X30384Y37641D01*
X30364Y37587D01*
X30343Y37533D01*
X30317Y37481D01*
X30287Y37430D01*
X30253Y37380D01*
X30250Y37378D01*
X30244Y37370D01*
X30233Y37357D01*
X30218Y37337D01*
X30197Y37318D01*
X30173Y37292D01*
X30145Y37266D01*
X30113Y37238D01*
X30076Y37208D01*
X30038Y37178D01*
X29992Y37148D01*
X29945Y37118D01*
X29891Y37090D01*
X29835Y37064D01*
X29777Y37041D01*
X29713Y37019D01*
X29636Y37346D01*
X29638D01*
X29648Y37350D01*
X29661Y37354D01*
X29681Y37363D01*
X29702Y37372D01*
X29730Y37383D01*
X29758Y37395D01*
X29788Y37410D01*
X29855Y37447D01*
X29921Y37490D01*
X29952Y37516D01*
X29982Y37542D01*
X30010Y37572D01*
X30035Y37602D01*
X30038Y37604D01*
X30042Y37610D01*
X30046Y37619D01*
X30055Y37632D01*
X30066Y37647D01*
X30076Y37668D01*
X30087Y37690D01*
X30100Y37716D01*
X30111Y37744D01*
X30121Y37776D01*
X30132Y37810D01*
X30143Y37847D01*
X30152Y37888D01*
X30156Y37929D01*
X30160Y37974D01*
X30162Y38019D01*
Y38047D01*
X30160Y38066D01*
X30158Y38092D01*
X30156Y38120D01*
X30152Y38152D01*
X30145Y38189D01*
X30136Y38225D01*
X30128Y38264D01*
X30117Y38305D01*
X30104Y38346D01*
X30087Y38386D01*
X30068Y38427D01*
X30046Y38466D01*
X30022Y38505D01*
X30020Y38507D01*
X30016Y38513D01*
X30007Y38524D01*
X29997Y38537D01*
X29984Y38552D01*
X29967Y38569D01*
X29945Y38591D01*
X29924Y38612D01*
X29898Y38634D01*
X29870Y38657D01*
X29840Y38679D01*
X29805Y38703D01*
X29771Y38724D01*
X29732Y38743D01*
X29691Y38761D01*
X29648Y38778D01*
X29646D01*
X29638Y38782D01*
X29625Y38784D01*
X29607Y38791D01*
X29586Y38795D01*
X29560Y38802D01*
X29532Y38810D01*
X29500Y38816D01*
X29466Y38823D01*
X29427Y38832D01*
X29388Y38838D01*
X29347Y38842D01*
X29259Y38851D01*
X29167Y38855D01*
X29162D01*
X29152D01*
X29135D01*
X29113Y38853D01*
X29085D01*
X29053Y38851D01*
X29016Y38847D01*
X28975Y38844D01*
X28932Y38838D01*
X28887Y38832D01*
X28795Y38816D01*
X28698Y38793D01*
X28651Y38780D01*
X28606Y38763D01*
X28604Y38761D01*
X28595Y38759D01*
X28582Y38752D01*
X28567Y38746D01*
X28548Y38735D01*
X28524Y38724D01*
X28498Y38709D01*
X28472Y38692D01*
X28442Y38673D01*
X28414Y38651D01*
X28384Y38627D01*
X28354Y38601D01*
X28326Y38574D01*
X28298Y38541D01*
X28272Y38509D01*
X28249Y38473D01*
X28247Y38470D01*
X28244Y38464D01*
X28238Y38453D01*
X28229Y38438D01*
X28221Y38419D01*
X28212Y38397D01*
X28201Y38374D01*
X28191Y38346D01*
X28178Y38313D01*
X28167Y38281D01*
X28158Y38247D01*
X28150Y38208D01*
X28135Y38129D01*
X28133Y38088D01*
X28130Y38045D01*
Y38032D01*
X28133Y38017D01*
Y37997D01*
X28135Y37974D01*
X28139Y37946D01*
X28143Y37916D01*
X28150Y37881D01*
X28158Y37845D01*
X28169Y37808D01*
X28182Y37769D01*
X28199Y37729D01*
X28216Y37690D01*
X28238Y37649D01*
X28264Y37610D01*
X28292Y37574D01*
X28294Y37572D01*
X28300Y37565D01*
X28309Y37554D01*
X28322Y37542D01*
X28339Y37527D01*
X28361Y37507D01*
X28384Y37488D01*
X28412Y37466D01*
X28444Y37445D01*
X28479Y37423D01*
X28517Y37402D01*
X28561Y37380D01*
X28608Y37359D01*
X28657Y37339D01*
X28711Y37324D01*
X28769Y37309D01*
X28685Y36976D01*
X28683D01*
X28681Y36978D01*
X28674D01*
X28668Y36980D01*
X28646Y36987D01*
X28618Y36998D01*
X28584Y37008D01*
X28545Y37023D01*
X28500Y37043D01*
X28455Y37062D01*
X28406Y37088D01*
X28354Y37114D01*
X28302Y37146D01*
X28251Y37180D01*
X28199Y37219D01*
X28150Y37260D01*
X28105Y37305D01*
X28062Y37354D01*
X28060Y37357D01*
X28053Y37367D01*
X28042Y37383D01*
X28027Y37402D01*
X28012Y37430D01*
X27993Y37460D01*
X27973Y37496D01*
X27954Y37539D01*
X27935Y37585D01*
X27915Y37636D01*
X27896Y37690D01*
X27881Y37748D01*
X27866Y37810D01*
X27855Y37875D01*
X27849Y37946D01*
X27847Y38017D01*
Y38034D01*
X27849Y38055D01*
Y38083D01*
X27851Y38118D01*
X27855Y38159D01*
X27860Y38204D01*
X27868Y38251D01*
X27877Y38303D01*
X27887Y38356D01*
X27900Y38412D01*
X27915Y38468D01*
X27935Y38522D01*
X27956Y38578D01*
X27982Y38629D01*
X28010Y38679D01*
X28012Y38681D01*
X28019Y38690D01*
X28027Y38703D01*
X28040Y38720D01*
X28057Y38741D01*
X28079Y38767D01*
X28105Y38793D01*
X28133Y38823D01*
X28165Y38853D01*
X28199Y38885D01*
X28240Y38918D01*
X28283Y38950D01*
X28328Y38980D01*
X28380Y39010D01*
X28431Y39040D01*
X28490Y39066D01*
X28494Y39068D01*
X28505Y39072D01*
X28522Y39079D01*
X28543Y39085D01*
X28573Y39096D01*
X28608Y39107D01*
X28646Y39120D01*
X28692Y39130D01*
X28741Y39143D01*
X28793Y39156D01*
X28849Y39167D01*
X28907Y39176D01*
X28969Y39184D01*
X29031Y39191D01*
X29098Y39195D01*
X29165Y39197D01*
X29167D01*
X29169D01*
X29182D01*
X29203D01*
X29231Y39195D01*
D02*
G37*
G36*
X28576Y36366D02*
X28573D01*
X28565Y36363D01*
X28552Y36361D01*
X28537Y36359D01*
X28517Y36353D01*
X28494Y36348D01*
X28468Y36340D01*
X28442Y36331D01*
X28384Y36310D01*
X28324Y36282D01*
X28268Y36245D01*
X28242Y36224D01*
X28219Y36200D01*
X28216Y36198D01*
X28214Y36193D01*
X28208Y36187D01*
X28199Y36176D01*
X28191Y36163D01*
X28182Y36148D01*
X28171Y36131D01*
X28161Y36112D01*
X28148Y36088D01*
X28137Y36064D01*
X28120Y36011D01*
X28105Y35951D01*
X28102Y35918D01*
X28100Y35884D01*
Y35873D01*
X28102Y35862D01*
Y35845D01*
X28105Y35826D01*
X28109Y35804D01*
X28115Y35779D01*
X28122Y35753D01*
X28130Y35723D01*
X28141Y35693D01*
X28154Y35660D01*
X28171Y35628D01*
X28191Y35598D01*
X28212Y35566D01*
X28238Y35536D01*
X28268Y35506D01*
X28270Y35503D01*
X28277Y35499D01*
X28285Y35491D01*
X28298Y35482D01*
X28315Y35469D01*
X28337Y35456D01*
X28361Y35443D01*
X28386Y35428D01*
X28416Y35413D01*
X28451Y35400D01*
X28487Y35387D01*
X28526Y35374D01*
X28569Y35366D01*
X28614Y35357D01*
X28662Y35353D01*
X28713Y35351D01*
X28715D01*
X28724D01*
X28739D01*
X28756Y35353D01*
X28780Y35355D01*
X28806Y35359D01*
X28833Y35364D01*
X28864Y35370D01*
X28898Y35377D01*
X28930Y35387D01*
X28967Y35398D01*
X29001Y35413D01*
X29036Y35430D01*
X29068Y35450D01*
X29100Y35473D01*
X29130Y35499D01*
X29132Y35501D01*
X29137Y35506D01*
X29145Y35514D01*
X29154Y35525D01*
X29167Y35540D01*
X29180Y35559D01*
X29193Y35579D01*
X29208Y35602D01*
X29223Y35630D01*
X29236Y35658D01*
X29248Y35690D01*
X29261Y35725D01*
X29270Y35763D01*
X29279Y35802D01*
X29283Y35843D01*
X29285Y35888D01*
Y35914D01*
X29283Y35927D01*
X29281Y35942D01*
X29276Y35978D01*
X29268Y36019D01*
X29257Y36067D01*
X29240Y36112D01*
X29216Y36159D01*
Y36161D01*
X29214Y36163D01*
X29210Y36170D01*
X29203Y36178D01*
X29188Y36200D01*
X29169Y36226D01*
X29143Y36256D01*
X29113Y36286D01*
X29079Y36316D01*
X29040Y36344D01*
X29079Y36634D01*
X30371Y36391D01*
Y35142D01*
X30076D01*
Y36146D01*
X29399Y36282D01*
X29401Y36279D01*
X29405Y36271D01*
X29414Y36258D01*
X29425Y36243D01*
X29436Y36222D01*
X29448Y36196D01*
X29463Y36168D01*
X29478Y36138D01*
X29494Y36103D01*
X29509Y36064D01*
X29522Y36026D01*
X29532Y35985D01*
X29543Y35942D01*
X29552Y35897D01*
X29556Y35852D01*
X29558Y35807D01*
Y35792D01*
X29556Y35774D01*
X29554Y35751D01*
X29552Y35723D01*
X29545Y35690D01*
X29539Y35654D01*
X29530Y35613D01*
X29517Y35572D01*
X29502Y35527D01*
X29483Y35480D01*
X29461Y35435D01*
X29436Y35387D01*
X29403Y35340D01*
X29369Y35295D01*
X29328Y35252D01*
X29326Y35250D01*
X29317Y35241D01*
X29304Y35230D01*
X29287Y35215D01*
X29263Y35198D01*
X29238Y35179D01*
X29206Y35159D01*
X29169Y35138D01*
X29128Y35116D01*
X29085Y35097D01*
X29036Y35078D01*
X28984Y35061D01*
X28928Y35045D01*
X28870Y35035D01*
X28808Y35026D01*
X28741Y35024D01*
X28737D01*
X28726D01*
X28709Y35026D01*
X28683D01*
X28655Y35030D01*
X28621Y35035D01*
X28582Y35041D01*
X28539Y35050D01*
X28494Y35061D01*
X28446Y35073D01*
X28399Y35088D01*
X28348Y35108D01*
X28298Y35131D01*
X28249Y35157D01*
X28199Y35190D01*
X28152Y35224D01*
X28148Y35226D01*
X28139Y35235D01*
X28124Y35250D01*
X28105Y35269D01*
X28081Y35293D01*
X28055Y35323D01*
X28027Y35357D01*
X27999Y35396D01*
X27971Y35441D01*
X27943Y35491D01*
X27918Y35544D01*
X27894Y35604D01*
X27875Y35667D01*
X27860Y35736D01*
X27851Y35807D01*
X27847Y35884D01*
Y35899D01*
X27849Y35916D01*
Y35940D01*
X27853Y35970D01*
X27857Y36004D01*
X27862Y36041D01*
X27870Y36082D01*
X27881Y36125D01*
X27894Y36170D01*
X27909Y36217D01*
X27928Y36265D01*
X27950Y36310D01*
X27976Y36357D01*
X28004Y36400D01*
X28038Y36443D01*
X28040Y36445D01*
X28047Y36452D01*
X28057Y36462D01*
X28072Y36477D01*
X28092Y36494D01*
X28115Y36514D01*
X28143Y36533D01*
X28174Y36555D01*
X28208Y36576D01*
X28247Y36598D01*
X28287Y36619D01*
X28335Y36639D01*
X28382Y36656D01*
X28434Y36671D01*
X28490Y36682D01*
X28548Y36690D01*
X28576Y36366D01*
D02*
G37*
G36*
X44979Y39195D02*
X45012Y39193D01*
X45052Y39189D01*
X45095Y39184D01*
X45145Y39178D01*
X45197Y39171D01*
X45252Y39160D01*
X45308Y39150D01*
X45366Y39135D01*
X45424Y39118D01*
X45482Y39098D01*
X45540Y39075D01*
X45596Y39049D01*
X45601Y39047D01*
X45609Y39042D01*
X45624Y39034D01*
X45644Y39021D01*
X45669Y39006D01*
X45697Y38986D01*
X45728Y38965D01*
X45762Y38939D01*
X45796Y38911D01*
X45833Y38879D01*
X45872Y38844D01*
X45908Y38806D01*
X45945Y38765D01*
X45979Y38720D01*
X46011Y38673D01*
X46041Y38623D01*
X46044Y38619D01*
X46048Y38610D01*
X46057Y38595D01*
X46065Y38574D01*
X46076Y38548D01*
X46089Y38518D01*
X46104Y38483D01*
X46119Y38442D01*
X46132Y38399D01*
X46147Y38352D01*
X46160Y38303D01*
X46170Y38249D01*
X46179Y38193D01*
X46188Y38135D01*
X46192Y38075D01*
X46194Y38012D01*
Y37995D01*
X46192Y37976D01*
Y37950D01*
X46188Y37918D01*
X46183Y37879D01*
X46177Y37838D01*
X46170Y37793D01*
X46160Y37744D01*
X46147Y37692D01*
X46132Y37641D01*
X46112Y37587D01*
X46091Y37533D01*
X46065Y37481D01*
X46035Y37430D01*
X46001Y37380D01*
X45998Y37378D01*
X45992Y37370D01*
X45981Y37357D01*
X45966Y37337D01*
X45945Y37318D01*
X45921Y37292D01*
X45893Y37266D01*
X45861Y37238D01*
X45824Y37208D01*
X45786Y37178D01*
X45740Y37148D01*
X45693Y37118D01*
X45639Y37090D01*
X45584Y37064D01*
X45525Y37041D01*
X45461Y37019D01*
X45384Y37346D01*
X45386D01*
X45396Y37350D01*
X45409Y37354D01*
X45429Y37363D01*
X45450Y37372D01*
X45478Y37383D01*
X45506Y37395D01*
X45536Y37410D01*
X45603Y37447D01*
X45669Y37490D01*
X45700Y37516D01*
X45730Y37542D01*
X45758Y37572D01*
X45783Y37602D01*
X45786Y37604D01*
X45790Y37610D01*
X45794Y37619D01*
X45803Y37632D01*
X45814Y37647D01*
X45824Y37668D01*
X45835Y37690D01*
X45848Y37716D01*
X45859Y37744D01*
X45869Y37776D01*
X45880Y37810D01*
X45891Y37847D01*
X45900Y37888D01*
X45904Y37929D01*
X45908Y37974D01*
X45910Y38019D01*
Y38047D01*
X45908Y38066D01*
X45906Y38092D01*
X45904Y38120D01*
X45900Y38152D01*
X45893Y38189D01*
X45884Y38225D01*
X45876Y38264D01*
X45865Y38305D01*
X45852Y38346D01*
X45835Y38386D01*
X45816Y38427D01*
X45794Y38466D01*
X45770Y38505D01*
X45768Y38507D01*
X45764Y38513D01*
X45755Y38524D01*
X45745Y38537D01*
X45732Y38552D01*
X45715Y38569D01*
X45693Y38591D01*
X45672Y38612D01*
X45646Y38634D01*
X45618Y38657D01*
X45588Y38679D01*
X45553Y38703D01*
X45519Y38724D01*
X45480Y38743D01*
X45439Y38761D01*
X45396Y38778D01*
X45394D01*
X45386Y38782D01*
X45373Y38784D01*
X45356Y38791D01*
X45334Y38795D01*
X45308Y38802D01*
X45280Y38810D01*
X45248Y38816D01*
X45214Y38823D01*
X45175Y38832D01*
X45136Y38838D01*
X45095Y38842D01*
X45007Y38851D01*
X44915Y38855D01*
X44910D01*
X44900D01*
X44883D01*
X44861Y38853D01*
X44833D01*
X44801Y38851D01*
X44764Y38847D01*
X44723Y38844D01*
X44681Y38838D01*
X44635Y38832D01*
X44543Y38816D01*
X44446Y38793D01*
X44399Y38780D01*
X44354Y38763D01*
X44352Y38761D01*
X44343Y38759D01*
X44330Y38752D01*
X44315Y38746D01*
X44296Y38735D01*
X44272Y38724D01*
X44246Y38709D01*
X44220Y38692D01*
X44190Y38673D01*
X44162Y38651D01*
X44132Y38627D01*
X44102Y38601D01*
X44074Y38574D01*
X44046Y38541D01*
X44020Y38509D01*
X43997Y38473D01*
X43995Y38470D01*
X43992Y38464D01*
X43986Y38453D01*
X43977Y38438D01*
X43969Y38419D01*
X43960Y38397D01*
X43949Y38374D01*
X43939Y38346D01*
X43926Y38313D01*
X43915Y38281D01*
X43907Y38247D01*
X43898Y38208D01*
X43883Y38129D01*
X43881Y38088D01*
X43878Y38045D01*
Y38032D01*
X43881Y38017D01*
Y37997D01*
X43883Y37974D01*
X43887Y37946D01*
X43891Y37916D01*
X43898Y37881D01*
X43907Y37845D01*
X43917Y37808D01*
X43930Y37769D01*
X43947Y37729D01*
X43964Y37690D01*
X43986Y37649D01*
X44012Y37610D01*
X44040Y37574D01*
X44042Y37572D01*
X44048Y37565D01*
X44057Y37554D01*
X44070Y37542D01*
X44087Y37527D01*
X44109Y37507D01*
X44132Y37488D01*
X44160Y37466D01*
X44192Y37445D01*
X44227Y37423D01*
X44265Y37402D01*
X44309Y37380D01*
X44356Y37359D01*
X44405Y37339D01*
X44459Y37324D01*
X44517Y37309D01*
X44433Y36976D01*
X44431D01*
X44429Y36978D01*
X44423D01*
X44416Y36980D01*
X44394Y36987D01*
X44367Y36998D01*
X44332Y37008D01*
X44293Y37023D01*
X44248Y37043D01*
X44203Y37062D01*
X44154Y37088D01*
X44102Y37114D01*
X44050Y37146D01*
X43999Y37180D01*
X43947Y37219D01*
X43898Y37260D01*
X43853Y37305D01*
X43810Y37354D01*
X43808Y37357D01*
X43801Y37367D01*
X43790Y37383D01*
X43775Y37402D01*
X43760Y37430D01*
X43741Y37460D01*
X43722Y37496D01*
X43702Y37539D01*
X43683Y37585D01*
X43663Y37636D01*
X43644Y37690D01*
X43629Y37748D01*
X43614Y37810D01*
X43603Y37875D01*
X43597Y37946D01*
X43595Y38017D01*
Y38034D01*
X43597Y38055D01*
Y38083D01*
X43599Y38118D01*
X43603Y38159D01*
X43608Y38204D01*
X43616Y38251D01*
X43625Y38303D01*
X43636Y38356D01*
X43648Y38412D01*
X43663Y38468D01*
X43683Y38522D01*
X43704Y38578D01*
X43730Y38629D01*
X43758Y38679D01*
X43760Y38681D01*
X43767Y38690D01*
X43775Y38703D01*
X43788Y38720D01*
X43805Y38741D01*
X43827Y38767D01*
X43853Y38793D01*
X43881Y38823D01*
X43913Y38853D01*
X43947Y38885D01*
X43988Y38918D01*
X44031Y38950D01*
X44076Y38980D01*
X44128Y39010D01*
X44179Y39040D01*
X44238Y39066D01*
X44242Y39068D01*
X44253Y39072D01*
X44270Y39079D01*
X44291Y39085D01*
X44321Y39096D01*
X44356Y39107D01*
X44394Y39120D01*
X44440Y39130D01*
X44489Y39143D01*
X44541Y39156D01*
X44597Y39167D01*
X44655Y39176D01*
X44717Y39184D01*
X44779Y39191D01*
X44846Y39195D01*
X44913Y39197D01*
X44915D01*
X44917D01*
X44930D01*
X44951D01*
X44979Y39195D01*
D02*
G37*
G36*
X46151Y35645D02*
Y35394D01*
X44524D01*
Y35054D01*
X44240D01*
Y35394D01*
X43638D01*
Y35703D01*
X44240D01*
Y36791D01*
X44524D01*
X46151Y35645D01*
D02*
G37*
G36*
X75040Y80094D02*
X75066D01*
X75098Y80090D01*
X75137Y80086D01*
X75178Y80080D01*
X75223Y80073D01*
X75272Y80062D01*
X75324Y80049D01*
X75375Y80034D01*
X75429Y80015D01*
X75483Y79993D01*
X75535Y79968D01*
X75586Y79938D01*
X75636Y79903D01*
X75638Y79901D01*
X75646Y79895D01*
X75659Y79884D01*
X75679Y79869D01*
X75698Y79847D01*
X75724Y79824D01*
X75750Y79796D01*
X75778Y79763D01*
X75808Y79727D01*
X75838Y79688D01*
X75868Y79643D01*
X75898Y79596D01*
X75926Y79542D01*
X75952Y79486D01*
X75975Y79428D01*
X75997Y79364D01*
X75670Y79286D01*
Y79288D01*
X75666Y79299D01*
X75661Y79312D01*
X75653Y79331D01*
X75644Y79353D01*
X75634Y79381D01*
X75621Y79409D01*
X75606Y79439D01*
X75569Y79505D01*
X75526Y79572D01*
X75500Y79602D01*
X75474Y79632D01*
X75444Y79660D01*
X75414Y79686D01*
X75412Y79688D01*
X75406Y79693D01*
X75397Y79697D01*
X75384Y79705D01*
X75369Y79716D01*
X75348Y79727D01*
X75326Y79738D01*
X75300Y79751D01*
X75272Y79761D01*
X75240Y79772D01*
X75206Y79783D01*
X75169Y79794D01*
X75128Y79802D01*
X75087Y79806D01*
X75042Y79811D01*
X74997Y79813D01*
X74969D01*
X74950Y79811D01*
X74924Y79809D01*
X74896Y79806D01*
X74864Y79802D01*
X74827Y79796D01*
X74791Y79787D01*
X74752Y79778D01*
X74711Y79768D01*
X74670Y79755D01*
X74629Y79738D01*
X74589Y79718D01*
X74550Y79697D01*
X74511Y79673D01*
X74509Y79671D01*
X74503Y79667D01*
X74492Y79658D01*
X74479Y79647D01*
X74464Y79634D01*
X74447Y79617D01*
X74425Y79596D01*
X74404Y79574D01*
X74382Y79548D01*
X74359Y79520D01*
X74337Y79490D01*
X74313Y79456D01*
X74292Y79422D01*
X74273Y79383D01*
X74255Y79342D01*
X74238Y79299D01*
Y79297D01*
X74234Y79288D01*
X74232Y79275D01*
X74225Y79258D01*
X74221Y79237D01*
X74215Y79211D01*
X74206Y79183D01*
X74199Y79151D01*
X74193Y79116D01*
X74184Y79078D01*
X74178Y79039D01*
X74174Y78998D01*
X74165Y78910D01*
X74161Y78817D01*
Y78813D01*
Y78802D01*
Y78785D01*
X74163Y78764D01*
Y78736D01*
X74165Y78703D01*
X74169Y78667D01*
X74172Y78626D01*
X74178Y78583D01*
X74184Y78538D01*
X74199Y78446D01*
X74223Y78349D01*
X74236Y78301D01*
X74253Y78256D01*
X74255Y78254D01*
X74257Y78246D01*
X74264Y78233D01*
X74270Y78218D01*
X74281Y78198D01*
X74292Y78175D01*
X74307Y78149D01*
X74324Y78123D01*
X74344Y78093D01*
X74365Y78065D01*
X74389Y78035D01*
X74414Y78005D01*
X74442Y77977D01*
X74475Y77949D01*
X74507Y77923D01*
X74543Y77899D01*
X74546Y77897D01*
X74552Y77895D01*
X74563Y77889D01*
X74578Y77880D01*
X74597Y77871D01*
X74619Y77863D01*
X74642Y77852D01*
X74670Y77841D01*
X74703Y77828D01*
X74735Y77818D01*
X74769Y77809D01*
X74808Y77801D01*
X74888Y77785D01*
X74928Y77783D01*
X74971Y77781D01*
X74984D01*
X74999Y77783D01*
X75019D01*
X75042Y77785D01*
X75070Y77790D01*
X75100Y77794D01*
X75135Y77801D01*
X75171Y77809D01*
X75208Y77820D01*
X75247Y77833D01*
X75287Y77850D01*
X75326Y77867D01*
X75367Y77889D01*
X75406Y77914D01*
X75442Y77942D01*
X75444Y77944D01*
X75451Y77951D01*
X75462Y77960D01*
X75474Y77973D01*
X75489Y77990D01*
X75509Y78011D01*
X75528Y78035D01*
X75550Y78063D01*
X75571Y78095D01*
X75593Y78129D01*
X75614Y78168D01*
X75636Y78211D01*
X75657Y78258D01*
X75677Y78308D01*
X75692Y78362D01*
X75707Y78420D01*
X76040Y78336D01*
Y78334D01*
X76038Y78332D01*
Y78325D01*
X76036Y78319D01*
X76029Y78297D01*
X76018Y78269D01*
X76008Y78235D01*
X75993Y78196D01*
X75973Y78151D01*
X75954Y78106D01*
X75928Y78056D01*
X75902Y78005D01*
X75870Y77953D01*
X75836Y77902D01*
X75797Y77850D01*
X75756Y77801D01*
X75711Y77755D01*
X75661Y77712D01*
X75659Y77710D01*
X75649Y77704D01*
X75634Y77693D01*
X75614Y77678D01*
X75586Y77663D01*
X75556Y77644D01*
X75520Y77624D01*
X75477Y77605D01*
X75431Y77586D01*
X75380Y77566D01*
X75326Y77547D01*
X75268Y77532D01*
X75206Y77517D01*
X75141Y77506D01*
X75070Y77500D01*
X74999Y77497D01*
X74982D01*
X74961Y77500D01*
X74933D01*
X74898Y77502D01*
X74857Y77506D01*
X74812Y77510D01*
X74765Y77519D01*
X74713Y77527D01*
X74660Y77538D01*
X74604Y77551D01*
X74548Y77566D01*
X74494Y77586D01*
X74438Y77607D01*
X74387Y77633D01*
X74337Y77661D01*
X74335Y77663D01*
X74326Y77669D01*
X74313Y77678D01*
X74296Y77691D01*
X74275Y77708D01*
X74249Y77729D01*
X74223Y77755D01*
X74193Y77783D01*
X74163Y77816D01*
X74131Y77850D01*
X74098Y77891D01*
X74066Y77934D01*
X74036Y77979D01*
X74006Y78031D01*
X73976Y78082D01*
X73950Y78140D01*
X73948Y78145D01*
X73944Y78155D01*
X73937Y78172D01*
X73931Y78194D01*
X73920Y78224D01*
X73909Y78258D01*
X73896Y78297D01*
X73886Y78342D01*
X73873Y78392D01*
X73860Y78443D01*
X73849Y78499D01*
X73840Y78557D01*
X73832Y78620D01*
X73825Y78682D01*
X73821Y78749D01*
X73819Y78815D01*
Y78817D01*
Y78820D01*
Y78833D01*
Y78854D01*
X73821Y78882D01*
X73823Y78914D01*
X73827Y78955D01*
X73832Y78998D01*
X73838Y79048D01*
X73845Y79099D01*
X73856Y79155D01*
X73866Y79211D01*
X73881Y79269D01*
X73899Y79327D01*
X73918Y79385D01*
X73941Y79443D01*
X73967Y79499D01*
X73969Y79503D01*
X73974Y79512D01*
X73982Y79527D01*
X73995Y79546D01*
X74010Y79572D01*
X74030Y79600D01*
X74051Y79630D01*
X74077Y79664D01*
X74105Y79699D01*
X74137Y79735D01*
X74172Y79774D01*
X74210Y79811D01*
X74251Y79847D01*
X74296Y79882D01*
X74344Y79914D01*
X74393Y79944D01*
X74397Y79946D01*
X74406Y79950D01*
X74421Y79959D01*
X74442Y79968D01*
X74468Y79978D01*
X74498Y79991D01*
X74533Y80006D01*
X74574Y80021D01*
X74617Y80034D01*
X74664Y80049D01*
X74713Y80062D01*
X74767Y80073D01*
X74823Y80082D01*
X74881Y80090D01*
X74941Y80094D01*
X75004Y80097D01*
X75021D01*
X75040Y80094D01*
D02*
G37*
G36*
X89409Y79400D02*
X89424D01*
X89443Y79398D01*
X89464Y79396D01*
X89512Y79387D01*
X89561Y79376D01*
X89615Y79361D01*
X89667Y79342D01*
X89669D01*
X89673Y79340D01*
X89679Y79336D01*
X89690Y79331D01*
X89714Y79318D01*
X89744Y79299D01*
X89778Y79277D01*
X89813Y79250D01*
X89845Y79220D01*
X89873Y79185D01*
X89875Y79181D01*
X89884Y79168D01*
X89897Y79149D01*
X89912Y79121D01*
X89927Y79088D01*
X89944Y79050D01*
X89957Y79007D01*
X89970Y78959D01*
Y78955D01*
X89972Y78951D01*
Y78942D01*
X89974Y78934D01*
X89976Y78921D01*
Y78906D01*
X89978Y78891D01*
X89981Y78871D01*
X89983Y78847D01*
Y78824D01*
X89985Y78796D01*
Y78766D01*
X89987Y78734D01*
Y78697D01*
Y78658D01*
Y77540D01*
X89677D01*
Y78648D01*
Y78650D01*
Y78656D01*
Y78665D01*
Y78678D01*
Y78695D01*
X89675Y78712D01*
X89673Y78753D01*
X89669Y78800D01*
X89662Y78845D01*
X89654Y78891D01*
X89647Y78910D01*
X89641Y78929D01*
Y78931D01*
X89639Y78934D01*
X89634Y78944D01*
X89624Y78961D01*
X89611Y78983D01*
X89593Y79007D01*
X89572Y79032D01*
X89544Y79058D01*
X89512Y79080D01*
X89508Y79082D01*
X89497Y79088D01*
X89477Y79097D01*
X89452Y79108D01*
X89419Y79118D01*
X89385Y79127D01*
X89344Y79133D01*
X89299Y79136D01*
X89280D01*
X89267Y79133D01*
X89249Y79131D01*
X89228Y79129D01*
X89206Y79125D01*
X89183Y79121D01*
X89129Y79106D01*
X89101Y79095D01*
X89073Y79082D01*
X89043Y79067D01*
X89015Y79052D01*
X88987Y79030D01*
X88959Y79009D01*
X88957Y79007D01*
X88953Y79002D01*
X88946Y78996D01*
X88938Y78983D01*
X88927Y78970D01*
X88914Y78951D01*
X88901Y78929D01*
X88888Y78903D01*
X88875Y78873D01*
X88863Y78839D01*
X88850Y78800D01*
X88839Y78755D01*
X88830Y78708D01*
X88824Y78654D01*
X88819Y78596D01*
X88817Y78534D01*
Y77540D01*
X88508D01*
Y79361D01*
X88787D01*
Y79101D01*
X88789Y79106D01*
X88796Y79114D01*
X88809Y79129D01*
X88824Y79149D01*
X88845Y79172D01*
X88871Y79196D01*
X88901Y79224D01*
X88936Y79252D01*
X88974Y79280D01*
X89017Y79308D01*
X89065Y79333D01*
X89116Y79355D01*
X89172Y79374D01*
X89232Y79389D01*
X89297Y79398D01*
X89366Y79402D01*
X89394D01*
X89409Y79400D01*
D02*
G37*
G36*
X86080D02*
X86093D01*
X86111Y79398D01*
X86130Y79394D01*
X86151Y79389D01*
X86199Y79379D01*
X86252Y79359D01*
X86310Y79336D01*
X86340Y79318D01*
X86371Y79301D01*
X86261Y79017D01*
X86259D01*
X86257Y79019D01*
X86250Y79024D01*
X86242Y79028D01*
X86220Y79039D01*
X86192Y79052D01*
X86158Y79062D01*
X86119Y79073D01*
X86078Y79082D01*
X86037Y79084D01*
X86020D01*
X86001Y79082D01*
X85977Y79075D01*
X85949Y79069D01*
X85917Y79058D01*
X85887Y79043D01*
X85855Y79022D01*
X85850Y79019D01*
X85842Y79011D01*
X85827Y78998D01*
X85812Y78979D01*
X85792Y78955D01*
X85773Y78925D01*
X85756Y78893D01*
X85741Y78854D01*
Y78852D01*
X85738Y78847D01*
X85736Y78837D01*
X85732Y78826D01*
X85730Y78809D01*
X85726Y78792D01*
X85721Y78770D01*
X85717Y78746D01*
X85711Y78721D01*
X85706Y78693D01*
X85700Y78632D01*
X85693Y78564D01*
X85691Y78493D01*
Y77540D01*
X85382D01*
Y79361D01*
X85661D01*
Y79084D01*
X85663Y79086D01*
X85665Y79093D01*
X85672Y79103D01*
X85678Y79116D01*
X85689Y79131D01*
X85700Y79149D01*
X85726Y79189D01*
X85756Y79232D01*
X85788Y79273D01*
X85820Y79312D01*
X85837Y79327D01*
X85855Y79340D01*
X85859Y79342D01*
X85870Y79351D01*
X85889Y79359D01*
X85913Y79372D01*
X85943Y79383D01*
X85977Y79394D01*
X86014Y79400D01*
X86052Y79402D01*
X86067D01*
X86080Y79400D01*
D02*
G37*
G36*
X91111D02*
X91133D01*
X91159Y79398D01*
X91185Y79394D01*
X91242Y79387D01*
X91305Y79376D01*
X91369Y79361D01*
X91432Y79340D01*
X91434D01*
X91438Y79338D01*
X91447Y79333D01*
X91457Y79329D01*
X91473Y79323D01*
X91488Y79314D01*
X91524Y79295D01*
X91563Y79271D01*
X91602Y79243D01*
X91640Y79209D01*
X91672Y79172D01*
Y79170D01*
X91677Y79168D01*
X91679Y79161D01*
X91685Y79153D01*
X91692Y79142D01*
X91698Y79129D01*
X91707Y79114D01*
X91716Y79097D01*
X91733Y79058D01*
X91750Y79009D01*
X91767Y78953D01*
X91780Y78891D01*
X91479Y78850D01*
Y78852D01*
Y78856D01*
X91477Y78863D01*
X91475Y78873D01*
X91466Y78899D01*
X91455Y78929D01*
X91440Y78964D01*
X91419Y79000D01*
X91393Y79037D01*
X91359Y79069D01*
X91356D01*
X91354Y79073D01*
X91348Y79075D01*
X91341Y79082D01*
X91331Y79088D01*
X91318Y79095D01*
X91303Y79101D01*
X91288Y79110D01*
X91247Y79123D01*
X91199Y79136D01*
X91144Y79144D01*
X91079Y79149D01*
X91045D01*
X91027Y79146D01*
X91006Y79144D01*
X90961Y79140D01*
X90911Y79131D01*
X90862Y79118D01*
X90815Y79101D01*
X90795Y79090D01*
X90776Y79078D01*
X90772Y79075D01*
X90761Y79065D01*
X90748Y79050D01*
X90731Y79030D01*
X90714Y79007D01*
X90701Y78979D01*
X90690Y78946D01*
X90686Y78912D01*
Y78910D01*
Y78901D01*
X90688Y78891D01*
X90690Y78875D01*
X90694Y78860D01*
X90701Y78841D01*
X90709Y78822D01*
X90722Y78804D01*
X90724Y78802D01*
X90729Y78796D01*
X90739Y78787D01*
X90752Y78777D01*
X90767Y78764D01*
X90789Y78749D01*
X90812Y78736D01*
X90841Y78723D01*
X90843D01*
X90851Y78719D01*
X90858Y78716D01*
X90868Y78714D01*
X90879Y78710D01*
X90892Y78706D01*
X90909Y78701D01*
X90929Y78695D01*
X90950Y78688D01*
X90976Y78682D01*
X91004Y78673D01*
X91036Y78665D01*
X91073Y78654D01*
X91114Y78643D01*
X91118D01*
X91129Y78639D01*
X91146Y78635D01*
X91167Y78628D01*
X91193Y78622D01*
X91225Y78613D01*
X91258Y78602D01*
X91294Y78592D01*
X91369Y78570D01*
X91445Y78544D01*
X91481Y78534D01*
X91516Y78521D01*
X91546Y78510D01*
X91571Y78499D01*
X91574D01*
X91578Y78497D01*
X91584Y78493D01*
X91593Y78488D01*
X91617Y78476D01*
X91645Y78458D01*
X91677Y78437D01*
X91711Y78409D01*
X91743Y78377D01*
X91774Y78338D01*
Y78336D01*
X91778Y78334D01*
X91780Y78327D01*
X91786Y78319D01*
X91791Y78308D01*
X91797Y78297D01*
X91812Y78265D01*
X91825Y78226D01*
X91838Y78181D01*
X91847Y78132D01*
X91849Y78074D01*
Y78071D01*
Y78067D01*
Y78058D01*
X91847Y78048D01*
Y78035D01*
X91844Y78018D01*
X91838Y77981D01*
X91827Y77936D01*
X91810Y77886D01*
X91789Y77835D01*
X91759Y77783D01*
Y77781D01*
X91754Y77777D01*
X91750Y77770D01*
X91741Y77762D01*
X91722Y77736D01*
X91692Y77706D01*
X91655Y77671D01*
X91610Y77637D01*
X91559Y77603D01*
X91498Y77573D01*
X91496D01*
X91490Y77570D01*
X91481Y77566D01*
X91468Y77562D01*
X91453Y77555D01*
X91434Y77549D01*
X91412Y77543D01*
X91387Y77536D01*
X91359Y77530D01*
X91331Y77523D01*
X91298Y77517D01*
X91264Y77510D01*
X91191Y77502D01*
X91114Y77500D01*
X91079D01*
X91056Y77502D01*
X91025Y77504D01*
X90991Y77508D01*
X90954Y77512D01*
X90914Y77519D01*
X90871Y77525D01*
X90825Y77536D01*
X90780Y77547D01*
X90735Y77562D01*
X90692Y77579D01*
X90649Y77598D01*
X90608Y77620D01*
X90572Y77646D01*
X90570Y77648D01*
X90563Y77652D01*
X90554Y77661D01*
X90542Y77674D01*
X90527Y77689D01*
X90509Y77708D01*
X90492Y77729D01*
X90473Y77755D01*
X90451Y77785D01*
X90432Y77818D01*
X90413Y77854D01*
X90393Y77893D01*
X90376Y77936D01*
X90359Y77983D01*
X90346Y78031D01*
X90335Y78084D01*
X90640Y78132D01*
Y78129D01*
X90643Y78123D01*
Y78114D01*
X90647Y78101D01*
X90649Y78086D01*
X90653Y78067D01*
X90666Y78026D01*
X90686Y77981D01*
X90711Y77934D01*
X90742Y77891D01*
X90761Y77869D01*
X90782Y77850D01*
X90785D01*
X90789Y77846D01*
X90795Y77841D01*
X90804Y77835D01*
X90817Y77828D01*
X90832Y77820D01*
X90849Y77811D01*
X90868Y77803D01*
X90890Y77792D01*
X90916Y77783D01*
X90942Y77775D01*
X90972Y77768D01*
X91004Y77762D01*
X91036Y77758D01*
X91073Y77755D01*
X91111Y77753D01*
X91131D01*
X91146Y77755D01*
X91163D01*
X91185Y77758D01*
X91206Y77760D01*
X91232Y77764D01*
X91281Y77775D01*
X91335Y77790D01*
X91384Y77811D01*
X91406Y77824D01*
X91427Y77839D01*
X91430D01*
X91432Y77843D01*
X91445Y77854D01*
X91460Y77874D01*
X91479Y77897D01*
X91498Y77927D01*
X91516Y77962D01*
X91526Y77998D01*
X91528Y78020D01*
X91531Y78041D01*
Y78043D01*
Y78046D01*
X91528Y78058D01*
X91526Y78078D01*
X91520Y78101D01*
X91509Y78127D01*
X91492Y78155D01*
X91470Y78183D01*
X91440Y78207D01*
X91438Y78209D01*
X91432Y78211D01*
X91427Y78213D01*
X91419Y78218D01*
X91406Y78224D01*
X91393Y78228D01*
X91376Y78235D01*
X91356Y78241D01*
X91335Y78250D01*
X91309Y78258D01*
X91279Y78267D01*
X91247Y78278D01*
X91210Y78289D01*
X91169Y78299D01*
X91124Y78310D01*
X91120D01*
X91109Y78314D01*
X91092Y78319D01*
X91068Y78325D01*
X91043Y78332D01*
X91010Y78340D01*
X90976Y78351D01*
X90937Y78362D01*
X90860Y78383D01*
X90782Y78409D01*
X90746Y78422D01*
X90711Y78435D01*
X90681Y78446D01*
X90653Y78458D01*
X90651D01*
X90647Y78461D01*
X90640Y78465D01*
X90632Y78469D01*
X90608Y78484D01*
X90580Y78504D01*
X90548Y78527D01*
X90514Y78557D01*
X90481Y78592D01*
X90453Y78630D01*
Y78632D01*
X90451Y78635D01*
X90447Y78641D01*
X90443Y78650D01*
X90432Y78673D01*
X90421Y78703D01*
X90408Y78740D01*
X90398Y78781D01*
X90389Y78828D01*
X90387Y78878D01*
Y78880D01*
Y78884D01*
Y78891D01*
Y78899D01*
X90389Y78921D01*
X90393Y78951D01*
X90400Y78985D01*
X90411Y79024D01*
X90423Y79062D01*
X90441Y79101D01*
Y79103D01*
X90443Y79106D01*
X90451Y79118D01*
X90464Y79138D01*
X90481Y79164D01*
X90503Y79189D01*
X90529Y79220D01*
X90559Y79247D01*
X90593Y79275D01*
X90597Y79277D01*
X90606Y79284D01*
X90623Y79295D01*
X90645Y79305D01*
X90673Y79321D01*
X90707Y79333D01*
X90746Y79348D01*
X90789Y79364D01*
X90791D01*
X90795Y79366D01*
X90802Y79368D01*
X90810Y79370D01*
X90823Y79372D01*
X90836Y79376D01*
X90868Y79383D01*
X90909Y79389D01*
X90954Y79396D01*
X91004Y79400D01*
X91058Y79402D01*
X91094D01*
X91111Y79400D01*
D02*
G37*
G36*
X80768Y77540D02*
X80426D01*
X79106Y79512D01*
Y77540D01*
X78788D01*
Y80054D01*
X79127D01*
X80449Y78078D01*
Y80054D01*
X80768D01*
Y77540D01*
D02*
G37*
G36*
X87383Y79400D02*
X87407D01*
X87433Y79398D01*
X87461Y79396D01*
X87519Y79389D01*
X87583Y79379D01*
X87646Y79366D01*
X87704Y79346D01*
X87706D01*
X87710Y79344D01*
X87719Y79340D01*
X87727Y79336D01*
X87753Y79325D01*
X87785Y79308D01*
X87820Y79288D01*
X87856Y79265D01*
X87891Y79237D01*
X87919Y79207D01*
X87921Y79202D01*
X87929Y79191D01*
X87942Y79174D01*
X87957Y79151D01*
X87972Y79121D01*
X87987Y79084D01*
X88003Y79043D01*
X88013Y78998D01*
Y78994D01*
X88015Y78983D01*
X88017Y78974D01*
X88020Y78961D01*
Y78949D01*
X88022Y78934D01*
X88024Y78914D01*
X88026Y78895D01*
Y78871D01*
X88028Y78845D01*
Y78815D01*
X88030Y78785D01*
Y78751D01*
Y78714D01*
Y78301D01*
Y78299D01*
Y78297D01*
Y78291D01*
Y78282D01*
Y78261D01*
Y78233D01*
Y78198D01*
X88033Y78159D01*
Y78117D01*
Y78071D01*
X88035Y77979D01*
X88037Y77934D01*
X88039Y77891D01*
X88041Y77850D01*
X88043Y77813D01*
X88046Y77783D01*
X88050Y77758D01*
Y77755D01*
Y77753D01*
X88052Y77747D01*
X88054Y77738D01*
X88058Y77717D01*
X88067Y77689D01*
X88078Y77654D01*
X88091Y77618D01*
X88108Y77579D01*
X88127Y77540D01*
X87805D01*
Y77543D01*
X87802Y77545D01*
X87798Y77557D01*
X87790Y77577D01*
X87779Y77605D01*
X87770Y77637D01*
X87760Y77674D01*
X87751Y77717D01*
X87744Y77764D01*
X87742Y77762D01*
X87736Y77758D01*
X87727Y77751D01*
X87714Y77740D01*
X87699Y77727D01*
X87682Y77715D01*
X87661Y77699D01*
X87639Y77684D01*
X87587Y77650D01*
X87532Y77616D01*
X87474Y77583D01*
X87413Y77557D01*
X87411D01*
X87407Y77555D01*
X87398Y77553D01*
X87385Y77549D01*
X87370Y77545D01*
X87353Y77538D01*
X87334Y77534D01*
X87310Y77530D01*
X87261Y77519D01*
X87203Y77508D01*
X87138Y77502D01*
X87072Y77500D01*
X87044D01*
X87022Y77502D01*
X86998Y77504D01*
X86968Y77508D01*
X86936Y77512D01*
X86902Y77519D01*
X86829Y77536D01*
X86790Y77547D01*
X86751Y77562D01*
X86715Y77579D01*
X86678Y77598D01*
X86644Y77620D01*
X86611Y77646D01*
X86609Y77648D01*
X86605Y77652D01*
X86596Y77661D01*
X86586Y77671D01*
X86575Y77687D01*
X86560Y77704D01*
X86547Y77725D01*
X86532Y77747D01*
X86517Y77772D01*
X86502Y77801D01*
X86487Y77833D01*
X86476Y77865D01*
X86465Y77902D01*
X86457Y77938D01*
X86452Y77979D01*
X86450Y78020D01*
Y78022D01*
Y78026D01*
Y78033D01*
Y78043D01*
X86452Y78054D01*
X86454Y78067D01*
X86459Y78099D01*
X86465Y78138D01*
X86476Y78179D01*
X86491Y78222D01*
X86510Y78263D01*
Y78265D01*
X86513Y78267D01*
X86517Y78273D01*
X86521Y78282D01*
X86534Y78301D01*
X86553Y78327D01*
X86575Y78355D01*
X86603Y78385D01*
X86635Y78415D01*
X86669Y78441D01*
X86672D01*
X86674Y78443D01*
X86687Y78452D01*
X86708Y78465D01*
X86734Y78480D01*
X86768Y78497D01*
X86805Y78512D01*
X86848Y78529D01*
X86893Y78542D01*
X86897Y78544D01*
X86910Y78547D01*
X86932Y78551D01*
X86962Y78557D01*
X86998Y78566D01*
X87022Y78568D01*
X87046Y78572D01*
X87074Y78577D01*
X87102Y78581D01*
X87134Y78585D01*
X87166Y78589D01*
X87170D01*
X87183Y78592D01*
X87203Y78594D01*
X87229Y78598D01*
X87259Y78602D01*
X87293Y78607D01*
X87334Y78613D01*
X87375Y78620D01*
X87465Y78635D01*
X87557Y78654D01*
X87600Y78665D01*
X87643Y78676D01*
X87682Y78686D01*
X87719Y78697D01*
Y78699D01*
Y78708D01*
Y78719D01*
X87721Y78731D01*
Y78757D01*
Y78768D01*
Y78777D01*
Y78779D01*
Y78785D01*
Y78794D01*
X87719Y78807D01*
Y78822D01*
X87717Y78839D01*
X87710Y78880D01*
X87699Y78923D01*
X87684Y78968D01*
X87663Y79007D01*
X87648Y79026D01*
X87633Y79041D01*
X87630Y79043D01*
X87626Y79045D01*
X87620Y79052D01*
X87611Y79058D01*
X87598Y79065D01*
X87583Y79075D01*
X87566Y79084D01*
X87545Y79095D01*
X87521Y79103D01*
X87495Y79114D01*
X87465Y79123D01*
X87435Y79129D01*
X87401Y79138D01*
X87362Y79142D01*
X87323Y79144D01*
X87280Y79146D01*
X87259D01*
X87243Y79144D01*
X87226D01*
X87205Y79142D01*
X87183Y79140D01*
X87157Y79138D01*
X87106Y79127D01*
X87052Y79114D01*
X87001Y79095D01*
X86979Y79082D01*
X86958Y79069D01*
X86955D01*
X86953Y79065D01*
X86940Y79054D01*
X86923Y79035D01*
X86912Y79022D01*
X86900Y79007D01*
X86887Y78989D01*
X86876Y78970D01*
X86863Y78949D01*
X86850Y78925D01*
X86837Y78897D01*
X86826Y78867D01*
X86816Y78835D01*
X86805Y78800D01*
X86504Y78841D01*
Y78843D01*
X86506Y78850D01*
X86508Y78860D01*
X86513Y78873D01*
X86517Y78891D01*
X86521Y78908D01*
X86528Y78929D01*
X86536Y78953D01*
X86555Y79002D01*
X86577Y79054D01*
X86605Y79106D01*
X86637Y79153D01*
X86639Y79155D01*
X86642Y79157D01*
X86648Y79164D01*
X86654Y79172D01*
X86665Y79183D01*
X86676Y79194D01*
X86706Y79222D01*
X86745Y79252D01*
X86792Y79282D01*
X86848Y79312D01*
X86910Y79338D01*
X86912D01*
X86919Y79340D01*
X86927Y79344D01*
X86942Y79348D01*
X86960Y79353D01*
X86979Y79359D01*
X87003Y79364D01*
X87028Y79370D01*
X87059Y79376D01*
X87091Y79383D01*
X87125Y79387D01*
X87160Y79391D01*
X87239Y79400D01*
X87325Y79402D01*
X87364D01*
X87383Y79400D01*
D02*
G37*
G36*
X85083Y79757D02*
X84251D01*
Y77540D01*
X83917D01*
Y79757D01*
X83090D01*
Y80054D01*
X85083D01*
Y79757D01*
D02*
G37*
G36*
X78527Y77540D02*
X78149D01*
X77857Y78301D01*
X76801D01*
X76528Y77540D01*
X76175D01*
X77139Y80054D01*
X77500D01*
X78527Y77540D01*
D02*
G37*
G36*
X83047Y76842D02*
X81002D01*
Y77065D01*
X83047D01*
Y76842D01*
D02*
G37*
G36*
X74056Y124644D02*
X74082D01*
X74114Y124640D01*
X74152Y124636D01*
X74193Y124629D01*
X74239Y124623D01*
X74288Y124612D01*
X74340Y124599D01*
X74391Y124584D01*
X74445Y124565D01*
X74499Y124543D01*
X74550Y124518D01*
X74602Y124487D01*
X74651Y124453D01*
X74654Y124451D01*
X74662Y124444D01*
X74675Y124434D01*
X74694Y124419D01*
X74714Y124397D01*
X74739Y124373D01*
X74765Y124346D01*
X74793Y124313D01*
X74823Y124277D01*
X74853Y124238D01*
X74884Y124193D01*
X74914Y124146D01*
X74942Y124092D01*
X74967Y124036D01*
X74991Y123978D01*
X75012Y123913D01*
X74686Y123836D01*
Y123838D01*
X74681Y123849D01*
X74677Y123862D01*
X74669Y123881D01*
X74660Y123903D01*
X74649Y123931D01*
X74636Y123959D01*
X74621Y123989D01*
X74585Y124055D01*
X74542Y124122D01*
X74516Y124152D01*
X74490Y124182D01*
X74460Y124210D01*
X74430Y124236D01*
X74428Y124238D01*
X74421Y124242D01*
X74413Y124247D01*
X74400Y124255D01*
X74385Y124266D01*
X74363Y124277D01*
X74342Y124287D01*
X74316Y124300D01*
X74288Y124311D01*
X74256Y124322D01*
X74221Y124333D01*
X74185Y124343D01*
X74144Y124352D01*
X74103Y124356D01*
X74058Y124361D01*
X74013Y124363D01*
X73985D01*
X73966Y124361D01*
X73940Y124358D01*
X73912Y124356D01*
X73879Y124352D01*
X73843Y124346D01*
X73806Y124337D01*
X73768Y124328D01*
X73727Y124318D01*
X73686Y124305D01*
X73645Y124287D01*
X73604Y124268D01*
X73566Y124247D01*
X73527Y124223D01*
X73525Y124221D01*
X73518Y124216D01*
X73508Y124208D01*
X73495Y124197D01*
X73480Y124184D01*
X73462Y124167D01*
X73441Y124146D01*
X73419Y124124D01*
X73398Y124098D01*
X73374Y124070D01*
X73353Y124040D01*
X73329Y124006D01*
X73308Y123971D01*
X73288Y123933D01*
X73271Y123892D01*
X73254Y123849D01*
Y123847D01*
X73250Y123838D01*
X73247Y123825D01*
X73241Y123808D01*
X73237Y123786D01*
X73230Y123761D01*
X73222Y123733D01*
X73215Y123700D01*
X73209Y123666D01*
X73200Y123627D01*
X73194Y123589D01*
X73189Y123548D01*
X73181Y123460D01*
X73176Y123367D01*
Y123363D01*
Y123352D01*
Y123335D01*
X73179Y123313D01*
Y123286D01*
X73181Y123253D01*
X73185Y123217D01*
X73187Y123176D01*
X73194Y123133D01*
X73200Y123088D01*
X73215Y122995D01*
X73239Y122899D01*
X73252Y122851D01*
X73269Y122806D01*
X73271Y122804D01*
X73273Y122795D01*
X73280Y122783D01*
X73286Y122767D01*
X73297Y122748D01*
X73308Y122724D01*
X73323Y122699D01*
X73340Y122673D01*
X73359Y122643D01*
X73381Y122615D01*
X73404Y122585D01*
X73430Y122555D01*
X73458Y122527D01*
X73490Y122499D01*
X73523Y122473D01*
X73559Y122449D01*
X73561Y122447D01*
X73568Y122445D01*
X73579Y122439D01*
X73594Y122430D01*
X73613Y122421D01*
X73634Y122413D01*
X73658Y122402D01*
X73686Y122391D01*
X73718Y122378D01*
X73751Y122368D01*
X73785Y122359D01*
X73824Y122350D01*
X73903Y122335D01*
X73944Y122333D01*
X73987Y122331D01*
X74000D01*
X74015Y122333D01*
X74034D01*
X74058Y122335D01*
X74086Y122340D01*
X74116Y122344D01*
X74150Y122350D01*
X74187Y122359D01*
X74224Y122370D01*
X74262Y122383D01*
X74303Y122400D01*
X74342Y122417D01*
X74383Y122439D01*
X74421Y122464D01*
X74458Y122492D01*
X74460Y122494D01*
X74466Y122501D01*
X74477Y122509D01*
X74490Y122522D01*
X74505Y122539D01*
X74524Y122561D01*
X74544Y122585D01*
X74565Y122613D01*
X74587Y122645D01*
X74608Y122679D01*
X74630Y122718D01*
X74651Y122761D01*
X74673Y122808D01*
X74692Y122858D01*
X74707Y122912D01*
X74722Y122969D01*
X75056Y122886D01*
Y122883D01*
X75053Y122881D01*
Y122875D01*
X75051Y122869D01*
X75045Y122847D01*
X75034Y122819D01*
X75023Y122785D01*
X75008Y122746D01*
X74989Y122701D01*
X74970Y122656D01*
X74944Y122606D01*
X74918Y122555D01*
X74886Y122503D01*
X74851Y122451D01*
X74813Y122400D01*
X74772Y122350D01*
X74727Y122305D01*
X74677Y122262D01*
X74675Y122260D01*
X74664Y122254D01*
X74649Y122243D01*
X74630Y122228D01*
X74602Y122213D01*
X74572Y122193D01*
X74535Y122174D01*
X74492Y122155D01*
X74447Y122135D01*
X74396Y122116D01*
X74342Y122097D01*
X74284Y122082D01*
X74221Y122066D01*
X74157Y122056D01*
X74086Y122049D01*
X74015Y122047D01*
X73998D01*
X73976Y122049D01*
X73948D01*
X73914Y122052D01*
X73873Y122056D01*
X73828Y122060D01*
X73781Y122069D01*
X73729Y122077D01*
X73675Y122088D01*
X73619Y122101D01*
X73563Y122116D01*
X73510Y122135D01*
X73454Y122157D01*
X73402Y122183D01*
X73353Y122211D01*
X73351Y122213D01*
X73342Y122219D01*
X73329Y122228D01*
X73312Y122241D01*
X73290Y122258D01*
X73265Y122279D01*
X73239Y122305D01*
X73209Y122333D01*
X73179Y122365D01*
X73146Y122400D01*
X73114Y122441D01*
X73082Y122484D01*
X73052Y122529D01*
X73022Y122580D01*
X72992Y122632D01*
X72966Y122690D01*
X72964Y122694D01*
X72959Y122705D01*
X72953Y122722D01*
X72946Y122744D01*
X72936Y122774D01*
X72925Y122808D01*
X72912Y122847D01*
X72901Y122892D01*
X72888Y122942D01*
X72875Y122993D01*
X72865Y123049D01*
X72856Y123107D01*
X72847Y123170D01*
X72841Y123232D01*
X72837Y123299D01*
X72835Y123365D01*
Y123367D01*
Y123369D01*
Y123382D01*
Y123404D01*
X72837Y123432D01*
X72839Y123464D01*
X72843Y123505D01*
X72847Y123548D01*
X72854Y123597D01*
X72860Y123649D01*
X72871Y123705D01*
X72882Y123761D01*
X72897Y123819D01*
X72914Y123877D01*
X72934Y123935D01*
X72957Y123993D01*
X72983Y124049D01*
X72985Y124053D01*
X72989Y124062D01*
X72998Y124077D01*
X73011Y124096D01*
X73026Y124122D01*
X73045Y124150D01*
X73067Y124180D01*
X73093Y124214D01*
X73121Y124249D01*
X73153Y124285D01*
X73187Y124324D01*
X73226Y124361D01*
X73267Y124397D01*
X73312Y124432D01*
X73359Y124464D01*
X73409Y124494D01*
X73413Y124496D01*
X73422Y124500D01*
X73437Y124509D01*
X73458Y124518D01*
X73484Y124528D01*
X73514Y124541D01*
X73548Y124556D01*
X73589Y124571D01*
X73632Y124584D01*
X73680Y124599D01*
X73729Y124612D01*
X73783Y124623D01*
X73839Y124632D01*
X73897Y124640D01*
X73957Y124644D01*
X74019Y124646D01*
X74037D01*
X74056Y124644D01*
D02*
G37*
G36*
X76163Y124612D02*
X76182D01*
X76204Y124610D01*
X76227Y124608D01*
X76253Y124603D01*
X76311Y124593D01*
X76376Y124576D01*
X76442Y124554D01*
X76507Y124524D01*
X76509D01*
X76515Y124520D01*
X76524Y124515D01*
X76535Y124509D01*
X76550Y124498D01*
X76567Y124487D01*
X76606Y124462D01*
X76649Y124427D01*
X76694Y124384D01*
X76735Y124337D01*
X76773Y124283D01*
X76775Y124281D01*
X76778Y124277D01*
X76782Y124268D01*
X76789Y124257D01*
X76795Y124242D01*
X76803Y124227D01*
X76812Y124208D01*
X76821Y124186D01*
X76836Y124139D01*
X76851Y124083D01*
X76862Y124023D01*
X76866Y123993D01*
Y123961D01*
Y123959D01*
Y123954D01*
Y123946D01*
X76864Y123933D01*
Y123920D01*
X76862Y123903D01*
X76855Y123862D01*
X76844Y123817D01*
X76829Y123767D01*
X76808Y123716D01*
X76778Y123664D01*
Y123662D01*
X76773Y123658D01*
X76769Y123651D01*
X76761Y123643D01*
X76741Y123617D01*
X76713Y123587D01*
X76674Y123554D01*
X76631Y123518D01*
X76578Y123483D01*
X76518Y123451D01*
X76520D01*
X76528Y123449D01*
X76539Y123445D01*
X76554Y123440D01*
X76573Y123434D01*
X76595Y123425D01*
X76619Y123417D01*
X76644Y123406D01*
X76700Y123376D01*
X76728Y123359D01*
X76758Y123339D01*
X76786Y123318D01*
X76814Y123294D01*
X76840Y123268D01*
X76864Y123238D01*
X76866Y123236D01*
X76870Y123232D01*
X76875Y123221D01*
X76883Y123210D01*
X76892Y123193D01*
X76902Y123174D01*
X76915Y123152D01*
X76926Y123126D01*
X76937Y123099D01*
X76950Y123068D01*
X76960Y123034D01*
X76969Y123000D01*
X76978Y122961D01*
X76984Y122920D01*
X76986Y122877D01*
X76988Y122832D01*
Y122828D01*
Y122817D01*
X76986Y122800D01*
X76984Y122776D01*
X76982Y122748D01*
X76976Y122716D01*
X76969Y122679D01*
X76958Y122638D01*
X76945Y122595D01*
X76930Y122552D01*
X76911Y122505D01*
X76887Y122458D01*
X76859Y122411D01*
X76827Y122365D01*
X76791Y122318D01*
X76748Y122275D01*
X76745Y122273D01*
X76737Y122264D01*
X76724Y122254D01*
X76705Y122239D01*
X76681Y122221D01*
X76653Y122202D01*
X76619Y122183D01*
X76582Y122161D01*
X76539Y122140D01*
X76494Y122120D01*
X76444Y122101D01*
X76391Y122084D01*
X76333Y122069D01*
X76272Y122058D01*
X76208Y122049D01*
X76141Y122047D01*
X76126D01*
X76109Y122049D01*
X76085D01*
X76057Y122054D01*
X76025Y122058D01*
X75989Y122064D01*
X75948Y122071D01*
X75907Y122082D01*
X75862Y122095D01*
X75817Y122112D01*
X75769Y122129D01*
X75724Y122152D01*
X75677Y122178D01*
X75634Y122208D01*
X75591Y122243D01*
X75589Y122245D01*
X75582Y122251D01*
X75572Y122262D01*
X75556Y122279D01*
X75539Y122299D01*
X75520Y122322D01*
X75501Y122350D01*
X75479Y122380D01*
X75458Y122417D01*
X75436Y122456D01*
X75415Y122496D01*
X75395Y122542D01*
X75378Y122591D01*
X75363Y122643D01*
X75352Y122696D01*
X75344Y122755D01*
X75653Y122795D01*
Y122793D01*
X75655Y122785D01*
X75660Y122770D01*
X75664Y122752D01*
X75668Y122731D01*
X75677Y122707D01*
X75686Y122679D01*
X75694Y122649D01*
X75720Y122587D01*
X75750Y122524D01*
X75767Y122494D01*
X75789Y122466D01*
X75808Y122441D01*
X75832Y122417D01*
X75834Y122415D01*
X75838Y122413D01*
X75845Y122406D01*
X75855Y122400D01*
X75866Y122391D01*
X75881Y122380D01*
X75898Y122370D01*
X75918Y122361D01*
X75939Y122350D01*
X75963Y122340D01*
X76017Y122320D01*
X76077Y122307D01*
X76109Y122305D01*
X76143Y122303D01*
X76165D01*
X76180Y122305D01*
X76199Y122307D01*
X76221Y122312D01*
X76244Y122316D01*
X76272Y122322D01*
X76300Y122329D01*
X76331Y122340D01*
X76361Y122353D01*
X76391Y122368D01*
X76423Y122385D01*
X76453Y122404D01*
X76483Y122428D01*
X76511Y122453D01*
X76513Y122456D01*
X76518Y122460D01*
X76524Y122469D01*
X76535Y122482D01*
X76546Y122494D01*
X76558Y122514D01*
X76573Y122533D01*
X76586Y122557D01*
X76601Y122582D01*
X76614Y122610D01*
X76627Y122641D01*
X76638Y122675D01*
X76649Y122709D01*
X76655Y122746D01*
X76660Y122785D01*
X76662Y122826D01*
Y122828D01*
Y122834D01*
Y122847D01*
X76660Y122862D01*
X76657Y122879D01*
X76655Y122901D01*
X76651Y122924D01*
X76644Y122950D01*
X76627Y123004D01*
X76616Y123034D01*
X76604Y123064D01*
X76586Y123092D01*
X76567Y123122D01*
X76546Y123150D01*
X76522Y123176D01*
X76520Y123178D01*
X76515Y123182D01*
X76507Y123189D01*
X76496Y123197D01*
X76483Y123208D01*
X76468Y123219D01*
X76449Y123232D01*
X76427Y123245D01*
X76401Y123258D01*
X76376Y123270D01*
X76346Y123281D01*
X76315Y123292D01*
X76281Y123301D01*
X76247Y123307D01*
X76208Y123311D01*
X76169Y123313D01*
X76154D01*
X76135Y123311D01*
X76109Y123309D01*
X76077Y123305D01*
X76040Y123301D01*
X75999Y123292D01*
X75952Y123281D01*
X75986Y123552D01*
X75991D01*
X76004Y123550D01*
X76021Y123548D01*
X76055D01*
X76068Y123550D01*
X76085D01*
X76107Y123554D01*
X76128Y123556D01*
X76154Y123561D01*
X76208Y123574D01*
X76268Y123591D01*
X76328Y123617D01*
X76358Y123634D01*
X76389Y123651D01*
X76391Y123653D01*
X76395Y123655D01*
X76404Y123662D01*
X76414Y123670D01*
X76425Y123681D01*
X76438Y123694D01*
X76453Y123711D01*
X76468Y123729D01*
X76483Y123750D01*
X76498Y123774D01*
X76511Y123799D01*
X76522Y123827D01*
X76533Y123860D01*
X76541Y123892D01*
X76546Y123928D01*
X76548Y123967D01*
Y123969D01*
Y123976D01*
Y123984D01*
X76546Y123995D01*
X76543Y124010D01*
X76541Y124027D01*
X76533Y124066D01*
X76520Y124111D01*
X76498Y124159D01*
X76485Y124182D01*
X76470Y124204D01*
X76453Y124227D01*
X76432Y124249D01*
X76429Y124251D01*
X76427Y124253D01*
X76421Y124259D01*
X76410Y124266D01*
X76399Y124275D01*
X76386Y124283D01*
X76369Y124294D01*
X76352Y124305D01*
X76309Y124326D01*
X76257Y124343D01*
X76199Y124356D01*
X76169Y124358D01*
X76135Y124361D01*
X76118D01*
X76105Y124358D01*
X76090Y124356D01*
X76073Y124354D01*
X76032Y124346D01*
X75984Y124333D01*
X75933Y124313D01*
X75909Y124300D01*
X75883Y124285D01*
X75860Y124266D01*
X75836Y124247D01*
X75834Y124244D01*
X75832Y124242D01*
X75825Y124234D01*
X75817Y124225D01*
X75808Y124214D01*
X75797Y124199D01*
X75784Y124182D01*
X75771Y124161D01*
X75759Y124139D01*
X75746Y124113D01*
X75733Y124085D01*
X75720Y124055D01*
X75709Y124023D01*
X75698Y123986D01*
X75690Y123948D01*
X75683Y123907D01*
X75374Y123963D01*
Y123967D01*
X75376Y123976D01*
X75380Y123993D01*
X75387Y124014D01*
X75393Y124040D01*
X75402Y124070D01*
X75412Y124103D01*
X75428Y124139D01*
X75443Y124178D01*
X75462Y124216D01*
X75481Y124255D01*
X75505Y124296D01*
X75533Y124335D01*
X75561Y124373D01*
X75593Y124410D01*
X75630Y124442D01*
X75632Y124444D01*
X75638Y124449D01*
X75651Y124457D01*
X75666Y124470D01*
X75686Y124483D01*
X75709Y124496D01*
X75735Y124513D01*
X75767Y124528D01*
X75802Y124543D01*
X75840Y124560D01*
X75881Y124573D01*
X75924Y124589D01*
X75972Y124599D01*
X76021Y124608D01*
X76075Y124612D01*
X76128Y124614D01*
X76148D01*
X76163Y124612D01*
D02*
G37*
%LPC*%
G36*
X124391Y85975D02*
X124374D01*
X124361Y85973D01*
X124346Y85970D01*
X124329Y85968D01*
X124288Y85960D01*
X124243Y85947D01*
X124193Y85927D01*
X124170Y85915D01*
X124144Y85900D01*
X124120Y85880D01*
X124099Y85861D01*
X124097Y85859D01*
X124094Y85856D01*
X124088Y85850D01*
X124082Y85842D01*
X124073Y85831D01*
X124062Y85816D01*
X124043Y85783D01*
X124021Y85745D01*
X124002Y85700D01*
X123989Y85646D01*
X123987Y85618D01*
X123985Y85590D01*
Y85588D01*
Y85581D01*
Y85573D01*
X123987Y85560D01*
X123989Y85545D01*
X123991Y85528D01*
X124000Y85487D01*
X124013Y85439D01*
X124032Y85392D01*
X124045Y85366D01*
X124060Y85343D01*
X124077Y85319D01*
X124097Y85298D01*
X124099Y85295D01*
X124101Y85293D01*
X124107Y85287D01*
X124118Y85280D01*
X124129Y85272D01*
X124142Y85263D01*
X124159Y85252D01*
X124176Y85242D01*
X124198Y85231D01*
X124219Y85220D01*
X124271Y85203D01*
X124329Y85190D01*
X124361Y85188D01*
X124396Y85186D01*
X124413D01*
X124425Y85188D01*
X124441Y85190D01*
X124458Y85192D01*
X124499Y85201D01*
X124544Y85214D01*
X124593Y85233D01*
X124617Y85246D01*
X124641Y85261D01*
X124664Y85278D01*
X124686Y85298D01*
X124688Y85300D01*
X124690Y85302D01*
X124697Y85308D01*
X124703Y85317D01*
X124712Y85328D01*
X124722Y85340D01*
X124744Y85375D01*
X124763Y85414D01*
X124782Y85461D01*
X124795Y85515D01*
X124797Y85543D01*
X124800Y85573D01*
Y85575D01*
Y85581D01*
Y85590D01*
X124797Y85601D01*
X124795Y85616D01*
X124793Y85633D01*
X124785Y85672D01*
X124772Y85717D01*
X124750Y85764D01*
X124737Y85790D01*
X124720Y85813D01*
X124703Y85837D01*
X124681Y85859D01*
X124679Y85861D01*
X124677Y85863D01*
X124671Y85869D01*
X124660Y85876D01*
X124649Y85887D01*
X124636Y85895D01*
X124619Y85906D01*
X124602Y85917D01*
X124559Y85938D01*
X124509Y85958D01*
X124453Y85970D01*
X124423Y85973D01*
X124391Y85975D01*
D02*
G37*
G36*
X124385Y84934D02*
X124363D01*
X124348Y84932D01*
X124331Y84930D01*
X124309Y84926D01*
X124284Y84921D01*
X124258Y84917D01*
X124202Y84898D01*
X124172Y84887D01*
X124142Y84872D01*
X124112Y84857D01*
X124082Y84835D01*
X124054Y84814D01*
X124026Y84788D01*
X124023Y84786D01*
X124019Y84781D01*
X124013Y84773D01*
X124004Y84762D01*
X123993Y84747D01*
X123980Y84732D01*
X123968Y84711D01*
X123955Y84689D01*
X123942Y84663D01*
X123929Y84637D01*
X123916Y84607D01*
X123905Y84575D01*
X123897Y84543D01*
X123890Y84506D01*
X123886Y84468D01*
X123884Y84429D01*
Y84427D01*
Y84422D01*
Y84416D01*
Y84405D01*
X123886Y84395D01*
X123888Y84380D01*
X123892Y84347D01*
X123899Y84308D01*
X123909Y84266D01*
X123925Y84220D01*
X123944Y84173D01*
Y84171D01*
X123946Y84169D01*
X123950Y84162D01*
X123955Y84154D01*
X123970Y84130D01*
X123991Y84104D01*
X124017Y84072D01*
X124049Y84040D01*
X124086Y84010D01*
X124129Y83982D01*
X124131D01*
X124135Y83980D01*
X124142Y83975D01*
X124150Y83971D01*
X124161Y83967D01*
X124176Y83960D01*
X124208Y83950D01*
X124249Y83937D01*
X124294Y83926D01*
X124344Y83917D01*
X124396Y83915D01*
X124417D01*
X124432Y83917D01*
X124451Y83919D01*
X124473Y83924D01*
X124496Y83928D01*
X124524Y83932D01*
X124583Y83950D01*
X124613Y83960D01*
X124643Y83975D01*
X124673Y83990D01*
X124703Y84010D01*
X124731Y84031D01*
X124759Y84057D01*
X124761Y84059D01*
X124765Y84063D01*
X124772Y84072D01*
X124782Y84083D01*
X124793Y84096D01*
X124804Y84113D01*
X124817Y84132D01*
X124832Y84156D01*
X124845Y84180D01*
X124858Y84207D01*
X124869Y84238D01*
X124881Y84270D01*
X124890Y84304D01*
X124896Y84341D01*
X124901Y84377D01*
X124903Y84418D01*
Y84420D01*
Y84429D01*
Y84440D01*
X124901Y84455D01*
X124899Y84474D01*
X124894Y84498D01*
X124890Y84521D01*
X124883Y84549D01*
X124877Y84577D01*
X124866Y84607D01*
X124855Y84637D01*
X124840Y84668D01*
X124823Y84700D01*
X124804Y84730D01*
X124780Y84760D01*
X124755Y84788D01*
X124752Y84790D01*
X124748Y84794D01*
X124740Y84801D01*
X124729Y84812D01*
X124714Y84822D01*
X124697Y84835D01*
X124677Y84848D01*
X124653Y84861D01*
X124628Y84874D01*
X124600Y84889D01*
X124570Y84900D01*
X124537Y84911D01*
X124503Y84921D01*
X124464Y84928D01*
X124425Y84932D01*
X124385Y84934D01*
D02*
G37*
G36*
X119447Y16091D02*
X119439D01*
X119428Y16089D01*
X119413D01*
X119393Y16084D01*
X119374Y16082D01*
X119350Y16076D01*
X119325Y16069D01*
X119299Y16059D01*
X119271Y16048D01*
X119243Y16033D01*
X119215Y16015D01*
X119187Y15994D01*
X119159Y15970D01*
X119133Y15942D01*
X119107Y15910D01*
X119105Y15908D01*
X119101Y15899D01*
X119092Y15884D01*
X119084Y15865D01*
X119071Y15837D01*
X119058Y15805D01*
X119043Y15764D01*
X119030Y15719D01*
X119015Y15663D01*
X119000Y15603D01*
X118987Y15532D01*
X118974Y15454D01*
X118965Y15368D01*
X118961Y15323D01*
X118957Y15276D01*
X118955Y15224D01*
X118953Y15173D01*
X118950Y15119D01*
Y15061D01*
Y15059D01*
Y15054D01*
Y15046D01*
Y15033D01*
Y15020D01*
Y15003D01*
X118953Y14984D01*
Y14962D01*
X118955Y14910D01*
X118959Y14854D01*
X118963Y14792D01*
X118968Y14726D01*
X118976Y14657D01*
X118985Y14588D01*
X118998Y14519D01*
X119011Y14452D01*
X119028Y14390D01*
X119047Y14332D01*
X119069Y14280D01*
X119082Y14257D01*
X119095Y14237D01*
X119097Y14235D01*
X119101Y14229D01*
X119110Y14218D01*
X119120Y14205D01*
X119135Y14190D01*
X119150Y14173D01*
X119172Y14154D01*
X119193Y14136D01*
X119217Y14117D01*
X119245Y14098D01*
X119275Y14081D01*
X119305Y14065D01*
X119340Y14052D01*
X119374Y14042D01*
X119413Y14035D01*
X119451Y14033D01*
X119460D01*
X119473Y14035D01*
X119486Y14038D01*
X119505Y14040D01*
X119527Y14044D01*
X119550Y14050D01*
X119574Y14059D01*
X119602Y14070D01*
X119630Y14083D01*
X119660Y14100D01*
X119690Y14119D01*
X119720Y14143D01*
X119750Y14171D01*
X119778Y14201D01*
X119806Y14237D01*
X119808Y14240D01*
X119813Y14248D01*
X119819Y14261D01*
X119830Y14278D01*
X119841Y14304D01*
X119853Y14334D01*
X119866Y14373D01*
X119879Y14418D01*
X119892Y14470D01*
X119907Y14528D01*
X119918Y14596D01*
X119929Y14672D01*
X119935Y14713D01*
X119939Y14756D01*
X119944Y14801D01*
X119946Y14848D01*
X119948Y14897D01*
X119950Y14949D01*
X119952Y15005D01*
Y15061D01*
Y15063D01*
Y15067D01*
Y15076D01*
Y15089D01*
Y15102D01*
Y15119D01*
X119950Y15138D01*
Y15162D01*
X119948Y15211D01*
X119944Y15267D01*
X119939Y15332D01*
X119935Y15396D01*
X119927Y15465D01*
X119916Y15536D01*
X119905Y15605D01*
X119890Y15672D01*
X119875Y15734D01*
X119853Y15792D01*
X119832Y15844D01*
X119819Y15867D01*
X119806Y15887D01*
X119804Y15889D01*
X119800Y15895D01*
X119791Y15906D01*
X119780Y15919D01*
X119765Y15934D01*
X119750Y15951D01*
X119729Y15970D01*
X119707Y15990D01*
X119682Y16007D01*
X119656Y16026D01*
X119626Y16043D01*
X119593Y16059D01*
X119561Y16071D01*
X119525Y16082D01*
X119486Y16089D01*
X119447Y16091D01*
D02*
G37*
G36*
X66668Y16860D02*
X66666D01*
X66657D01*
X66644D01*
X66627Y16858D01*
X66607Y16856D01*
X66584Y16851D01*
X66558Y16847D01*
X66528Y16843D01*
X66466Y16826D01*
X66433Y16813D01*
X66401Y16800D01*
X66369Y16783D01*
X66337Y16763D01*
X66307Y16742D01*
X66276Y16716D01*
X66274Y16714D01*
X66270Y16710D01*
X66264Y16701D01*
X66253Y16690D01*
X66242Y16675D01*
X66229Y16660D01*
X66216Y16638D01*
X66203Y16617D01*
X66188Y16593D01*
X66175Y16565D01*
X66162Y16535D01*
X66152Y16505D01*
X66141Y16471D01*
X66135Y16436D01*
X66130Y16398D01*
X66128Y16359D01*
Y16338D01*
X66130Y16322D01*
X66132Y16305D01*
X66137Y16284D01*
X66141Y16260D01*
X66147Y16234D01*
X66154Y16208D01*
X66165Y16181D01*
X66175Y16150D01*
X66190Y16120D01*
X66208Y16092D01*
X66227Y16062D01*
X66251Y16034D01*
X66276Y16009D01*
X66278Y16006D01*
X66283Y16002D01*
X66291Y15996D01*
X66304Y15987D01*
X66319Y15976D01*
X66339Y15963D01*
X66360Y15953D01*
X66386Y15938D01*
X66414Y15925D01*
X66444Y15914D01*
X66479Y15901D01*
X66515Y15890D01*
X66556Y15882D01*
X66599Y15875D01*
X66644Y15871D01*
X66694Y15869D01*
X66696D01*
X66704D01*
X66719D01*
X66737Y15871D01*
X66760Y15873D01*
X66786Y15875D01*
X66814Y15880D01*
X66846Y15886D01*
X66913Y15903D01*
X66947Y15914D01*
X66984Y15929D01*
X67018Y15944D01*
X67053Y15963D01*
X67085Y15985D01*
X67115Y16011D01*
X67117Y16013D01*
X67121Y16017D01*
X67130Y16026D01*
X67138Y16037D01*
X67151Y16049D01*
X67164Y16064D01*
X67179Y16084D01*
X67194Y16105D01*
X67207Y16129D01*
X67222Y16155D01*
X67248Y16213D01*
X67257Y16245D01*
X67265Y16277D01*
X67270Y16314D01*
X67272Y16350D01*
Y16370D01*
X67270Y16385D01*
X67268Y16402D01*
X67263Y16423D01*
X67257Y16447D01*
X67250Y16473D01*
X67242Y16501D01*
X67231Y16529D01*
X67216Y16559D01*
X67201Y16589D01*
X67181Y16619D01*
X67158Y16649D01*
X67132Y16679D01*
X67102Y16710D01*
X67100Y16712D01*
X67093Y16716D01*
X67085Y16722D01*
X67072Y16733D01*
X67055Y16744D01*
X67035Y16757D01*
X67012Y16770D01*
X66986Y16785D01*
X66956Y16798D01*
X66921Y16813D01*
X66887Y16826D01*
X66848Y16836D01*
X66807Y16847D01*
X66762Y16853D01*
X66717Y16858D01*
X66668Y16860D01*
D02*
G37*
G36*
X44524Y36488D02*
Y35703D01*
X45652D01*
X44524Y36488D01*
D02*
G37*
G36*
X87719Y78456D02*
X87717D01*
X87710Y78454D01*
X87701Y78450D01*
X87686Y78446D01*
X87669Y78439D01*
X87648Y78430D01*
X87622Y78424D01*
X87592Y78415D01*
X87557Y78407D01*
X87521Y78396D01*
X87480Y78387D01*
X87435Y78377D01*
X87385Y78366D01*
X87332Y78357D01*
X87274Y78347D01*
X87213Y78338D01*
X87211D01*
X87205Y78336D01*
X87196D01*
X87183Y78334D01*
X87166Y78332D01*
X87149Y78327D01*
X87108Y78321D01*
X87063Y78310D01*
X87018Y78299D01*
X86977Y78289D01*
X86960Y78282D01*
X86942Y78276D01*
X86938Y78273D01*
X86930Y78269D01*
X86915Y78261D01*
X86897Y78250D01*
X86878Y78237D01*
X86857Y78218D01*
X86837Y78198D01*
X86820Y78175D01*
X86818Y78172D01*
X86813Y78164D01*
X86807Y78151D01*
X86801Y78132D01*
X86792Y78110D01*
X86786Y78086D01*
X86781Y78058D01*
X86779Y78028D01*
Y78026D01*
Y78022D01*
Y78016D01*
X86781Y78007D01*
X86783Y77985D01*
X86790Y77955D01*
X86803Y77923D01*
X86818Y77889D01*
X86841Y77854D01*
X86854Y77837D01*
X86872Y77822D01*
X86874D01*
X86876Y77818D01*
X86882Y77816D01*
X86889Y77809D01*
X86900Y77803D01*
X86910Y77796D01*
X86942Y77781D01*
X86981Y77766D01*
X87028Y77753D01*
X87082Y77745D01*
X87147Y77740D01*
X87164D01*
X87177Y77742D01*
X87192D01*
X87211Y77745D01*
X87231Y77747D01*
X87254Y77751D01*
X87302Y77760D01*
X87355Y77772D01*
X87409Y77792D01*
X87463Y77818D01*
X87465D01*
X87469Y77822D01*
X87476Y77826D01*
X87486Y77833D01*
X87510Y77850D01*
X87540Y77874D01*
X87575Y77904D01*
X87609Y77940D01*
X87641Y77983D01*
X87669Y78031D01*
Y78033D01*
X87671Y78035D01*
X87673Y78041D01*
X87678Y78050D01*
X87680Y78061D01*
X87684Y78076D01*
X87689Y78091D01*
X87695Y78110D01*
X87699Y78129D01*
X87704Y78153D01*
X87708Y78179D01*
X87710Y78207D01*
X87714Y78237D01*
X87717Y78269D01*
X87719Y78306D01*
Y78342D01*
Y78456D01*
D02*
G37*
G36*
X77311Y79789D02*
Y79787D01*
X77308Y79778D01*
X77306Y79766D01*
X77302Y79748D01*
X77296Y79725D01*
X77291Y79699D01*
X77283Y79671D01*
X77276Y79639D01*
X77265Y79602D01*
X77257Y79566D01*
X77233Y79484D01*
X77205Y79398D01*
X77175Y79308D01*
X76898Y78572D01*
X77751D01*
X77489Y79267D01*
X77487Y79271D01*
X77485Y79282D01*
X77478Y79297D01*
X77470Y79321D01*
X77459Y79346D01*
X77448Y79379D01*
X77435Y79413D01*
X77422Y79452D01*
X77407Y79492D01*
X77394Y79533D01*
X77364Y79621D01*
X77336Y79707D01*
X77323Y79751D01*
X77311Y79789D01*
D02*
G37*
%LPD*%
D12*
X115830Y86811D02*
X126296D01*
Y80512D02*
Y86811D01*
X115830Y80512D02*
X126296D01*
X115830D02*
Y86811D01*
X108940Y16929D02*
X119406Y16929D01*
X119406Y10630D01*
X108940Y10630D02*
X119406Y10630D01*
X108940Y10630D02*
Y16929D01*
X61811Y24918D02*
X68110D01*
X61811Y14452D02*
X61811Y24918D01*
X61811Y14452D02*
X68110Y14452D01*
X68110Y24918D01*
X24213Y50811D02*
Y64985D01*
Y50811D02*
X48622D01*
Y64985D01*
X24213D02*
X48622D01*
X31693Y33964D02*
Y44430D01*
X25394Y33964D02*
X31693D01*
X25394D02*
Y44430D01*
X31693D01*
X47441Y33964D02*
Y44430D01*
X41142Y33964D02*
X47441D01*
X41142D02*
Y44430D01*
X47441D01*
X55309Y98646D02*
X92329D01*
Y56520D02*
Y98646D01*
X55309Y56520D02*
X92329D01*
X55309D02*
Y98646D01*
X67602Y125197D02*
X78067D01*
Y118898D02*
Y125197D01*
X67602Y118898D02*
X78067Y118898D01*
X67602Y118898D02*
Y125197D01*
M02*
