G04*
G04 #@! TF.GenerationSoftware,Altium Limited,Altium Designer,23.2.1 (34)*
G04*
G04 Layer_Color=255*
%FSLAX25Y25*%
%MOIN*%
G70*
G04*
G04 #@! TF.SameCoordinates,7C5D3EEA-5F35-4E34-AFA4-0489F6894B71*
G04*
G04*
G04 #@! TF.FilePolarity,Positive*
G04*
G01*
G75*
%ADD15R,0.03960X0.05151*%
%ADD16R,0.03937X0.04921*%
G04:AMPARAMS|DCode=19|XSize=15.75mil|YSize=47.24mil|CornerRadius=1.97mil|HoleSize=0mil|Usage=FLASHONLY|Rotation=270.000|XOffset=0mil|YOffset=0mil|HoleType=Round|Shape=RoundedRectangle|*
%AMROUNDEDRECTD19*
21,1,0.01575,0.04331,0,0,270.0*
21,1,0.01181,0.04724,0,0,270.0*
1,1,0.00394,-0.02165,-0.00591*
1,1,0.00394,-0.02165,0.00591*
1,1,0.00394,0.02165,0.00591*
1,1,0.00394,0.02165,-0.00591*
%
%ADD19ROUNDEDRECTD19*%
%ADD20R,0.05151X0.03960*%
%ADD22R,0.07480X0.09449*%
%ADD54C,0.06378*%
%ADD55C,0.05394*%
%ADD56R,0.05394X0.05394*%
%ADD57R,0.05394X0.05394*%
%ADD60R,0.03937X0.02756*%
%ADD61O,0.07677X0.02362*%
%ADD62O,0.02362X0.07677*%
D15*
X114080Y55118D02*
D03*
X108361D02*
D03*
X90645D02*
D03*
X96363D02*
D03*
D16*
X115157Y120079D02*
D03*
X121063D02*
D03*
D19*
X91142Y65256D02*
D03*
X91142Y67815D02*
D03*
X91142Y70374D02*
D03*
X91142Y72933D02*
D03*
Y75492D02*
D03*
Y78051D02*
D03*
Y80610D02*
D03*
X91142Y83169D02*
D03*
X91142Y85728D02*
D03*
X91142Y88287D02*
D03*
X113583Y65256D02*
D03*
X113583Y67815D02*
D03*
X113583Y70374D02*
D03*
X113583Y72933D02*
D03*
Y75492D02*
D03*
Y78051D02*
D03*
Y80610D02*
D03*
X113583Y83169D02*
D03*
X113583Y85728D02*
D03*
X113583Y88287D02*
D03*
D20*
X51354Y110143D02*
D03*
Y104424D02*
D03*
X67102Y110143D02*
D03*
Y104424D02*
D03*
D22*
X51157Y87599D02*
D03*
X67299D02*
D03*
D54*
X8399Y18905D02*
D03*
Y28905D02*
D03*
Y38905D02*
D03*
Y48905D02*
D03*
Y58905D02*
D03*
Y68905D02*
D03*
X141732Y17913D02*
D03*
Y27913D02*
D03*
Y37913D02*
D03*
Y47913D02*
D03*
Y57913D02*
D03*
Y67913D02*
D03*
Y77913D02*
D03*
Y87913D02*
D03*
Y97913D02*
D03*
Y107913D02*
D03*
Y117913D02*
D03*
Y127913D02*
D03*
Y137913D02*
D03*
X121457Y140748D02*
D03*
X111457D02*
D03*
X101457Y140748D02*
D03*
X91457Y140748D02*
D03*
X81457D02*
D03*
X71457D02*
D03*
D55*
X46260Y19685D02*
D03*
Y9685D02*
D03*
X36260Y19685D02*
D03*
Y9685D02*
D03*
X26260Y19685D02*
D03*
X22638Y79236D02*
D03*
Y89236D02*
D03*
Y99236D02*
D03*
D56*
X26260Y9685D02*
D03*
D57*
X22638Y109236D02*
D03*
D60*
X45276Y140158D02*
D03*
X21654D02*
D03*
X45276Y125591D02*
D03*
X21654D02*
D03*
D61*
X32480Y66142D02*
D03*
X32480Y62992D02*
D03*
X32480Y59843D02*
D03*
Y56693D02*
D03*
Y53543D02*
D03*
Y50394D02*
D03*
Y47244D02*
D03*
Y44094D02*
D03*
X65945D02*
D03*
Y47244D02*
D03*
Y50394D02*
D03*
Y53543D02*
D03*
Y56693D02*
D03*
Y59843D02*
D03*
X65945Y62992D02*
D03*
X65945Y66142D02*
D03*
D62*
X38189Y38386D02*
D03*
X41338D02*
D03*
X44488D02*
D03*
X47638D02*
D03*
X50787D02*
D03*
X53937D02*
D03*
X57086D02*
D03*
X60236D02*
D03*
Y71850D02*
D03*
X57086D02*
D03*
X53937D02*
D03*
X50787D02*
D03*
X47638D02*
D03*
X44488D02*
D03*
X41338D02*
D03*
X38189D02*
D03*
M02*
