G04*
G04 #@! TF.GenerationSoftware,Altium Limited,Altium Designer,23.2.1 (34)*
G04*
G04 Layer_Color=32768*
%FSLAX25Y25*%
%MOIN*%
G70*
G04*
G04 #@! TF.SameCoordinates,7C5D3EEA-5F35-4E34-AFA4-0489F6894B71*
G04*
G04*
G04 #@! TF.FilePolarity,Positive*
G04*
G01*
G75*
%ADD68C,0.00394*%
%ADD69C,0.00197*%
D68*
X122047Y43307D02*
Y47244D01*
X120079Y45276D02*
X124016D01*
X108268Y111221D02*
Y115157D01*
X106299Y113189D02*
X110236D01*
X91535Y31496D02*
Y35433D01*
X89567Y33465D02*
X93504D01*
X102362Y74803D02*
Y78740D01*
X100394Y76772D02*
X104331Y76772D01*
X38386Y130906D02*
Y134843D01*
X36417Y132874D02*
X40354D01*
X37402Y90551D02*
Y94488D01*
X35433Y92520D02*
X39370D01*
X118110Y118110D02*
Y122047D01*
X116142Y120079D02*
X120079D01*
X47244Y55118D02*
X51181D01*
X49212Y53150D02*
Y57087D01*
X103347Y71850D02*
X107283D01*
X105315Y69882D02*
Y73819D01*
D69*
X116732Y42126D02*
X127362D01*
X116732Y48425D02*
X127362D01*
Y42126D02*
Y48425D01*
X116732Y42126D02*
Y48425D01*
X94882Y133661D02*
X121654Y133661D01*
X94882Y92716D02*
X121653Y92716D01*
X121654Y133661D01*
X94882Y133661D02*
X94882Y92716D01*
X77559Y46850D02*
X105512Y46850D01*
X77559Y20079D02*
X105512Y20079D01*
X77559Y46850D02*
X77559Y20079D01*
X105512Y20079D02*
X105512Y46850D01*
X88386Y63386D02*
X116339Y63386D01*
X88386Y90158D02*
X116339D01*
X88386Y63386D02*
X88386Y90158D01*
X116339Y63386D02*
X116339Y90158D01*
X16536Y146851D02*
X60236D01*
X16536Y118898D02*
X60236Y118898D01*
X16536Y118898D02*
Y146851D01*
X60236Y118898D02*
Y146851D01*
X32283Y100984D02*
X42520D01*
X32283Y84055D02*
X42520D01*
Y100984D01*
X32283Y84055D02*
Y100984D01*
X112795Y116929D02*
X123425D01*
X112795Y123228D02*
X123425D01*
X112795Y116929D02*
Y123228D01*
X123425Y116929D02*
Y123228D01*
X71653Y32677D02*
Y77559D01*
X26771Y32677D02*
Y77559D01*
Y32677D02*
X71653D01*
X26771Y77559D02*
X71653D01*
X20276Y3701D02*
X52244D01*
Y25669D01*
X20276D02*
X52244D01*
X20276Y3701D02*
Y25669D01*
X16654Y73252D02*
Y115220D01*
Y73252D02*
X28622D01*
Y115220D01*
X16654D02*
X28622D01*
X108465Y66535D02*
Y77165D01*
X102165Y66535D02*
Y77165D01*
X108465D01*
X102165Y66535D02*
X108465D01*
M02*
