G04*
G04 #@! TF.GenerationSoftware,Altium Limited,Altium Designer,23.2.1 (34)*
G04*
G04 Layer_Color=16711935*
%FSLAX25Y25*%
%MOIN*%
G70*
G04*
G04 #@! TF.SameCoordinates,7C5D3EEA-5F35-4E34-AFA4-0489F6894B71*
G04*
G04*
G04 #@! TF.FilePolarity,Positive*
G04*
G01*
G75*
%ADD52C,0.01000*%
%ADD66C,0.00700*%
D52*
X13780Y150591D02*
X12797Y150555D01*
X11818Y150450D01*
X10851Y150276D01*
X9897Y150032D01*
X8964Y149722D01*
X8055Y149345D01*
X7176Y148905D01*
X6330Y148403D01*
X5522Y147842D01*
X4756Y147225D01*
X4036Y146555D01*
X3366Y145835D01*
X2748Y145069D01*
X2187Y144261D01*
X1685Y143415D01*
X1245Y142535D01*
X869Y141627D01*
X558Y140693D01*
X315Y139740D01*
X140Y138772D01*
X35Y137794D01*
X0Y136811D01*
X151575Y140748D02*
X151521Y141777D01*
X151360Y142794D01*
X151093Y143790D01*
X150724Y144751D01*
X150256Y145669D01*
X149695Y146533D01*
X149047Y147334D01*
X148318Y148062D01*
X147518Y148711D01*
X146653Y149272D01*
X145736Y149740D01*
X144774Y150109D01*
X143779Y150375D01*
X142761Y150537D01*
X141732Y150591D01*
Y0D02*
X142761Y54D01*
X143779Y215D01*
X144774Y482D01*
X145736Y851D01*
X146653Y1319D01*
X147518Y1880D01*
X148318Y2528D01*
X149047Y3257D01*
X149695Y4057D01*
X150256Y4921D01*
X150724Y5839D01*
X151093Y6801D01*
X151360Y7796D01*
X151521Y8814D01*
X151575Y9843D01*
X27Y13790D02*
X62Y12807D01*
X167Y11829D01*
X341Y10861D01*
X585Y9908D01*
X895Y8975D01*
X1272Y8066D01*
X1712Y7186D01*
X2214Y6341D01*
X2775Y5533D01*
X3392Y4767D01*
X4062Y4047D01*
X4782Y3376D01*
X5548Y2759D01*
X6356Y2198D01*
X7202Y1696D01*
X8082Y1256D01*
X8991Y880D01*
X9924Y569D01*
X10877Y326D01*
X11845Y151D01*
X12823Y46D01*
X13806Y11D01*
X151575Y9843D02*
X151575Y140748D01*
X13780Y150591D02*
X141732Y150591D01*
X26Y13790D02*
X27Y136811D01*
X13806Y0D02*
X141732Y0D01*
D66*
X97535Y31466D02*
Y35465D01*
X94870D01*
X93537Y31466D02*
Y34132D01*
X92204Y35465D01*
X90871Y34132D01*
Y31466D01*
X89538D02*
Y35465D01*
X86872D01*
X85539Y33465D02*
X82873D01*
X78875Y35465D02*
X81541D01*
X78875Y32799D01*
Y32132D01*
X79541Y31466D01*
X80874D01*
X81541Y32132D01*
X108362Y78770D02*
Y74772D01*
X105696D01*
X104364Y78770D02*
Y76105D01*
X103031Y74772D01*
X101698Y76105D01*
Y78770D01*
X100365D02*
Y74772D01*
X97699D01*
X96366Y76771D02*
X93700D01*
X92367Y74772D02*
X91035D01*
X91701D01*
Y78770D01*
X92367Y78104D01*
M02*
