G04*
G04 #@! TF.GenerationSoftware,Altium Limited,Altium Designer,23.2.1 (34)*
G04*
G04 Layer_Physical_Order=2*
G04 Layer_Color=16711680*
%FSLAX25Y25*%
%MOIN*%
G70*
G04*
G04 #@! TF.SameCoordinates,E1977E32-75BF-4710-9DAA-36D8A4D6ACA6*
G04*
G04*
G04 #@! TF.FilePolarity,Positive*
G04*
G01*
G75*
%ADD15R,0.03960X0.05151*%
%ADD16R,0.03937X0.04921*%
G04:AMPARAMS|DCode=19|XSize=15.75mil|YSize=47.24mil|CornerRadius=1.97mil|HoleSize=0mil|Usage=FLASHONLY|Rotation=270.000|XOffset=0mil|YOffset=0mil|HoleType=Round|Shape=RoundedRectangle|*
%AMROUNDEDRECTD19*
21,1,0.01575,0.04331,0,0,270.0*
21,1,0.01181,0.04724,0,0,270.0*
1,1,0.00394,-0.02165,-0.00591*
1,1,0.00394,-0.02165,0.00591*
1,1,0.00394,0.02165,0.00591*
1,1,0.00394,0.02165,-0.00591*
%
%ADD19ROUNDEDRECTD19*%
%ADD20R,0.05151X0.03960*%
%ADD22R,0.07480X0.09449*%
%ADD52C,0.01000*%
%ADD54C,0.06378*%
%ADD55C,0.05394*%
%ADD56R,0.05394X0.05394*%
%ADD57R,0.05394X0.05394*%
%ADD58C,0.09843*%
%ADD59C,0.05000*%
%ADD60R,0.03937X0.02756*%
%ADD61O,0.07677X0.02362*%
%ADD62O,0.02362X0.07677*%
G36*
X144369Y149440D02*
X146014Y148759D01*
X147495Y147770D01*
X148754Y146511D01*
X149743Y145030D01*
X150425Y143385D01*
X150772Y141638D01*
Y140748D01*
X150772Y9843D01*
X150772Y8952D01*
X150425Y7206D01*
X149743Y5561D01*
X148754Y4080D01*
X147495Y2821D01*
X146014Y1832D01*
X144369Y1150D01*
X142623Y803D01*
X141732D01*
X13806Y814D01*
X13806Y814D01*
X13806Y814D01*
X12955D01*
X11269Y1036D01*
X9626Y1476D01*
X8054Y2127D01*
X6581Y2977D01*
X5232Y4013D01*
X4029Y5216D01*
X2993Y6565D01*
X2142Y8038D01*
X1491Y9610D01*
X1051Y11253D01*
X829Y12940D01*
Y13790D01*
X829Y13790D01*
X829Y13791D01*
X803Y136811D01*
Y137662D01*
X1025Y139348D01*
X1465Y140991D01*
X2116Y142563D01*
X2967Y144036D01*
X4002Y145386D01*
X5205Y146588D01*
X6555Y147624D01*
X8028Y148475D01*
X9599Y149126D01*
X11242Y149566D01*
X12929Y149788D01*
X142623D01*
X144369Y149440D01*
D02*
G37*
%LPC*%
G36*
X116968Y146563D02*
X99597D01*
X99090Y146462D01*
X98660Y146175D01*
X95318Y142832D01*
X94822Y142897D01*
X94649Y143198D01*
X93906Y143940D01*
X92997Y144465D01*
X91982Y144737D01*
X90932D01*
X89917Y144465D01*
X89008Y143940D01*
X88265Y143198D01*
X87740Y142288D01*
X87468Y141273D01*
Y140223D01*
X87740Y139208D01*
X88265Y138299D01*
X89008Y137556D01*
X89917Y137031D01*
X90932Y136759D01*
X91288D01*
X91480Y136297D01*
X84777Y129594D01*
X44524D01*
X37355Y136764D01*
X36925Y137051D01*
X36417Y137152D01*
X27124D01*
X24422Y139854D01*
Y142335D01*
X18885D01*
Y137980D01*
X22548D01*
X25638Y134889D01*
X26068Y134602D01*
X26575Y134501D01*
X35868D01*
X41497Y128872D01*
X28590Y115965D01*
X28303Y115535D01*
X28202Y115028D01*
Y83568D01*
X26274Y81640D01*
X26055Y81312D01*
X25674Y81258D01*
X25492Y81287D01*
X25436Y81383D01*
X24785Y82034D01*
X23988Y82495D01*
X23098Y82733D01*
X22177D01*
X21288Y82495D01*
X20491Y82034D01*
X19840Y81383D01*
X19379Y80586D01*
X19141Y79697D01*
Y78776D01*
X19379Y77887D01*
X19840Y77089D01*
X20491Y76438D01*
X21288Y75978D01*
X22177Y75740D01*
X22279D01*
X22547Y75239D01*
X22517Y75195D01*
X22416Y74688D01*
Y73995D01*
X19917Y71496D01*
X19135Y71706D01*
X18266D01*
X17427Y71481D01*
X16675Y71046D01*
X16060Y70432D01*
X15626Y69679D01*
X15401Y68840D01*
Y67971D01*
X15626Y67132D01*
X16060Y66379D01*
X16675Y65765D01*
X17375Y65360D01*
Y58156D01*
X17476Y57649D01*
X17763Y57219D01*
X19226Y55756D01*
X19656Y55468D01*
X20164Y55368D01*
X24023D01*
X24027Y54869D01*
X23519Y54768D01*
X23089Y54481D01*
X23017Y54409D01*
X18949D01*
X15239Y58118D01*
Y63390D01*
X15138Y63897D01*
X14851Y64327D01*
X12005Y67173D01*
X12116Y67365D01*
X12388Y68379D01*
Y69430D01*
X12116Y70444D01*
X11591Y71354D01*
X10848Y72097D01*
X9939Y72622D01*
X8924Y72894D01*
X7874D01*
X6859Y72622D01*
X5950Y72097D01*
X5207Y71354D01*
X4682Y70444D01*
X4410Y69430D01*
Y68379D01*
X4682Y67365D01*
X5207Y66455D01*
X5950Y65713D01*
X6859Y65188D01*
X7874Y64916D01*
X8924D01*
X9939Y65188D01*
X10131Y65298D01*
X12588Y62841D01*
Y60771D01*
X12523Y60730D01*
X11856Y60895D01*
X11591Y61354D01*
X10848Y62097D01*
X9939Y62622D01*
X8924Y62894D01*
X7874D01*
X6859Y62622D01*
X5950Y62097D01*
X5207Y61354D01*
X4682Y60444D01*
X4410Y59430D01*
Y58380D01*
X4682Y57365D01*
X5207Y56455D01*
X5950Y55713D01*
X6859Y55187D01*
X7874Y54916D01*
X8924D01*
X9939Y55187D01*
X10131Y55298D01*
X15973Y49457D01*
X16403Y49169D01*
X16910Y49068D01*
X16907Y48570D01*
X12388D01*
Y49430D01*
X12116Y50444D01*
X11591Y51354D01*
X10848Y52097D01*
X9939Y52622D01*
X8924Y52894D01*
X7874D01*
X6859Y52622D01*
X5950Y52097D01*
X5207Y51354D01*
X4682Y50444D01*
X4410Y49430D01*
Y48379D01*
X4682Y47365D01*
X5207Y46455D01*
X5950Y45713D01*
X6859Y45188D01*
X7874Y44916D01*
X8924D01*
X9939Y45188D01*
X10848Y45713D01*
X11131Y45995D01*
X11515Y45919D01*
X13586D01*
X13589Y45420D01*
X13082Y45319D01*
X12652Y45032D01*
X10131Y42511D01*
X9939Y42622D01*
X8924Y42894D01*
X7874D01*
X6859Y42622D01*
X5950Y42097D01*
X5207Y41354D01*
X4682Y40444D01*
X4410Y39430D01*
Y38379D01*
X4682Y37365D01*
X5207Y36455D01*
X5950Y35713D01*
X6859Y35188D01*
X7874Y34916D01*
X8924D01*
X9939Y35188D01*
X10848Y35713D01*
X11591Y36455D01*
X12116Y37365D01*
X12388Y38379D01*
Y39430D01*
X12116Y40444D01*
X12005Y40637D01*
X14138Y42769D01*
X28326D01*
X28394Y42666D01*
X29050Y42228D01*
X29822Y42074D01*
X35138D01*
X35910Y42228D01*
X36066Y42332D01*
X36426Y41972D01*
X36323Y41816D01*
X36169Y41043D01*
Y39711D01*
X17880D01*
X17373Y39610D01*
X16943Y39323D01*
X10131Y32511D01*
X9939Y32622D01*
X8924Y32894D01*
X7874D01*
X6859Y32622D01*
X5950Y32097D01*
X5207Y31354D01*
X4682Y30444D01*
X4410Y29430D01*
Y28379D01*
X4682Y27365D01*
X5207Y26455D01*
X5950Y25713D01*
X6859Y25188D01*
X7874Y24916D01*
X8924D01*
X9939Y25188D01*
X10848Y25713D01*
X11591Y26455D01*
X12116Y27365D01*
X12388Y28379D01*
Y29430D01*
X12116Y30444D01*
X12005Y30637D01*
X18429Y37060D01*
X36169D01*
Y35728D01*
X36323Y34955D01*
X36761Y34300D01*
X36957Y34169D01*
X36805Y33669D01*
X25426D01*
X24919Y33568D01*
X24489Y33281D01*
X12467Y21259D01*
X11646D01*
X11591Y21354D01*
X10848Y22097D01*
X9939Y22622D01*
X8924Y22894D01*
X7874D01*
X6859Y22622D01*
X5950Y22097D01*
X5207Y21354D01*
X4682Y20444D01*
X4410Y19430D01*
Y18380D01*
X4682Y17365D01*
X5207Y16455D01*
X5950Y15713D01*
X6859Y15188D01*
X7874Y14916D01*
X8924D01*
X9939Y15188D01*
X10848Y15713D01*
X11591Y16455D01*
X12116Y17365D01*
X12388Y18380D01*
Y18608D01*
X13016D01*
X13524Y18709D01*
X13954Y18996D01*
X25975Y31018D01*
X38313D01*
X38820Y31119D01*
X39250Y31406D01*
X41605Y33762D01*
X42111Y33862D01*
X42663Y34231D01*
X43031Y34106D01*
X43163Y34009D01*
Y30183D01*
X43264Y29675D01*
X43551Y29245D01*
X44258Y28538D01*
X44361Y28469D01*
X44928Y27902D01*
Y27125D01*
X45153Y26285D01*
X45588Y25533D01*
X46202Y24918D01*
X46955Y24484D01*
X47794Y24259D01*
X48663D01*
X49502Y24484D01*
X49560Y24517D01*
X49993Y24267D01*
Y21613D01*
X49493Y21479D01*
X49218Y21955D01*
X48530Y22643D01*
X47687Y23130D01*
X47260Y23244D01*
Y19685D01*
X46260D01*
Y18685D01*
X42700D01*
X42815Y18258D01*
X43245Y17514D01*
X43066Y17014D01*
X39187D01*
X38996Y17476D01*
X39058Y17538D01*
X39518Y18335D01*
X39757Y19225D01*
Y20145D01*
X39518Y21035D01*
X39058Y21832D01*
X38407Y22483D01*
X37610Y22944D01*
X36720Y23182D01*
X35800D01*
X34910Y22944D01*
X34113Y22483D01*
X33462Y21832D01*
X33001Y21035D01*
X32763Y20145D01*
Y20057D01*
X32301Y19866D01*
X31545Y20622D01*
X31115Y20910D01*
X30608Y21011D01*
X29525D01*
X29518Y21035D01*
X29058Y21832D01*
X28407Y22483D01*
X27610Y22944D01*
X26720Y23182D01*
X25800D01*
X24910Y22944D01*
X24113Y22483D01*
X23462Y21832D01*
X23001Y21035D01*
X22763Y20145D01*
Y19225D01*
X23001Y18335D01*
X23462Y17538D01*
X24113Y16887D01*
X24910Y16427D01*
X25800Y16188D01*
X26720D01*
X27610Y16427D01*
X28407Y16887D01*
X29058Y17538D01*
X29518Y18335D01*
X29525Y18360D01*
X30058D01*
X33667Y14751D01*
X34097Y14464D01*
X34604Y14363D01*
X42757D01*
X42949Y13901D01*
X40058Y11011D01*
X39525D01*
X39518Y11035D01*
X39058Y11832D01*
X38407Y12483D01*
X37610Y12944D01*
X36720Y13182D01*
X35800D01*
X34910Y12944D01*
X34113Y12483D01*
X33462Y11832D01*
X33001Y11035D01*
X32763Y10145D01*
Y9225D01*
X33001Y8335D01*
X33462Y7538D01*
X34113Y6887D01*
X34910Y6426D01*
X35800Y6188D01*
X36720D01*
X37610Y6426D01*
X38407Y6887D01*
X39058Y7538D01*
X39518Y8335D01*
X39525Y8360D01*
X40608D01*
X41115Y8461D01*
X41545Y8748D01*
X42301Y9504D01*
X42763Y9313D01*
Y9225D01*
X43001Y8335D01*
X43462Y7538D01*
X44113Y6887D01*
X44910Y6426D01*
X45799Y6188D01*
X46720D01*
X47610Y6426D01*
X48407Y6887D01*
X49058Y7538D01*
X49518Y8335D01*
X49757Y9225D01*
Y10145D01*
X49518Y11035D01*
X49058Y11832D01*
X48898Y11992D01*
X49089Y12454D01*
X54134D01*
X54641Y12555D01*
X55071Y12842D01*
X67514Y25286D01*
X67802Y25716D01*
X67903Y26223D01*
Y27711D01*
X68203Y27792D01*
X68955Y28226D01*
X69570Y28841D01*
X70004Y29593D01*
X70229Y30433D01*
Y31301D01*
X70004Y32141D01*
X69570Y32893D01*
X68955Y33508D01*
X68203Y33942D01*
X67364Y34167D01*
X66495D01*
X65655Y33942D01*
X64903Y33508D01*
X64740Y33345D01*
X62256Y35829D01*
Y41043D01*
X62102Y41816D01*
X61998Y41971D01*
X62359Y42332D01*
X62514Y42228D01*
X63287Y42074D01*
X68602D01*
X69375Y42228D01*
X70030Y42666D01*
X70099Y42769D01*
X78920D01*
X86707Y34981D01*
Y23367D01*
X86007Y22963D01*
X85392Y22348D01*
X84958Y21596D01*
X84733Y20756D01*
Y19888D01*
X84958Y19048D01*
X85392Y18296D01*
X86007Y17681D01*
X86707Y17277D01*
Y10826D01*
X81447Y5566D01*
X57999D01*
X57865Y6066D01*
X58129Y6218D01*
X58743Y6832D01*
X59148Y7533D01*
X66929D01*
X67436Y7634D01*
X67866Y7921D01*
X73587Y13642D01*
X74369Y13432D01*
X75238D01*
X76077Y13657D01*
X76829Y14092D01*
X77444Y14706D01*
X77878Y15459D01*
X78103Y16298D01*
Y17167D01*
X77878Y18006D01*
X77444Y18758D01*
X76829Y19373D01*
X76077Y19807D01*
X75238Y20032D01*
X74369D01*
X73529Y19807D01*
X72777Y19373D01*
X72162Y18758D01*
X71728Y18006D01*
X71503Y17167D01*
Y16298D01*
X71713Y15516D01*
X66380Y10184D01*
X59148D01*
X58743Y10885D01*
X58129Y11499D01*
X57376Y11933D01*
X56537Y12158D01*
X55668D01*
X54829Y11933D01*
X54076Y11499D01*
X53462Y10885D01*
X53027Y10132D01*
X52802Y9293D01*
Y8424D01*
X53027Y7585D01*
X53462Y6832D01*
X54076Y6218D01*
X54339Y6066D01*
X54206Y5566D01*
X27585D01*
Y6188D01*
X29757D01*
Y13182D01*
X22763D01*
Y6188D01*
X24934D01*
Y4826D01*
X25035Y4319D01*
X25323Y3889D01*
X25908Y3303D01*
X26338Y3015D01*
X26846Y2915D01*
X81996D01*
X82503Y3015D01*
X82933Y3303D01*
X88970Y9340D01*
X89258Y9770D01*
X89358Y10277D01*
Y17277D01*
X90059Y17681D01*
X90674Y18296D01*
X91108Y19048D01*
X91333Y19888D01*
Y20756D01*
X91108Y21596D01*
X90674Y22348D01*
X90059Y22963D01*
X89358Y23367D01*
Y35530D01*
X89258Y36037D01*
X88970Y36467D01*
X80406Y45032D01*
X79976Y45319D01*
X79469Y45420D01*
X79471Y45919D01*
X81693D01*
X82200Y46020D01*
X82630Y46307D01*
X83430Y47106D01*
X84211Y46897D01*
X85080D01*
X85919Y47122D01*
X86672Y47556D01*
X87286Y48171D01*
X87721Y48923D01*
X87946Y49762D01*
Y50631D01*
X87835Y51043D01*
X88219Y51543D01*
X89645D01*
Y54118D01*
X87665D01*
Y52516D01*
X87165Y52345D01*
X86672Y52838D01*
X85919Y53272D01*
X85080Y53497D01*
X84211D01*
X83372Y53272D01*
X82619Y52838D01*
X82005Y52223D01*
X81571Y51471D01*
X81346Y50631D01*
Y49762D01*
X81555Y48981D01*
X81144Y48570D01*
X70674D01*
X70395Y49070D01*
X70527Y49284D01*
X70744Y49327D01*
X71174Y49614D01*
X87256Y65697D01*
X87756Y65489D01*
Y64665D01*
X87849Y64198D01*
X88113Y63802D01*
X88509Y63538D01*
X88976Y63445D01*
X90142D01*
Y65256D01*
X91142D01*
Y66208D01*
X93307D01*
X93549Y66256D01*
X94446D01*
X94434Y66313D01*
X94170Y66709D01*
X94164Y66713D01*
X94246Y66835D01*
X94323Y67224D01*
Y68405D01*
X94246Y68795D01*
X94046Y69095D01*
X94246Y69394D01*
X94323Y69784D01*
Y70965D01*
X94246Y71354D01*
X94046Y71653D01*
X94246Y71954D01*
X94323Y72342D01*
Y73524D01*
X94246Y73913D01*
X94046Y74213D01*
X94246Y74513D01*
X94323Y74902D01*
Y76083D01*
X94246Y76472D01*
X94046Y76772D01*
X94246Y77072D01*
X94323Y77461D01*
Y78642D01*
X94246Y79031D01*
X94046Y79331D01*
X94246Y79631D01*
X94323Y80020D01*
Y81201D01*
X94246Y81590D01*
X94046Y81890D01*
X94227Y82162D01*
X94336Y82213D01*
X94746Y82320D01*
X95038Y82086D01*
Y58493D01*
X93625D01*
Y58693D01*
X91645D01*
Y55118D01*
Y51543D01*
X93558D01*
Y49172D01*
X90783Y46398D01*
X90001Y46607D01*
X89132D01*
X88293Y46382D01*
X87541Y45948D01*
X86926Y45333D01*
X86492Y44581D01*
X86267Y43742D01*
Y42873D01*
X86492Y42033D01*
X86926Y41281D01*
X87541Y40666D01*
X88293Y40232D01*
X89132Y40007D01*
X90001D01*
X90841Y40232D01*
X91593Y40666D01*
X92208Y41281D01*
X92642Y42033D01*
X92867Y42873D01*
Y43742D01*
X92658Y44523D01*
X95821Y47686D01*
X96108Y48116D01*
X96209Y48623D01*
Y51743D01*
X99143D01*
Y58493D01*
X97689D01*
Y82821D01*
X97588Y83328D01*
X97300Y83758D01*
X95617Y85441D01*
X104653Y94477D01*
X104940Y94907D01*
X105041Y95414D01*
Y107596D01*
X114263Y116818D01*
X117926D01*
Y116818D01*
X118295D01*
Y116818D01*
X123831D01*
Y123339D01*
X122782D01*
Y136974D01*
X122996Y137031D01*
X123906Y137556D01*
X124649Y138299D01*
X125174Y139208D01*
X125446Y140223D01*
Y141273D01*
X125174Y142288D01*
X124649Y143198D01*
X123906Y143940D01*
X122996Y144465D01*
X121982Y144737D01*
X120932D01*
X119917Y144465D01*
X119725Y144354D01*
X117905Y146175D01*
X117475Y146462D01*
X116968Y146563D01*
D02*
G37*
G36*
X72457Y144817D02*
Y141748D01*
X75526D01*
X75360Y142365D01*
X74809Y143320D01*
X74029Y144100D01*
X73074Y144652D01*
X72457Y144817D01*
D02*
G37*
G36*
X70457D02*
X69840Y144652D01*
X68885Y144100D01*
X68105Y143320D01*
X67553Y142365D01*
X67388Y141748D01*
X70457D01*
Y144817D01*
D02*
G37*
G36*
X48044Y142335D02*
X42507D01*
Y137980D01*
X48044D01*
Y142335D01*
D02*
G37*
G36*
X81982Y144737D02*
X80932D01*
X79917Y144465D01*
X79008Y143940D01*
X78265Y143198D01*
X77740Y142288D01*
X77468Y141273D01*
Y140223D01*
X77740Y139208D01*
X78265Y138299D01*
X79008Y137556D01*
X79917Y137031D01*
X80932Y136759D01*
X81982D01*
X82996Y137031D01*
X83906Y137556D01*
X84649Y138299D01*
X85174Y139208D01*
X85446Y140223D01*
Y141273D01*
X85174Y142288D01*
X84649Y143198D01*
X83906Y143940D01*
X82996Y144465D01*
X81982Y144737D01*
D02*
G37*
G36*
X75526Y139748D02*
X72457D01*
Y136679D01*
X73074Y136845D01*
X74029Y137396D01*
X74809Y138176D01*
X75360Y139131D01*
X75526Y139748D01*
D02*
G37*
G36*
X70457D02*
X67388D01*
X67553Y139131D01*
X68105Y138176D01*
X68885Y137396D01*
X69840Y136845D01*
X70457Y136679D01*
Y139748D01*
D02*
G37*
G36*
X142257Y141902D02*
X141207D01*
X140193Y141631D01*
X139283Y141105D01*
X138540Y140363D01*
X138015Y139453D01*
X137743Y138439D01*
Y137388D01*
X138015Y136374D01*
X138126Y136182D01*
X128168Y126224D01*
X127881Y125794D01*
X127780Y125287D01*
Y97174D01*
X120219Y89613D01*
X116442D01*
X116137Y89817D01*
X115748Y89894D01*
X111417D01*
X111028Y89817D01*
X110699Y89597D01*
X110478Y89267D01*
X110401Y88878D01*
Y87697D01*
X110478Y87308D01*
X110679Y87008D01*
X110478Y86708D01*
X110469Y86662D01*
X110044Y86378D01*
X107424Y83758D01*
X107137Y83328D01*
X107036Y82821D01*
Y58493D01*
X105581D01*
Y51743D01*
X107036D01*
Y17677D01*
X106439Y17079D01*
X105618D01*
X104779Y16855D01*
X104026Y16420D01*
X103412Y15806D01*
X102977Y15053D01*
X102752Y14214D01*
Y13345D01*
X102977Y12506D01*
X103412Y11753D01*
X104026Y11139D01*
X104779Y10704D01*
X105618Y10480D01*
X106487D01*
X107326Y10704D01*
X108079Y11139D01*
X108693Y11753D01*
X109127Y12506D01*
X109352Y13345D01*
Y14214D01*
X109127Y15053D01*
X108774Y15666D01*
X109299Y16190D01*
X109586Y16620D01*
X109687Y17128D01*
Y50536D01*
X110187Y50743D01*
X110624Y50306D01*
X111054Y50018D01*
X111561Y49917D01*
X135062D01*
X135569Y50018D01*
X135999Y50306D01*
X140000Y54307D01*
X140193Y54196D01*
X141207Y53924D01*
X142257D01*
X143272Y54196D01*
X144182Y54721D01*
X144924Y55464D01*
X145449Y56374D01*
X145721Y57388D01*
Y58439D01*
X145449Y59453D01*
X144924Y60363D01*
X144182Y61105D01*
X143272Y61631D01*
X142257Y61902D01*
X141207D01*
X140193Y61631D01*
X139283Y61105D01*
X138540Y60363D01*
X138015Y59453D01*
X137743Y58439D01*
Y57388D01*
X138015Y56374D01*
X138126Y56182D01*
X134513Y52568D01*
X117060D01*
Y54118D01*
X114080D01*
Y55118D01*
X113080D01*
Y58693D01*
X111100D01*
Y58493D01*
X109687D01*
Y82086D01*
X109978Y82320D01*
X110388Y82213D01*
X110497Y82162D01*
X110679Y81890D01*
X110478Y81590D01*
X110401Y81201D01*
Y80020D01*
X110478Y79631D01*
X110679Y79331D01*
X110478Y79031D01*
X110401Y78642D01*
Y77461D01*
X110478Y77072D01*
X110679Y76772D01*
X110478Y76472D01*
X110401Y76083D01*
Y74902D01*
X110478Y74513D01*
X110679Y74213D01*
X110478Y73913D01*
X110401Y73524D01*
Y72342D01*
X110478Y71954D01*
X110679Y71653D01*
X110478Y71354D01*
X110401Y70965D01*
Y69784D01*
X110478Y69394D01*
X110679Y69095D01*
X110478Y68795D01*
X110401Y68405D01*
Y67224D01*
X110478Y66835D01*
X110679Y66535D01*
X110478Y66235D01*
X110401Y65847D01*
Y64665D01*
X110478Y64276D01*
X110699Y63947D01*
X111028Y63726D01*
X111417Y63649D01*
X114890D01*
X118453Y60086D01*
X118883Y59799D01*
X119390Y59698D01*
X120970D01*
X121375Y58997D01*
X121990Y58383D01*
X122742Y57948D01*
X123581Y57724D01*
X124450D01*
X125289Y57948D01*
X126042Y58383D01*
X126656Y58997D01*
X127091Y59750D01*
X127316Y60589D01*
Y61458D01*
X127091Y62297D01*
X126656Y63050D01*
X126042Y63664D01*
X125289Y64099D01*
X124450Y64324D01*
X123581D01*
X122742Y64099D01*
X121990Y63664D01*
X121375Y63050D01*
X120970Y62349D01*
X119939D01*
X116764Y65523D01*
Y65847D01*
X116726Y66039D01*
X116998Y66472D01*
X117086Y66539D01*
X137971D01*
X138015Y66374D01*
X138540Y65464D01*
X139283Y64721D01*
X140193Y64196D01*
X141207Y63924D01*
X142257D01*
X143272Y64196D01*
X144182Y64721D01*
X144924Y65464D01*
X145449Y66374D01*
X145721Y67388D01*
Y68439D01*
X145449Y69453D01*
X144924Y70363D01*
X144182Y71105D01*
X143272Y71631D01*
X142257Y71902D01*
X141207D01*
X140193Y71631D01*
X139283Y71105D01*
X138540Y70363D01*
X138015Y69453D01*
X137944Y69190D01*
X135590D01*
X135383Y69690D01*
X140000Y74307D01*
X140193Y74196D01*
X141207Y73924D01*
X142257D01*
X143272Y74196D01*
X144182Y74721D01*
X144924Y75464D01*
X145449Y76374D01*
X145721Y77388D01*
Y78439D01*
X145449Y79453D01*
X144924Y80363D01*
X144182Y81105D01*
X143272Y81630D01*
X142257Y81902D01*
X141207D01*
X140193Y81630D01*
X139283Y81105D01*
X138540Y80363D01*
X138015Y79453D01*
X137743Y78439D01*
Y77388D01*
X138015Y76374D01*
X138126Y76182D01*
X133644Y71700D01*
X129202D01*
X128995Y72199D01*
X140823Y84027D01*
X141207Y83924D01*
X142257D01*
X143272Y84196D01*
X144182Y84721D01*
X144924Y85464D01*
X145449Y86374D01*
X145721Y87388D01*
Y88439D01*
X145449Y89453D01*
X144924Y90363D01*
X144182Y91105D01*
X143272Y91631D01*
X142257Y91902D01*
X141207D01*
X140193Y91631D01*
X139283Y91105D01*
X138540Y90363D01*
X138015Y89453D01*
X137743Y88439D01*
Y87388D01*
X138015Y86374D01*
X138530Y85483D01*
X127305Y74259D01*
X120659D01*
X120452Y74758D01*
X140000Y94307D01*
X140193Y94196D01*
X141207Y93924D01*
X142257D01*
X143272Y94196D01*
X144182Y94721D01*
X144924Y95464D01*
X145449Y96374D01*
X145721Y97388D01*
Y98439D01*
X145449Y99453D01*
X144924Y100363D01*
X144182Y101105D01*
X143272Y101631D01*
X142257Y101902D01*
X141207D01*
X140193Y101631D01*
X139283Y101105D01*
X138540Y100363D01*
X138015Y99453D01*
X137743Y98439D01*
Y97388D01*
X138015Y96374D01*
X138126Y96182D01*
X136630Y94686D01*
X136168Y94877D01*
Y100475D01*
X140000Y104307D01*
X140193Y104196D01*
X141207Y103924D01*
X142257D01*
X143272Y104196D01*
X144182Y104721D01*
X144924Y105464D01*
X145449Y106374D01*
X145721Y107388D01*
Y108439D01*
X145449Y109453D01*
X144924Y110363D01*
X144182Y111105D01*
X143272Y111631D01*
X142257Y111902D01*
X141207D01*
X140193Y111631D01*
X139283Y111105D01*
X138540Y110363D01*
X138015Y109453D01*
X137743Y108439D01*
Y107388D01*
X138015Y106374D01*
X138126Y106182D01*
X134493Y102549D01*
X134031Y102740D01*
Y108338D01*
X140000Y114307D01*
X140193Y114196D01*
X141207Y113924D01*
X142257D01*
X143272Y114196D01*
X144182Y114721D01*
X144924Y115464D01*
X145449Y116374D01*
X145721Y117388D01*
Y118439D01*
X145449Y119453D01*
X144924Y120363D01*
X144182Y121105D01*
X143272Y121631D01*
X142257Y121902D01*
X141207D01*
X140193Y121631D01*
X139283Y121105D01*
X138540Y120363D01*
X138015Y119453D01*
X137743Y118439D01*
Y117388D01*
X138015Y116374D01*
X138126Y116182D01*
X132693Y110749D01*
X132231Y110940D01*
Y116538D01*
X140000Y124307D01*
X140193Y124196D01*
X141207Y123924D01*
X142257D01*
X143272Y124196D01*
X144182Y124721D01*
X144924Y125464D01*
X145449Y126374D01*
X145721Y127388D01*
Y128439D01*
X145449Y129453D01*
X144924Y130363D01*
X144182Y131105D01*
X143272Y131631D01*
X142257Y131902D01*
X141207D01*
X140193Y131631D01*
X139283Y131105D01*
X138540Y130363D01*
X138015Y129453D01*
X137743Y128439D01*
Y127388D01*
X138015Y126374D01*
X138126Y126182D01*
X130893Y118948D01*
X130431Y119140D01*
Y124738D01*
X140000Y134307D01*
X140193Y134196D01*
X141207Y133924D01*
X142257D01*
X143272Y134196D01*
X144182Y134721D01*
X144924Y135464D01*
X145449Y136374D01*
X145721Y137388D01*
Y138439D01*
X145449Y139453D01*
X144924Y140363D01*
X144182Y141105D01*
X143272Y141631D01*
X142257Y141902D01*
D02*
G37*
G36*
X24622Y127969D02*
X22654D01*
Y126591D01*
X24622D01*
Y127969D01*
D02*
G37*
G36*
X20654D02*
X18685D01*
Y126591D01*
X20654D01*
Y127969D01*
D02*
G37*
G36*
X24622Y124591D02*
X22654D01*
Y123213D01*
X24622D01*
Y124591D01*
D02*
G37*
G36*
X20654D02*
X18685D01*
Y123213D01*
X20654D01*
Y124591D01*
D02*
G37*
G36*
X26135Y112733D02*
X19141D01*
Y105739D01*
X26135D01*
Y112733D01*
D02*
G37*
G36*
X23638Y102796D02*
Y100236D01*
X26197D01*
X26083Y100663D01*
X25596Y101506D01*
X24908Y102194D01*
X24065Y102681D01*
X23638Y102796D01*
D02*
G37*
G36*
X21638Y102796D02*
X21211Y102681D01*
X20368Y102194D01*
X19680Y101506D01*
X19193Y100663D01*
X19079Y100236D01*
X21638D01*
Y102796D01*
D02*
G37*
G36*
Y98236D02*
X19079D01*
X19193Y97809D01*
X19680Y96966D01*
X20368Y96278D01*
X21211Y95791D01*
X21638Y95677D01*
Y98236D01*
D02*
G37*
G36*
X26197D02*
X23638D01*
Y95677D01*
X24065Y95791D01*
X24908Y96278D01*
X25596Y96966D01*
X26083Y97809D01*
X26197Y98236D01*
D02*
G37*
G36*
X23098Y92733D02*
X22177D01*
X21288Y92495D01*
X20491Y92035D01*
X19840Y91383D01*
X19379Y90586D01*
X19141Y89697D01*
Y88776D01*
X19379Y87887D01*
X19840Y87089D01*
X20491Y86438D01*
X21288Y85978D01*
X22177Y85739D01*
X23098D01*
X23988Y85978D01*
X24785Y86438D01*
X25436Y87089D01*
X25896Y87887D01*
X26135Y88776D01*
Y89697D01*
X25896Y90586D01*
X25436Y91383D01*
X24785Y92035D01*
X23988Y92495D01*
X23098Y92733D01*
D02*
G37*
G36*
X94446Y64256D02*
X92142D01*
Y63445D01*
X93307D01*
X93774Y63538D01*
X94170Y63802D01*
X94434Y64198D01*
X94446Y64256D01*
D02*
G37*
G36*
X117060Y58693D02*
X115080D01*
Y56118D01*
X117060D01*
Y58693D01*
D02*
G37*
G36*
X89645D02*
X87665D01*
Y56118D01*
X89645D01*
Y58693D01*
D02*
G37*
G36*
X142732Y51982D02*
Y48913D01*
X145801D01*
X145636Y49530D01*
X145084Y50485D01*
X144304Y51265D01*
X143349Y51817D01*
X142732Y51982D01*
D02*
G37*
G36*
X140732D02*
X140115Y51817D01*
X139160Y51265D01*
X138380Y50485D01*
X137829Y49530D01*
X137663Y48913D01*
X140732D01*
Y51982D01*
D02*
G37*
G36*
X145801Y46913D02*
X142732D01*
Y43845D01*
X143349Y44010D01*
X144304Y44561D01*
X145084Y45341D01*
X145636Y46297D01*
X145801Y46913D01*
D02*
G37*
G36*
X140732D02*
X137663D01*
X137829Y46297D01*
X138380Y45341D01*
X139160Y44561D01*
X140115Y44010D01*
X140732Y43845D01*
Y46913D01*
D02*
G37*
G36*
X142257Y41902D02*
X141207D01*
X140193Y41631D01*
X139283Y41105D01*
X138540Y40363D01*
X138015Y39453D01*
X137743Y38439D01*
Y37388D01*
X138015Y36374D01*
X138540Y35464D01*
X139283Y34721D01*
X140193Y34196D01*
X141207Y33924D01*
X142257D01*
X143272Y34196D01*
X144182Y34721D01*
X144924Y35464D01*
X145449Y36374D01*
X145721Y37388D01*
Y38439D01*
X145449Y39453D01*
X144924Y40363D01*
X144182Y41105D01*
X143272Y41631D01*
X142257Y41902D01*
D02*
G37*
G36*
Y31902D02*
X141207D01*
X140193Y31631D01*
X139283Y31105D01*
X138540Y30363D01*
X138015Y29453D01*
X137743Y28439D01*
Y27388D01*
X138015Y26374D01*
X138540Y25464D01*
X139283Y24721D01*
X140193Y24196D01*
X141207Y23924D01*
X142257D01*
X143272Y24196D01*
X144182Y24721D01*
X144924Y25464D01*
X145449Y26374D01*
X145721Y27388D01*
Y28439D01*
X145449Y29453D01*
X144924Y30363D01*
X144182Y31105D01*
X143272Y31631D01*
X142257Y31902D01*
D02*
G37*
G36*
X45260Y23244D02*
X44833Y23130D01*
X43990Y22643D01*
X43302Y21955D01*
X42815Y21112D01*
X42700Y20685D01*
X45260D01*
Y23244D01*
D02*
G37*
G36*
X142257Y21902D02*
X141207D01*
X140193Y21631D01*
X139283Y21105D01*
X138540Y20363D01*
X138015Y19453D01*
X137743Y18439D01*
Y17388D01*
X138015Y16374D01*
X138540Y15464D01*
X139283Y14721D01*
X140193Y14196D01*
X141207Y13924D01*
X142257D01*
X143272Y14196D01*
X144182Y14721D01*
X144924Y15464D01*
X145449Y16374D01*
X145721Y17388D01*
Y18439D01*
X145449Y19453D01*
X144924Y20363D01*
X144182Y21105D01*
X143272Y21631D01*
X142257Y21902D01*
D02*
G37*
G36*
X119529Y39717D02*
X118660D01*
X117821Y39492D01*
X117068Y39058D01*
X116454Y38444D01*
X116019Y37691D01*
X115795Y36852D01*
Y35983D01*
X116019Y35144D01*
X116454Y34391D01*
X117068Y33777D01*
X117821Y33342D01*
X118660Y33117D01*
X119529D01*
X120311Y33327D01*
X124659Y28978D01*
Y11376D01*
X121295Y8012D01*
X120513Y8221D01*
X119644D01*
X118805Y7996D01*
X118052Y7562D01*
X117438Y6948D01*
X117004Y6195D01*
X116779Y5356D01*
Y4487D01*
X117004Y3647D01*
X117438Y2895D01*
X118052Y2281D01*
X118805Y1846D01*
X119644Y1621D01*
X120513D01*
X121353Y1846D01*
X122105Y2281D01*
X122719Y2895D01*
X123154Y3647D01*
X123379Y4487D01*
Y5356D01*
X123169Y6137D01*
X126921Y9889D01*
X127209Y10319D01*
X127310Y10827D01*
Y29528D01*
X127209Y30035D01*
X126921Y30465D01*
X122185Y35201D01*
X122395Y35983D01*
Y36852D01*
X122170Y37691D01*
X121735Y38444D01*
X121121Y39058D01*
X120368Y39492D01*
X119529Y39717D01*
D02*
G37*
%LPD*%
G36*
X117850Y142480D02*
X117740Y142288D01*
X117468Y141273D01*
Y140223D01*
X117740Y139208D01*
X118265Y138299D01*
X119008Y137556D01*
X119917Y137031D01*
X120131Y136974D01*
Y123339D01*
X118295D01*
Y123339D01*
X117926D01*
Y123339D01*
X113817D01*
X113760Y123351D01*
X110069Y127042D01*
X109639Y127329D01*
X109132Y127430D01*
X108680D01*
X108489Y128144D01*
X108054Y128896D01*
X107440Y129511D01*
X106687Y129945D01*
X105848Y130170D01*
X104979D01*
X104140Y129945D01*
X103387Y129511D01*
X102773Y128896D01*
X102338Y128144D01*
X102113Y127304D01*
Y126436D01*
X102338Y125596D01*
X102773Y124844D01*
X103387Y124229D01*
X104140Y123795D01*
X104979Y123570D01*
X105848D01*
X106687Y123795D01*
X107440Y124229D01*
X107990Y124779D01*
X108582D01*
X112260Y121102D01*
X112389Y121016D01*
Y118693D01*
X102779Y109082D01*
X102491Y108652D01*
X102390Y108145D01*
Y95963D01*
X94785Y88358D01*
X94323Y88549D01*
Y88878D01*
X94246Y89267D01*
X94026Y89597D01*
X93696Y89817D01*
X93307Y89894D01*
X92467D01*
Y101365D01*
X92366Y101872D01*
X92079Y102302D01*
X73533Y120847D01*
X73103Y121135D01*
X72596Y121236D01*
X51179D01*
X50987Y121698D01*
X52427Y123137D01*
X95171D01*
X95678Y123238D01*
X96108Y123525D01*
X109725Y137142D01*
X109917Y137031D01*
X110932Y136759D01*
X111982D01*
X112996Y137031D01*
X113906Y137556D01*
X114649Y138299D01*
X115174Y139208D01*
X115446Y140223D01*
Y141273D01*
X115174Y142288D01*
X114649Y143198D01*
X114397Y143450D01*
X114588Y143912D01*
X116419D01*
X117850Y142480D01*
D02*
G37*
G36*
X108517Y143450D02*
X108265Y143198D01*
X107740Y142288D01*
X107468Y141273D01*
Y140223D01*
X107740Y139208D01*
X107851Y139016D01*
X94622Y125788D01*
X89025D01*
X88833Y126250D01*
X99725Y137142D01*
X99917Y137031D01*
X100932Y136759D01*
X101982D01*
X102997Y137031D01*
X103906Y137556D01*
X104649Y138299D01*
X105174Y139208D01*
X105446Y140223D01*
Y141273D01*
X105174Y142288D01*
X104649Y143198D01*
X104396Y143450D01*
X104588Y143912D01*
X108326D01*
X108517Y143450D01*
D02*
G37*
G36*
X83320Y104766D02*
Y87352D01*
X83421Y86844D01*
X83708Y86414D01*
X87603Y82520D01*
X87729Y82436D01*
X87577Y81936D01*
X86490D01*
X85982Y81835D01*
X85552Y81547D01*
X71472Y67467D01*
X70099D01*
X70030Y67570D01*
X69375Y68008D01*
X68602Y68162D01*
X63287D01*
X62514Y68008D01*
X62359Y67904D01*
X61998Y68265D01*
X62102Y68420D01*
X62256Y69193D01*
Y74508D01*
X62102Y75281D01*
X61664Y75936D01*
X61562Y76005D01*
Y78388D01*
X63048Y79874D01*
X72094D01*
Y95622D01*
X68427D01*
Y101645D01*
X70477D01*
Y107163D01*
X70677D01*
Y109143D01*
X67102D01*
X63527D01*
Y107163D01*
X63727D01*
Y101645D01*
X65776D01*
Y95622D01*
X52680D01*
Y101645D01*
X54729D01*
Y107163D01*
X54929D01*
Y109143D01*
X51354D01*
X47779D01*
Y107163D01*
X47979D01*
Y101645D01*
X50029D01*
Y95622D01*
X46503D01*
Y79874D01*
X54078D01*
X55761Y78191D01*
Y76227D01*
X55630Y76131D01*
X55261Y76006D01*
X54710Y76374D01*
X53937Y76528D01*
X53164Y76374D01*
X52888Y76190D01*
X52360Y76080D01*
X51787Y76463D01*
Y71850D01*
X49787D01*
Y76463D01*
X49215Y76080D01*
X48687Y76190D01*
X48411Y76374D01*
X47638Y76528D01*
X46865Y76374D01*
X46589Y76190D01*
X46060Y76080D01*
X45488Y76463D01*
Y71850D01*
Y67238D01*
X46060Y67620D01*
X46589Y67511D01*
X46865Y67327D01*
X47371Y67226D01*
X48822Y65775D01*
X49252Y65487D01*
X49760Y65386D01*
X51815D01*
X52111Y65445D01*
X52611Y65125D01*
Y60592D01*
X52712Y60084D01*
X53000Y59654D01*
X55624Y57030D01*
Y46058D01*
X54416Y44850D01*
X52909D01*
X52402Y44749D01*
X51972Y44462D01*
X50520Y43010D01*
X50014Y42909D01*
X49738Y42725D01*
X49210Y42616D01*
X48638Y42998D01*
Y38386D01*
X46638D01*
Y42998D01*
X46065Y42616D01*
X45537Y42725D01*
X45261Y42909D01*
X44488Y43063D01*
X43715Y42909D01*
X43060Y42472D01*
X42767D01*
X42111Y42909D01*
X41338Y43063D01*
X40565Y42909D01*
X39910Y42472D01*
X39617D01*
X38962Y42909D01*
X38189Y43063D01*
X37416Y42909D01*
X37260Y42805D01*
X36900Y43166D01*
X37004Y43321D01*
X37157Y44094D01*
X37004Y44867D01*
X36708Y45310D01*
X36607Y45669D01*
X36708Y46029D01*
X37004Y46471D01*
X37157Y47244D01*
X37004Y48017D01*
X36566Y48673D01*
Y48965D01*
X37004Y49621D01*
X37157Y50394D01*
X37004Y51167D01*
X36566Y51822D01*
Y52115D01*
X37004Y52770D01*
X37157Y53543D01*
X37004Y54316D01*
X36708Y54759D01*
X36607Y55118D01*
X36708Y55478D01*
X37004Y55920D01*
X37157Y56693D01*
X37004Y57466D01*
X36566Y58121D01*
Y58414D01*
X37004Y59070D01*
X37157Y59843D01*
X37004Y60616D01*
X36708Y61058D01*
X36566Y61564D01*
X37004Y62219D01*
X37157Y62992D01*
X37004Y63765D01*
X36635Y64316D01*
X36760Y64685D01*
X36857Y64816D01*
X37640D01*
X49183Y53273D01*
Y52200D01*
X48483Y51796D01*
X47868Y51181D01*
X47434Y50429D01*
X47209Y49589D01*
Y48720D01*
X47434Y47881D01*
X47868Y47129D01*
X48483Y46514D01*
X49235Y46080D01*
X50074Y45855D01*
X50943D01*
X51783Y46080D01*
X52535Y46514D01*
X53150Y47129D01*
X53584Y47881D01*
X53809Y48720D01*
Y49589D01*
X53584Y50429D01*
X53150Y51181D01*
X52535Y51796D01*
X51834Y52200D01*
Y53822D01*
X51733Y54329D01*
X51446Y54759D01*
X39277Y66928D01*
X39274Y67432D01*
X39617Y67765D01*
X39910D01*
X40565Y67327D01*
X41338Y67173D01*
X42111Y67327D01*
X42387Y67511D01*
X42915Y67620D01*
X43488Y67238D01*
Y71850D01*
Y76463D01*
X43164Y76246D01*
X42664Y76514D01*
Y108283D01*
X47279Y112898D01*
X47779Y112691D01*
Y111143D01*
X50354D01*
Y113122D01*
X48211D01*
X48004Y113622D01*
X51166Y116785D01*
X71301D01*
X83320Y104766D01*
D02*
G37*
G36*
X42507Y125479D02*
Y123413D01*
X45755D01*
X45946Y122951D01*
X31543Y108548D01*
X31353Y108263D01*
X30853Y108415D01*
Y114479D01*
X42045Y125671D01*
X42507Y125479D01*
D02*
G37*
G36*
X89816Y100815D02*
Y89894D01*
X88976D01*
X88587Y89817D01*
X88258Y89597D01*
X88037Y89267D01*
X87960Y88878D01*
Y87697D01*
X88037Y87308D01*
X88238Y87008D01*
X88037Y86708D01*
X88010Y86569D01*
X87473Y86399D01*
X85971Y87901D01*
Y104007D01*
X86433Y104199D01*
X89816Y100815D01*
D02*
G37*
G36*
X36863Y82682D02*
Y76005D01*
X36761Y75936D01*
X36323Y75281D01*
X36169Y74508D01*
Y69193D01*
X36323Y68420D01*
X36426Y68265D01*
X36066Y67904D01*
X35910Y68008D01*
X35138Y68162D01*
X29822D01*
X29167Y68031D01*
X28667Y68308D01*
Y69879D01*
X32201Y73413D01*
X32488Y73843D01*
X32589Y74350D01*
Y79115D01*
X36363Y82889D01*
X36863Y82682D01*
D02*
G37*
G36*
X59463Y67327D02*
X60236Y67173D01*
X61009Y67327D01*
X61164Y67431D01*
X61525Y67070D01*
X61421Y66915D01*
X61267Y66142D01*
X61421Y65369D01*
X61716Y64927D01*
X61818Y64567D01*
X61716Y64207D01*
X61421Y63765D01*
X61267Y62992D01*
X61421Y62219D01*
X61716Y61777D01*
X61859Y61271D01*
X61421Y60616D01*
X61267Y59843D01*
X61421Y59070D01*
X61859Y58414D01*
Y58121D01*
X61421Y57466D01*
X61267Y56693D01*
X61421Y55920D01*
X61859Y55265D01*
Y54972D01*
X61421Y54316D01*
X61267Y53543D01*
X61421Y52770D01*
X61716Y52328D01*
X61818Y51969D01*
X61716Y51609D01*
X61421Y51167D01*
X61267Y50394D01*
X61421Y49621D01*
X61859Y48965D01*
Y48673D01*
X61421Y48017D01*
X61267Y47244D01*
X61421Y46471D01*
X61717Y46029D01*
X61818Y45669D01*
X61717Y45310D01*
X61421Y44867D01*
X61267Y44094D01*
X61421Y43321D01*
X61525Y43166D01*
X61164Y42806D01*
X61009Y42909D01*
X60236Y43063D01*
X59463Y42909D01*
X59021Y42614D01*
X58661Y42513D01*
X58302Y42614D01*
X57859Y42909D01*
X57353Y43010D01*
X56839Y43524D01*
X57887Y44572D01*
X58174Y45002D01*
X58275Y45509D01*
Y57579D01*
X58174Y58086D01*
X57887Y58516D01*
X55262Y61141D01*
Y67474D01*
X55393Y67570D01*
X55762Y67695D01*
X56313Y67327D01*
X57086Y67173D01*
X57859Y67327D01*
X58515Y67765D01*
X58808D01*
X59463Y67327D01*
D02*
G37*
G36*
X24216Y71393D02*
Y63765D01*
X24317Y63257D01*
X24604Y62827D01*
X27856Y59576D01*
X27956Y59070D01*
X28325Y58518D01*
X28200Y58150D01*
X28103Y58018D01*
X20713D01*
X20026Y58705D01*
Y65360D01*
X20727Y65765D01*
X21341Y66379D01*
X21776Y67132D01*
X22001Y67971D01*
Y68840D01*
X21791Y69622D01*
X23754Y71584D01*
X24216Y71393D01*
D02*
G37*
G36*
X59463Y33862D02*
X60236Y33708D01*
X60563Y33773D01*
X63629Y30707D01*
Y30433D01*
X63854Y29593D01*
X64289Y28841D01*
X64903Y28226D01*
X65252Y28025D01*
Y26772D01*
X58762Y20282D01*
X58686Y20299D01*
X58329Y20886D01*
X58418Y21219D01*
Y22088D01*
X58193Y22927D01*
X57759Y23680D01*
X57144Y24294D01*
X56392Y24729D01*
X55553Y24953D01*
X55262D01*
Y34009D01*
X55393Y34106D01*
X55762Y34231D01*
X56313Y33862D01*
X57086Y33708D01*
X57859Y33862D01*
X58515Y34300D01*
X58808D01*
X59463Y33862D01*
D02*
G37*
%LPC*%
G36*
X54929Y113122D02*
X52354D01*
Y111143D01*
X54929D01*
Y113122D01*
D02*
G37*
G36*
X70677Y113122D02*
X68102D01*
Y111143D01*
X70677D01*
Y113122D01*
D02*
G37*
G36*
X66102D02*
X63527D01*
Y111143D01*
X66102D01*
Y113122D01*
D02*
G37*
%LPD*%
D15*
X114080Y55118D02*
D03*
X108361D02*
D03*
X90645D02*
D03*
X96363D02*
D03*
D16*
X115157Y120079D02*
D03*
X121063D02*
D03*
D19*
X91142Y65256D02*
D03*
X91142Y67815D02*
D03*
X91142Y70374D02*
D03*
X91142Y72933D02*
D03*
Y75492D02*
D03*
Y78051D02*
D03*
Y80610D02*
D03*
X91142Y83169D02*
D03*
X91142Y85728D02*
D03*
X91142Y88287D02*
D03*
X113583Y65256D02*
D03*
X113583Y67815D02*
D03*
X113583Y70374D02*
D03*
X113583Y72933D02*
D03*
Y75492D02*
D03*
Y78051D02*
D03*
Y80610D02*
D03*
X113583Y83169D02*
D03*
X113583Y85728D02*
D03*
X113583Y88287D02*
D03*
D20*
X51354Y110143D02*
D03*
Y104424D02*
D03*
X67102Y110143D02*
D03*
Y104424D02*
D03*
D22*
X51157Y87599D02*
D03*
X67299D02*
D03*
D52*
X29528Y83019D02*
Y115028D01*
X42769Y128269D01*
X27211Y80703D02*
X29528Y83019D01*
X32480Y83426D02*
Y107610D01*
X51132Y126263D01*
X35794Y84195D02*
Y108379D01*
X51878Y124463D01*
X31263Y79664D02*
X35794Y84195D01*
X50509Y49155D02*
Y53822D01*
X38189Y66142D02*
X50509Y53822D01*
X56950Y45509D02*
Y57579D01*
X53937Y60592D02*
X56950Y57579D01*
X54965Y43524D02*
X56950Y45509D01*
X18701Y68405D02*
X23741Y73446D01*
Y74688D01*
X18701Y58156D02*
Y68405D01*
Y58156D02*
X20164Y56693D01*
X8399Y68905D02*
X13914Y63390D01*
Y57569D02*
Y63390D01*
Y57569D02*
X18400Y53083D01*
X23566D01*
X24027Y53543D01*
X32480D01*
X8399Y58905D02*
X16910Y50394D01*
X32480D01*
X11515Y47244D02*
X32480D01*
X9854Y48905D02*
X11515Y47244D01*
X8399Y48905D02*
X9854D01*
X13589Y44094D02*
X32480D01*
X8399Y38905D02*
X13589Y44094D01*
X8399Y28905D02*
X17880Y38386D01*
X38189D01*
X41338Y35369D02*
Y38386D01*
X38313Y32343D02*
X41338Y35369D01*
X25426Y32343D02*
X38313D01*
X13016Y19934D02*
X25426Y32343D01*
X8399Y18905D02*
X9428Y19934D01*
X13016D01*
X94883Y48623D02*
Y53638D01*
X89567Y43307D02*
X94883Y48623D01*
Y53638D02*
X96363Y55118D01*
X65945Y47244D02*
X81693D01*
X84646Y50197D01*
X88033Y10277D02*
Y35530D01*
X81996Y4240D02*
X88033Y10277D01*
X79469Y44094D02*
X88033Y35530D01*
X65945Y44094D02*
X79469D01*
X65945Y50394D02*
X66102Y50551D01*
X70236D01*
X87500Y67815D01*
X70683Y53543D02*
X87279Y70140D01*
X65945Y53543D02*
X70683D01*
X125984Y10827D02*
Y29528D01*
X120079Y4921D02*
X125984Y10827D01*
X108361Y54523D02*
X110800Y52084D01*
X108361Y17128D02*
Y54523D01*
X106052Y14819D02*
X108361Y17128D01*
Y54523D02*
Y55118D01*
Y82821D01*
X26846Y4240D02*
X81996D01*
X26575Y135827D02*
X36417D01*
X43975Y128269D01*
X22244Y140158D02*
X26575Y135827D01*
X66929Y8858D02*
X74803Y16732D01*
X56102Y8858D02*
X66929D01*
X50787Y35360D02*
Y38386D01*
Y35360D02*
X52028Y34119D01*
Y25985D02*
Y34119D01*
X34604Y15688D02*
X47915D01*
X51318Y19091D01*
X30608Y19685D02*
X34604Y15688D01*
X51318Y19091D02*
Y25275D01*
X52028Y25985D01*
X26260Y19685D02*
X30608D01*
X113689Y122039D02*
X115157Y120571D01*
X109132Y126105D02*
X113197Y122039D01*
X106179Y126105D02*
X109132D01*
X105413Y126870D02*
X106179Y126105D01*
X115157Y120079D02*
Y120571D01*
X113197Y122039D02*
X113689D01*
X53937Y60592D02*
Y68834D01*
X49760Y66712D02*
X51815D01*
X47638Y68834D02*
X49760Y66712D01*
X47638Y68834D02*
Y71850D01*
X53937Y68834D02*
Y71850D01*
X51815Y66712D02*
X53937Y68834D01*
X50787Y38386D02*
Y41403D01*
X52909Y43524D01*
X54965D01*
X57086Y38386D02*
Y41403D01*
X54965Y43524D02*
X57086Y41403D01*
X45229Y29476D02*
X47146Y27559D01*
X45195Y29476D02*
X45229D01*
X47146Y27559D02*
X48228D01*
X44488Y30183D02*
X45195Y29476D01*
X44488Y30183D02*
Y38386D01*
X53937Y23917D02*
X55118Y22736D01*
Y21654D02*
Y22736D01*
X53937Y23917D02*
Y38386D01*
X40608Y9685D02*
X44702Y13780D01*
X54134D01*
X36260Y9685D02*
X40608D01*
X42769Y128269D02*
X43975D01*
X85326D01*
X27341Y65114D02*
Y70428D01*
X29011Y77411D02*
Y79957D01*
X25541Y73942D02*
X29011Y77411D01*
X27341Y70428D02*
X31263Y74350D01*
Y79664D01*
X27211Y78157D02*
Y80703D01*
X27341Y65114D02*
X29463Y62992D01*
X23741Y74688D02*
X27211Y78157D01*
X29011Y79957D02*
X32480Y83426D01*
X25541Y63765D02*
Y73942D01*
Y63765D02*
X29463Y59843D01*
X21654Y140158D02*
X22244D01*
X50617Y118110D02*
X71850D01*
X41338Y108832D02*
X50617Y118110D01*
X49871Y119910D02*
X72596D01*
X51878Y124463D02*
X95171D01*
X51132Y126263D02*
X86971D01*
X38189Y108228D02*
X49871Y119910D01*
X41338Y71850D02*
Y108832D01*
X38189Y71850D02*
Y108228D01*
X20164Y56693D02*
X32480D01*
X26260Y4826D02*
Y9685D01*
Y4826D02*
X26846Y4240D01*
X66136Y30074D02*
X66929Y30867D01*
X115157Y119587D02*
Y120079D01*
X103716Y108145D02*
X115157Y119587D01*
X103716Y95414D02*
Y108145D01*
X93743Y85441D02*
X103716Y95414D01*
X121457Y120473D02*
Y140748D01*
X121063Y120079D02*
X121457Y120473D01*
X116968Y145237D02*
X121457Y140748D01*
X99597Y145237D02*
X116968D01*
X95946Y141586D02*
X99597Y145237D01*
X95946Y138889D02*
Y141586D01*
X85326Y128269D02*
X95946Y138889D01*
X86971Y126263D02*
X101457Y140748D01*
X29463Y59843D02*
X32480D01*
X95171Y124463D02*
X111457Y140748D01*
X71850Y118110D02*
X84646Y105315D01*
X72596Y119910D02*
X91142Y101365D01*
X29463Y62992D02*
X32480D01*
X32480Y66142D02*
X38189D01*
X54134Y13780D02*
X66577Y26223D01*
X119095Y36417D02*
X125984Y29528D01*
X60236Y35974D02*
X66136Y30074D01*
X66683Y29528D01*
X66577Y26223D02*
Y29175D01*
X66929Y29528D01*
X106052Y13780D02*
Y14819D01*
X135062Y51243D02*
X141732Y57913D01*
X111561Y51243D02*
X135062D01*
X110800Y52004D02*
Y52084D01*
Y52004D02*
X111561Y51243D01*
X115157Y65256D02*
X119390Y61024D01*
X124016D01*
X113583Y65256D02*
X115157D01*
X66683Y29528D02*
X66929D01*
X60236Y35974D02*
Y38386D01*
X132705Y108887D02*
X141732Y117913D01*
X130905Y95065D02*
Y117087D01*
X129105Y96625D02*
Y125287D01*
X130905Y117087D02*
X141732Y127913D01*
X129105Y125287D02*
X141732Y137913D01*
X134843Y101024D02*
X141732Y107913D01*
Y86811D02*
Y87913D01*
X134843Y93569D02*
Y101024D01*
X132705Y94320D02*
Y108887D01*
X91142Y88287D02*
Y101365D01*
X84646Y87352D02*
Y105315D01*
Y87352D02*
X88541Y83457D01*
X51354Y87795D02*
Y104424D01*
X51157Y87599D02*
X51354Y87795D01*
X51157Y87599D02*
X53867Y84889D01*
Y81960D02*
X57086Y78740D01*
X53867Y81960D02*
Y84889D01*
X60236Y78937D02*
X64059Y82759D01*
X67102Y87795D02*
Y104424D01*
Y87795D02*
X67299Y87599D01*
X57086Y71850D02*
Y78740D01*
X60236Y71850D02*
Y78937D01*
X64059Y82759D02*
Y84358D01*
X67299Y87599D01*
X113295Y85441D02*
X113583Y85728D01*
X110982Y85441D02*
X113295D01*
X108361Y82821D02*
X110982Y85441D01*
X93743D02*
X96363Y82821D01*
X88541Y83457D02*
X90854D01*
X113632Y67864D02*
X141683D01*
X134193Y70374D02*
X141732Y77913D01*
X113583Y70374D02*
X134193D01*
X113583Y72933D02*
X127854D01*
X141732Y86811D01*
X119311Y75492D02*
X141732Y97913D01*
X113583Y80610D02*
X118996D01*
X119325Y78051D02*
X134843Y93569D01*
X119010Y83169D02*
X130905Y95065D01*
X113583Y78051D02*
X119325D01*
X113583Y83169D02*
X119010D01*
X113583Y75492D02*
X119311D01*
X118996Y80610D02*
X132705Y94320D01*
X113583Y88287D02*
X120768D01*
X129105Y96625D01*
X113583Y67815D02*
X113632Y67864D01*
X141683D02*
X141732Y67913D01*
X96363Y55118D02*
Y82821D01*
X90908Y70140D02*
X91142Y70374D01*
X90854Y83457D02*
X91142Y83169D01*
X71283Y56693D02*
X87523Y72933D01*
X87500Y67815D02*
X91142D01*
X87279Y70140D02*
X90908D01*
X87523Y72933D02*
X91142D01*
X71574Y59843D02*
X87224Y75492D01*
X91142D01*
X86929Y78051D02*
X91142D01*
X71870Y62992D02*
X86929Y78051D01*
X86490Y80610D02*
X91142D01*
X72021Y66142D02*
X86490Y80610D01*
X65945Y66142D02*
X72021D01*
X65945Y59843D02*
X71574D01*
X65945Y62992D02*
X71870D01*
X65945Y56693D02*
X71283D01*
D54*
X8399Y18905D02*
D03*
Y28905D02*
D03*
Y38905D02*
D03*
Y48905D02*
D03*
Y58905D02*
D03*
Y68905D02*
D03*
X141732Y17913D02*
D03*
Y27913D02*
D03*
Y37913D02*
D03*
Y47913D02*
D03*
Y57913D02*
D03*
Y67913D02*
D03*
Y77913D02*
D03*
Y87913D02*
D03*
Y97913D02*
D03*
Y107913D02*
D03*
Y117913D02*
D03*
Y127913D02*
D03*
Y137913D02*
D03*
X121457Y140748D02*
D03*
X111457D02*
D03*
X101457Y140748D02*
D03*
X91457Y140748D02*
D03*
X81457D02*
D03*
X71457D02*
D03*
D55*
X46260Y19685D02*
D03*
Y9685D02*
D03*
X36260Y19685D02*
D03*
Y9685D02*
D03*
X26260Y19685D02*
D03*
X22638Y79236D02*
D03*
Y89236D02*
D03*
Y99236D02*
D03*
D56*
X26260Y9685D02*
D03*
D57*
X22638Y109236D02*
D03*
D58*
X13780Y9843D02*
D03*
X8858Y118110D02*
D03*
X132874Y8858D02*
D03*
D59*
X50509Y49155D02*
D03*
X18701Y68405D02*
D03*
X89567Y43307D02*
D03*
X84646Y50197D02*
D03*
X88033Y20322D02*
D03*
X120079Y4921D02*
D03*
X72835Y35433D02*
D03*
X82677Y14764D02*
D03*
X74803Y77756D02*
D03*
X27559Y28543D02*
D03*
X74803Y16732D02*
D03*
X56102Y8858D02*
D03*
X105413Y126870D02*
D03*
X48228Y27559D02*
D03*
X55118Y21654D02*
D03*
X66929Y30867D02*
D03*
X119095Y36417D02*
D03*
X106052Y13780D02*
D03*
X124016Y61024D02*
D03*
D60*
X45276Y140158D02*
D03*
X21654D02*
D03*
X45276Y125591D02*
D03*
X21654D02*
D03*
D61*
X32480Y66142D02*
D03*
X32480Y62992D02*
D03*
X32480Y59843D02*
D03*
Y56693D02*
D03*
Y53543D02*
D03*
Y50394D02*
D03*
Y47244D02*
D03*
Y44094D02*
D03*
X65945D02*
D03*
Y47244D02*
D03*
Y50394D02*
D03*
Y53543D02*
D03*
Y56693D02*
D03*
Y59843D02*
D03*
X65945Y62992D02*
D03*
X65945Y66142D02*
D03*
D62*
X38189Y38386D02*
D03*
X41338D02*
D03*
X44488D02*
D03*
X47638D02*
D03*
X50787D02*
D03*
X53937D02*
D03*
X57086D02*
D03*
X60236D02*
D03*
Y71850D02*
D03*
X57086D02*
D03*
X53937D02*
D03*
X50787D02*
D03*
X47638D02*
D03*
X44488D02*
D03*
X41338D02*
D03*
X38189D02*
D03*
M02*
