G04*
G04 #@! TF.GenerationSoftware,Altium Limited,Altium Designer,23.2.1 (34)*
G04*
G04 Layer_Color=0*
%FSLAX25Y25*%
%MOIN*%
G70*
G04*
G04 #@! TF.SameCoordinates,7C5D3EEA-5F35-4E34-AFA4-0489F6894B71*
G04*
G04*
G04 #@! TF.FilePolarity,Positive*
G04*
G01*
G75*
%ADD68C,0.00394*%
%ADD70C,0.00394*%
G36*
X10899Y7952D02*
X7024D01*
X7028Y7948D01*
X7032Y7944D01*
X7045Y7931D01*
X7058Y7914D01*
X7079Y7889D01*
X7100Y7863D01*
X7126Y7834D01*
X7155Y7800D01*
X7219Y7715D01*
X7287Y7617D01*
X7363Y7503D01*
X7444Y7376D01*
X7448Y7372D01*
X7452Y7359D01*
X7465Y7342D01*
X7478Y7316D01*
X7495Y7287D01*
X7516Y7248D01*
X7537Y7206D01*
X7562Y7164D01*
X7613Y7062D01*
X7664Y6956D01*
X7715Y6846D01*
X7757Y6740D01*
X7168D01*
X7164Y6744D01*
X7155Y6761D01*
X7142Y6791D01*
X7126Y6825D01*
X7100Y6871D01*
X7075Y6922D01*
X7041Y6977D01*
X7003Y7041D01*
X6965Y7109D01*
X6918Y7181D01*
X6820Y7329D01*
X6710Y7478D01*
X6587Y7626D01*
X6583Y7630D01*
X6570Y7643D01*
X6553Y7664D01*
X6528Y7689D01*
X6498Y7719D01*
X6460Y7757D01*
X6422Y7795D01*
X6375Y7838D01*
X6273Y7927D01*
X6163Y8016D01*
X6044Y8101D01*
X5981Y8135D01*
X5921Y8169D01*
Y8563D01*
X10899D01*
Y7952D01*
D02*
G37*
G36*
X9373Y80292D02*
X9411D01*
X9462Y80288D01*
X9517Y80279D01*
X9576Y80271D01*
X9640Y80258D01*
X9708Y80245D01*
X9856Y80211D01*
X10009Y80160D01*
X10085Y80127D01*
X10161Y80093D01*
X10166Y80088D01*
X10178Y80084D01*
X10200Y80072D01*
X10225Y80054D01*
X10259Y80033D01*
X10297Y80008D01*
X10340Y79982D01*
X10386Y79949D01*
X10484Y79868D01*
X10585Y79775D01*
X10683Y79660D01*
X10730Y79601D01*
X10772Y79537D01*
X10776Y79533D01*
X10780Y79520D01*
X10793Y79503D01*
X10806Y79474D01*
X10823Y79444D01*
X10840Y79402D01*
X10857Y79355D01*
X10878Y79304D01*
X10899Y79249D01*
X10916Y79190D01*
X10933Y79122D01*
X10950Y79054D01*
X10976Y78901D01*
X10980Y78821D01*
X10984Y78740D01*
Y78706D01*
X10980Y78668D01*
X10976Y78613D01*
X10967Y78549D01*
X10954Y78473D01*
X10937Y78388D01*
X10912Y78299D01*
X10882Y78202D01*
X10848Y78100D01*
X10802Y77998D01*
X10746Y77892D01*
X10683Y77790D01*
X10611Y77689D01*
X10522Y77591D01*
X10424Y77498D01*
X10416Y77494D01*
X10399Y77477D01*
X10365Y77455D01*
X10318Y77421D01*
X10255Y77388D01*
X10178Y77345D01*
X10089Y77303D01*
X9983Y77260D01*
X9865Y77214D01*
X9729Y77171D01*
X9576Y77129D01*
X9411Y77095D01*
X9229Y77061D01*
X9029Y77040D01*
X8813Y77023D01*
X8699Y77019D01*
X8580D01*
X8576D01*
X8563D01*
X8542D01*
X8516D01*
X8482Y77023D01*
X8444D01*
X8398D01*
X8347Y77027D01*
X8287Y77031D01*
X8228Y77036D01*
X8160Y77040D01*
X8092Y77048D01*
X7940Y77061D01*
X7779Y77087D01*
X7609Y77112D01*
X7439Y77150D01*
X7265Y77192D01*
X7092Y77243D01*
X6926Y77303D01*
X6765Y77375D01*
X6621Y77455D01*
X6553Y77502D01*
X6490Y77549D01*
X6481Y77553D01*
X6464Y77570D01*
X6439Y77595D01*
X6401Y77634D01*
X6358Y77680D01*
X6312Y77735D01*
X6256Y77803D01*
X6205Y77879D01*
X6150Y77964D01*
X6100Y78057D01*
X6053Y78159D01*
X6010Y78269D01*
X5972Y78388D01*
X5947Y78515D01*
X5926Y78651D01*
X5921Y78795D01*
Y78850D01*
X5926Y78893D01*
X5930Y78944D01*
X5938Y79003D01*
X5951Y79067D01*
X5964Y79139D01*
X5981Y79211D01*
X6002Y79291D01*
X6027Y79368D01*
X6061Y79448D01*
X6100Y79529D01*
X6142Y79609D01*
X6193Y79686D01*
X6252Y79758D01*
X6256Y79762D01*
X6269Y79775D01*
X6286Y79792D01*
X6312Y79817D01*
X6345Y79847D01*
X6388Y79881D01*
X6435Y79915D01*
X6485Y79953D01*
X6549Y79991D01*
X6617Y80033D01*
X6689Y80067D01*
X6769Y80105D01*
X6859Y80139D01*
X6952Y80165D01*
X7049Y80190D01*
X7155Y80207D01*
X7202Y79601D01*
X7198D01*
X7185Y79597D01*
X7168Y79592D01*
X7142Y79584D01*
X7113Y79575D01*
X7079Y79567D01*
X7003Y79541D01*
X6918Y79508D01*
X6833Y79465D01*
X6752Y79418D01*
X6718Y79393D01*
X6685Y79368D01*
X6680Y79363D01*
X6672Y79355D01*
X6659Y79342D01*
X6642Y79325D01*
X6625Y79300D01*
X6600Y79270D01*
X6579Y79236D01*
X6553Y79198D01*
X6506Y79113D01*
X6464Y79007D01*
X6447Y78952D01*
X6435Y78893D01*
X6426Y78829D01*
X6422Y78761D01*
Y78732D01*
X6426Y78710D01*
Y78685D01*
X6430Y78655D01*
X6443Y78588D01*
X6460Y78507D01*
X6490Y78422D01*
X6532Y78333D01*
X6587Y78248D01*
X6591Y78244D01*
X6596Y78236D01*
X6608Y78219D01*
X6625Y78202D01*
X6646Y78176D01*
X6676Y78146D01*
X6706Y78117D01*
X6740Y78083D01*
X6782Y78049D01*
X6829Y78011D01*
X6880Y77973D01*
X6935Y77934D01*
X6994Y77896D01*
X7058Y77862D01*
X7130Y77829D01*
X7202Y77795D01*
X7206D01*
X7219Y77786D01*
X7244Y77778D01*
X7278Y77769D01*
X7316Y77756D01*
X7367Y77744D01*
X7427Y77727D01*
X7495Y77710D01*
X7571Y77697D01*
X7660Y77680D01*
X7753Y77667D01*
X7855Y77655D01*
X7965Y77642D01*
X8084Y77634D01*
X8211Y77629D01*
X8347Y77625D01*
X8343Y77629D01*
X8330Y77634D01*
X8313Y77646D01*
X8292Y77663D01*
X8262Y77684D01*
X8232Y77710D01*
X8160Y77773D01*
X8080Y77850D01*
X7995Y77943D01*
X7919Y78045D01*
X7851Y78159D01*
Y78163D01*
X7842Y78172D01*
X7834Y78193D01*
X7825Y78214D01*
X7812Y78244D01*
X7800Y78278D01*
X7783Y78320D01*
X7766Y78363D01*
X7736Y78465D01*
X7711Y78579D01*
X7694Y78702D01*
X7685Y78829D01*
Y78855D01*
X7689Y78888D01*
X7694Y78931D01*
X7698Y78982D01*
X7711Y79045D01*
X7723Y79113D01*
X7740Y79185D01*
X7766Y79266D01*
X7796Y79346D01*
X7829Y79435D01*
X7876Y79520D01*
X7927Y79609D01*
X7986Y79698D01*
X8054Y79783D01*
X8135Y79864D01*
X8139Y79868D01*
X8156Y79881D01*
X8181Y79902D01*
X8215Y79932D01*
X8262Y79966D01*
X8313Y79999D01*
X8376Y80042D01*
X8449Y80080D01*
X8529Y80122D01*
X8614Y80160D01*
X8711Y80194D01*
X8813Y80228D01*
X8923Y80258D01*
X9038Y80279D01*
X9161Y80292D01*
X9292Y80296D01*
X9296D01*
X9313D01*
X9339D01*
X9373Y80292D01*
D02*
G37*
%LPC*%
G36*
X9330Y79669D02*
X9326D01*
X9309D01*
X9279D01*
X9246Y79664D01*
X9203Y79660D01*
X9152Y79656D01*
X9097Y79647D01*
X9038Y79635D01*
X8906Y79601D01*
X8839Y79580D01*
X8771Y79554D01*
X8707Y79520D01*
X8639Y79482D01*
X8580Y79440D01*
X8521Y79393D01*
X8516Y79389D01*
X8508Y79380D01*
X8495Y79363D01*
X8474Y79342D01*
X8453Y79317D01*
X8427Y79287D01*
X8398Y79249D01*
X8372Y79207D01*
X8343Y79156D01*
X8317Y79105D01*
X8292Y79050D01*
X8270Y78986D01*
X8249Y78922D01*
X8236Y78850D01*
X8228Y78778D01*
X8224Y78702D01*
Y78664D01*
X8228Y78634D01*
X8232Y78596D01*
X8241Y78558D01*
X8249Y78511D01*
X8262Y78460D01*
X8275Y78405D01*
X8296Y78350D01*
X8321Y78291D01*
X8347Y78236D01*
X8385Y78176D01*
X8423Y78117D01*
X8470Y78057D01*
X8521Y78002D01*
X8525Y77998D01*
X8533Y77990D01*
X8550Y77977D01*
X8576Y77960D01*
X8605Y77934D01*
X8639Y77913D01*
X8682Y77888D01*
X8728Y77862D01*
X8783Y77833D01*
X8839Y77807D01*
X8902Y77786D01*
X8974Y77765D01*
X9046Y77744D01*
X9127Y77731D01*
X9207Y77723D01*
X9296Y77718D01*
X9301D01*
X9309D01*
X9326D01*
X9352Y77723D01*
X9377D01*
X9411Y77727D01*
X9449Y77731D01*
X9487Y77735D01*
X9580Y77752D01*
X9682Y77773D01*
X9788Y77807D01*
X9899Y77850D01*
X9903D01*
X9911Y77854D01*
X9924Y77862D01*
X9945Y77875D01*
X9971Y77888D01*
X9996Y77905D01*
X10060Y77947D01*
X10132Y77998D01*
X10204Y78062D01*
X10272Y78134D01*
X10335Y78219D01*
Y78223D01*
X10340Y78231D01*
X10348Y78244D01*
X10356Y78261D01*
X10369Y78282D01*
X10382Y78308D01*
X10407Y78371D01*
X10437Y78448D01*
X10458Y78537D01*
X10475Y78630D01*
X10484Y78727D01*
Y78744D01*
X10479Y78766D01*
Y78791D01*
X10475Y78825D01*
X10467Y78863D01*
X10458Y78905D01*
X10446Y78956D01*
X10429Y79007D01*
X10407Y79058D01*
X10382Y79113D01*
X10352Y79168D01*
X10318Y79224D01*
X10276Y79283D01*
X10229Y79338D01*
X10174Y79389D01*
X10170Y79393D01*
X10161Y79402D01*
X10140Y79414D01*
X10119Y79431D01*
X10085Y79452D01*
X10047Y79478D01*
X10005Y79503D01*
X9954Y79529D01*
X9894Y79554D01*
X9831Y79580D01*
X9763Y79605D01*
X9686Y79626D01*
X9606Y79643D01*
X9521Y79656D01*
X9428Y79664D01*
X9330Y79669D01*
D02*
G37*
%LPD*%
D68*
X119095Y83661D02*
X123031D01*
X121063Y81693D02*
Y85630D01*
X112205Y13780D02*
X116142D01*
X114173Y11811D02*
X114173Y15748D01*
X62992Y19685D02*
X66929D01*
X64961Y17717D02*
Y21654D01*
X36417Y55929D02*
Y59866D01*
X34449Y57898D02*
X38386D01*
X28543Y37229D02*
Y41166D01*
X26575Y39197D02*
X30512D01*
X44291Y37229D02*
Y41166D01*
X42323Y39197D02*
X46260D01*
X71850Y77583D02*
X75787D01*
X73819Y75614D02*
Y79551D01*
X70866Y122047D02*
X74803D01*
X72835Y120079D02*
Y124016D01*
D70*
X4399Y23393D02*
Y23905D01*
X3399Y22905D02*
X4399Y23393D01*
X3399Y22905D02*
X3399Y13905D01*
X4698D01*
Y14704D01*
X12100D01*
Y13905D02*
Y14704D01*
Y13905D02*
X13399D01*
X13399Y22905D01*
X12399Y23393D02*
X13399Y22905D01*
X12399Y23393D02*
Y23905D01*
X7147Y17653D02*
X9651D01*
Y20157D01*
X7147D02*
X9651D01*
X7147Y17653D02*
Y20157D01*
X4399Y23905D02*
Y24417D01*
X12399Y23905D02*
Y24417D01*
X3399Y24905D02*
X4399Y24417D01*
X3399Y24905D02*
X3399Y32905D01*
X4399Y33393D01*
Y33905D01*
X12399Y24417D02*
X13399Y24905D01*
X13399Y32905D02*
X13399Y24905D01*
X12399Y33393D02*
X13399Y32905D01*
X12399Y33393D02*
Y33905D01*
X7147Y27653D02*
X9651D01*
Y30157D01*
X7147D02*
X9651D01*
X7147Y27653D02*
Y30157D01*
X3399Y34905D02*
X4399Y34417D01*
X3399Y34905D02*
X3399Y42905D01*
X4399Y43393D01*
Y43905D01*
X12399Y34417D02*
X13399Y34905D01*
X13399Y42905D02*
X13399Y34905D01*
X12399Y43393D02*
X13399Y42905D01*
X12399Y43393D02*
Y43905D01*
X4399Y33905D02*
Y34417D01*
X12399Y33905D02*
Y34417D01*
X7147Y37653D02*
X9651D01*
Y40157D01*
X7147D02*
X9651D01*
X7147Y37653D02*
Y40157D01*
X3399Y44905D02*
X4399Y44417D01*
X3399Y52905D02*
X3399Y44905D01*
X3399Y52905D02*
X4399Y53393D01*
Y53905D01*
X12399Y44417D02*
X13399Y44905D01*
X13399Y52905D01*
X12399Y53393D02*
X13399Y52905D01*
X12399Y53393D02*
Y53905D01*
X7147Y47653D02*
X9651D01*
Y50157D01*
X7147D02*
X9651D01*
X7147Y47653D02*
Y50157D01*
X4399Y43905D02*
Y44417D01*
X12399Y43905D02*
Y44417D01*
X3399Y54905D02*
X4399Y54417D01*
X3399Y62905D02*
X3399Y54905D01*
X3399Y62905D02*
X4399Y63393D01*
Y63905D01*
X12399Y54417D02*
X13399Y54905D01*
X13399Y62905D01*
X12399Y63393D02*
X13399Y62905D01*
X12399Y63393D02*
Y63905D01*
X7147Y57653D02*
X9651D01*
Y60157D01*
X7147D02*
X9651D01*
X7147Y57653D02*
Y60157D01*
X4399Y53905D02*
Y54417D01*
X12399Y53905D02*
Y54417D01*
X7147Y67653D02*
X9651D01*
Y70157D01*
X7147D02*
X9651D01*
X7147Y67653D02*
Y70157D01*
X12399Y63905D02*
Y64417D01*
X13399Y64905D01*
X13399Y73905D02*
X13399Y64905D01*
X3399Y73905D02*
X13399D01*
X3399Y64905D02*
X3399Y73905D01*
X3399Y64905D02*
X4399Y64417D01*
Y63905D02*
Y64417D01*
M02*
